<?xml version="1.0" encoding="UTF-8" standalone="no"?>
<!DOCTYPE svg PUBLIC "-//W3C//DTD SVG 20010904//EN" "http://www.w3.org/TR/2001/REC-SVG-20010904/DTD/svg10.dtd">
<svg version="1.0" xmlns="http://www.w3.org/2000/svg" width="10827.000000pt" height="8070.000000pt" viewBox="0 0 10827.000000 8070.000000" preserveAspectRatio="xMidYMid meet">
<metadata>
Created by potrace 1.16, written by Peter Selinger 2001-2019
</metadata>
<g transform="translate(0.000000,8070.000000) scale(0.100000,-0.100000)" fill="#000000" stroke="none">
<path d="M53555 71889 c-82 -5 -233 -18 -335 -30 -102 -11 -232 -24 -290 -29 -58 -5 -118 -13 -133 -19 -26 -10 -100 -30 -493 -131 -61 -16 -173 -38 -250 -50 -76 -11 -204 -36 -284 -55 -161 -37 -301 -59 -495 -75 -154 -13 -293 -43 -545 -115 -102 -29 -227 -64 -277 -79 -141 -39 -306 -127 -503 -265 -52 -37 -132 -89 -177 -116 -45 -26 -116 -76 -159 -111 -42 -35 -177 -131 -298 -214 -348 -237 -481 -333 -611 -434 -66 -53 -183 -142 -260 -199 -77 -58 -176 -136 -220 -174 -44 -37 -100 -84 -125 -103 -56 -43 -254 -207 -380 -315 -52 -45 -140 -115 -195 -155 -111 -81 -205 -167 -237 -219 -12 -19 -77 -88 -145 -155 -199 -192 -260 -288 -290 -450 -18 -97 -23 -106 -223 -331 -54 -60 -108 -122 -121 -138 -13 -15 -45 -42 -71 -60 -99 -68 -245 -182 -292 -226 -46 -44 -183 -221 -242 -312 -16 -24 -58 -87 -95 -139 -152 -217 -222 -363 -300 -629 -53 -181 -56 -232 -29 -420 12 -84 19 -167 16 -184 -4 -17 -29 -80 -57 -139 -30 -65 -58 -146 -70 -200 -11 -51 -33 -122 -50 -159 -16 -37 -29 -70 -29 -73 0 -12 19 -6 22 7 14 56 250 462 338 583 62 85 84 143 99 259 7 50 35 167 62 260 28 94 60 217 71 274 22 118 43 170 120 296 30 50 68 120 85 156 17 37 58 108 92 158 53 78 80 106 180 186 69 55 151 109 194 130 58 28 86 49 123 93 87 104 228 243 330 328 111 91 131 123 154 239 25 129 51 193 130 326 44 74 85 152 91 174 6 22 18 55 27 74 16 34 276 270 511 464 58 49 144 125 192 170 86 83 436 346 558 420 36 22 109 73 161 112 133 100 217 155 430 280 102 59 244 147 315 195 72 48 191 120 265 160 73 39 188 109 254 155 222 152 352 218 531 271 50 14 169 56 265 91 196 73 302 101 502 132 77 12 209 43 300 70 188 56 230 65 391 86 135 18 483 94 590 129 40 14 104 36 142 49 100 36 283 48 817 54 449 5 612 0 933 -33 503 -50 1082 -179 1507 -334 45 -17 87 -30 94 -30 9 0 7 15 -7 50 -10 28 -20 53 -20 58 -3 15 -11 37 -18 52 -11 20 -289 109 -532 170 -658 165 -1335 228 -2034 189z"/>
<path d="M56212 71440 c10 -6 183 -75 385 -154 702 -274 835 -346 1095 -592 78 -74 188 -169 243 -211 127 -97 152 -120 235 -219 38 -45 113 -118 167 -162 54 -45 131 -118 171 -161 74 -82 154 -137 308 -214 64 -32 77 -44 132 -120 65 -92 247 -313 321 -390 25 -27 87 -83 136 -124 108 -91 366 -352 472 -478 42 -49 118 -133 169 -185 75 -77 105 -118 159 -215 37 -66 103 -169 147 -228 93 -127 127 -196 159 -327 l23 -94 18 109 c25 145 27 340 5 422 -9 34 -51 131 -93 215 -75 150 -79 156 -193 273 -65 66 -151 158 -191 205 -68 79 -112 126 -332 350 -46 47 -124 122 -174 167 -83 75 -266 283 -385 438 -114 148 -206 203 -389 235 -80 14 -108 31 -188 114 -34 36 -97 93 -140 127 -42 35 -126 110 -187 168 -66 64 -160 141 -235 191 -68 47 -183 132 -255 189 -160 127 -245 185 -366 250 -225 119 -618 264 -998 368 -113 30 -213 58 -221 60 -10 3 -9 1 2 -7z"/>
<path d="M53604 69684 c-17 -8 -55 -40 -85 -71 -38 -40 -45 -51 -24 -38 47 31 117 65 131 65 41 0 107 -143 159 -343 49 -191 66 -333 72 -577 6 -245 -9 -420 -57 -679 -50 -269 -79 -457 -84 -553 l-5 -93 14 120 c23 185 50 325 125 640 80 337 96 419 110 572 34 369 -100 880 -251 958 -36 19 -66 19 -105 -1z"/>
<path d="M53343 69578 c-107 -165 -197 -366 -272 -605 -78 -248 -98 -333 -301 -1233 -95 -423 -167 -818 -187 -1030 l-8 -84 -48 -30 c-57 -35 -110 -44 -191 -34 -73 10 -148 50 -191 103 -54 66 -241 599 -390 1113 -162 559 -277 848 -426 1069 -170 251 -358 312 -503 164 -51 -52 -59 -98 -39 -216 17 -100 82 -331 115 -407 14 -34 28 -50 45 -54 39 -10 49 8 35 62 -7 26 -11 49 -8 51 2 2 21 0 43 -6 112 -31 243 16 243 88 0 51 -15 57 -55 23 -19 -18 -51 -38 -69 -46 -35 -15 -174 -42 -179 -35 -12 15 -110 304 -128 378 -21 88 -21 92 -4 111 26 28 96 60 134 60 52 0 101 -28 171 -100 80 -79 167 -207 242 -355 109 -214 175 -397 338 -941 96 -319 161 -513 250 -734 44 -112 225 -490 234 -490 3 0 3 7 -1 16 -7 19 -8 19 72 -21 53 -26 70 -30 145 -30 68 1 93 5 127 23 23 12 44 22 47 22 2 0 7 -26 11 -57 3 -32 9 -66 13 -77 9 -22 54 200 112 549 63 374 165 874 361 1760 117 530 181 745 303 1028 9 20 14 37 11 37 -3 0 -26 -33 -52 -72z"/>
<path d="M53328 69333 c-36 -42 -51 -89 -56 -181 -5 -107 1 -120 74 -148 58 -22 163 -16 201 12 40 30 67 90 71 161 5 77 -9 82 -39 14 -31 -73 -60 -96 -119 -95 -72 3 -102 21 -113 69 -9 41 -4 137 8 168 4 9 3 17 -2 17 -6 0 -17 -8 -25 -17z"/>
<path d="M49740 69121 c-57 -18 -114 -55 -173 -114 -140 -137 -248 -303 -262 -401 -5 -30 0 -61 19 -116 13 -41 25 -69 25 -62 1 8 18 44 40 80 21 37 80 146 131 242 141 265 183 326 255 363 23 13 25 16 10 16 -11 -1 -31 -4 -45 -8z"/>
<path d="M55113 69030 c-29 -17 -53 -28 -53 -25 0 4 -36 -37 -79 -89 -248 -298 -399 -525 -556 -831 -116 -228 -208 -473 -289 -775 -57 -209 -50 -205 23 10 151 449 275 692 631 1235 97 149 186 286 198 306 37 61 189 117 242 89 20 -11 22 -17 16 -59 -3 -25 -20 -92 -38 -149 -29 -93 -34 -103 -52 -97 -12 3 -47 11 -79 17 -48 10 -60 9 -67 -2 -14 -22 0 -39 39 -49 127 -33 130 -34 148 -20 21 18 59 99 75 161 6 26 15 48 19 48 14 0 22 -175 16 -330 -16 -398 -84 -776 -217 -1215 -110 -358 -140 -469 -174 -638 -20 -95 -36 -180 -36 -188 1 -18 117 264 181 441 28 74 88 259 134 410 212 694 260 927 259 1275 -1 209 -14 296 -57 381 -63 123 -171 159 -284 94z"/>
<path d="M50747 68795 c-3 -11 -11 -85 -17 -165 -38 -550 37 -1249 192 -1770 41 -140 88 -262 197 -518 157 -370 233 -643 286 -1033 l18 -126 -88 -159 c-237 -429 -568 -851 -730 -930 -54 -26 -70 -29 -160 -29 -93 0 -105 3 -173 34 -39 19 -77 40 -83 47 -6 8 -16 14 -22 14 -20 0 57 -71 108 -99 234 -132 470 -64 755 219 275 273 440 592 526 1020 19 96 38 186 41 200 3 14 -17 -20 -45 -75 -57 -115 -52 -119 -77 68 -9 65 -27 161 -41 213 -39 151 -146 464 -219 639 -204 490 -279 739 -349 1160 -46 279 -69 517 -86 915 -13 294 -23 404 -33 375z"/>
<path d="M57113 68704 c-14 -14 -35 -29 -47 -34 -15 -6 -16 -9 -5 -9 12 -1 18 -16 23 -63 12 -122 87 -230 197 -285 82 -40 176 -83 184 -83 4 0 -4 15 -17 33 -42 55 -147 267 -169 340 -35 119 -105 161 -166 101z"/>
<path d="M60824 68402 c-42 -20 -114 -78 -114 -92 0 -5 23 7 50 25 87 58 145 56 193 -7 33 -43 91 -160 133 -268 167 -434 402 -855 739 -1329 119 -168 338 -443 390 -491 15 -14 -44 83 -132 215 -213 320 -336 519 -475 765 -157 278 -418 801 -418 836 0 31 95 35 142 5 64 -39 105 -105 191 -308 109 -255 185 -366 342 -503 l103 -90 -62 143 c-35 78 -85 183 -113 232 -27 50 -91 173 -141 275 -68 139 -104 200 -143 244 -93 103 -197 132 -293 81 -26 -14 -50 -25 -54 -25 -4 0 -25 34 -46 76 -99 193 -192 262 -292 216z"/>
<path d="M60656 68283 c-14 -90 -18 -394 -7 -504 46 -448 221 -850 478 -1105 53 -52 97 -93 99 -91 10 9 -55 144 -209 437 -209 397 -323 788 -342 1175 -4 66 -8 121 -10 123 -1 2 -5 -14 -9 -35z"/>
<path d="M56247 67885 c-141 -52 -343 -279 -697 -785 -381 -544 -638 -853 -754 -906 -58 -27 -81 -24 -90 9 -10 37 -7 47 20 72 l26 24 -26 7 c-32 8 -73 -17 -86 -52 -28 -74 7 -150 80 -173 94 -30 207 20 339 149 222 218 630 797 798 1134 30 61 57 113 59 115 2 2 14 -7 26 -20 21 -21 45 -34 166 -85 69 -29 96 -14 145 83 20 38 27 68 27 107 0 66 -15 81 -29 28 -12 -44 -70 -116 -112 -137 -34 -18 -68 -18 -134 -1 -64 17 -79 48 -50 102 32 59 236 182 328 198 35 7 42 4 71 -27 67 -71 113 -275 103 -460 -12 -229 -95 -462 -276 -769 -252 -428 -291 -489 -291 -466 0 10 11 48 25 84 14 37 23 69 21 71 -6 6 -76 -100 -124 -187 -108 -198 -225 -524 -287 -799 -54 -239 -128 -721 -175 -1146 -37 -331 -58 -462 -105 -648 -48 -189 -110 -371 -219 -642 -106 -261 -166 -439 -181 -530 -55 -350 -60 -419 -60 -865 0 -410 6 -520 46 -870 59 -513 130 -924 398 -2285 218 -1114 290 -1531 360 -2095 77 -619 102 -997 102 -1580 0 -629 -35 -1101 -127 -1710 -52 -347 -78 -497 -244 -1385 -16 -88 -39 -200 -51 -248 -12 -48 -20 -90 -17 -92 7 -7 128 326 193 530 87 277 135 454 199 743 253 1137 317 2311 190 3492 -62 584 -163 1150 -419 2350 -300 1406 -403 2001 -462 2655 -22 252 -25 996 -5 1200 26 261 39 325 78 385 116 181 317 694 389 992 35 148 61 318 90 603 32 306 53 464 111 845 76 499 102 621 190 900 l46 145 132 130 c283 279 499 674 587 1070 29 127 36 374 15 473 -28 133 -83 225 -157 262 -45 23 -126 25 -182 5z"/>
<path d="M60391 67578 l-12 -83 65 -138 c112 -235 218 -478 257 -587 21 -58 38 -100 38 -93 1 23 -69 307 -96 388 -84 256 -217 595 -233 595 -4 0 -12 -37 -19 -82z"/>
<path d="M57975 67050 c-117 -11 -178 -36 -283 -115 -69 -52 -112 -107 -112 -142 0 -26 32 -63 55 -63 9 0 68 49 133 109 64 59 135 118 157 130 55 29 129 29 153 -1 9 -12 29 -34 44 -50 68 -72 158 8 97 86 -44 55 -76 61 -244 46z"/>
<path d="M53668 66838 c-54 -82 -95 -231 -83 -298 10 -52 49 -98 95 -110 34 -9 47 -8 85 9 78 35 143 166 149 301 l4 77 -23 -21 c-83 -76 -111 -107 -147 -159 -37 -54 -42 -58 -52 -41 -6 11 -11 71 -11 141 0 68 -1 123 -1 123 -1 0 -8 -10 -16 -22z"/>
<path d="M61250 66663 c30 -106 52 -167 125 -333 72 -163 272 -565 319 -638 15 -24 26 -47 24 -52 -4 -13 -235 200 -335 310 -47 52 -102 120 -121 150 -125 197 -175 263 -267 355 -231 231 -362 272 -513 161 -95 -70 -138 -185 -116 -313 l8 -48 7 74 c10 98 32 152 80 196 87 78 164 76 274 -8 136 -105 345 -281 345 -291 0 -21 78 -174 122 -239 229 -339 684 -718 1048 -873 41 -17 93 -39 115 -49 36 -15 32 -9 -50 67 -93 87 -205 185 -287 250 -32 27 -60 64 -93 125 -26 49 -140 243 -253 433 -226 381 -367 630 -409 727 -15 34 -31 63 -35 63 -4 0 2 -30 12 -67z"/>
<path d="M62400 66634 c0 -29 122 -248 214 -384 428 -632 467 -695 667 -1082 124 -242 215 -395 227 -383 8 8 -236 491 -361 714 -128 227 -192 330 -405 646 -352 521 -342 508 -342 489z"/>
<path d="M60459 66449 c-20 -38 -7 -147 27 -219 58 -124 194 -240 281 -240 36 0 38 2 23 29 -8 16 0 23 52 51 79 42 144 102 158 146 13 39 7 54 -19 47 -20 -5 -181 -165 -198 -198 -10 -18 -13 -17 -58 20 -108 88 -195 220 -217 330 -11 59 -29 71 -49 34z"/>
<path d="M39995 66194 c-171 -11 -253 -22 -860 -119 -227 -36 -366 -85 -656 -230 -269 -135 -380 -198 -449 -253 -95 -76 -195 -181 -267 -280 -82 -113 -167 -190 -266 -243 -83 -44 -579 -524 -671 -649 -149 -203 -451 -738 -509 -902 -10 -29 -2 -21 44 40 107 142 346 362 524 484 165 112 456 263 565 293 37 10 -68 -64 -170 -121 -192 -107 -305 -192 -494 -374 -320 -308 -575 -761 -687 -1215 -40 -162 -39 -268 2 -856 15 -218 32 -316 105 -592 101 -382 177 -587 288 -776 40 -69 113 -200 161 -291 48 -91 98 -181 110 -200 50 -80 139 -256 203 -401 38 -84 91 -189 118 -231 27 -42 87 -137 133 -210 123 -194 124 -195 173 -203 80 -14 199 -64 286 -122 102 -67 276 -237 414 -403 105 -126 271 -293 333 -332 268 -171 489 -290 725 -388 99 -42 138 -63 147 -81 7 -13 36 -76 64 -139 98 -220 240 -391 469 -569 182 -141 324 -226 454 -271 29 -10 73 -33 97 -51 25 -19 68 -45 96 -58 l52 -24 -52 -57 c-98 -105 -147 -243 -167 -462 -18 -200 9 -354 90 -504 21 -40 38 -82 38 -95 0 -13 8 -44 18 -69 17 -42 19 -95 25 -735 5 -574 8 -711 23 -815 29 -211 84 -549 110 -678 14 -67 35 -186 46 -264 28 -197 42 -250 104 -403 36 -86 68 -190 91 -292 84 -358 228 -754 366 -998 86 -152 252 -395 335 -491 82 -93 89 -106 150 -264 53 -138 62 -153 208 -348 266 -353 503 -621 890 -1007 1220 -1216 2710 -2230 4041 -2750 654 -256 1277 -414 1869 -476 l120 -13 115 -101 c64 -56 177 -155 251 -220 401 -352 690 -616 909 -830 243 -238 565 -589 641 -699 31 -46 31 -48 14 -74 -9 -15 -41 -51 -70 -81 -121 -121 -187 -305 -187 -521 0 -140 16 -207 83 -345 36 -75 63 -115 105 -157 l58 -57 -18 -85 c-15 -71 -17 -116 -12 -283 6 -213 15 -264 65 -380 75 -176 193 -326 292 -374 47 -22 50 -26 44 -54 -3 -16 -13 -66 -22 -110 -13 -66 -16 -138 -14 -422 l2 -341 -33 -20 c-18 -12 -43 -32 -56 -46 l-24 -26 -21 62 c-12 34 -26 63 -33 66 -15 4 -18 -3948 -3 -4443 14 -481 39 -1038 55 -1230 2 -33 9 -125 15 -205 66 -908 196 -1831 376 -2678 25 -119 54 -257 64 -305 13 -60 21 -155 25 -290 l7 -202 -35 -160 c-100 -455 -111 -560 -121 -1163 -2 -187 -4 -205 -24 -231 -11 -15 -25 -46 -31 -67 -6 -21 -37 -91 -69 -155 -32 -63 -69 -153 -82 -200 -28 -102 -37 -273 -21 -409 10 -89 8 -112 -29 -370 -101 -701 -137 -1237 -127 -1870 10 -584 52 -1005 153 -1525 42 -214 90 -420 140 -593 42 -146 42 -145 -11 -427 -39 -206 -88 -389 -140 -531 -82 -221 -262 -530 -444 -764 -249 -321 -537 -613 -1090 -1104 -678 -603 -945 -890 -1245 -1341 -455 -682 -754 -1445 -1025 -2611 -62 -268 -105 -467 -242 -1124 -119 -577 -281 -1280 -383 -1670 -30 -113 -79 -308 -110 -435 -81 -339 -273 -1005 -385 -1344 -55 -163 -142 -404 -195 -535 -53 -132 -95 -241 -93 -243 2 -2 41 77 87 174 109 235 422 855 414 823 -14 -61 -131 -417 -176 -540 -73 -195 -128 -320 -237 -540 -151 -301 -269 -504 -606 -1035 -340 -535 -601 -988 -801 -1387 -147 -294 -240 -447 -301 -497 -318 -258 -329 -273 -428 -631 -34 -123 -48 -237 -40 -327 7 -67 5 -77 -33 -175 -134 -342 -200 -606 -218 -863 -12 -182 13 -281 136 -550 96 -209 130 -293 186 -460 24 -73 48 -129 54 -127 13 3 11 -12 -26 -248 -34 -211 -41 -401 -20 -557 9 -67 16 -159 16 -205 0 -205 74 -464 192 -671 80 -140 158 -237 342 -426 94 -97 178 -191 186 -209 11 -28 11 -52 1 -140 -18 -159 -8 -193 99 -330 83 -108 142 -151 255 -189 69 -23 97 -27 205 -28 106 0 132 3 170 21 81 38 127 87 143 155 l7 26 -63 -14 c-85 -17 -136 -16 -272 7 -176 30 -233 62 -322 182 l-35 48 7 123 c12 208 -8 247 -264 507 -169 171 -248 264 -327 385 -128 198 -207 403 -244 638 l-11 68 68 130 67 131 -12 121 c-15 159 -57 401 -86 502 -15 49 -20 86 -15 96 11 22 59 71 87 89 l23 15 -47 110 c-25 61 -92 206 -150 323 -129 264 -145 309 -151 438 -8 151 7 277 94 771 3 18 9 33 13 33 4 0 23 -37 44 -82 84 -190 186 -324 287 -378 61 -33 69 -35 161 -35 54 0 98 1 98 3 0 1 -7 14 -16 27 -10 16 -14 36 -11 54 13 61 -21 163 -118 361 -52 107 -102 222 -110 255 -19 75 -19 234 0 305 29 110 83 198 189 307 55 56 112 121 129 145 42 62 264 508 405 813 194 421 357 739 721 1410 338 620 502 979 629 1375 56 175 74 244 132 500 75 338 82 358 240 715 314 707 439 1042 650 1740 67 223 231 870 319 1260 150 664 268 1139 372 1490 282 952 640 1650 1148 2240 137 159 339 362 741 745 384 365 569 554 749 765 468 546 699 1034 775 1633 9 68 16 140 16 160 0 22 4 32 9 26 5 -5 41 -90 81 -189 81 -202 245 -546 340 -711 701 -1219 1696 -1972 2910 -2203 241 -45 362 -55 685 -56 171 0 348 2 395 5 l85 5 3 -50 c1 -27 9 -120 17 -206 21 -225 20 -265 -16 -392 -24 -84 -30 -121 -26 -158 8 -65 50 -16 -524 -619 -823 -866 -1304 -1413 -1950 -2215 -1138 -1413 -2740 -3617 -3531 -4855 -618 -969 -1103 -1878 -1343 -2520 -32 -85 -60 -157 -62 -159 -12 -16 -8 26 18 179 35 204 53 278 81 334 l20 41 -25 -23 c-97 -90 -235 -535 -316 -1017 -104 -619 -130 -1404 -65 -1910 47 -369 141 -688 294 -1000 90 -185 182 -333 370 -600 230 -326 290 -424 290 -471 0 -46 12 -60 80 -94 164 -82 611 -460 595 -502 -5 -12 12 -31 57 -67 107 -86 207 -207 238 -288 l17 -45 7 33 6 34 31 -45 c105 -156 151 -306 152 -495 0 -199 -34 -336 -148 -590 -34 -77 -67 -155 -73 -173 -26 -78 -68 -108 -207 -152 -108 -34 -222 -50 -365 -50 -223 0 -397 41 -583 137 -277 143 -456 387 -530 723 -19 83 -21 128 -22 355 0 214 3 275 18 344 26 118 62 204 108 251 45 46 35 54 -14 10 -65 -57 -123 -194 -161 -382 l-22 -108 -52 158 c-89 269 -198 494 -352 726 -192 290 -466 572 -584 602 -22 5 -26 3 -26 -14 0 -22 65 -110 273 -368 293 -364 491 -711 618 -1084 73 -212 99 -320 99 -409 0 -42 7 -119 14 -171 13 -83 13 -101 -1 -153 -15 -62 -12 -104 20 -222 8 -27 17 -68 20 -90 l7 -41 -45 -10 -45 -10 0 42 0 42 -28 -27 c-33 -33 -116 -66 -208 -82 -76 -13 -221 -7 -256 12 -58 30 -198 143 -202 163 -2 11 -13 71 -25 131 -58 315 -344 1003 -612 1470 -181 317 -497 770 -499 715 0 -9 16 -49 35 -89 20 -41 34 -75 32 -77 -2 -2 -20 1 -41 7 -68 19 -137 -21 -149 -87 l-6 -30 95 12 c52 7 104 18 116 26 21 14 25 11 114 -143 287 -492 445 -817 580 -1199 86 -241 128 -407 164 -649 13 -85 30 -161 41 -183 21 -42 194 -218 249 -254 60 -39 144 -57 265 -57 158 1 233 34 292 126 15 23 29 44 31 47 2 3 8 -3 13 -13 13 -23 75 -53 127 -61 50 -7 168 17 194 41 16 14 22 11 85 -47 160 -148 373 -254 615 -307 112 -24 400 -25 505 -1 173 40 335 129 442 243 74 80 142 210 182 350 l8 30 -22 -30 c-12 -16 -37 -46 -56 -65 l-33 -35 22 35 c127 204 175 466 134 738 -35 236 -117 417 -259 570 -46 50 -55 66 -55 97 0 51 -26 146 -61 223 -90 199 -328 422 -557 523 l-68 30 -114 180 c-63 99 -157 239 -209 312 -324 458 -454 692 -563 1007 -134 392 -192 795 -204 1425 -9 419 17 1010 55 1298 16 116 163 408 494 982 704 1221 1681 2648 3187 4655 163 218 330 439 371 492 41 53 130 170 199 259 598 785 1224 1563 1764 2194 417 487 657 754 1201 1335 188 201 358 384 378 406 28 32 46 43 77 47 109 14 185 88 270 262 63 127 86 219 107 419 18 179 11 265 -28 357 -13 29 -18 53 -13 58 5 4 50 18 99 31 1034 264 1987 969 2812 2080 540 727 1023 1623 1356 2510 149 398 323 950 397 1255 124 514 245 1169 300 1625 6 52 27 165 46 251 41 189 91 462 136 742 18 114 36 207 39 207 3 0 23 -66 44 -147 234 -921 796 -2237 1368 -3208 305 -517 580 -906 922 -1305 l90 -105 -1 -150 c-1 -299 -71 -500 -279 -810 -55 -82 -249 -348 -430 -590 -1006 -1342 -1352 -1920 -1595 -2665 -359 -1098 -371 -2473 -39 -4465 67 -405 79 -470 161 -840 l70 -320 -6 -188 c-20 -616 -94 -1265 -227 -1987 -103 -557 -321 -1393 -542 -2075 -41 -126 -92 -286 -112 -355 -20 -69 -72 -240 -115 -380 -42 -140 -105 -354 -140 -475 -85 -299 -163 -535 -249 -750 -62 -157 -79 -190 -132 -255 -119 -146 -161 -280 -139 -441 43 -319 262 -596 605 -767 509 -253 1455 -288 2655 -96 528 84 982 183 1615 354 83 22 261 65 396 95 l247 55 288 -65 c159 -35 399 -94 534 -130 815 -218 1081 -280 1430 -329 760 -108 1276 -77 1748 105 262 102 562 269 700 392 l52 46 52 -18 c163 -56 397 -95 664 -112 252 -16 848 -6 974 15 207 36 404 125 574 260 114 91 258 303 306 451 13 39 31 87 42 108 11 22 18 41 16 43 -3 2 -24 -17 -49 -43 -24 -25 -62 -60 -85 -77 -23 -17 -110 -83 -195 -147 -237 -179 -349 -246 -494 -296 -145 -50 -205 -53 -967 -53 -390 0 -708 4 -708 8 0 10 93 169 105 180 9 8 2 -33 -11 -63 -6 -14 3 -10 34 15 59 50 109 149 122 244 23 163 -31 365 -122 456 -33 32 -44 54 -60 117 -23 89 -41 128 -63 137 -24 9 -54 -11 -62 -42 -5 -15 -7 -158 -5 -317 2 -203 -2 -341 -13 -458 -8 -92 -15 -172 -15 -177 0 -5 -25 -27 -57 -47 -43 -29 -69 -39 -112 -43 -37 -3 -55 -9 -53 -18 1 -6 3 -17 5 -24 6 -30 -427 -264 -643 -348 -204 -79 -434 -136 -645 -160 -134 -15 -480 -12 -661 5 -372 35 -735 108 -1294 260 -338 91 -657 171 -790 195 -166 32 -417 38 -547 15 -111 -20 -143 -30 -143 -45 0 -5 18 -13 40 -16 22 -4 43 -11 46 -15 3 -5 4 -9 2 -9 -2 0 -66 -9 -143 -20 -161 -22 -366 -43 -645 -65 -107 -9 -233 -20 -280 -25 -47 -5 -204 -21 -350 -35 -146 -14 -355 -36 -465 -50 -275 -34 -942 -101 -1215 -122 -316 -24 -927 -25 -1129 0 -454 55 -717 159 -908 360 -128 135 -201 290 -211 447 -8 145 37 269 158 438 32 45 57 82 54 82 -3 0 -26 -21 -50 -47 l-45 -48 15 36 c7 20 99 202 203 405 269 526 336 670 477 1019 257 640 467 1396 630 2263 109 582 187 1273 215 1916 6 120 12 220 13 222 2 2 28 -81 58 -184 29 -103 101 -331 158 -507 120 -365 106 -355 141 -90 11 83 18 164 15 180 -12 85 -48 390 -73 630 -28 254 -72 593 -176 1340 -192 1385 -257 2099 -257 2845 -1 634 44 1057 162 1535 173 700 444 1229 1184 2310 364 532 613 907 686 1035 198 346 274 580 287 882 l6 147 121 -114 c252 -236 471 -407 724 -565 286 -178 588 -329 777 -390 335 -106 682 -188 916 -214 l126 -14 139 -78 c270 -151 482 -234 786 -309 429 -106 767 -122 1128 -54 199 38 433 114 581 190 23 11 43 19 45 16 2 -2 -46 -107 -107 -233 -105 -215 -173 -360 -409 -869 -54 -115 -136 -291 -183 -390 -150 -318 -317 -676 -387 -825 -37 -80 -157 -334 -267 -565 -110 -231 -255 -535 -321 -675 -66 -140 -161 -340 -212 -445 -51 -104 -208 -431 -350 -725 -654 -1355 -1323 -2695 -1765 -3530 -51 -96 -179 -338 -285 -538 -105 -200 -200 -383 -211 -407 -14 -33 -24 -100 -38 -272 -25 -287 -35 -453 -28 -453 3 0 43 64 90 143 47 78 93 151 102 162 19 23 20 39 -16 -200 -54 -362 -46 -672 27 -1020 112 -530 443 -1087 814 -1368 41 -31 280 -163 280 -154 0 2 -29 27 -65 55 -134 108 -422 510 -582 812 -309 587 -397 1138 -303 1900 40 320 27 284 216 608 92 158 188 323 214 367 124 210 516 910 705 1259 501 929 1053 2047 1447 2931 535 1200 921 2163 1458 3635 126 345 308 840 320 867 5 11 55 53 112 91 603 411 1018 1103 1182 1973 108 567 109 1243 6 1972 -118 825 -339 1693 -657 2587 -349 977 -776 1853 -1188 2435 -39 55 -74 106 -78 112 -5 7 -17 115 -27 240 -24 283 -34 365 -71 623 -139 959 -329 1673 -655 2456 l-84 201 -15 149 c-20 192 -22 201 -24 76 0 -57 -5 -102 -9 -100 -5 2 -81 145 -169 318 -382 753 -764 1347 -1663 2585 -815 1123 -1100 1526 -1496 2115 -277 414 -364 548 -616 949 -248 395 -693 1131 -686 1136 2 1 20 11 40 24 64 38 179 171 227 262 l45 83 20 -49 c37 -92 207 -427 293 -579 391 -690 1115 -1807 1637 -2526 185 -255 620 -832 700 -928 165 -200 681 -837 806 -996 197 -251 200 -254 96 -101 -53 77 -270 401 -483 720 -214 319 -494 733 -623 921 -129 188 -297 431 -372 540 -75 109 -182 264 -239 344 -643 910 -1373 2033 -1684 2588 l-103 182 24 83 c156 532 71 1124 -224 1562 -69 103 -189 240 -277 316 -223 195 -545 384 -782 461 -93 30 -93 30 -127 87 -19 31 -37 76 -41 101 -27 163 -122 324 -267 451 -34 30 -117 98 -183 150 -116 92 -118 94 -90 100 28 6 28 7 -9 8 -31 1 -56 14 -131 70 -245 184 -304 210 -356 157 l-26 -26 -78 168 c-42 92 -135 281 -205 420 -70 139 -125 254 -121 256 7 4 487 110 554 122 21 3 36 8 34 11 -2 2 -132 -15 -288 -37 -156 -23 -297 -40 -314 -38 -26 3 -35 13 -78 93 -201 375 -542 948 -805 1355 -277 428 -297 461 -346 570 -197 434 -744 1388 -1059 1845 -268 389 -475 633 -942 1115 -479 494 -655 727 -796 1055 -28 66 -113 305 -189 530 -141 420 -215 618 -294 789 -25 53 -43 96 -41 96 2 0 43 -27 92 -59 356 -239 756 -380 1153 -406 57 -3 106 -8 108 -9 1 -2 -5 -31 -14 -65 -18 -65 -16 -78 13 -66 12 5 14 9 6 12 -18 6 -16 24 7 77 18 43 22 46 57 47 l38 1 -30 10 c-16 6 -31 12 -33 13 -7 6 112 232 190 363 276 464 529 804 1324 1777 313 384 435 538 567 717 244 333 361 568 387 784 12 90 19 111 75 224 111 222 236 533 364 900 168 486 282 930 368 1433 20 119 39 217 42 217 3 0 16 -36 28 -79 65 -232 163 -392 227 -368 15 6 15 9 1 37 -35 68 -98 358 -131 602 -21 156 -30 592 -15 743 14 143 44 329 72 440 72 289 255 753 366 928 13 21 23 41 20 43 -6 7 -174 -172 -248 -264 -114 -142 -230 -373 -289 -576 -115 -396 -137 -800 -69 -1276 l22 -149 -33 -133 c-18 -73 -57 -212 -86 -308 -58 -190 -158 -483 -148 -435 3 17 19 92 35 167 16 76 29 150 29 165 0 16 -47 -93 -104 -242 -132 -345 -180 -453 -310 -712 -141 -280 -394 -693 -577 -942 -19 -26 -19 -26 5 -86 14 -33 32 -98 41 -145 10 -47 19 -86 20 -88 4 -5 201 299 258 399 97 169 182 339 263 521 42 98 79 176 81 175 4 -5 -169 -499 -262 -747 -42 -113 -105 -291 -140 -396 -34 -105 -68 -201 -75 -215 -17 -31 -188 -255 -207 -271 -8 -7 5 21 30 62 58 95 87 170 96 242 l7 57 -40 -22 c-53 -29 -399 -359 -490 -467 -64 -76 -81 -90 -168 -135 -53 -27 -115 -63 -139 -79 -59 -40 -204 -189 -322 -331 -141 -170 -157 -180 -397 -246 -80 -22 -183 -59 -230 -81 -75 -36 -99 -55 -210 -167 -69 -70 -169 -178 -222 -241 -54 -63 -119 -130 -146 -148 -136 -92 -490 -208 -906 -297 -67 -14 -138 -36 -164 -50 -25 -14 -47 -23 -49 -21 -3 2 -12 43 -21 91 -15 78 -18 86 -37 82 -11 -3 -73 -19 -139 -36 -65 -17 -188 -40 -273 -52 -208 -27 -243 -42 -243 -104 0 -66 81 -100 264 -111 82 -5 132 -1 266 20 91 15 176 31 190 36 16 7 59 7 122 1 113 -11 269 0 396 29 183 40 535 156 642 210 87 44 137 85 322 266 103 101 204 195 226 209 30 20 82 35 208 60 248 50 376 99 476 182 26 21 100 104 163 183 177 221 218 264 311 325 47 31 87 55 89 53 2 -2 -40 -59 -95 -127 -81 -102 -101 -135 -115 -185 -63 -225 -229 -438 -461 -592 -61 -40 -134 -132 -332 -416 -295 -423 -487 -779 -658 -1221 l-69 -178 -37 5 c-97 15 -505 157 -708 246 -226 99 -483 247 -688 397 -120 87 -121 87 -217 202 -62 73 -245 242 -245 226 0 -19 119 -240 160 -296 64 -88 136 -217 225 -402 131 -273 224 -530 351 -967 151 -521 216 -679 382 -920 136 -197 224 -298 641 -730 621 -644 815 -913 1526 -2115 81 -137 174 -293 205 -345 32 -52 108 -194 171 -315 62 -121 235 -440 384 -710 542 -978 722 -1311 712 -1321 -2 -2 -60 -11 -128 -19 -337 -40 -1479 -250 -1909 -350 -135 -31 -545 -133 -606 -151 -21 -5 -21 -3 -16 42 8 77 -8 80 -218 41 -47 -9 -126 -20 -176 -26 -99 -10 -132 -24 -140 -58 -9 -33 12 -59 68 -86 l52 -25 -69 -20 c-39 -12 -173 -51 -300 -87 -646 -186 -1556 -518 -2180 -795 -1523 -676 -2716 -1468 -3741 -2483 l-192 -189 -47 96 c-93 190 -286 457 -519 715 -327 364 -853 815 -1256 1077 l-75 49 35 3 c69 5 253 43 305 63 97 36 131 111 86 185 -40 66 -123 89 -801 224 -483 96 -760 157 -990 215 -96 25 -181 47 -188 50 -9 3 -1 22 26 62 51 76 142 229 142 238 0 4 -61 -54 -135 -129 -75 -75 -142 -136 -150 -136 -24 0 -330 95 -515 160 -860 302 -1700 739 -2570 1334 -999 685 -1890 1474 -2530 2241 -117 140 -166 219 -290 465 -110 220 -146 299 -268 595 -213 515 -348 1055 -392 1565 -13 159 -13 553 0 690 27 267 94 564 180 797 57 151 149 353 161 353 4 0 12 -7 17 -16 6 -12 28 -16 83 -18 56 -2 86 -9 125 -29 48 -24 134 -108 134 -130 0 -18 139 1 284 37 161 42 181 43 196 16 17 -32 26 -168 17 -270 -5 -52 -9 -151 -9 -220 -1 -106 2 -132 19 -170 43 -95 87 -112 308 -118 94 -2 168 -2 165 1 -3 2 -63 17 -135 32 -138 28 -201 51 -225 79 -12 16 -12 28 3 99 9 45 36 145 61 222 66 211 79 279 74 398 -3 84 -8 112 -30 159 -48 104 -167 195 -318 243 -30 10 -56 19 -58 20 -2 2 11 32 29 66 91 182 102 335 34 502 l-25 62 25 20 c13 11 38 28 54 38 l29 17 28 -57 c15 -32 27 -61 26 -64 0 -3 21 -11 48 -18 115 -29 200 57 200 201 l0 62 28 -33 c26 -31 30 -33 53 -21 13 7 43 30 66 51 31 28 52 39 75 40 32 0 32 0 8 10 -25 10 -25 11 -5 25 216 162 772 304 1525 389 317 36 482 42 546 22 216 -71 1282 -119 1629 -74 356 47 668 149 882 288 l62 40 20 -20 c53 -53 68 -56 351 -59 l264 -4 -61 -39 c-265 -168 -603 -307 -884 -363 -215 -43 -307 -50 -624 -50 -314 0 -469 12 -617 45 -48 10 -91 19 -95 19 -34 -1 637 -334 762 -379 335 -119 545 -151 1145 -171 279 -9 482 -25 508 -39 9 -5 -8 -20 -50 -45 -35 -20 -103 -66 -152 -102 -49 -37 -112 -74 -140 -84 -464 -159 -1180 -865 -1523 -1500 -286 -529 -408 -1146 -429 -2160 -14 -649 42 -1137 173 -1518 19 -57 33 -105 31 -107 -5 -5 -363 64 -673 130 -1046 221 -2064 548 -2549 817 -102 57 -179 107 -276 180 l-65 49 85 -83 c247 -240 765 -522 1390 -758 603 -228 1350 -437 2068 -579 84 -17 157 -33 163 -36 5 -4 32 -41 61 -83 162 -243 397 -458 612 -562 197 -95 369 -114 490 -53 42 22 125 101 157 152 39 61 86 109 158 160 61 44 111 94 142 140 l16 25 179 -13 c763 -53 1181 -65 1949 -58 336 4 711 11 835 17 386 17 1131 85 1385 126 319 51 787 137 1090 199 304 63 312 68 70 40 -192 -23 -626 -34 -1780 -47 -1984 -23 -3199 -16 -3635 22 -52 5 -149 11 -215 14 -66 3 -163 10 -215 16 -52 5 -105 10 -118 10 -28 0 -51 47 -110 230 -180 556 -273 1208 -259 1820 23 972 278 1877 705 2500 214 312 551 624 758 703 137 52 363 93 544 98 58 2 42 10 510 -247 53 -29 280 -132 317 -144 21 -7 73 -30 117 -52 l78 -39 -108 116 c-140 149 -268 261 -405 352 -60 40 -109 75 -109 77 0 3 13 18 29 34 58 57 62 143 15 269 -48 126 -81 171 -152 207 -52 27 -180 56 -242 56 -99 0 -279 -39 -445 -96 -88 -30 -168 -57 -178 -61 -12 -4 -17 -1 -15 8 2 10 -22 19 -82 31 -171 35 -307 41 -720 34 -503 -8 -683 5 -940 70 -94 24 -333 104 -328 110 2 1 66 -2 143 -7 332 -23 670 24 1020 145 277 94 519 212 732 354 79 52 84 54 113 42 17 -7 51 -33 75 -58 25 -25 45 -42 45 -38 0 4 -16 42 -36 86 l-36 79 42 48 c53 59 81 121 89 193 l6 55 34 -3 c31 -2 33 -1 26 20 -4 13 -11 52 -15 88 -5 36 -12 76 -16 89 l-7 25 39 -25 c137 -85 456 -251 608 -316 268 -115 550 -201 801 -242 138 -23 208 -40 255 -61 59 -26 228 -80 252 -80 6 0 26 -13 44 -30 19 -16 59 -37 90 -46 167 -48 300 109 213 252 -56 93 -187 105 -296 28 -40 -28 -57 -34 -100 -34 -30 0 -71 9 -100 21 -26 12 -79 32 -118 45 -38 13 -148 55 -245 94 -96 38 -250 98 -342 135 -890 349 -1596 820 -2314 1546 -165 167 -218 227 -242 274 -56 111 -164 237 -250 292 -54 35 -150 152 -195 237 l-21 41 -6 -30 -5 -30 -21 30 c-28 40 -167 272 -186 310 -9 17 -39 95 -67 174 -29 79 -98 243 -153 365 -89 198 -102 234 -124 346 -13 68 -37 174 -54 235 -27 103 -133 411 -145 423 -3 3 -5 -12 -6 -34 l-1 -39 -23 50 c-12 28 -35 115 -51 195 -24 119 -30 137 -32 100 -1 -25 -5 -52 -8 -60 -3 -9 -35 43 -78 125 -77 149 -139 257 -226 395 -35 56 -45 78 -29 64 46 -39 109 -75 109 -61 0 7 -13 80 -30 162 -92 466 -151 951 -176 1434 l-7 133 -30 17 c-16 9 -59 35 -95 59 -35 23 -67 42 -70 42 -9 0 7 -422 23 -583 31 -317 63 -504 139 -802 14 -55 24 -101 22 -102 -1 -2 -27 32 -56 75 -137 197 -299 410 -501 657 -58 72 -130 166 -160 210 -70 103 -276 363 -350 440 -56 60 -57 60 -73 158 -9 53 -24 118 -34 144 -15 42 -25 51 -98 94 -104 62 -183 133 -250 229 -29 41 -78 95 -109 120 -67 54 -251 260 -317 356 -26 38 -86 114 -133 169 -47 55 -123 152 -168 215 -45 63 -110 150 -145 193 -35 43 -97 128 -139 190 -41 62 -87 125 -101 140 -66 71 -194 153 -391 252 -292 146 -400 190 -557 230 -207 53 -277 73 -409 115 -217 70 -344 100 -476 110 -134 10 -776 20 -874 14z m439 -1081 c-120 -118 -217 -237 -287 -353 -48 -79 -83 -157 -74 -166 2 -3 67 32 143 77 265 156 545 285 824 381 107 37 122 40 220 38 123 -1 489 -26 575 -39 156 -23 545 -228 897 -473 135 -93 168 -122 228 -196 69 -84 159 -170 203 -194 19 -10 10 -13 -64 -28 -47 -10 -119 -33 -160 -52 -41 -19 -99 -38 -128 -42 -156 -21 -298 -103 -452 -262 -133 -138 -224 -282 -255 -404 -20 -80 -15 -261 11 -359 15 -53 15 -65 4 -72 -19 -12 -76 -11 -101 2 -18 9 -19 8 -13 -10 6 -19 4 -20 -21 -10 -16 5 -34 15 -41 21 -14 11 10 -79 32 -122 17 -33 62 -73 105 -96 40 -20 133 -24 166 -6 18 9 25 7 44 -13 30 -32 40 -31 40 3 0 15 7 62 15 105 12 61 21 83 41 100 22 19 26 30 24 68 -5 95 -3 108 39 190 70 137 134 219 284 366 148 145 247 222 357 278 73 37 189 75 228 75 19 0 42 17 85 62 53 55 63 62 106 66 44 4 52 0 141 -59 117 -78 241 -202 340 -339 100 -138 145 -185 278 -297 146 -123 170 -148 255 -268 39 -55 112 -154 162 -220 416 -546 625 -836 720 -998 42 -73 24 -66 -33 13 -59 80 -78 89 -68 33 11 -63 76 -186 218 -418 74 -121 158 -262 188 -314 60 -105 59 -97 2 -219 l-25 -54 -22 52 c-45 107 -218 290 -313 332 -49 22 -69 17 -25 -6 15 -8 44 -29 63 -48 l35 -33 -40 -6 c-22 -3 -35 -7 -28 -8 6 0 28 -27 48 -58 31 -50 36 -64 32 -105 -7 -80 -88 -197 -160 -231 -34 -16 -36 -16 -98 12 -278 126 -588 113 -1038 -44 -122 -43 -189 -75 -214 -103 -20 -22 -16 -42 10 -42 8 0 -11 -20 -43 -44 -33 -24 -62 -41 -66 -39 -4 2 -3 15 2 29 6 14 10 63 10 108 0 62 4 87 15 96 8 7 15 18 15 24 0 6 5 28 11 49 7 27 15 37 30 37 12 0 19 -3 17 -7 -2 -5 -10 -21 -18 -37 -13 -26 -12 -29 5 -42 26 -19 37 -18 75 9 58 39 75 71 75 142 1 51 5 70 27 101 37 53 48 87 48 143 0 151 -105 281 -268 331 -67 21 -206 26 -322 11 -63 -8 -61 -9 95 -36 190 -34 277 -73 347 -154 55 -65 77 -171 49 -244 l-11 -27 -32 20 c-72 44 -163 16 -213 -65 -40 -64 -42 -155 -6 -228 20 -42 23 -58 18 -117 -3 -38 -13 -82 -22 -99 -15 -29 -19 -31 -76 -31 -67 0 -99 -12 -99 -38 0 -9 -10 -23 -21 -30 -18 -12 -24 -11 -36 1 -12 12 -11 16 12 31 24 16 24 18 11 44 -30 59 -136 92 -230 72 -142 -29 -196 -142 -112 -238 17 -19 48 -43 70 -53 l39 -17 -24 -13 c-129 -72 -257 -86 -349 -39 -51 26 -115 101 -135 158 -8 26 -18 80 -22 121 -9 111 -26 56 -27 -89 -1 -105 1 -120 26 -172 33 -72 108 -153 169 -183 70 -36 167 -50 241 -35 33 6 67 14 77 18 9 3 3 -9 -16 -31 -45 -51 -98 -151 -122 -229 -52 -173 -74 -417 -48 -539 9 -41 21 -112 27 -159 19 -147 59 -275 127 -410 60 -116 63 -125 46 -138 -37 -27 -280 -92 -399 -108 -27 -3 -65 -8 -84 -11 -19 -2 -56 2 -82 10 -27 8 -48 14 -48 12 0 -8 146 -98 182 -111 24 -9 97 -20 168 -24 107 -6 256 -35 210 -40 -25 -3 83 -50 115 -50 53 1 108 35 187 118 52 54 80 93 87 119 14 50 14 214 0 250 -6 15 -14 81 -17 146 -6 102 -5 123 10 144 9 14 21 53 28 87 6 34 18 70 26 80 15 22 15 22 32 -14 10 -22 11 -20 6 21 -9 73 39 157 194 342 48 57 105 130 127 161 25 36 79 86 145 138 58 45 168 145 245 223 107 108 150 145 180 155 22 7 74 27 115 45 91 39 178 51 218 31 39 -20 139 -45 227 -56 142 -18 213 15 383 179 63 61 99 104 113 137 12 27 38 67 59 89 46 52 88 140 103 217 l11 60 24 -49 c14 -26 44 -104 67 -173 48 -141 101 -280 144 -378 23 -52 28 -77 24 -108 -4 -31 9 -90 56 -254 147 -506 181 -704 181 -1045 0 -182 -11 -320 -50 -630 -12 -93 -23 -216 -25 -271 -3 -100 -4 -103 -54 -200 -28 -55 -62 -137 -76 -183 -14 -46 -26 -86 -28 -87 -2 -2 -75 -40 -163 -84 -187 -95 -320 -147 -401 -157 -77 -9 -44 -18 100 -28 59 -4 107 -11 107 -16 0 -14 -79 -51 -160 -75 l-75 -22 49 -7 c100 -15 205 15 321 94 17 12 46 21 66 21 56 0 188 38 268 77 52 25 96 57 149 109 l75 74 56 -35 c69 -43 152 -73 232 -84 34 -4 64 -14 69 -21 4 -7 10 -33 14 -57 10 -74 62 -167 127 -227 67 -63 125 -92 267 -136 114 -35 114 -35 116 -138 l1 -55 -70 -49 c-102 -70 -312 -172 -450 -217 -219 -71 -486 -118 -815 -142 -218 -16 -1183 -18 -1233 -2 -35 11 -37 10 -25 -4 12 -15 -4 -16 -182 -9 -187 7 -422 -2 -660 -25 -316 -30 -679 -127 -912 -244 -60 -30 -108 -53 -108 -51 0 8 198 175 265 224 39 28 113 73 165 101 52 28 87 51 78 51 -9 0 -70 -15 -135 -34 -125 -36 -254 -88 -340 -137 l-53 -29 0 72 c0 135 -49 274 -131 378 -22 28 -39 53 -37 55 1 2 79 -10 173 -25 93 -16 171 -27 174 -25 5 5 21 0 -224 80 -110 35 -240 80 -290 99 l-90 34 -53 87 c-30 47 -52 88 -50 90 2 2 37 -5 78 -16 301 -79 714 -91 961 -29 107 28 301 96 373 131 78 39 385 213 382 217 -2 1 -37 -13 -78 -32 -106 -48 -193 -72 -364 -101 -376 -64 -915 -72 -1233 -19 -195 33 -277 58 -349 107 -80 55 -131 74 -220 83 -130 13 -479 212 -557 319 -13 18 -14 18 -15 2 0 -43 77 -132 198 -226 53 -40 53 -41 24 -41 -17 0 -64 13 -105 30 -107 43 -163 52 -287 48 l-109 -3 -21 48 c-57 138 -235 329 -395 424 -120 72 -185 82 -185 30 0 -29 21 -48 135 -122 149 -98 304 -268 348 -384 14 -39 10 -43 -83 -71 -36 -11 -87 -33 -114 -50 -56 -36 -54 -36 -181 28 -49 25 -227 91 -395 147 -448 151 -563 195 -785 305 -399 196 -649 404 -716 596 -25 72 -24 81 11 89 40 9 94 65 108 114 7 21 12 61 12 88 l0 49 123 -4 122 -4 43 -49 c62 -70 150 -111 239 -111 68 1 135 18 176 47 38 26 73 19 123 -27 73 -67 75 -82 7 -51 -82 38 -193 44 -252 13 -106 -54 -180 -158 -189 -266 -6 -76 7 -112 54 -154 49 -42 123 -61 208 -52 l70 7 -40 27 c-74 49 -134 113 -134 141 0 40 16 72 57 118 79 87 171 100 344 47 75 -23 128 -47 191 -87 109 -70 255 -158 333 -201 59 -33 60 -33 36 -7 -14 15 -22 30 -19 33 4 3 62 -1 130 -10 67 -8 173 -18 233 -21 61 -4 135 -13 166 -21 79 -20 80 -18 24 20 -28 18 -90 71 -140 117 -49 46 -128 118 -174 159 l-84 75 34 7 c88 20 181 26 237 14 l57 -12 -61 60 c-40 40 -71 84 -92 128 -57 122 -122 210 -232 319 -127 125 -204 183 -398 305 -250 155 -299 222 -480 654 -50 118 -142 335 -206 482 -63 147 -118 279 -122 293 -4 14 -8 24 -10 22 -3 -2 9 -55 25 -118 40 -157 126 -576 156 -766 31 -196 57 -327 101 -512 19 -79 33 -146 30 -148 -9 -9 -106 123 -110 152 -3 17 -10 93 -16 171 -14 196 -35 306 -90 479 -27 83 -56 188 -65 235 -19 100 -35 155 -64 228 -35 87 -304 527 -532 868 -58 88 -118 182 -132 210 -60 118 -96 325 -98 555 l-1 129 51 56 c61 66 122 168 146 242 12 38 16 77 14 135 -5 106 -45 194 -119 260 -53 47 -59 57 -36 57 7 0 60 14 117 30 147 43 341 80 416 80 39 0 83 -8 115 -20 29 -11 55 -20 58 -20 2 0 -22 27 -55 61 -91 92 -221 174 -335 210 -52 16 -102 32 -110 35 -40 16 403 134 502 134 25 0 75 -9 109 -20 35 -10 64 -18 66 -17 5 6 -180 153 -244 194 -35 23 -97 54 -136 69 -40 15 -76 32 -82 37 -6 6 34 7 109 4 65 -3 115 -2 110 2 -5 4 -36 19 -69 32 l-60 24 110 9 c137 11 285 -3 380 -38 38 -14 71 -23 73 -21 9 9 -308 198 -394 235 -66 29 -241 86 -359 118 -94 25 -113 27 -305 27 -240 -1 -341 -13 -506 -61 -495 -142 -881 -407 -1143 -784 -40 -58 -104 -143 -143 -190 -46 -56 -87 -120 -120 -190 -40 -84 -58 -111 -90 -133 -22 -16 -42 -26 -45 -23 -8 8 93 185 181 320 161 247 400 511 757 837 l136 125 184 66 c329 118 628 177 894 178 115 0 195 -11 344 -44 58 -14 131 -30 162 -36 77 -15 169 -61 224 -111 40 -37 45 -39 45 -20 0 12 -7 37 -14 56 -10 24 -11 35 -4 35 17 0 265 -117 323 -152 52 -32 52 -31 -12 46 -42 50 -42 65 0 34 57 -43 63 -43 24 1 -78 87 -175 270 -257 486 -21 55 -57 142 -79 193 -44 100 -50 125 -26 116 13 -5 13 -1 -1 31 -20 48 -10 58 20 20 16 -20 26 -48 29 -86 7 -66 50 -205 82 -270 30 -59 109 -153 178 -212 l55 -46 -39 77 c-21 42 -42 91 -45 107 l-6 30 38 -41 c28 -29 50 -43 79 -48 22 -4 49 -10 60 -13 17 -5 18 -4 6 11 -10 12 -12 34 -7 89 11 111 11 112 53 66 20 -22 59 -56 87 -75 28 -20 66 -46 85 -60 54 -38 77 -33 94 24 9 26 18 61 22 77 4 17 18 45 32 63 14 18 44 72 68 120 44 88 106 158 215 244 53 41 180 128 188 128 2 0 -44 -48 -104 -107z m4057 -4960 c-10 -20 -76 -83 -131 -128 -19 -15 -75 -66 -125 -112 -49 -47 -128 -112 -175 -146 -47 -33 -114 -87 -150 -120 -148 -134 -117 -75 50 97 119 122 263 242 425 352 60 41 111 74 112 74 2 0 -1 -8 -6 -17z m-473 -141 c-90 -100 -164 -237 -213 -394 -15 -49 -32 -88 -37 -88 -5 0 -7 8 -4 18 3 9 7 33 10 52 34 221 67 395 77 404 7 6 194 53 198 50 2 -2 -12 -21 -31 -42z m3929 -2522 c56 -46 101 -85 99 -87 -7 -7 -241 150 -291 195 -27 25 -65 51 -82 59 -33 13 -38 27 -27 70 6 20 15 15 103 -65 53 -48 142 -125 198 -172z m108 -599 c82 -40 173 -79 202 -87 65 -19 69 -38 16 -94 l-38 -40 -65 21 c-53 17 -108 22 -294 30 -127 5 -231 11 -233 13 -2 1 13 64 32 139 19 74 35 150 35 169 0 18 3 49 6 69 l6 36 92 -92 c87 -89 97 -95 241 -164z m980 -1315 c120 -18 149 -33 169 -92 9 -26 13 -50 11 -54 -9 -15 -64 -21 -84 -10 -17 8 -27 7 -48 -9 -16 -11 -62 -24 -108 -31 -116 -17 -248 -48 -345 -82 -87 -31 -244 -106 -292 -139 -14 -11 -33 -19 -41 -19 -20 0 -171 -100 -272 -180 -135 -106 -381 -362 -492 -510 -322 -431 -535 -899 -688 -1510 -108 -431 -153 -827 -142 -1260 10 -383 46 -649 128 -937 93 -327 154 -473 310 -735 32 -54 65 -125 73 -158 23 -87 81 -196 144 -268 47 -54 63 -65 113 -80 33 -9 59 -20 59 -24 0 -3 -21 -18 -47 -33 -27 -16 -80 -59 -119 -96 -65 -63 -76 -69 -113 -69 -87 0 -235 66 -365 165 -39 29 -102 67 -139 84 -136 61 -267 227 -286 362 -5 31 -27 92 -53 144 -166 328 -237 768 -238 1455 0 769 67 1369 206 1834 154 514 486 1049 920 1482 158 157 260 239 408 327 173 101 222 125 303 143 62 13 78 22 108 55 27 30 59 49 134 78 175 70 383 134 566 174 41 9 133 6 220 -7z m-8050 -1223 c-5 -10 -34 -94 -66 -188 -147 -435 -208 -944 -169 -1415 5 -63 12 -146 14 -185 l6 -70 -21 60 c-38 115 -50 219 -50 445 0 118 5 256 11 305 7 52 12 186 11 317 -1 133 2 252 9 290 22 120 110 300 202 411 40 47 67 63 53 30z m20005 -6915 c123 -249 227 -461 232 -470 6 -13 5 -18 -4 -18 -7 0 -31 28 -52 63 -93 146 -279 427 -283 427 -6 0 3 -14 165 -285 l120 -200 -181 -2 c-650 -7 -1252 -53 -1921 -144 -489 -67 -1218 -228 -2015 -445 -866 -236 -2011 -687 -2801 -1104 -1240 -653 -2183 -1357 -2977 -2224 l-91 -99 -61 53 c-71 63 -91 106 -91 191 0 58 36 219 49 219 9 0 28 -32 93 -155 32 -60 58 -105 58 -100 0 6 -20 76 -43 156 l-43 146 19 26 c11 14 22 48 25 77 l5 51 196 177 c453 409 772 665 1251 1003 1001 707 2213 1319 3610 1824 660 238 1743 571 2410 742 118 30 319 83 445 118 355 98 885 237 1145 299 129 31 289 72 355 90 66 19 129 35 141 35 17 1 54 -68 244 -451z m681 -665 c68 -76 181 -197 251 -269 154 -160 172 -191 171 -295 0 -68 -5 -87 -41 -165 -23 -49 -44 -112 -48 -141 l-6 -52 -45 -7 c-24 -3 -48 -3 -53 2 -5 5 -18 47 -30 94 -55 220 -147 494 -274 818 -57 147 -59 152 -52 152 2 0 59 -62 127 -137z m-346 -79 c84 -140 151 -269 222 -425 56 -123 125 -275 154 -336 29 -62 51 -115 48 -117 -2 -2 -93 -20 -202 -40 -340 -62 -808 -190 -791 -217 8 -14 258 -10 420 7 162 16 531 61 579 70 30 5 32 3 74 -83 136 -274 199 -597 148 -763 -24 -82 -71 -146 -131 -180 -63 -37 -99 -38 -138 -5 -37 31 -50 31 -84 2 -35 -31 -44 -106 -17 -157 45 -87 134 -103 251 -44 198 98 303 306 288 565 -12 195 -60 371 -151 552 -52 103 -64 137 -47 137 7 0 103 -155 485 -784 l230 -379 -18 -31 c-37 -65 -130 -179 -197 -241 -141 -130 -247 -176 -485 -210 -89 -13 -167 -26 -173 -30 -23 -14 -9 -45 28 -63 69 -35 142 -47 287 -47 115 0 155 4 224 23 158 43 314 131 441 248 34 32 65 53 69 48 30 -32 497 -873 723 -1299 91 -171 135 -255 428 -815 444 -846 797 -1445 1265 -2145 279 -417 387 -571 890 -1270 475 -659 638 -891 867 -1230 241 -357 504 -784 678 -1100 108 -196 390 -765 390 -786 0 -52 -105 -237 -194 -341 -259 -303 -696 -469 -1336 -509 -96 -5 -238 -7 -315 -4 -1134 51 -2247 417 -3268 1073 -574 369 -1076 831 -1288 1184 -58 95 -63 95 -14 -1 179 -356 628 -823 1173 -1219 164 -120 465 -317 635 -416 292 -170 745 -384 1042 -491 800 -290 1659 -410 2321 -325 316 41 548 105 754 210 253 130 413 285 531 515 28 55 52 102 54 104 7 7 138 -331 220 -569 251 -732 377 -1333 555 -2660 40 -301 127 -862 175 -1135 l24 -140 -5 120 c-2 66 -9 197 -14 290 -5 94 -12 271 -15 395 -3 124 -11 312 -16 418 -6 106 -9 196 -6 198 12 12 284 -518 437 -851 486 -1058 919 -2468 1100 -3585 88 -546 114 -851 114 -1340 1 -426 -8 -545 -60 -860 -162 -970 -640 -1715 -1326 -2065 -206 -106 -447 -186 -663 -221 -206 -33 -894 -28 -916 7 -3 6 -48 14 -99 19 -127 14 -437 83 -580 130 -450 149 -950 448 -1450 868 l-65 54 65 -63 c54 -53 285 -258 515 -457 l50 -43 -50 25 c-28 13 -102 54 -165 91 -63 37 -151 85 -195 107 -244 123 -680 420 -970 663 -491 410 -974 968 -1440 1665 -660 987 -1380 2467 -1685 3465 -59 193 -58 160 -21 490 30 259 57 597 76 930 22 395 24 405 54 235 109 -631 390 -1329 829 -2060 695 -1158 1686 -2069 2697 -2480 420 -171 819 -250 1185 -237 281 10 518 61 690 147 108 54 260 139 260 145 0 2 -39 -15 -87 -37 -123 -56 -242 -84 -427 -99 -239 -20 -641 13 -901 72 -413 95 -747 222 -1102 419 -766 425 -1541 1177 -2109 2046 -497 762 -844 1503 -1016 2169 l-33 130 3 520 c12 1819 -161 3465 -549 5220 -144 652 -368 1482 -639 2370 -330 1083 -396 1308 -491 1680 -77 298 -79 290 -14 -40 52 -260 165 -715 269 -1085 378 -1348 565 -2094 731 -2920 242 -1209 361 -2173 427 -3475 17 -329 17 -1458 0 -1790 -29 -563 -71 -1135 -84 -1135 -4 0 -9 42 -10 93 -1 50 -5 -27 -8 -173 -8 -300 -40 -600 -131 -1215 -100 -681 -308 -1704 -469 -2305 -17 -63 -71 -269 -120 -456 -85 -323 -203 -733 -272 -944 -72 -219 -300 -734 -525 -1184 -502 -1003 -1149 -1905 -1771 -2467 -603 -546 -1199 -859 -1897 -998 -294 -59 -369 -66 -745 -66 -309 1 -360 3 -490 23 -657 103 -1167 315 -1671 693 -579 436 -1069 1073 -1420 1845 -444 978 -672 2024 -729 3344 -12 287 -12 925 0 1235 8 205 35 523 45 533 1 2 6 -32 9 -75 25 -276 97 -749 172 -1123 194 -972 448 -1655 830 -2238 167 -255 322 -441 545 -657 175 -168 480 -394 649 -480 65 -33 479 -215 489 -215 3 0 -45 27 -107 60 -140 73 -227 131 -390 263 -148 119 -513 474 -649 632 -450 521 -763 1084 -1015 1825 -216 635 -405 1512 -459 2122 l-12 137 34 68 c20 39 59 92 94 128 43 42 74 88 105 150 44 88 45 93 49 200 l3 110 33 -160 c100 -494 248 -874 467 -1199 99 -146 279 -347 393 -440 50 -40 123 -106 163 -146 40 -40 75 -70 78 -67 3 3 -17 38 -44 79 -27 40 -76 121 -109 179 -33 58 -87 146 -120 195 -164 245 -275 432 -354 600 -168 355 -273 718 -349 1203 -30 191 -80 607 -80 658 1 15 52 -125 114 -312 178 -532 228 -659 443 -1125 107 -231 343 -706 423 -850 73 -132 175 -305 293 -500 104 -171 631 -977 650 -995 6 -5 2 4 -8 20 -75 117 -279 477 -344 605 -257 506 -532 1220 -735 1905 -42 143 -100 337 -128 430 -197 665 -277 965 -398 1505 -39 173 -84 374 -100 447 -99 438 -103 460 -104 695 l-1 218 -24 -71 c-12 -39 -25 -69 -27 -67 -9 10 -128 770 -203 1298 -122 860 -244 2251 -331 3775 -59 1042 -88 1478 -121 1870 l-22 250 32 60 c33 63 91 159 128 211 15 21 41 38 80 52 64 24 128 79 149 129 8 18 14 55 14 82 l0 50 98 86 c390 345 978 728 1570 1024 380 190 908 416 1367 584 725 266 1845 595 2665 782 129 30 323 75 430 100 297 71 865 188 1155 239 143 25 400 71 570 101 501 88 762 126 1310 189 357 42 455 48 748 50 314 1 300 6 -98 35 -646 48 -874 47 -1615 -4 -748 -53 -1448 -148 -2310 -316 -431 -84 -1284 -301 -1805 -460 -713 -216 -1531 -541 -2112 -839 -734 -377 -1327 -783 -1845 -1263 l-136 -126 -7 133 c-4 73 -5 214 -3 312 4 191 3 185 66 279 52 79 43 163 -25 227 -27 25 -163 98 -210 112 -37 12 -81 72 -104 143 -37 116 -28 352 21 558 30 126 55 306 46 331 -3 8 -3 20 0 28 11 30 469 438 714 637 359 292 897 656 1450 981 664 390 1627 840 2515 1175 549 207 1749 598 2265 738 256 69 949 241 1210 300 437 98 991 183 1440 220 274 22 271 22 329 21 l55 -1 121 -201z m871 -1004 c10 0 14 -12 14 -37 0 -52 39 -132 84 -171 20 -18 87 -57 147 -88 91 -45 109 -58 104 -72 -41 -96 -43 -120 -11 -187 27 -59 66 -95 148 -136 40 -20 62 -38 69 -57 22 -55 -7 -278 -45 -351 -13 -23 -16 -20 -86 95 -168 271 -342 552 -471 759 -76 121 -136 222 -133 224 7 8 138 29 152 25 8 -2 20 -4 28 -4z m854 -101 c142 -96 222 -163 333 -279 157 -163 260 -337 330 -555 120 -374 115 -736 -14 -1140 -37 -117 -152 -402 -168 -418 -6 -6 -619 996 -639 1045 -2 5 -1 16 2 25 5 12 11 8 29 -18 17 -25 38 -39 83 -55 88 -30 125 -54 131 -87 4 -18 9 -24 13 -17 9 15 40 -27 70 -97 34 -79 117 -143 185 -143 32 0 90 25 122 53 94 82 84 192 -32 345 -53 70 -127 131 -198 162 -26 12 -47 23 -47 26 0 3 12 85 26 182 27 183 27 256 3 427 -29 200 -144 423 -292 563 -31 28 -52 52 -48 52 4 0 54 -32 111 -71z"/>
<path d="M42964 63407 c-75 -56 -189 -178 -232 -250 -83 -138 -123 -284 -127 -467 l-4 -125 9 105 c24 282 149 546 332 701 84 71 93 79 86 79 -3 0 -32 -19 -64 -43z"/>
<path d="M43220 63374 c-149 -25 -211 -51 -297 -122 -55 -46 -121 -122 -167 -193 -9 -15 21 11 67 56 146 144 217 175 402 175 97 0 120 3 166 24 30 13 63 27 74 31 18 7 17 8 -10 16 -35 10 -199 19 -235 13z"/>
<path d="M43390 63263 c-229 -38 -486 -263 -615 -536 -84 -176 -84 -323 -2 -352 43 -15 72 8 151 119 39 55 125 155 191 222 136 138 226 201 417 294 138 67 183 74 261 41 45 -19 45 -19 -40 62 -104 100 -141 123 -229 142 -69 15 -88 16 -134 8z"/>
<path d="M43507 62936 c-183 -75 -329 -210 -489 -450 l-61 -91 69 67 c38 37 87 81 109 98 104 82 312 210 461 284 l164 82 -35 17 c-53 25 -147 22 -218 -7z"/>
<path d="M41753 62749 c-17 -17 -16 -29 0 -29 18 0 210 -123 271 -173 l48 -40 -17 34 c-36 69 -97 147 -142 179 -52 38 -137 53 -160 29z"/>
<path d="M41448 62564 c-4 -4 18 -22 50 -41 127 -75 261 -214 318 -328 19 -38 47 -108 63 -154 15 -46 31 -80 34 -74 3 5 9 43 13 85 5 62 3 88 -15 146 -54 180 -248 359 -400 370 -31 2 -59 1 -63 -4z"/>
<path d="M43505 62429 c-65 -39 -158 -98 -206 -130 -92 -64 -191 -160 -171 -167 6 -2 19 4 29 13 9 9 75 56 147 104 111 75 188 133 310 233 36 30 15 20 -109 -53z"/>
<path d="M42527 62483 c-14 -13 -6 -42 19 -72 26 -31 121 -93 161 -105 21 -7 21 -7 6 46 -9 29 -17 59 -19 66 -4 13 -125 72 -148 72 -7 0 -16 -3 -19 -7z"/>
<path d="M41247 62135 c-15 -8 -39 -23 -51 -33 l-24 -18 49 -17 c27 -10 49 -21 49 -26 0 -4 -13 -20 -29 -35 -29 -28 -37 -30 -243 -56 -234 -29 -551 -192 -767 -396 -133 -125 -253 -315 -283 -445 -23 -103 -14 -397 19 -599 6 -33 7 -32 19 28 20 96 68 175 160 266 257 257 411 392 551 483 108 70 303 164 417 199 56 17 106 40 135 63 25 19 73 51 105 71 60 37 68 44 86 90 6 14 22 40 35 59 48 66 70 197 43 256 -10 23 -75 77 -133 112 -28 17 -104 16 -138 -2z"/>
<path d="M41745 61755 c-48 -13 -85 -43 -85 -70 0 -31 31 -45 98 -45 94 0 191 -18 229 -41 39 -24 120 -128 129 -166 7 -25 8 -23 20 23 18 69 17 112 -6 159 -23 49 -35 64 -80 97 -72 53 -199 72 -305 43z"/>
<path d="M41290 61451 c-231 -60 -429 -292 -540 -630 -59 -182 -55 -266 6 -100 61 167 154 325 268 454 71 81 207 200 288 255 33 22 56 40 52 39 -5 0 -38 -8 -74 -18z"/>
<path d="M41573 61419 c-20 -26 -23 -55 -8 -75 20 -27 19 -31 -17 -43 -32 -11 -47 -3 -48 26 0 21 -15 22 -75 7 -110 -29 -245 -109 -354 -209 -115 -108 -247 -303 -297 -442 -15 -43 -36 -88 -46 -99 -18 -20 -19 -34 -14 -200 6 -166 9 -211 22 -272 4 -20 7 -22 19 -12 11 10 15 40 16 124 2 149 13 198 22 96 3 -42 14 -100 24 -130 l18 -55 7 120 c14 240 46 417 81 453 13 12 12 4 -4 -47 -20 -65 -25 -192 -9 -241 l8 -25 1 27 c4 107 137 272 361 449 120 95 276 182 404 225 101 35 129 66 142 161 9 71 -14 115 -74 145 -57 27 -162 37 -179 17z"/>
<path d="M41875 60987 c-163 -88 -359 -256 -487 -418 -74 -94 -115 -159 -99 -159 6 0 11 4 11 9 0 15 132 156 225 242 84 76 140 124 334 287 105 88 105 87 16 39z"/>
<path d="M44775 59832 c-72 -90 -210 -234 -276 -287 -71 -57 -188 -134 -288 -187 -40 -22 -51 -33 -51 -53 0 -31 32 -49 74 -41 44 9 145 58 217 107 46 31 60 37 55 23 -17 -44 -26 -122 -17 -145 6 -15 10 -18 10 -8 2 48 214 281 322 356 69 46 74 48 146 49 83 1 118 15 139 56 25 49 18 96 -20 134 -26 26 -42 34 -70 34 -40 0 -90 -21 -103 -44 -9 -15 -132 -80 -139 -73 -2 2 5 29 15 60 11 32 19 57 18 57 -1 0 -15 -17 -32 -38z"/>
<path d="M46125 59435 c2 -16 16 -82 29 -146 67 -308 57 -623 -24 -844 -42 -112 -122 -243 -245 -398 -26 -34 -82 -78 -270 -213 -73 -52 -298 -185 -406 -240 -93 -47 -328 -154 -337 -154 -3 0 13 13 34 29 49 36 115 106 92 98 -9 -3 -92 -16 -185 -28 -127 -16 -197 -20 -288 -16 -149 7 -168 12 -154 39 10 19 8 19 -23 13 -50 -10 -83 -37 -86 -72 -9 -93 220 -146 468 -109 68 11 -196 -72 -288 -90 -123 -24 -99 -37 67 -37 264 0 572 89 901 261 217 114 464 301 509 386 8 14 43 45 78 67 35 23 85 66 111 95 207 232 245 557 122 1039 -37 144 -115 382 -105 320z"/>
<path d="M39560 58449 c0 -6 20 -38 45 -71 64 -85 71 -114 51 -227 -12 -73 -13 -102 -5 -137 20 -80 100 -124 225 -124 40 0 51 -5 89 -44 90 -90 231 -85 271 10 26 63 -10 140 -83 175 -39 19 -69 23 -192 28 l-146 6 -9 40 c-31 147 -77 228 -172 307 -60 49 -74 56 -74 37z"/>
<path d="M59990 45239 c-706 -24 -1530 -123 -2167 -260 -276 -59 -897 -213 -1208 -299 -426 -118 -1204 -391 -1739 -609 -517 -211 -1214 -551 -1671 -814 -690 -398 -1285 -828 -1809 -1308 -18 -16 -17 -18 9 -63 15 -25 29 -46 31 -46 3 0 73 54 157 119 284 223 647 471 967 663 549 330 1318 712 1979 984 645 266 1186 467 1686 629 165 53 422 137 571 186 323 105 869 268 1119 333 99 26 250 67 335 91 782 220 1491 346 2225 394 l130 8 -190 0 c-104 0 -296 -4 -425 -8z"/>
<path d="M61190 43423 c5 -10 33 -76 61 -148 62 -155 212 -457 382 -772 141 -259 456 -810 524 -917 65 -100 212 -363 306 -546 44 -85 82 -157 84 -160 13 -14 -124 325 -250 621 -160 375 -453 925 -790 1485 -133 222 -224 360 -274 415 -36 40 -61 52 -43 22z"/>
<path d="M60255 43270 c-28 -31 -15 -130 35 -285 45 -137 200 -522 276 -684 25 -53 81 -175 124 -271 43 -96 124 -269 180 -385 162 -333 317 -682 370 -830 17 -50 49 -157 70 -240 22 -82 39 -140 40 -128 0 31 -56 379 -86 538 -39 201 -68 307 -163 594 -121 364 -270 708 -552 1275 -213 429 -243 472 -294 416z"/>
<path d="M62656 42737 c-17 -12 -16 -17 9 -95 32 -98 90 -189 154 -240 25 -20 72 -64 104 -97 31 -33 57 -56 57 -52 0 4 -11 30 -25 57 -14 28 -32 80 -41 116 -19 86 -64 184 -112 246 -54 72 -106 95 -146 65z"/>
<path d="M59700 40213 c0 -519 11 -747 90 -1813 67 -911 89 -1358 97 -1985 10 -850 -23 -1450 -118 -2110 -71 -493 -130 -787 -245 -1210 -314 -1156 -847 -2193 -1574 -3060 -349 -415 -757 -795 -1140 -1059 -514 -355 -994 -559 -1550 -657 -291 -52 -771 -27 -1100 56 -513 129 -886 388 -1234 855 -192 258 -201 264 -52 40 295 -445 515 -697 781 -895 149 -112 269 -183 470 -281 385 -187 652 -248 1085 -248 308 0 474 26 780 121 645 200 1204 557 1801 1153 319 318 523 558 773 908 839 1180 1376 2633 1536 4162 85 821 90 1629 15 2615 -37 473 -70 779 -215 1950 -130 1047 -162 1352 -176 1688 -4 86 -11 157 -16 157 -4 0 -8 -174 -8 -387z"/>
<path d="M56021 39209 c-179 -186 -259 -256 -506 -440 -480 -358 -876 -567 -1250 -660 -105 -27 -321 -36 -418 -19 -158 28 -299 105 -381 210 -26 33 -50 60 -52 60 -7 0 30 -62 83 -137 204 -292 655 -340 1177 -127 479 196 930 541 1281 979 107 134 230 296 223 295 -2 -1 -72 -73 -157 -161z"/>
<path d="M58742 38965 c-1 -126 3 -470 9 -762 19 -907 -12 -1602 -97 -2205 -94 -673 -274 -1299 -534 -1861 -354 -763 -857 -1409 -1445 -1851 -224 -169 -575 -347 -827 -420 -270 -78 -553 -71 -833 19 -15 5 -17 4 -5 -3 24 -16 216 -81 335 -114 310 -85 738 -25 1100 152 346 170 625 382 912 691 569 614 989 1430 1222 2370 162 656 231 1320 231 2244 0 373 -3 483 -40 1345 -11 261 -21 509 -23 550 -2 41 -4 -28 -5 -155z"/>
<path d="M57107 39045 c-52 -405 -201 -971 -359 -1365 -242 -601 -556 -1092 -968 -1514 -487 -499 -1018 -818 -1561 -940 -621 -139 -1267 -16 -1842 352 -192 123 -280 194 -458 372 -122 122 -172 181 -236 276 -127 191 -191 346 -216 524 l-12 85 -3 -63 c-6 -133 46 -339 128 -502 240 -477 762 -908 1345 -1110 296 -103 526 -142 830 -142 291 0 526 41 818 142 787 271 1538 949 1989 1795 306 575 473 1179 553 2007 21 213 16 266 -8 83z"/>
<path d="M61955 38179 c22 -25 73 -84 113 -132 392 -462 1066 -852 1787 -1035 546 -139 1091 -184 1525 -127 235 31 469 105 610 193 102 63 228 190 264 265 31 67 56 171 55 237 l0 45 -17 -66 c-22 -85 -59 -137 -147 -211 -176 -148 -499 -254 -883 -288 -197 -18 -672 -8 -877 19 -622 81 -1159 241 -1594 476 -303 164 -502 309 -741 539 -74 72 -117 110 -95 85z"/>
<path d="M60965 36370 c2 -127 17 -299 54 -625 77 -683 103 -1075 122 -1811 21 -833 -16 -1739 -102 -2509 -121 -1093 -363 -2191 -703 -3200 -192 -570 -356 -972 -587 -1435 -478 -959 -1034 -1685 -1692 -2211 -217 -174 -570 -385 -803 -480 -199 -82 -501 -145 -784 -164 -236 -16 -568 44 -801 144 -134 58 -366 198 -549 332 -76 55 -21 6 85 -76 233 -181 463 -334 623 -414 180 -90 463 -173 725 -212 236 -35 509 -15 798 60 219 57 348 109 562 229 334 187 606 400 907 708 413 423 767 918 1090 1524 605 1133 1062 2701 1269 4355 86 678 119 1189 128 1945 14 1241 -63 2248 -262 3435 -24 143 -50 319 -59 390 -9 72 -18 144 -20 160 -2 17 -3 -49 -1 -145z"/>
<path d="M61876 33985 c-44 -418 261 -1111 807 -1829 228 -301 660 -753 937 -983 590 -489 1181 -816 1787 -986 361 -102 589 -134 888 -124 185 6 301 26 469 78 167 52 256 105 391 233 l70 66 -65 -44 c-118 -79 -178 -102 -345 -131 -108 -19 -387 -21 -556 -5 -266 26 -676 135 -984 263 -767 317 -1456 787 -2100 1432 -477 477 -869 991 -1089 1425 -138 271 -182 404 -195 583 l-7 102 -8 -80z"/>
<path d="M58305 28658 c-124 -378 -425 -909 -788 -1388 -195 -257 -281 -362 -433 -530 -549 -604 -1101 -937 -1719 -1036 -136 -22 -448 -25 -580 -5 -440 65 -813 206 -1165 442 -80 54 -183 128 -230 165 -122 98 -343 323 -429 437 -107 141 -105 125 3 -28 438 -616 1078 -998 1856 -1106 112 -16 410 -16 532 0 743 94 1423 537 2069 1346 224 280 507 739 644 1045 105 233 275 693 262 707 -3 2 -13 -20 -22 -49z"/>
<path d="M60378 66180 c-4 -14 -12 -64 -18 -112 -45 -366 206 -849 640 -1232 63 -56 136 -116 161 -134 l46 -33 7 -77 c3 -42 17 -158 30 -257 13 -99 32 -241 41 -315 9 -74 25 -186 36 -249 10 -62 19 -150 19 -194 0 -44 2 -78 5 -76 2 3 18 72 35 154 23 115 30 177 30 265 0 142 -30 349 -76 528 -19 74 -32 137 -30 139 4 4 303 -194 309 -205 2 -4 -1 -45 -6 -90 -13 -103 1 -252 32 -333 23 -61 77 -149 92 -149 10 0 6 24 -32 185 -24 105 -59 317 -59 361 0 15 2 15 25 0 33 -21 32 -17 -9 47 -39 61 -180 205 -490 502 -255 243 -373 378 -497 563 -150 224 -243 445 -271 642 -10 67 -16 88 -20 70z"/>
<path d="M53127 65990 c-118 -30 -247 -151 -271 -253 -11 -46 5 -51 26 -8 26 53 115 112 202 136 116 31 260 9 344 -52 l33 -25 -16 39 c-50 120 -193 194 -318 163z"/>
<path d="M54235 65861 c-48 -21 -101 -65 -117 -95 -11 -21 -11 -21 13 1 33 30 91 53 133 53 95 0 173 -65 294 -246 10 -16 11 -12 6 26 -12 84 -44 152 -99 206 -74 74 -149 92 -230 55z"/>
<path d="M62595 65734 c10 -17 49 -67 88 -110 138 -156 534 -641 587 -718 45 -67 59 -121 62 -237 1 -54 3 -99 5 -99 1 0 12 19 24 42 44 86 17 245 -62 366 -88 135 -762 858 -704 756z"/>
<path d="M54962 65554 c-29 -20 -45 -60 -33 -81 6 -11 10 -12 15 -4 11 18 62 13 126 -13 l60 -25 0 36 c0 51 -54 103 -107 103 -21 0 -49 -7 -61 -16z"/>
<path d="M45281 65317 c-6 -16 -11 -47 -11 -70 0 -23 -7 -73 -16 -112 -63 -283 -79 -411 -95 -735 -8 -164 -8 -270 -1 -353 10 -112 12 -122 61 -220 56 -113 63 -106 34 34 -15 71 -18 137 -17 419 0 326 1 342 37 615 37 279 45 407 27 435 -7 11 -11 9 -19 -13z"/>
<path d="M62596 64928 c110 -115 199 -235 311 -423 80 -134 183 -314 228 -400 l37 -70 -7 65 c-15 159 -99 366 -208 513 -106 143 -260 288 -422 397 -44 29 -36 19 61 -82z"/>
<path d="M58574 64822 c-40 -26 -47 -37 -40 -67 9 -35 45 -50 204 -85 273 -60 419 -130 462 -223 l17 -38 -4 73 c-6 97 -27 153 -82 211 -86 92 -206 135 -401 143 -113 5 -128 4 -156 -14z"/>
<path d="M48905 64563 c-140 -17 -309 -74 -401 -134 -132 -86 -269 -264 -315 -409 -27 -87 -27 -184 0 -237 29 -58 56 -66 30 -10 -76 167 85 469 306 573 98 46 169 63 327 76 243 21 549 -14 895 -103 157 -40 304 -86 372 -115 20 -9 51 -22 69 -30 17 -7 32 -12 32 -10 0 7 -149 116 -212 155 -285 173 -582 253 -926 250 -81 -1 -160 -4 -177 -6z"/>
<path d="M63481 64370 c-5 -243 -34 -503 -117 -1045 -64 -417 -132 -950 -168 -1315 -61 -615 -70 -866 -63 -1669 5 -515 3 -728 -8 -950 -49 -958 -105 -1551 -231 -2431 -230 -1613 -563 -2924 -1004 -3960 -197 -462 -522 -1055 -821 -1500 -292 -434 -470 -661 -584 -745 -36 -26 -65 -49 -65 -51 0 -8 76 27 148 68 112 64 220 155 337 285 339 375 743 1024 1053 1693 578 1247 951 2830 1126 4785 50 558 115 1546 116 1765 0 49 14 27 35 -55 10 -38 21 -74 25 -78 12 -13 19 298 25 978 7 930 27 1344 116 2425 84 1024 112 1569 92 1775 l-10 100 -2 -75z"/>
<path d="M58436 64245 c-4 -21 -14 -51 -21 -65 -7 -14 -20 -57 -29 -97 -19 -83 -11 -176 21 -236 20 -39 122 -167 134 -167 12 0 17 153 8 239 -10 84 -48 215 -76 259 -8 13 -18 42 -22 65 l-7 42 -8 -40z"/>
<path d="M48527 64119 c-79 -9 -146 -39 -182 -81 -14 -17 -24 -32 -23 -34 2 -2 24 5 48 14 38 14 84 17 298 17 138 0 252 1 252 3 0 8 -112 53 -165 66 -82 20 -148 24 -228 15z"/>
<path d="M57741 63974 c-25 -50 -35 -84 -39 -135 -5 -80 7 -118 50 -154 38 -32 66 -32 78 1 16 41 12 86 -17 180 -14 49 -29 108 -32 132 l-6 43 -34 -67z"/>
<path d="M49011 63898 c-5 -15 -17 -94 -26 -177 -14 -135 -21 -181 -30 -181 -2 0 -61 27 -131 61 -154 73 -214 100 -214 95 0 -7 188 -126 264 -167 71 -38 76 -42 69 -67 -6 -26 -6 -26 19 -10 24 16 28 15 109 -24 46 -22 165 -75 264 -118 558 -241 707 -324 1116 -628 261 -194 369 -260 654 -402 171 -86 289 -137 410 -178 94 -32 179 -62 190 -66 39 -15 -141 150 -220 202 -81 53 -115 71 -488 251 -231 111 -333 167 -517 285 -338 215 -440 275 -625 366 -110 55 -304 142 -430 194 -344 141 -409 172 -400 193 34 90 44 220 25 324 -13 66 -26 81 -39 47z"/>
<path d="M57667 63205 c-3 -16 -13 -57 -21 -90 -8 -33 -21 -96 -29 -140 -19 -102 -67 -219 -122 -294 -33 -44 -57 -66 -102 -87 -53 -26 -67 -29 -158 -28 -55 1 -113 7 -129 13 -37 15 -44 7 -26 -27 26 -46 74 -66 169 -70 71 -3 96 0 144 18 111 42 197 157 281 377 49 128 53 166 26 260 -12 43 -23 83 -25 88 -1 6 -5 -3 -8 -20z"/>
<path d="M54023 62465 c-27 -11 -33 -20 -33 -43 0 -33 19 -54 119 -136 83 -67 124 -88 164 -84 26 2 33 9 41 36 31 109 -181 273 -291 227z"/>
<path d="M51573 62270 c-13 -5 -23 -17 -23 -25 0 -9 34 -49 76 -88 42 -40 102 -104 133 -143 l58 -71 6 -139 c7 -145 22 -282 81 -744 73 -566 104 -943 113 -1360 21 -1009 -160 -1768 -635 -2665 -87 -163 -202 -368 -390 -690 -300 -515 -449 -825 -566 -1178 -32 -94 -57 -152 -82 -184 -65 -85 -109 -194 -146 -363 -26 -119 -36 -436 -19 -562 28 -193 84 -354 161 -461 36 -51 112 -110 184 -143 43 -20 214 -50 224 -39 2 1 -13 12 -32 23 -55 33 -101 106 -161 257 -90 229 -147 497 -144 685 1 72 1 73 10 30 44 -216 93 -344 184 -481 63 -94 183 -235 192 -225 2 2 -12 35 -31 72 -84 167 -168 413 -212 619 -23 109 -27 156 -28 290 -1 142 1 166 20 210 12 28 43 111 69 185 101 286 280 660 510 1065 361 636 529 964 650 1270 195 493 305 949 362 1505 23 221 26 1014 5 1260 -41 493 -89 807 -213 1398 -32 156 -59 285 -59 287 0 2 14 -1 31 -7 26 -9 35 -7 57 9 63 47 26 157 -93 278 -107 108 -217 155 -292 125z"/>
<path d="M52480 62192 c-102 -34 -184 -93 -216 -153 -24 -48 -16 -51 27 -8 81 81 207 118 412 120 l92 1 -55 26 c-73 34 -181 40 -260 14z"/>
<path d="M58363 61871 c-14 -22 -494 -456 -606 -549 -51 -41 -71 -52 -77 -42 -6 9 -10 7 -15 -9 -3 -11 -26 -35 -51 -51 -49 -34 -62 -66 -44 -109 35 -86 165 -58 324 68 125 99 359 361 427 476 38 65 61 144 57 195 -3 37 -4 39 -15 21z"/>
<path d="M48656 61453 c-23 -155 -28 -218 -23 -311 6 -131 24 -200 82 -318 72 -147 205 -275 339 -327 91 -34 194 -46 418 -47 184 -1 214 1 223 14 7 11 6 22 -1 34 -9 13 -27 18 -80 19 -428 15 -548 46 -689 176 -168 154 -253 375 -257 673 -1 68 -3 124 -4 124 -1 0 -5 -17 -8 -37z"/>
<path d="M47423 61203 c-22 -34 -30 -225 -14 -330 25 -159 95 -349 194 -522 218 -380 553 -632 836 -631 60 1 195 28 145 29 -62 2 -294 103 -402 175 -371 246 -662 733 -697 1166 -9 116 -14 140 -30 140 -8 0 -23 -12 -32 -27z"/>
<path d="M61172 61147 c-6 -7 -16 -34 -23 -60 -34 -137 55 -404 188 -561 70 -84 166 -152 226 -159 144 -19 147 -19 147 -3 0 9 -4 16 -9 16 -21 0 -248 222 -308 300 -106 140 -193 340 -193 444 0 37 -10 45 -28 23z"/>
<path d="M61205 60369 c-4 -6 -8 -32 -8 -57 -2 -162 217 -316 418 -294 l70 8 -45 13 c-73 21 -257 122 -315 174 -33 29 -65 70 -84 107 -17 34 -33 56 -36 49z"/>
<path d="M50597 58290 c-33 -26 -41 -74 -22 -135 19 -63 112 -202 190 -282 55 -57 65 -63 102 -63 36 0 43 -4 61 -34 43 -72 125 -94 201 -54 136 71 86 268 -67 268 -52 0 -91 -19 -126 -61 -33 -39 -33 -38 -133 94 -87 114 -133 197 -133 238 0 18 -7 32 -19 39 -25 13 -24 13 -54 -10z"/>
<path d="M56862 58010 c-27 -25 -29 -71 -4 -93 27 -25 243 -133 280 -140 l32 -6 0 45 c0 25 -7 58 -15 74 -18 35 -90 86 -165 117 -68 28 -100 29 -128 3z"/>
<path d="M54685 50963 c33 -81 85 -259 85 -290 0 -111 -69 -258 -173 -369 -78 -83 -128 -117 -220 -146 -129 -41 -368 -18 -499 48 -103 52 -143 95 -173 186 l-15 43 5 -63 c16 -205 221 -355 505 -369 87 -5 120 -2 190 16 110 28 177 68 275 166 127 127 216 298 231 443 10 96 -23 189 -89 255 -63 62 -134 108 -122 80z"/>
<path d="M60605 50738 c-113 -195 -225 -296 -367 -334 -146 -39 -459 11 -581 92 -94 62 -85 -22 10 -106 141 -124 411 -189 606 -146 196 44 350 181 393 348 16 63 13 142 -7 180 -14 27 -21 23 -54 -34z"/>
<path d="M55072 50680 c-31 -105 -100 -230 -162 -294 -75 -78 -87 -120 -47 -160 29 -29 80 -35 112 -12 11 7 37 47 58 88 45 88 59 168 55 319 l-3 104 -13 -45z"/>
<path d="M54100 49911 c-43 -23 -173 -62 -305 -91 -101 -22 -260 -59 -457 -106 -59 -14 -115 -32 -125 -39 -16 -12 -11 -15 42 -32 47 -14 92 -18 210 -18 129 0 160 3 225 23 126 40 229 96 343 186 122 98 135 112 67 77z"/>
<path d="M56280 49928 c0 -20 56 -181 85 -244 94 -205 301 -534 574 -909 96 -132 194 -270 219 -307 25 -38 46 -68 48 -68 1 0 -28 64 -66 143 -158 330 -394 719 -744 1227 -105 152 -116 168 -116 158z"/>
<path d="M45655 49799 c-21 -5 -100 -29 -175 -53 -200 -65 -320 -86 -604 -106 -185 -14 -217 -27 -216 -93 1 -59 47 -78 199 -85 426 -17 884 130 926 296 12 47 -37 62 -130 41z"/>
<path d="M96820 14843 c-128 -3 -1449 -21 -2455 -33 -451 -6 -1139 -14 -1530 -20 -390 -6 -1203 -17 -1805 -25 -2929 -40 -8934 -141 -11880 -200 -2300 -46 -4684 -114 -5455 -155 l-160 -9 195 5 c107 2 332 9 500 14 467 15 1951 51 3115 75 1772 37 2663 51 7000 110 4684 64 7737 116 10085 170 349 8 1153 26 1785 40 1414 31 1413 31 1020 31 -176 0 -363 -1 -415 -3z"/>
<path d="M53275 13960 c-323 -19 -958 -91 -942 -106 2 -3 69 2 148 10 289 30 423 37 869 43 731 9 1390 -16 3345 -127 1020 -58 1969 -95 2850 -111 358 -6 661 -9 675 -7 14 3 -20 6 -75 7 -155 2 -715 29 -1075 51 -179 11 -521 31 -760 45 -239 14 -604 36 -810 50 -568 38 -1623 95 -2495 136 -298 14 -1535 20 -1730 9z"/>
<path d="M34190 13900 c-1430 -15 -3119 -46 -5050 -95 -5155 -130 -7137 -162 -9505 -151 -1516 6 -2190 15 -3315 42 -371 8 -691 14 -710 11 -19 -2 10 -5 65 -5 55 -1 332 -11 615 -22 4179 -161 6960 -158 14030 15 719 18 1820 41 2590 55 305 5 650 12 765 15 312 8 1213 23 2340 40 550 8 1263 19 1585 25 1110 19 2138 30 3015 32 808 1 845 2 455 9 -1660 30 -5282 45 -6880 29z"/>
<path d="M67674 12585 c-27 -70 208 -102 911 -125 729 -24 2079 -37 6220 -60 2459 -14 3212 -30 4535 -95 2351 -116 4188 -386 5381 -790 816 -276 1244 -587 1284 -931 13 -118 -17 -242 -123 -504 -125 -307 -139 -469 -56 -638 67 -137 250 -273 493 -367 279 -108 697 -198 1291 -279 516 -71 679 -87 2345 -236 1483 -133 2671 -253 3860 -390 237 -27 653 -75 925 -105 272 -30 707 -80 965 -110 259 -30 706 -82 995 -115 911 -103 1488 -169 2060 -235 305 -35 796 -89 1090 -120 294 -30 618 -64 719 -75 373 -41 1391 -125 1821 -150 102 -6 290 -17 417 -26 128 -9 241 -14 250 -12 10 2 -70 14 -177 27 -211 25 -725 103 -1515 231 -712 115 -728 117 -1591 239 -821 116 -1840 245 -3058 386 -402 47 -822 96 -935 110 -113 14 -487 56 -831 95 -344 38 -784 88 -978 110 -865 99 -2261 242 -3032 310 -594 52 -665 58 -1520 130 -1164 98 -1614 145 -2115 221 -758 116 -1191 276 -1282 476 -47 103 -34 191 74 503 86 249 103 321 103 452 0 129 -12 190 -55 284 -49 107 -108 189 -209 289 -99 99 -167 150 -328 249 -718 439 -2185 797 -4098 1000 -1102 117 -1993 169 -3720 217 -594 17 -3880 22 -5525 10 -3737 -29 -4142 -27 -4421 19 -143 24 -163 24 -170 5z"/>
<path d="M60090 12005 c-140 -19 -342 -57 -720 -136 -184 -39 -519 -108 -745 -154 -1566 -320 -2065 -441 -3785 -920 -650 -181 -2186 -600 -2635 -719 -1201 -317 -1751 -473 -1859 -528 -68 -35 -176 -110 -176 -123 0 -19 35 -25 146 -25 111 0 328 41 634 121 149 39 476 124 1305 339 215 56 554 144 755 196 769 199 1692 440 2075 543 121 32 360 96 530 141 171 45 495 130 720 190 226 60 516 136 645 170 438 116 854 228 1075 289 1228 344 1315 368 1683 462 355 90 570 135 689 145 45 4 80 11 77 15 -8 13 -306 9 -414 -6z"/>
<path d="M66430 10971 c74 -26 272 -102 440 -168 318 -126 575 -220 1015 -371 377 -130 609 -214 970 -351 176 -68 364 -139 419 -159 l98 -37 -68 -5 -69 -5 55 -12 c30 -7 118 -26 195 -42 77 -17 219 -58 315 -91 282 -99 708 -224 1002 -294 233 -55 362 -82 694 -147 49 -9 52 -12 58 -47 17 -104 113 -235 207 -280 41 -20 109 -30 109 -16 0 8 -74 133 -131 223 -27 42 -49 81 -49 86 0 6 3 5 8 -1 10 -15 161 -42 317 -55 123 -11 283 -9 616 7 l135 7 37 -39 37 -39 0 38 c0 36 1 37 38 37 61 0 222 -27 297 -51 188 -58 245 -124 248 -289 1 -90 -13 -153 -65 -283 -91 -232 -162 -334 -318 -461 -43 -34 -28 -27 75 39 44 28 117 73 162 99 75 43 221 159 266 211 37 42 100 157 119 217 28 85 29 247 3 336 -33 116 -108 208 -210 260 -61 30 -240 89 -330 107 -44 9 -144 19 -221 22 l-141 6 -17 28 c-31 53 -164 184 -244 242 -212 153 -502 256 -842 301 -272 36 -490 30 -933 -25 -361 -44 -569 -67 -696 -78 -107 -9 -119 -8 -199 15 -106 31 -621 194 -897 284 -251 82 -662 211 -910 287 -330 100 -897 281 -1180 377 -312 106 -508 166 -533 165 -9 0 44 -22 118 -48z m5229 -1156 c271 -38 545 -136 726 -258 72 -49 185 -138 185 -146 0 -4 -132 -28 -294 -55 -333 -55 -289 -57 -521 18 -150 48 -676 191 -1362 369 -43 11 -58 27 -27 27 10 0 166 13 348 30 182 16 358 31 391 34 118 8 442 -3 554 -19z"/>
<path d="M47781 10684 c-35 -29 -41 -55 -12 -47 32 8 85 -24 192 -120 101 -90 201 -167 217 -167 4 0 23 -11 43 -24 l36 -25 -5 52 c-11 122 -114 256 -246 322 -57 29 -80 35 -132 35 -53 0 -67 -4 -93 -26z"/>
<path d="M75615 10609 c22 -6 123 -31 225 -55 636 -154 1445 -461 1965 -745 691 -380 1045 -751 1045 -1097 0 -193 -78 -342 -276 -532 -193 -185 -458 -345 -871 -526 -61 -27 -110 -50 -108 -52 7 -8 393 156 570 243 246 119 351 190 495 335 156 156 219 267 242 429 35 241 -104 508 -393 755 -238 204 -488 362 -875 554 -569 281 -1211 513 -1804 650 -96 23 -193 43 -215 46 l-40 5 40 -10z"/>
<path d="M47170 10425 c-75 -17 -194 -61 -208 -78 -8 -9 16 -12 101 -13 194 -2 436 -58 589 -135 120 -61 359 -235 482 -352 22 -20 41 -35 44 -32 12 12 -21 145 -53 213 -46 98 -174 227 -288 291 -91 51 -215 96 -307 110 -90 15 -282 12 -360 -4z"/>
<path d="M43240 9615 c-168 -18 -292 -39 -861 -144 -775 -144 -1340 -236 -2169 -351 -201 -28 -556 -77 -790 -110 -1402 -196 -2239 -300 -2920 -360 -354 -31 -436 -42 -469 -60 -11 -5 -46 -10 -79 -10 -204 0 -813 -83 -1297 -176 -99 -19 -407 -78 -685 -130 -480 -91 -803 -151 -1990 -369 -469 -86 -1032 -191 -1895 -354 -936 -176 -1835 -337 -2329 -416 -1482 -238 -2750 -397 -3901 -490 -874 -70 -1441 -103 -2875 -165 -2111 -91 -3792 -181 -5380 -285 -1880 -124 -2113 -141 -3010 -216 -1152 -96 -1775 -163 -2590 -279 -361 -52 -1363 -230 -1379 -246 -8 -8 20 -4 197 26 633 105 1306 185 2237 265 647 55 1214 92 2395 155 212 11 725 41 1140 65 3317 197 4030 234 6145 320 2696 109 3635 178 5272 385 1320 167 2401 352 5148 880 198 38 497 94 665 125 168 31 375 69 460 85 86 17 363 68 615 114 629 116 1247 233 1635 310 666 133 1253 225 1440 226 36 1 117 -2 180 -6 226 -12 615 35 1970 240 382 58 765 116 850 130 85 14 355 55 600 91 1798 267 2423 385 3450 655 192 51 365 87 485 103 80 11 -156 3 -265 -8z"/>
<path d="M58325 8296 c-241 -114 -511 -324 -873 -681 -423 -415 -647 -711 -742 -980 -99 -277 17 -474 367 -625 363 -156 974 -273 1848 -355 314 -29 721 -55 1480 -95 424 -22 860 -47 970 -56 914 -69 1443 -179 1758 -365 107 -63 225 -185 270 -279 59 -124 76 -216 96 -520 16 -225 51 -337 145 -452 482 -592 2722 -660 5651 -172 608 101 1444 262 2080 400 1351 294 3159 734 4245 1035 276 76 661 191 656 196 -2 2 -73 -15 -157 -37 -431 -117 -1944 -470 -3489 -814 -2600 -579 -4026 -824 -5470 -941 -812 -65 -1582 -72 -2144 -19 -628 59 -1066 189 -1254 372 -115 112 -155 220 -172 466 -20 294 -38 383 -107 526 -39 82 -58 107 -137 185 -184 182 -446 293 -904 384 -470 94 -882 131 -2162 196 -758 39 -1022 55 -1380 86 -991 84 -1652 217 -1948 391 -86 50 -185 153 -205 212 -25 73 -22 173 8 262 94 281 340 610 777 1039 340 335 538 493 783 622 112 59 117 70 10 19z"/>
<path d="M74771 7289 c-78 -47 -452 -236 -623 -313 -100 -46 -262 -120 -358 -163 -461 -210 -936 -379 -1345 -478 -490 -119 -844 -165 -1261 -165 -348 0 -677 34 -929 95 -16 5 -28 5 -25 2 3 -3 77 -24 165 -46 303 -76 548 -110 850 -118 976 -26 2098 301 3050 889 138 84 310 189 383 232 114 68 141 86 130 86 -2 0 -18 -9 -37 -21z"/>
<path d="M42133 5839 c-118 -31 -264 -94 -978 -421 -661 -302 -1086 -561 -1376 -835 -189 -179 -327 -374 -376 -530 -22 -71 -25 -96 -21 -180 3 -88 7 -104 38 -162 60 -113 199 -231 375 -319 190 -95 557 -214 880 -286 733 -162 1501 -248 2750 -306 1050 -49 1431 -75 1805 -126 697 -94 1139 -266 1365 -530 107 -126 174 -283 195 -461 6 -49 10 -206 8 -353 l-3 -265 28 -57 c69 -140 259 -237 674 -344 568 -145 1244 -242 2058 -295 266 -17 1266 -23 1625 -10 1668 60 2938 237 4435 617 403 102 421 109 125 45 -1166 -252 -2503 -423 -3805 -486 -1878 -91 -3224 -8 -4345 266 -318 78 -537 164 -599 234 -46 53 -51 85 -44 324 4 143 2 251 -6 320 -55 464 -329 768 -871 964 -229 83 -469 138 -807 186 -415 60 -763 85 -1828 136 -1095 52 -1836 125 -2455 241 -744 140 -1189 300 -1373 493 -71 74 -87 111 -87 199 0 161 115 350 347 573 256 245 537 424 1241 790 324 169 506 268 891 484 57 32 140 71 185 86 95 34 62 39 -51 8z"/>
<path d="M48057 5810 c-177 -45 -327 -260 -278 -401 8 -23 8 -36 0 -45 -16 -20 32 -47 70 -39 60 13 121 114 121 200 0 14 -6 41 -14 60 l-15 35 52 14 c46 13 228 29 330 30 20 0 37 3 37 6 0 16 -76 93 -114 115 -48 28 -132 39 -189 25z"/>
<path d="M30499 5176 c-766 -431 -1516 -958 -1846 -1299 -247 -254 -284 -417 -130 -568 221 -216 1013 -392 2045 -454 312 -18 422 -18 222 1 -690 67 -1464 208 -1840 336 -213 73 -366 162 -405 239 -73 141 118 366 660 775 262 197 1287 931 1455 1041 52 35 91 63 85 62 -5 0 -116 -60 -246 -133z"/>
<path d="M45860 5147 c0 -5 47 -111 104 -235 120 -263 157 -354 219 -547 80 -246 113 -396 152 -690 36 -277 57 -337 153 -437 70 -73 126 -106 272 -156 63 -22 151 -57 195 -79 74 -35 86 -38 165 -37 131 1 198 43 210 132 l6 47 -131 0 c-127 0 -132 1 -191 32 -34 18 -115 51 -180 73 -237 82 -264 113 -329 386 -65 268 -133 466 -277 793 -119 273 -367 755 -368 718z"/>
<path d="M45003 5073 c4 -44 28 -132 67 -248 92 -273 163 -514 229 -787 34 -136 73 -280 87 -320 120 -334 337 -547 639 -629 62 -17 110 -22 215 -23 152 -1 209 12 270 64 32 28 33 30 11 30 -33 0 -427 105 -507 135 -101 38 -174 87 -251 169 -76 79 -137 174 -178 274 -14 34 -70 207 -125 385 -135 437 -234 687 -357 901 -53 94 -70 116 -91 116 -12 0 -14 -12 -9 -67z"/>
<path d="M49230 4665 c-168 -35 -305 -115 -382 -221 -53 -74 -52 -87 1 -34 100 100 212 136 614 196 64 10 117 21 117 26 0 37 -231 59 -350 33z"/>
<path d="M49426 4489 c-222 -30 -399 -125 -486 -260 -43 -67 -61 -142 -40 -162 10 -9 11 -9 6 0 -11 20 28 95 68 131 88 77 228 121 477 152 317 38 390 57 376 93 -15 41 -248 67 -401 46z"/>
<path d="M49866 4268 c29 -109 9 -278 -41 -364 -73 -124 -241 -194 -464 -194 -136 0 -223 18 -299 61 -53 30 -54 30 -35 5 77 -105 351 -183 548 -157 198 27 327 109 394 250 23 49 26 69 26 156 0 89 -3 107 -28 160 -25 53 -90 135 -108 135 -3 0 0 -23 7 -52z"/>
</g>
</svg>