<?xml version="1.0" encoding="UTF-8" standalone="no"?>
<!DOCTYPE svg PUBLIC "-//W3C//DTD SVG 20010904//EN" "http://www.w3.org/TR/2001/REC-SVG-20010904/DTD/svg10.dtd">
<svg version="1.0" xmlns="http://www.w3.org/2000/svg" width="10827.000000pt" height="8070.000000pt" viewBox="0 0 10827.000000 8070.000000" preserveAspectRatio="xMidYMid meet">
<metadata>
Created by potrace 1.16, written by Peter Selinger 2001-2019
</metadata>
<g transform="translate(0.000000,8070.000000) scale(0.100000,-0.100000)" fill="#000000" stroke="none">
<path d="M81155 64923 c-1235 -22 -1478 -44 -1935 -176 -233 -68 -288 -81 -666 -156 -192 -38 -501 -101 -686 -140 -330 -69 -608 -119 -778 -140 -136 -16 -234 -21 -590 -31 -383 -10 -553 -25 -940 -80 -558 -79 -705 -88 -1590 -97 -474 -4 -800 -2 -1135 8 -463 13 -621 14 -2345 11 -874 -2 -1043 2 -1540 38 -803 58 -1095 68 -2235 76 -982 7 -1151 3 -2020 -46 -291 -16 -645 -35 -785 -42 -274 -13 -1668 -16 -3475 -8 -762 4 -1058 2 -1205 -8 -275 -18 -1001 -70 -1150 -82 -378 -30 -551 -45 -1010 -85 -278 -25 -741 -65 -1030 -90 -657 -57 -1073 -99 -1685 -170 -1301 -150 -2059 -218 -4895 -435 -1589 -122 -1548 -120 -2715 -120 -959 1 -1450 11 -1695 34 -85 9 -364 36 -620 61 -256 25 -557 56 -670 70 -473 57 -1023 107 -1535 140 -132 9 -386 27 -565 40 -628 47 -904 61 -1474 75 -699 17 -1280 41 -1471 60 -55 6 -202 31 -326 55 -462 91 -727 85 -1479 -36 -1031 -166 -1182 -194 -1534 -284 -342 -87 -845 -246 -1304 -411 -306 -111 -481 -184 -742 -309 -145 -70 -266 -120 -370 -154 -959 -308 -1041 -334 -1325 -406 -434 -111 -560 -134 -800 -142 -299 -10 -523 10 -1060 92 -446 68 -566 78 -910 78 -306 0 -512 -13 -859 -53 -492 -58 -701 -80 -710 -77 -6 3 -20 43 -30 91 -10 48 -22 88 -25 90 -3 2 -6 -39 -6 -92 l0 -97 -90 -7 c-185 -15 -647 -24 -860 -17 -255 8 -361 18 -730 64 -397 50 -558 63 -917 75 -178 6 -426 17 -553 25 -223 14 -436 23 -1035 45 -261 9 -462 24 -925 66 -117 11 -337 18 -700 21 -680 7 -794 -3 -1276 -106 -554 -119 -657 -130 -1334 -141 -586 -10 -826 -20 -1035 -45 -345 -41 -478 -55 -623 -65 -118 -8 -174 -16 -220 -33 -128 -47 -242 -149 -292 -262 -69 -154 -58 -369 26 -541 40 -80 170 -238 241 -290 75 -56 261 -175 340 -218 112 -61 328 -229 447 -347 49 -49 47 -42 -14 46 -104 147 -296 483 -247 430 9 -10 238 -372 474 -750 536 -860 824 -1420 978 -1900 69 -216 109 -437 110 -596 0 -82 -2 -88 -33 -130 -90 -120 -105 -169 -119 -374 -12 -185 -5 -374 17 -460 78 -306 373 -529 730 -552 160 -10 421 25 588 78 34 11 110 38 169 60 66 25 115 38 128 34 28 -9 25 -16 -20 -48 -22 -16 -40 -34 -40 -41 0 -24 96 -27 310 -11 113 8 267 18 343 22 l138 6 27 -26 c48 -45 155 -89 218 -88 30 0 59 3 64 6 9 5 7 29 -6 94 l-5 23 303 -6 c1013 -22 1575 -62 2503 -181 237 -30 687 -86 1000 -125 628 -77 841 -106 1109 -151 l179 -30 66 -67 c75 -77 147 -121 241 -150 36 -11 117 -36 181 -56 64 -20 161 -45 215 -56 54 -11 138 -32 186 -45 140 -40 232 -55 408 -65 119 -8 183 -16 230 -32 108 -35 343 -152 389 -194 52 -46 121 -145 121 -173 0 -25 -103 -667 -181 -1131 -71 -421 -143 -819 -238 -1325 -205 -1090 -241 -1407 -286 -2530 -26 -662 -44 -932 -100 -1540 -116 -1251 -137 -1747 -117 -2805 7 -355 12 -1284 12 -2065 0 -1429 7 -1911 35 -2565 24 -535 33 -1257 23 -1675 -16 -655 -21 -3586 -8 -4540 6 -484 15 -1420 20 -2080 6 -818 14 -1323 25 -1585 14 -326 16 -574 11 -1620 -5 -1256 -7 -1337 -51 -2050 -13 -223 -29 -497 -35 -610 -18 -353 -39 -639 -86 -1130 -65 -699 -72 -749 -184 -1310 -43 -217 -86 -453 -96 -525 -17 -134 -38 -203 -112 -371 -117 -265 -136 -444 -64 -599 28 -60 105 -150 146 -172 18 -10 18 -16 7 -144 -7 -74 -15 -289 -18 -477 -6 -318 -7 -341 -21 -300 -91 273 -245 674 -340 888 -449 1005 -991 1906 -1571 2610 -389 472 -936 984 -1318 1234 -138 90 -202 118 -288 123 l-70 4 44 -20 c99 -47 972 -980 1303 -1393 442 -551 826 -1142 1235 -1903 180 -334 246 -467 515 -1035 73 -154 169 -367 228 -510 29 -69 91 -217 140 -330 48 -113 115 -279 150 -370 34 -91 86 -227 116 -303 53 -134 134 -393 134 -431 0 -11 3 -17 6 -14 3 3 -9 118 -26 254 -41 332 -48 381 -76 506 -19 83 -27 162 -35 340 -15 320 -1 919 27 1155 l6 51 67 -1 c36 -1 84 1 107 5 l41 8 0 -473 c1 -660 26 -988 109 -1422 27 -143 117 -477 109 -405 -5 51 -21 330 -35 645 -5 116 -14 293 -19 395 -20 352 -31 646 -37 980 l-7 335 65 67 c80 82 126 168 171 318 66 220 72 366 22 545 -46 168 -47 208 -46 1780 1 1401 4 1640 32 2495 13 414 6 2616 -11 3040 -5 146 -14 380 -20 520 -6 140 -15 676 -20 1190 -5 514 -14 1246 -20 1625 -14 846 -8 4097 8 4380 11 177 34 776 47 1190 23 711 73 1541 131 2165 25 268 35 362 128 1200 25 223 66 601 91 840 25 239 79 725 120 1080 106 917 121 1065 180 1790 14 168 50 593 80 945 70 811 73 851 86 1080 18 303 13 970 -11 1610 -25 659 -24 1302 4 1775 27 449 46 840 46 922 0 88 -7 82 105 92 350 31 975 380 1567 874 212 177 288 264 367 419 43 85 61 158 61 240 0 62 4 80 27 116 48 77 234 317 273 355 124 116 372 209 790 293 144 29 176 32 450 39 225 6 325 4 420 -6 164 -18 360 -18 595 2 234 19 555 59 535 67 -45 17 -432 55 -895 87 -82 5 -199 19 -260 30 -140 26 -561 39 -705 22 -313 -38 -664 -134 -885 -242 -137 -68 -199 -117 -306 -243 -101 -120 -303 -309 -364 -340 -62 -32 -130 -88 -204 -169 -97 -106 -451 -409 -741 -635 -301 -234 -762 -565 -803 -576 -8 -2 -10 1003 -2 1011 2 2 32 -3 67 -12 322 -81 651 124 724 451 14 64 24 84 58 121 112 122 428 341 736 512 102 56 219 121 260 145 l75 43 170 -8 c420 -18 1300 -17 1665 3 129 6 426 11 660 10 447 -1 522 -6 1075 -68 121 -13 324 -34 450 -46 369 -34 337 -26 352 -79 15 -51 27 -124 77 -455 66 -432 92 -703 126 -1275 12 -208 38 -477 75 -780 64 -522 96 -698 200 -1095 188 -721 391 -1658 474 -2195 98 -636 125 -1041 146 -2175 34 -1844 39 -2459 27 -3270 -14 -909 -28 -1240 -82 -2045 -10 -157 -24 -388 -31 -515 l-11 -230 -35 -52 c-50 -76 -73 -143 -73 -218 0 -74 12 -87 55 -59 14 9 28 14 31 11 5 -5 -14 -647 -36 -1222 -18 -468 -40 -808 -85 -1330 -38 -443 -53 -630 -75 -930 -57 -781 -84 -1042 -185 -1795 -152 -1127 -210 -1730 -250 -2580 -41 -877 -106 -1556 -275 -2865 -153 -1186 -184 -1580 -240 -3020 -6 -143 -13 -536 -17 -873 -6 -555 -8 -612 -22 -606 -135 55 -147 57 -241 58 -82 1 -104 -3 -162 -26 -62 -26 -76 -28 -210 -28 -298 0 -668 72 -1081 211 -397 133 -884 373 -1207 593 -139 95 -259 241 -260 315 -1 25 -1 25 -15 7 -40 -53 -25 -191 35 -314 100 -207 369 -472 672 -662 471 -295 1062 -482 1798 -570 l175 -21 50 -49 c53 -52 279 -192 381 -237 52 -22 63 -32 69 -57 4 -17 9 -213 11 -436 l4 -405 -25 49 c-56 107 -94 138 -250 200 -33 13 -98 40 -145 59 -81 34 -183 65 -510 156 -168 46 -368 113 -490 164 -274 113 -340 141 -382 165 -26 15 -50 23 -54 20 -10 -11 62 -175 107 -245 47 -72 159 -181 241 -235 151 -101 276 -153 583 -243 213 -62 255 -76 339 -113 l58 -26 -6 -45 c-37 -284 -24 -470 49 -696 58 -178 66 -216 80 -357 8 -80 22 -166 31 -190 8 -24 18 -53 21 -65 5 -22 6 -21 29 10 27 36 78 139 119 240 15 38 53 108 83 155 30 48 71 119 91 157 l36 70 2 -130 c4 -259 24 -654 44 -860 40 -433 48 -809 23 -1105 -12 -145 -14 -264 -9 -555 7 -460 22 -799 40 -933 38 -274 172 -398 292 -270 32 33 70 127 84 202 l12 65 22 -64 c37 -112 91 -172 163 -182 l37 -5 -35 19 c-44 22 -75 84 -90 173 -13 84 -13 297 0 397 68 506 342 1161 815 1947 314 524 538 890 556 910 5 5 -7 -49 -26 -120 -19 -71 -50 -208 -70 -304 -20 -96 -58 -242 -85 -325 -113 -347 -198 -738 -249 -1150 -48 -379 -55 -499 -56 -885 l0 -375 58 -305 c32 -168 62 -315 68 -328 6 -15 16 -22 27 -20 16 3 17 24 17 248 0 300 20 1009 35 1220 25 361 86 890 102 890 4 0 8 -13 8 -28 0 -38 66 -365 86 -424 8 -26 26 -62 38 -81 17 -25 26 -59 34 -135 16 -139 59 -266 131 -384 l58 -97 -4 67 c-4 55 2 98 36 241 48 200 56 222 102 277 19 22 44 62 56 90 56 125 166 422 203 549 23 77 61 203 84 280 24 77 54 176 66 220 42 152 360 821 829 1744 l130 253 93 42 c51 24 115 55 142 71 l49 29 -37 -65 c-59 -102 -201 -388 -272 -547 -287 -640 -551 -1556 -580 -2012 -8 -117 10 -278 36 -338 11 -25 41 -67 66 -94 29 -31 42 -53 37 -61 -4 -7 -35 -53 -69 -102 -373 -549 -612 -1056 -705 -1490 -24 -114 -37 -409 -21 -485 9 -42 10 -38 11 45 1 115 14 193 52 330 98 348 340 820 647 1258 231 330 505 683 723 932 63 72 150 172 193 223 43 51 80 91 82 90 1 -2 17 -48 34 -102 18 -55 47 -132 65 -172 l33 -73 -86 -173 c-393 -781 -733 -1907 -815 -2693 -15 -151 -9 -672 8 -668 6 1 11 15 13 30 6 63 46 266 73 376 17 66 39 171 50 235 36 213 139 714 195 947 162 680 362 1301 583 1809 l22 49 41 -69 c158 -264 392 -483 654 -610 116 -57 197 -73 290 -57 138 24 249 107 307 231 29 62 32 76 34 182 l3 115 67 8 c147 16 257 72 334 169 117 147 134 302 57 514 l-31 87 7 146 c3 80 13 202 21 271 83 727 93 2039 19 2685 -44 394 -144 776 -408 1570 -171 513 -244 710 -366 995 -80 188 -154 409 -180 539 -25 125 -45 312 -60 566 -6 105 -22 343 -35 530 -48 684 -52 752 -85 1815 -37 1171 -40 1264 -50 1445 -6 99 -20 293 -30 430 -28 361 -38 540 -55 995 -36 947 -64 1326 -145 1923 -52 382 -66 512 -90 892 -11 176 -32 452 -45 613 -55 637 -59 731 -85 1867 -9 410 -22 647 -55 1050 -8 99 -24 315 -35 480 -11 165 -29 415 -40 555 -33 428 -40 583 -40 885 0 623 45 1681 105 2500 41 550 49 829 36 1314 -24 927 -83 1702 -211 2761 -151 1255 -172 1634 -162 2960 5 778 3 854 -34 1210 -18 175 -60 412 -115 644 -109 462 -134 621 -175 1119 -24 284 -26 330 -13 338 7 5 41 9 74 9 33 0 107 4 165 10 58 5 285 21 505 35 665 42 813 60 1345 170 96 20 263 52 370 71 355 63 660 138 1115 274 235 70 610 177 790 225 55 15 162 44 237 66 607 174 927 210 2023 229 297 5 596 14 665 20 304 24 689 29 2485 36 1051 4 1944 8 1985 9 213 3 553 -17 755 -45 39 -6 169 -24 290 -41 121 -16 436 -63 700 -104 485 -75 707 -107 1180 -170 390 -51 473 -61 795 -95 482 -50 837 -101 1255 -180 55 -10 138 -25 185 -34 397 -71 637 -123 1125 -245 597 -148 817 -195 1320 -281 695 -118 1471 -232 1905 -280 222 -25 357 -46 427 -66 45 -13 59 -24 110 -87 32 -40 81 -98 110 -129 52 -57 53 -59 53 -121 0 -203 72 -735 161 -1182 32 -166 29 -151 193 -765 142 -529 122 -466 219 -695 44 -104 120 -293 169 -420 98 -252 90 -217 143 -655 49 -402 203 -1456 270 -1845 38 -218 114 -658 135 -780 11 -60 62 -368 115 -684 53 -316 121 -694 151 -840 132 -640 259 -1308 389 -2056 15 -82 42 -222 60 -310 204 -966 401 -2386 514 -3705 49 -566 101 -1330 117 -1705 4 -93 9 -165 11 -158 3 7 -5 326 -16 710 -12 384 -28 948 -36 1253 -29 1053 -33 1198 -70 2170 -68 1798 -50 1498 -230 3735 -24 304 -62 652 -120 1125 -46 377 -105 856 -130 1065 -25 209 -59 477 -75 595 -81 596 -185 1478 -230 1945 -36 384 -85 1103 -75 1113 2 3 33 -13 67 -35 35 -22 104 -62 153 -88 120 -64 182 -107 292 -203 147 -128 220 -171 424 -251 122 -48 176 -80 256 -153 198 -181 405 -294 619 -337 174 -35 307 -43 849 -51 573 -9 563 -8 820 -74 133 -33 254 -52 457 -71 206 -18 355 -39 843 -116 621 -98 636 -100 1130 -129 94 -6 184 -13 200 -16 30 -5 -40 25 -260 111 -276 107 -685 192 -1110 230 -343 31 -753 64 -860 70 -168 9 -296 24 -450 52 -138 26 -150 26 -770 33 -511 6 -649 11 -730 24 -203 33 -323 79 -480 183 -116 77 -380 315 -444 400 -138 185 -238 470 -260 744 -12 140 -29 235 -62 330 -38 112 -124 280 -205 404 -44 66 -85 134 -92 150 -6 17 -32 113 -57 215 -26 102 -67 255 -92 340 -53 183 -83 318 -83 380 0 39 9 56 65 135 140 195 319 409 360 431 22 11 155 82 296 156 278 147 383 193 529 233 152 40 147 28 -10 -24 -267 -88 -385 -145 -466 -226 -60 -60 -82 -112 -64 -154 12 -31 56 -58 62 -39 7 19 201 24 728 17 394 -6 552 -12 635 -24 61 -8 181 -25 267 -35 185 -24 199 -28 389 -118 279 -134 344 -149 699 -162 140 -5 282 -12 316 -14 86 -7 276 9 466 39 342 55 352 55 1153 65 418 5 803 13 855 19 52 5 147 13 210 17 l115 8 -175 13 c-104 8 -516 17 -1015 22 -775 9 -850 11 -970 30 -341 54 -518 109 -687 214 -38 23 -68 44 -68 47 0 3 46 5 103 6 145 1 268 25 548 109 315 94 418 102 1087 81 268 -9 616 -16 773 -16 156 0 403 -7 549 -15 370 -20 921 -18 920 4 -1 11 -180 81 -243 96 -81 18 -196 32 -392 45 -88 6 -261 22 -385 35 -136 14 -324 26 -475 30 -331 8 -518 20 -764 51 -537 66 -703 121 -1145 373 -193 110 -261 139 -463 197 -85 24 -163 49 -172 55 -25 16 1236 4 1554 -15 997 -59 1199 -76 1950 -160 121 -14 271 -30 333 -37 l113 -12 18 -36 c38 -73 200 -303 406 -576 243 -322 358 -481 471 -650 404 -605 605 -1137 688 -1820 29 -233 39 -509 33 -890 -6 -383 -11 -462 -77 -1205 -85 -970 -83 -1205 25 -2355 13 -148 38 -448 55 -665 48 -631 73 -853 151 -1350 114 -730 132 -859 188 -1365 41 -365 70 -656 116 -1155 59 -636 110 -939 234 -1392 45 -162 54 -217 85 -478 107 -903 173 -1663 201 -2320 8 -201 22 -491 30 -645 19 -343 22 -674 11 -1253 l-8 -444 -95 -121 c-52 -67 -133 -175 -179 -239 -47 -65 -88 -119 -92 -122 -5 -3 -39 7 -77 20 -59 22 -76 33 -110 76 -102 130 -280 300 -450 430 -33 25 -138 123 -233 217 -226 224 -383 350 -510 409 -50 24 -69 27 -157 27 -84 0 -107 -4 -143 -23 -96 -51 -164 -154 -235 -358 -77 -218 -163 -404 -239 -517 -67 -101 -196 -220 -281 -262 -74 -35 -75 -35 -213 -35 -116 0 -162 5 -279 29 -275 58 -519 67 -607 22 -24 -13 -70 -49 -104 -82 l-61 -60 -194 -9 c-107 -5 -234 -14 -284 -20 -49 -6 -137 -15 -195 -19 l-105 -7 70 -7 c203 -21 402 -37 590 -47 232 -12 251 -10 335 46 34 23 57 29 114 33 87 5 265 -13 406 -41 117 -23 491 -40 570 -26 50 9 142 44 239 91 127 61 251 206 356 416 41 83 145 330 145 346 0 4 18 53 41 111 44 114 49 117 114 90 42 -18 127 -96 166 -153 16 -23 68 -119 115 -213 47 -95 115 -215 150 -268 35 -52 64 -97 64 -98 0 -2 -21 3 -47 11 -76 23 -74 17 4 -16 78 -33 105 -60 186 -184 74 -116 184 -334 212 -425 37 -115 89 -212 151 -279 47 -52 52 -62 63 -129 19 -118 63 -217 185 -408 243 -384 301 -501 501 -1014 108 -277 164 -412 320 -760 70 -157 153 -348 185 -425 116 -281 254 -585 370 -810 124 -242 153 -310 220 -520 23 -71 55 -155 72 -185 19 -36 34 -86 44 -145 8 -49 30 -158 49 -241 34 -149 35 -159 55 -605 38 -860 64 -1157 181 -2094 55 -441 108 -632 259 -935 93 -187 99 -205 194 -585 42 -165 103 -385 136 -490 34 -104 97 -332 141 -505 44 -173 100 -385 125 -470 24 -85 44 -157 44 -161 0 -4 -40 -4 -89 -1 -86 4 -305 -9 -461 -28 -197 -25 -660 -49 -1057 -56 -238 -4 -433 -10 -433 -15 0 -12 95 -81 160 -117 184 -101 617 -174 935 -157 352 18 716 97 897 193 48 25 89 44 91 42 2 -3 25 -79 52 -170 26 -91 65 -223 86 -295 22 -71 39 -135 39 -140 0 -6 -32 -31 -72 -55 -120 -75 -359 -248 -435 -316 -112 -101 -149 -197 -103 -272 39 -64 135 -79 249 -41 35 12 171 75 302 141 131 65 242 119 246 119 9 0 18 -48 78 -396 59 -342 93 -571 155 -1030 28 -209 77 -569 110 -800 32 -231 80 -584 105 -785 121 -964 222 -1487 447 -2329 276 -1036 314 -1210 458 -2139 49 -312 73 -447 179 -987 44 -225 101 -518 126 -650 57 -295 116 -528 233 -925 73 -247 94 -334 111 -460 79 -560 291 -1404 513 -2034 27 -77 108 -301 180 -496 127 -346 228 -639 228 -665 0 -8 -33 -14 -114 -18 -62 -4 -126 -9 -142 -12 -27 -6 -32 -1 -88 86 -105 165 -261 490 -613 1284 -398 896 -601 1271 -1118 2055 -56 85 -112 177 -123 203 -13 29 -27 47 -34 45 -8 -3 -18 -46 -27 -114 -29 -226 9 -387 220 -912 84 -211 89 -222 85 -222 -1 0 -22 33 -46 73 -24 39 -125 196 -225 347 -100 151 -206 313 -235 360 -114 178 -246 361 -630 875 -672 898 -1051 1431 -1148 1614 -24 45 -56 116 -72 159 -39 103 -37 85 6 -72 93 -338 269 -689 645 -1281 72 -116 167 -265 209 -331 79 -126 121 -228 190 -463 35 -121 218 -662 315 -929 90 -250 224 -688 279 -912 165 -671 185 -1231 71 -1960 -80 -505 -317 -1416 -425 -1630 -90 -179 -175 -136 -221 112 -25 138 -22 690 6 1133 9 135 -45 -302 -64 -525 -38 -434 -35 -629 10 -776 16 -52 31 -77 68 -114 80 -80 167 -78 261 7 114 103 217 306 339 671 225 670 349 1337 352 1896 1 103 2 186 4 184 2 -2 20 -46 41 -98 127 -323 266 -553 556 -918 62 -79 72 -105 158 -417 23 -82 60 -208 81 -279 49 -160 94 -336 124 -486 l23 -115 1 115 c1 132 -15 551 -24 655 -6 61 -5 68 8 53 9 -12 18 -71 26 -186 19 -268 48 -526 76 -672 24 -128 117 -433 138 -455 6 -6 8 190 5 542 l-5 552 36 -19 c21 -10 61 -23 90 -28 37 -7 57 -16 68 -33 9 -13 45 -52 80 -87 108 -104 273 -175 488 -208 231 -35 429 -27 582 22 l81 27 42 -35 c52 -45 147 -92 226 -112 78 -20 212 -21 287 -1 76 20 82 19 95 -10 17 -37 28 -30 24 15 -2 22 0 40 6 40 5 0 26 -29 47 -64 75 -128 153 -196 225 -196 l31 0 -26 23 c-29 25 -61 113 -95 259 l-22 97 36 43 c113 132 149 319 111 574 -8 54 -21 176 -29 269 -16 184 -33 276 -72 399 -29 93 -38 216 -55 796 -13 437 -3 811 31 1140 24 238 25 241 56 277 137 155 178 222 239 392 67 189 115 411 150 706 61 505 102 749 141 843 15 34 28 61 31 59 9 -10 -32 -398 -58 -542 -30 -167 -71 -484 -89 -690 -38 -447 -64 -1267 -57 -1835 5 -457 14 -613 58 -918 35 -250 133 -600 201 -722 36 -64 340 -511 345 -506 2 2 -21 54 -51 117 -69 144 -110 269 -135 412 -11 61 -29 166 -40 232 -22 129 -64 521 -80 750 -15 214 -33 775 -29 913 l3 124 43 -189 c31 -131 68 -255 124 -408 44 -121 98 -272 119 -335 40 -119 46 -128 30 -44 -31 163 -35 279 -45 1429 l-6 560 24 -120 c42 -210 85 -388 140 -571 30 -99 62 -207 71 -241 16 -58 27 -74 38 -55 3 4 -1 52 -8 107 -21 162 -35 541 -34 949 l0 381 45 -185 c75 -315 167 -624 242 -819 l29 -74 -39 -121 c-104 -329 -164 -712 -175 -1116 -12 -495 58 -967 204 -1365 39 -105 133 -327 144 -339 21 -24 17 9 -15 111 -106 337 -169 846 -170 1358 0 334 12 492 59 765 29 163 95 450 105 450 4 0 19 -24 35 -52 72 -135 205 -318 286 -394 190 -179 410 -203 564 -63 92 85 129 198 106 323 -12 64 -9 75 12 58 21 -18 94 -41 163 -52 81 -13 182 1 265 37 l62 27 16 -24 c47 -70 39 -70 132 2 46 35 106 80 134 99 27 19 53 37 57 40 5 3 -19 50 -52 104 l-60 99 0 93 c0 121 -26 202 -130 403 -517 999 -670 1354 -875 2035 -37 120 -86 278 -110 350 -76 226 -203 840 -264 1275 -80 567 -102 903 -126 1920 -11 485 -42 1126 -95 2025 -79 1321 -169 2004 -449 3417 -39 196 -71 364 -71 373 0 9 29 48 64 86 84 91 118 161 124 260 4 69 2 82 -22 126 -46 84 -137 127 -221 105 -22 -6 -42 -9 -44 -7 -2 2 -34 212 -72 467 -128 858 -166 1043 -369 1788 -184 674 -249 962 -389 1710 -33 179 -95 507 -136 730 -126 675 -347 1788 -599 3017 -69 337 -195 977 -281 1422 -272 1420 -388 1967 -661 3126 -47 198 -114 482 -149 630 -35 149 -93 394 -129 545 -94 397 -197 839 -341 1460 -331 1431 -448 1911 -644 2630 -67 245 -141 522 -165 615 -25 94 -45 164 -45 156 -1 -8 42 -202 95 -430 139 -607 224 -996 398 -1831 85 -410 171 -819 190 -910 19 -91 91 -435 161 -765 182 -865 385 -1846 450 -2175 31 -157 85 -431 120 -610 153 -773 280 -1469 440 -2400 202 -1178 236 -1363 560 -3095 241 -1289 262 -1404 389 -2105 163 -895 208 -1095 416 -1830 188 -664 241 -908 320 -1470 22 -162 61 -437 85 -610 l44 -315 -21 -17 c-67 -50 -278 -174 -903 -528 -689 -390 -983 -591 -1030 -704 -45 -108 12 -192 125 -183 88 7 361 106 630 227 255 115 820 411 1173 614 65 37 120 66 121 65 8 -11 106 -541 102 -548 -3 -5 -23 -11 -44 -15 -121 -19 -456 -153 -744 -297 -138 -69 -535 -288 -563 -310 -6 -4 -101 -53 -211 -108 -227 -113 -254 -134 -254 -207 0 -128 113 -176 331 -139 196 32 395 109 844 325 94 45 265 125 380 177 116 53 240 111 278 129 48 25 69 31 72 22 7 -22 73 -401 109 -633 113 -716 157 -1184 211 -2240 14 -275 32 -618 40 -763 16 -295 28 -652 20 -637 -2 6 -27 143 -54 305 -27 162 -70 396 -95 520 -101 505 -163 869 -236 1405 -28 203 -54 372 -57 375 -3 3 -2 -20 2 -51 13 -103 11 -1014 -3 -1199 -15 -206 -61 -683 -67 -689 -6 -6 -9 6 -45 184 -35 176 -102 448 -216 890 -41 160 -104 403 -140 540 -36 138 -89 329 -119 425 -55 181 -134 448 -142 487 -4 18 5 29 55 60 98 61 102 67 19 23 -44 -23 -82 -39 -85 -35 -4 4 -21 61 -39 128 -18 67 -30 104 -28 82 2 -22 7 -86 11 -141 l6 -102 -135 -76 c-185 -104 -294 -154 -482 -220 -212 -74 -349 -115 -587 -175 -229 -57 -292 -87 -382 -176 -63 -63 -130 -166 -158 -245 -37 -100 -50 -248 -53 -620 -2 -299 -15 -377 -78 -477 -25 -41 -268 -361 -435 -573 l-27 -35 41 32 c22 18 97 62 165 99 486 264 601 365 681 594 41 119 63 261 78 520 21 354 21 352 222 590 84 99 130 132 318 229 258 135 424 231 629 370 107 72 196 130 197 128 1 -1 7 -141 13 -312 12 -308 29 -520 76 -940 33 -291 41 -396 65 -800 37 -618 58 -863 110 -1300 68 -556 78 -704 61 -873 -14 -133 -22 -159 -56 -172 -37 -14 -133 -76 -187 -121 l-46 -39 -6 38 c-3 20 -24 179 -46 352 -86 666 -141 1058 -226 1615 -43 277 -55 380 -52 445 3 75 1 85 -14 82 -12 -2 -19 7 -23 30 -92 525 -122 690 -166 930 -29 158 -55 285 -57 283 -2 -2 5 -59 17 -127 41 -247 103 -629 142 -888 l40 -265 -33 -24 c-82 -61 -303 -298 -428 -460 -420 -543 -681 -805 -920 -926 l-55 -28 40 -14 c95 -34 250 5 429 107 229 131 587 457 765 698 111 150 131 184 186 314 36 86 44 99 49 78 11 -45 65 -479 101 -800 55 -503 100 -1068 111 -1410 l6 -185 -97 -110 c-54 -60 -139 -155 -189 -210 -131 -143 -170 -191 -296 -365 -61 -85 -115 -154 -118 -153 -8 3 -7 -1 -56 333 -46 320 -100 784 -126 1085 -11 132 -28 314 -37 405 -8 91 -18 235 -22 320 -3 90 -10 154 -16 154 -14 -2 -107 -189 -132 -264 -33 -101 -72 -300 -91 -460 -14 -126 -17 -277 -17 -1145 -1 -643 -5 -1052 -12 -1146 l-12 -147 -89 -178 c-86 -172 -193 -419 -207 -477 -4 -15 -11 -27 -16 -27 -5 0 -9 2 -9 5 0 2 -47 172 -104 377 -103 365 -141 494 -344 1163 -197 648 -275 938 -415 1535 -18 80 -38 144 -43 143 -13 -2 -70 -227 -89 -348 -35 -222 -30 -633 16 -1155 33 -390 77 -970 83 -1100 l5 -125 -79 385 c-81 399 -117 598 -220 1225 -86 518 -152 836 -274 1310 -267 1040 -307 1219 -396 1740 -52 302 -78 489 -145 1025 -31 245 -71 555 -90 690 -19 135 -66 484 -105 775 -79 595 -105 776 -156 1083 -30 185 -95 533 -110 598 -5 19 14 33 158 115 300 170 393 235 433 303 51 87 22 196 -67 246 -36 21 -56 25 -123 24 -100 0 -166 -21 -361 -118 -80 -39 -147 -70 -148 -66 -2 3 -13 48 -25 100 -38 162 -171 731 -191 815 -190 792 -240 1123 -330 2205 -78 933 -107 1146 -260 1930 -95 486 -122 646 -195 1152 -84 586 -113 730 -260 1283 -116 436 -118 452 -111 695 6 224 26 472 56 705 84 640 82 620 77 905 -8 376 -46 635 -148 1000 -144 514 -197 710 -269 990 -126 490 -184 676 -309 988 -32 81 -62 167 -66 192 -21 137 -85 338 -164 518 -50 115 -126 572 -246 1477 -155 1181 -224 1613 -391 2460 -123 619 -191 894 -334 1330 l-68 210 -27 330 c-30 382 -85 998 -120 1365 -99 1005 -120 1311 -150 2120 -31 818 -36 1979 -11 2284 14 163 56 795 65 976 32 622 21 1078 -39 1605 -89 785 -314 1409 -724 2015 -39 57 -75 111 -80 119 -7 11 1 13 45 7 30 -3 133 -11 229 -16 193 -11 293 -26 435 -65 111 -30 127 -37 325 -130 185 -88 323 -136 502 -175 116 -26 152 -39 286 -106 116 -58 166 -89 201 -125 44 -45 47 -52 59 -129 24 -166 108 -289 398 -579 l204 -203 10 -182 c9 -175 26 -368 35 -394 2 -6 -42 34 -99 91 -316 317 -730 517 -1065 517 -104 0 -152 -12 -194 -49 -24 -22 -31 -37 -31 -66 0 -57 37 -84 170 -123 215 -62 362 -132 524 -253 174 -129 303 -285 408 -494 16 -33 51 -89 77 -124 26 -35 60 -95 76 -134 65 -161 146 -241 400 -396 42 -26 48 -36 81 -122 20 -52 66 -170 103 -264 268 -685 486 -1299 594 -1675 73 -256 160 -662 221 -1037 17 -103 37 -228 45 -278 28 -170 74 -481 125 -840 117 -822 194 -1226 415 -2155 198 -832 279 -1199 415 -1885 66 -330 131 -649 144 -710 39 -175 64 -305 100 -530 39 -238 42 -235 21 20 -8 99 -17 279 -20 400 -16 632 -65 1294 -126 1725 -62 438 -101 666 -229 1320 -136 694 -168 926 -235 1675 -58 655 -137 1316 -206 1730 -77 467 -126 672 -334 1415 -116 413 -219 798 -275 1018 l-31 123 45 50 c58 64 80 130 74 218 -8 110 -61 189 -174 261 -35 22 -64 45 -64 50 0 6 -13 104 -30 218 -49 346 -60 500 -75 1106 -8 319 -14 580 -12 581 33 18 147 107 183 142 137 137 203 338 160 487 -10 32 -15 60 -13 63 3 2 35 -5 71 -16 163 -50 432 -77 696 -68 283 10 474 38 805 117 444 106 678 133 1325 152 404 12 1261 0 1550 -22 485 -36 835 -32 1215 12 156 18 268 22 835 28 592 7 1352 30 1520 46 276 25 518 64 990 158 811 162 1081 235 1680 459 332 124 493 193 760 327 120 60 335 162 477 226 142 64 344 159 448 212 251 125 318 153 498 208 155 47 294 102 449 180 205 103 416 170 618 198 58 8 200 18 315 21 l210 6 105 -31 c58 -17 134 -40 170 -51 76 -23 357 -53 415 -44 95 14 187 81 233 169 36 69 39 197 5 266 -27 54 -102 133 -144 150 -32 14 -36 27 -15 44 7 6 74 58 147 115 170 132 222 181 270 255 54 81 87 186 155 491 67 301 84 507 65 830 -7 110 -16 403 -21 650 -13 630 -31 800 -144 1373 -65 329 -78 408 -106 652 -29 250 -29 456 -2 626 32 196 45 365 32 415 -20 75 -82 124 -413 327 -205 126 -589 303 -829 381 -210 69 -361 102 -663 146 -99 14 -274 46 -390 71 -268 57 -406 78 -740 109 -405 37 -467 47 -850 137 -317 73 -342 79 -830 179 -214 44 -471 97 -569 119 -99 21 -263 53 -365 69 -1059 174 -976 165 -1471 154 -519 -11 -834 -6 -1150 17 -432 33 -847 43 -1365 33z m-825 -543 c91 -6 298 -23 460 -40 162 -16 385 -37 495 -45 110 -9 200 -17 201 -18 1 -1 38 -81 84 -177 183 -387 381 -835 410 -925 l22 -70 -1 -990 c-1 -595 2 -1060 9 -1165 22 -373 60 -663 125 -970 20 -91 49 -228 65 -305 16 -77 43 -250 60 -385 40 -319 72 -487 122 -635 22 -66 51 -157 64 -203 29 -100 67 -177 126 -257 46 -62 162 -179 235 -237 23 -18 42 -36 42 -40 1 -10 -78 -10 -225 -2 l-110 7 -39 61 c-21 34 -100 142 -174 241 -327 435 -427 646 -591 1249 -27 100 -166 645 -309 1211 -292 1157 -319 1261 -320 1224 -1 -43 28 -345 50 -509 51 -393 301 -1846 364 -2123 103 -449 243 -771 511 -1179 l103 -158 -72 0 c-40 0 -193 7 -342 15 -148 8 -287 15 -307 15 l-38 0 0 134 c0 344 -91 883 -291 1721 -140 587 -185 841 -202 1155 -1 25 -6 -36 -11 -135 -15 -300 5 -542 110 -1325 80 -604 119 -922 139 -1160 9 -102 20 -228 24 -280 5 -52 8 -96 7 -97 -1 -1 -141 2 -311 7 -171 5 -539 10 -820 10 -609 0 -1429 14 -2060 35 -253 8 -644 19 -870 25 -524 13 -1109 31 -1113 35 -1 1 10 36 27 76 36 93 89 324 102 449 16 159 22 948 10 1375 -13 474 -26 737 -46 935 -16 159 -62 373 -79 367 -17 -6 -53 -160 -70 -303 -40 -321 -73 -1340 -62 -1970 6 -379 9 -428 59 -909 2 -18 -5 -19 -203 -16 -113 2 -206 4 -207 5 -2 2 4 52 12 113 30 232 38 538 32 1323 -6 749 -12 967 -42 1535 -27 501 -51 789 -101 1225 -13 118 -25 224 -26 235 -10 123 -13 -467 -10 -1970 3 -990 1 -1948 -3 -2129 l-7 -329 -302 7 c-829 19 -1630 52 -2096 87 -404 30 -679 59 -1470 154 -250 30 -626 75 -835 100 -209 25 -537 68 -730 95 -560 80 -794 108 -1048 126 l-237 18 7 65 c14 121 6 371 -22 626 -22 211 -28 322 -35 710 -5 253 -14 611 -19 795 -6 184 -11 540 -11 790 0 547 -16 793 -70 1078 -11 57 -21 117 -22 135 -1 18 -5 -20 -9 -83 -4 -64 -2 -227 4 -365 15 -321 13 -1495 -2 -1820 -7 -137 -18 -316 -26 -397 -17 -183 -100 -770 -126 -897 -18 -91 -159 -519 -194 -592 l-17 -36 -366 -6 c-695 -13 -1502 -60 -2019 -118 -103 -12 -294 -25 -423 -29 -177 -6 -271 -15 -381 -34 -166 -28 -325 -67 -401 -97 -60 -23 -53 -22 -643 -133 -872 -165 -1072 -197 -2265 -356 -559 -75 -887 -101 -1426 -116 l-241 -6 -26 34 c-59 77 -84 161 -183 613 -62 284 -89 452 -113 695 -37 366 -53 668 -49 915 1 128 2 232 0 230 -1 -1 -13 -40 -26 -86 -13 -46 -39 -141 -59 -211 -95 -337 -130 -857 -108 -1613 10 -362 14 -401 52 -565 4 -13 -23 -15 -196 -13 -174 1 -898 23 -901 27 -1 0 -6 69 -13 151 -6 83 -29 296 -51 475 -41 331 -65 529 -216 1805 -163 1381 -170 1436 -360 2543 -21 123 -40 219 -42 213 -2 -5 15 -151 37 -323 109 -838 186 -1679 291 -3163 17 -236 39 -529 50 -650 21 -224 93 -851 110 -960 17 -103 27 -95 -112 -95 -68 0 -167 3 -220 7 -83 5 -98 9 -98 23 0 9 -31 142 -69 296 -75 306 -140 597 -177 799 l-24 130 5 -184 c3 -102 3 -377 -1 -613 l-7 -429 -51 5 c-371 41 -559 63 -756 92 -129 19 -388 57 -575 84 -187 27 -533 74 -770 105 -342 44 -443 60 -495 80 -81 31 -479 172 -540 191 -240 76 -998 275 -1210 317 -426 86 -795 109 -1315 83 -177 -9 -474 -23 -660 -31 -416 -18 -472 -25 -720 -80 -187 -41 -339 -54 -960 -80 -403 -17 -549 -27 -810 -55 -99 -11 -263 -27 -365 -35 -720 -60 -1787 -237 -3055 -507 -306 -65 -343 -70 -510 -79 -416 -20 -757 -51 -951 -85 -51 -9 -98 -14 -106 -12 -8 1 -89 84 -180 183 -271 295 -421 435 -678 635 -202 156 -267 222 -285 285 -31 115 -27 286 25 925 25 297 38 404 56 450 l14 35 -20 -25 c-72 -89 -120 -271 -201 -755 -22 -132 -56 -325 -76 -430 -20 -108 -35 -222 -35 -265 -1 -143 51 -229 296 -494 198 -214 480 -545 471 -554 -4 -4 -35 -7 -70 -6 -71 1 -88 9 -261 125 -154 103 -221 142 -452 266 -326 173 -389 221 -546 406 -52 62 -142 159 -201 217 -58 58 -122 126 -141 152 -99 133 -145 438 -85 556 11 21 49 71 86 112 221 246 279 328 356 505 31 72 81 178 111 236 60 116 96 222 128 374 41 192 38 750 -5 957 -51 245 -154 421 -385 658 -137 141 -176 188 -207 248 l-24 47 6 -37 c18 -116 45 -340 45 -383 0 -28 -14 -107 -32 -175 -37 -150 -39 -223 -20 -810 15 -462 28 -551 120 -795 37 -99 45 -132 45 -190 2 -170 -76 -336 -257 -549 -92 -108 -118 -162 -124 -259 -6 -99 11 -204 54 -337 50 -156 88 -213 237 -354 71 -67 179 -180 242 -252 62 -72 157 -171 212 -220 197 -177 337 -326 406 -430 58 -87 187 -336 187 -360 0 -5 -60 -27 -133 -48 -72 -22 -179 -55 -237 -73 -124 -39 -134 -40 -125 -12 9 28 -21 156 -60 259 -98 258 -240 463 -665 965 -244 288 -344 400 -511 570 l-157 160 -7 75 c-7 85 6 190 30 227 9 13 60 70 113 126 172 182 244 295 283 450 17 66 22 124 26 290 8 335 -18 589 -112 1067 -62 320 -91 501 -101 655 -8 109 -8 109 -17 55 -4 -30 -9 -134 -9 -230 0 -147 5 -207 31 -380 49 -321 60 -413 72 -595 25 -383 -19 -744 -108 -898 -37 -62 -163 -199 -288 -313 -64 -57 -110 -108 -126 -140 -16 -28 -41 -111 -59 -194 -61 -271 -48 -310 180 -541 176 -178 661 -699 840 -904 68 -77 164 -196 214 -264 256 -347 296 -399 339 -439 29 -26 42 -44 35 -47 -227 -79 -628 -186 -938 -250 -96 -19 -242 -51 -325 -71 -544 -129 -679 -144 -1334 -144 -639 -1 -1317 -16 -1551 -35 -166 -14 -228 -15 -325 -6 -66 6 -212 16 -325 21 -194 11 -281 18 -620 55 -80 9 -228 24 -330 35 -102 11 -279 31 -395 44 -115 14 -397 42 -625 61 -228 20 -516 47 -640 60 -373 41 -459 46 -855 52 -355 5 -527 1 -1015 -27 -201 -11 -936 -21 -1750 -25 -676 -3 -704 -5 -1070 -74 -58 -11 -125 -24 -150 -30 -25 -5 -126 -21 -225 -36 -99 -14 -249 -37 -333 -50 -197 -32 -345 -42 -729 -51 l-311 -7 -6 44 c-4 24 -20 224 -36 444 -92 1226 -181 2031 -320 2905 -45 278 -135 788 -145 817 -4 12 23 18 135 28 36 4 157 17 270 30 808 95 1155 94 1765 -9 392 -66 617 -86 954 -86 390 0 556 19 911 106 339 83 635 170 1136 334 483 159 694 216 1012 275 305 56 423 87 822 215 929 296 1299 389 2025 506 154 25 365 61 469 80 193 35 232 43 636 138 129 30 316 69 415 86 99 17 272 49 385 71 194 39 219 41 470 49 146 5 328 7 405 4 77 -2 365 -9 640 -14 739 -15 1003 -28 1655 -80 201 -16 437 -34 525 -40 435 -30 913 -73 1465 -130 385 -40 489 -50 740 -70 140 -10 372 -29 515 -42 254 -22 286 -23 1450 -22 1177 2 1489 8 1970 40 281 18 1568 125 2330 193 308 28 765 69 1015 91 906 81 1424 139 2290 256 1121 151 1562 206 2335 289 729 78 1650 181 2455 275 825 96 961 107 1485 120 707 17 1702 30 2395 30 873 0 1200 13 1925 75 967 83 1115 92 1850 106 896 18 1553 5 2475 -48 384 -22 564 -26 1154 -30 733 -5 974 1 1379 37 396 35 698 43 1282 34 577 -10 1068 -11 1900 -6 470 3 544 2 770 -18 354 -31 579 -35 873 -17 136 9 358 19 494 22 442 9 666 41 1358 190 617 133 707 146 1166 165 133 5 333 19 445 30 320 31 468 35 719 20z m2379 -269 c74 -6 234 -11 355 -11 416 0 885 -25 1123 -60 305 -45 435 -79 928 -245 442 -149 542 -178 788 -230 414 -87 519 -110 787 -170 483 -109 635 -128 1295 -166 445 -26 553 -22 985 36 381 51 572 62 827 47 220 -13 428 -39 571 -73 130 -31 268 -78 292 -102 20 -18 22 -26 16 -83 -4 -35 -20 -132 -36 -216 -22 -109 -34 -217 -45 -378 -7 -124 -21 -297 -31 -385 -21 -208 -15 -416 20 -615 71 -406 91 -702 81 -1245 -14 -847 -34 -1064 -140 -1485 -50 -200 -68 -256 -93 -283 -9 -11 -69 -54 -132 -97 -63 -42 -169 -119 -235 -170 -138 -107 -173 -130 -199 -130 -11 0 -51 20 -90 44 -200 123 -294 151 -605 181 -195 18 -573 92 -721 141 -124 41 -214 91 -409 227 -303 212 -458 289 -672 337 -48 11 -210 36 -361 57 -227 30 -302 37 -443 36 -301 0 -454 -40 -783 -204 l-203 -102 -102 17 c-56 8 -196 27 -312 41 -115 15 -298 40 -405 56 -107 16 -240 37 -295 45 -327 49 -518 93 -720 165 -172 61 -228 110 -346 295 -82 130 -296 579 -318 667 -23 95 -61 447 -76 712 -24 426 -31 470 -165 1005 -38 151 -74 304 -80 340 -6 36 -15 187 -20 335 -6 149 -15 297 -20 330 -5 33 -19 141 -30 240 -12 99 -34 266 -51 372 -21 142 -29 228 -29 330 0 126 -3 145 -29 219 -15 45 -42 105 -59 133 -18 28 -32 55 -32 60 0 5 19 5 43 0 23 -4 103 -12 176 -18z m-61174 -2200 c214 -29 364 -60 745 -156 434 -108 515 -124 955 -191 221 -33 359 -64 558 -125 312 -97 412 -113 802 -134 381 -20 460 -30 905 -115 466 -89 710 -112 1190 -112 195 0 378 2 405 5 28 3 100 9 161 13 l111 6 12 -78 c11 -74 29 -220 161 -1289 111 -903 163 -1432 230 -2340 16 -225 32 -430 36 -454 l6 -44 -224 7 c-122 3 -272 9 -333 13 l-110 6 -3 1296 c-2 1285 -13 2100 -32 2341 -18 238 -43 485 -50 493 -4 4 -10 -178 -13 -405 -7 -392 -13 -574 -53 -1493 -22 -497 -25 -1650 -5 -1988 7 -126 11 -231 8 -233 -2 -3 -121 4 -263 15 -143 11 -362 23 -488 27 l-229 7 6 286 c6 305 -1 420 -33 516 -22 65 -89 171 -160 253 -25 29 -70 92 -101 141 l-56 89 5 -127 c3 -106 0 -143 -19 -231 -22 -99 -24 -127 -25 -515 l-2 -410 -509 -6 c-402 -5 -581 -12 -858 -33 -572 -42 -685 -46 -1485 -56 -421 -5 -765 -8 -766 -7 -6 8 -308 792 -332 862 -70 202 -115 386 -143 582 -12 91 -26 106 -69 75 -47 -35 -64 -108 -64 -282 0 -268 72 -551 266 -1043 38 -98 68 -181 65 -184 -8 -7 -561 18 -568 26 -3 3 -34 87 -69 186 -150 428 -220 601 -423 1040 -127 275 -162 359 -201 482 -30 97 -80 358 -73 384 11 43 -10 14 -40 -55 -53 -118 -67 -187 -66 -316 1 -168 26 -272 178 -725 73 -220 151 -463 174 -540 22 -77 65 -223 95 -325 l54 -185 -57 -12 c-112 -24 -102 -32 -159 131 -28 79 -89 267 -136 417 -288 922 -530 1437 -1075 2289 -68 107 -155 244 -193 304 -37 60 -68 107 -68 104 0 -3 17 -43 39 -89 21 -46 68 -160 104 -254 36 -93 124 -314 197 -490 344 -837 399 -1029 510 -1775 36 -248 120 -640 156 -735 7 -17 1 -18 -113 -12 -67 4 -133 11 -147 17 -26 9 -26 10 -26 127 -1 65 -7 147 -15 183 -7 36 -28 135 -45 220 -68 343 -109 498 -196 738 -183 503 -499 1073 -937 1686 -422 592 -870 1114 -1147 1339 -104 84 -169 105 -218 71 -22 -15 -23 -14 -38 22 -23 54 -40 153 -28 163 9 8 40 17 309 91 83 23 225 66 317 96 196 63 276 78 533 99 105 8 314 29 465 45 151 16 349 36 440 45 323 31 542 67 960 156 218 46 421 82 530 92 25 3 176 3 335 2 223 -3 325 -8 440 -24z m25021 -3837 c-118 -59 -134 -64 -193 -64 -66 0 -324 -16 -402 -25 -25 -3 -42 -3 -39 0 5 5 733 154 753 154 6 0 -48 -29 -119 -65z m31194 -643 c167 -6 144 -7 -245 -13 -1422 -24 -1757 -30 -1910 -38 -220 -11 -528 -12 -521 -2 3 5 155 12 338 15 183 4 558 14 833 22 275 8 550 16 610 18 215 5 713 4 895 -2z m3505 -10 l140 -6 -195 -7 c-107 -5 -265 -15 -350 -23 -179 -17 -575 -20 -850 -5 -180 10 -435 41 -448 56 -8 8 1492 -5 1703 -15z m-54201 -917 c11 -28 6 -52 -10 -58 -9 -3 -66 -6 -127 -6 -137 0 -720 28 -802 39 -57 7 -54 8 65 14 103 6 433 16 801 25 53 2 68 -1 73 -14z m43561 -410 c143 -19 346 -48 450 -65 105 -16 375 -50 600 -74 226 -25 422 -48 438 -51 19 -4 27 -12 27 -27 1 -31 34 -102 70 -147 52 -65 154 -141 567 -419 621 -417 777 -538 1096 -848 l137 -134 -10 -67 c-6 -36 -13 -68 -14 -70 -2 -2 -33 18 -69 43 -37 25 -126 75 -199 110 -184 90 -282 143 -359 197 -37 25 -98 56 -135 68 -38 12 -111 40 -162 62 -51 21 -142 50 -201 63 -189 42 -411 134 -611 255 -173 104 -368 175 -595 216 -141 26 -419 27 -457 2 l-27 -18 -108 133 c-184 225 -310 364 -541 594 -200 200 -220 221 -190 217 18 -2 150 -20 293 -40z m-34230 -1152 c244 -121 407 -156 805 -172 135 -6 326 -17 426 -25 366 -31 501 -22 628 42 59 30 164 131 195 188 l22 40 -5 -80 c-3 -44 -9 -158 -12 -252 -4 -95 -8 -173 -9 -173 -1 0 -51 22 -111 49 -146 65 -297 99 -539 121 -234 21 -1144 8 -1239 -18 -37 -10 -55 -36 -40 -59 38 -61 338 -90 1011 -99 407 -5 845 -24 899 -40 21 -5 21 -12 28 -302 4 -163 9 -316 12 -339 7 -53 1 -54 -84 -13 -72 36 -192 64 -342 80 -314 35 -535 65 -805 111 -323 54 -454 65 -480 38 -39 -38 7 -63 256 -138 218 -65 500 -134 684 -167 134 -25 174 -28 385 -28 l235 -1 62 28 c82 36 89 35 97 -10 4 -21 11 -576 16 -1233 5 -657 12 -1213 14 -1235 3 -22 10 -114 16 -205 20 -308 52 -585 121 -1040 60 -398 92 -613 158 -1075 34 -231 86 -562 116 -735 83 -474 136 -918 184 -1545 45 -587 51 -852 37 -1780 -7 -535 -6 -634 13 -1055 12 -256 28 -735 36 -1065 10 -386 22 -686 35 -840 25 -305 65 -822 80 -1030 6 -88 26 -317 45 -510 67 -680 65 -643 70 -1600 2 -447 8 -807 16 -910 8 -109 13 -448 14 -945 1 -635 4 -807 18 -950 51 -542 51 -539 53 -1500 1 -749 4 -956 18 -1140 33 -444 36 -520 42 -905 5 -271 1 -549 -10 -910 -26 -825 -35 -1094 -42 -1181 l-6 -81 -82 0 c-109 1 -170 -28 -346 -165 -74 -58 -209 -158 -300 -223 -726 -520 -985 -769 -1477 -1420 -83 -110 -170 -220 -192 -245 -38 -43 -48 -60 -35 -60 3 0 28 20 55 44 27 24 104 86 172 137 67 51 239 185 382 299 665 528 805 606 1385 775 129 37 283 96 372 141 l51 26 -6 -269 c-4 -147 -10 -373 -14 -501 l-6 -233 -36 35 c-81 78 -222 141 -340 151 -175 16 -381 -66 -546 -217 -40 -36 -102 -85 -137 -109 -231 -155 -455 -367 -575 -544 -23 -33 -108 -197 -191 -365 -157 -321 -207 -404 -367 -615 -120 -158 -338 -426 -342 -421 -2 2 12 57 32 122 51 168 79 305 115 564 57 412 103 590 206 791 76 149 152 250 303 400 194 194 290 259 556 374 197 85 945 466 945 480 0 5 -84 -26 -290 -108 -188 -74 -791 -375 -906 -453 -151 -101 -380 -322 -498 -479 -154 -205 -236 -390 -377 -847 -93 -303 -134 -408 -237 -608 -143 -278 -170 -335 -204 -439 l-32 -100 -101 -37 c-55 -21 -149 -59 -209 -86 l-110 -48 -49 50 c-96 98 -192 149 -333 177 -74 14 -100 15 -173 5 -47 -6 -95 -14 -107 -17 l-21 -6 -7 493 c-4 271 -11 671 -16 888 -29 1224 -8 1731 120 2910 49 449 82 780 115 1145 75 846 96 1154 115 1745 27 816 55 1119 220 2385 110 846 136 1093 190 1825 33 450 46 608 84 1060 52 612 75 1032 101 1870 27 861 24 818 55 854 56 66 161 231 204 322 25 53 62 119 83 147 20 29 28 45 18 36 -93 -76 -140 -110 -191 -139 -32 -18 -72 -44 -88 -57 -16 -13 -30 -22 -33 -20 -4 4 7 191 57 942 54 833 70 1372 70 2440 0 760 -5 1073 -35 2330 -28 1170 -39 1350 -155 2395 -104 943 -139 1394 -156 2000 -10 375 4 584 81 1205 65 525 69 577 69 935 1 201 -4 391 -12 475 -16 175 -47 416 -67 518 -20 106 -20 115 3 95 9 -9 62 -38 117 -66z m38249 -25022 c49 -286 82 -528 105 -780 23 -246 36 -447 28 -440 -14 14 -40 151 -53 285 -8 83 -24 229 -35 325 -64 567 -92 843 -84 825 2 -5 20 -102 39 -215z m-34490 -3896 c94 -378 131 -562 150 -743 9 -80 14 -147 12 -149 -2 -2 -30 75 -61 170 -32 95 -91 263 -132 373 -42 110 -79 211 -82 225 -4 14 -2 68 5 120 7 52 13 149 14 215 0 78 4 115 10 104 5 -8 43 -150 84 -315z m-904 -1471 c1 -10 11 -76 24 -146 l23 -128 -99 -102 c-55 -56 -97 -93 -94 -82 2 11 28 106 57 210 28 105 56 207 62 228 10 38 27 50 27 20z m-26 -1140 c-106 -377 -144 -665 -125 -943 l10 -155 -177 -175 c-97 -96 -229 -236 -292 -311 -63 -75 -116 -134 -118 -130 -1 4 18 86 44 182 25 96 55 212 66 259 99 420 110 456 215 666 54 109 118 232 141 272 23 39 61 105 83 145 48 83 169 277 174 277 2 0 -8 -39 -21 -87z m-2315 36 c17 -6 31 -13 31 -16 0 -2 -26 -39 -58 -81 -108 -142 -415 -605 -527 -794 -58 -98 -72 -118 -56 -75 170 429 282 644 463 885 74 98 83 103 147 81z m-968 -1658 c-17 -33 -65 -140 -106 -237 -121 -281 -211 -560 -266 -824 l-29 -135 3 185 3 185 56 190 c65 220 196 615 209 631 5 6 26 16 46 22 21 6 54 22 73 36 19 13 36 20 38 16 2 -5 -11 -36 -27 -69z"/>
<path d="M69100 61822 c0 -53 -40 -518 -65 -752 -22 -202 -48 -398 -94 -698 -78 -508 -109 -807 -118 -1142 -8 -308 7 -385 86 -445 19 -14 41 -20 81 -20 61 0 93 18 128 70 45 68 46 85 50 965 6 1149 4 1376 -13 1590 -8 102 -20 251 -27 333 -6 81 -15 147 -20 147 -4 0 -8 -22 -8 -48z"/>
<path d="M80155 60135 c-14 -81 -9 -630 9 -915 18 -293 39 -568 62 -793 7 -81 15 -180 15 -220 1 -47 6 -9 16 113 24 311 9 693 -52 1355 -14 149 -29 324 -33 390 -8 113 -9 117 -17 70z"/>
<path d="M79046 59972 c-7 -12 -82 -291 -95 -352 -40 -200 -54 -649 -26 -855 8 -60 18 -171 22 -245 7 -160 21 -223 22 -107 1 82 28 365 37 378 11 19 42 531 49 829 3 124 8 255 11 293 4 45 3 67 -4 67 -6 0 -13 -3 -16 -8z"/>
<path d="M29106 58368 c-78 -259 -97 -375 -103 -639 -6 -220 4 -307 48 -425 27 -71 103 -174 129 -174 24 0 24 -25 0 260 -27 329 -45 674 -45 883 0 97 -1 177 -2 177 -1 0 -13 -37 -27 -82z"/>
<path d="M36850 53147 c0 -54 138 -180 280 -255 214 -114 500 -164 647 -112 32 11 65 20 75 20 32 0 19 16 -40 53 -61 37 -94 46 -334 92 -152 28 -342 90 -510 165 -61 27 -113 50 -115 50 -2 0 -3 -6 -3 -13z"/>
<path d="M37087 38373 c-112 -236 -116 -273 -127 -1023 -9 -602 -19 -883 -42 -1160 -7 -80 -12 -282 -12 -450 0 -282 2 -318 27 -478 31 -197 32 -248 11 -347 -10 -47 -17 -180 -24 -405 -9 -331 -13 -379 -66 -800 -36 -280 -38 -548 -6 -744 22 -137 37 -170 70 -150 35 22 84 263 148 734 44 329 89 519 193 817 68 194 85 282 78 408 -3 55 -15 143 -27 195 -200 891 -241 1310 -244 2480 -1 636 5 722 60 939 13 52 22 96 21 98 -2 2 -29 -50 -60 -114z"/>
<path d="M39234 33761 c-52 -30 -64 -45 -197 -251 -75 -117 -162 -213 -324 -360 -179 -162 -377 -347 -577 -538 -89 -85 -205 -189 -259 -233 -54 -43 -95 -79 -92 -79 20 0 241 161 565 410 128 99 306 218 500 335 246 149 513 330 557 378 63 68 87 121 88 193 0 49 -5 68 -27 101 -51 77 -144 95 -234 44z"/>
<path d="M39280 33279 c-48 -66 -62 -155 -66 -419 -3 -135 -4 -250 -4 -257 0 -16 -134 -185 -256 -323 -169 -191 -364 -385 -738 -735 -82 -77 -248 -243 -369 -370 -245 -256 -312 -316 -381 -335 -25 -7 -46 -17 -46 -21 0 -11 151 -2 230 13 174 33 446 177 727 384 226 167 654 563 818 755 49 58 60 67 66 52 3 -10 12 -83 19 -163 6 -80 18 -176 26 -215 20 -94 50 -284 69 -435 19 -152 21 -160 45 -160 26 0 28 11 35 255 4 116 10 255 15 310 9 94 -3 600 -15 688 -4 27 4 67 26 135 28 89 31 105 26 197 -4 83 -36 240 -55 265 -2 3 -10 -4 -18 -14 -8 -11 -14 -16 -14 -10 0 43 -33 277 -45 318 -17 56 -49 116 -64 116 -5 0 -19 -14 -31 -31z"/>
<path d="M38902 31380 c-158 -33 -497 -231 -822 -480 -277 -213 -641 -619 -820 -915 -59 -98 -62 -100 -355 -251 -201 -104 -339 -162 -402 -171 -24 -3 -43 -10 -43 -16 0 -15 156 0 242 24 96 26 154 48 326 121 111 48 145 59 152 48 14 -22 52 -4 195 90 75 50 237 146 359 214 266 148 460 268 593 368 99 75 359 243 617 399 201 122 263 189 282 306 14 92 -50 204 -141 244 -51 22 -128 30 -183 19z"/>
<path d="M33380 55383 c-51 -10 -442 -144 -483 -164 -266 -136 -527 -322 -782 -559 -130 -120 -191 -160 -465 -303 -325 -171 -510 -276 -1135 -649 -673 -402 -918 -542 -1232 -705 -90 -47 -163 -86 -163 -88 0 -2 33 7 73 19 262 81 807 343 1287 619 157 89 380 217 495 283 294 169 521 289 797 420 130 62 268 132 305 157 37 24 127 97 198 161 260 234 428 343 511 332 54 -7 387 -84 436 -101 20 -7 81 -37 135 -68 274 -157 397 -192 749 -217 78 -5 232 -23 343 -40 179 -26 212 -28 284 -19 235 29 385 202 357 411 -21 148 -131 262 -301 311 -131 38 -512 87 -684 87 -142 1 -220 14 -380 66 -115 38 -155 46 -230 49 -49 2 -101 1 -115 -2z"/>
<path d="M67295 54370 c-204 -7 -398 -11 -1630 -40 -486 -12 -797 -22 -1191 -41 -328 -15 -536 0 -649 46 -37 16 5 -25 67 -65 116 -75 355 -133 693 -167 165 -16 285 -18 1425 -15 1818 4 2249 21 2660 107 104 21 318 84 360 105 19 9 60 24 90 31 l55 14 -80 8 c-213 20 -1348 31 -1800 17z"/>
<path d="M67300 53505 c-140 -18 -238 -35 -600 -105 -404 -78 -551 -103 -820 -140 -124 -17 -235 -34 -248 -37 -31 -7 -45 -36 -31 -66 32 -70 200 -107 490 -107 250 0 441 22 899 105 135 24 353 63 484 85 248 42 338 66 393 103 63 42 33 108 -67 148 -47 19 -78 22 -225 25 -103 2 -211 -2 -275 -11z"/>
<path d="M74340 49904 c-68 -13 -178 -47 -212 -66 -62 -35 -69 -102 -15 -142 43 -32 165 -35 249 -7 81 27 106 44 159 110 65 79 65 79 54 90 -11 10 -196 22 -235 15z"/>
<path d="M62990 42335 c-25 -58 -46 -160 -64 -315 -32 -263 -44 -562 -76 -1880 -44 -1758 -38 -2481 30 -3520 20 -296 28 -403 90 -1180 34 -423 65 -916 80 -1245 19 -434 34 -1590 32 -2383 -3 -785 4 -1092 33 -1547 36 -543 68 -843 165 -1515 113 -791 132 -1029 175 -2220 35 -975 49 -1261 81 -1590 31 -330 44 -470 54 -610 31 -408 28 -2232 -4 -2595 -36 -398 -121 -941 -271 -1720 -160 -830 -189 -1061 -205 -1612 -14 -499 8 -975 61 -1348 38 -263 114 -636 213 -1045 92 -376 107 -477 113 -740 9 -359 -3 -448 -132 -980 -46 -190 -90 -374 -98 -410 l-15 -65 0 152 c1 84 -3 154 -8 155 -25 7 -126 -387 -153 -597 -38 -299 -44 -413 -38 -770 3 -187 11 -396 17 -465 31 -367 95 -854 156 -1193 20 -109 34 -200 32 -202 -2 -2 -39 96 -82 218 -130 365 -403 1062 -583 1487 -810 1914 -1332 2866 -2108 3840 -72 91 -141 178 -153 194 -12 16 -22 24 -22 19 0 -5 12 -25 26 -44 63 -84 372 -624 622 -1084 265 -490 666 -1324 970 -2015 240 -547 668 -1555 862 -2030 51 -124 116 -282 146 -351 29 -70 69 -164 88 -210 142 -349 246 -597 394 -935 95 -216 184 -429 198 -475 42 -133 146 -420 212 -584 152 -379 297 -665 464 -915 91 -136 96 -140 54 -50 -59 130 -331 932 -435 1285 -65 224 -166 592 -198 724 -42 176 -132 585 -130 588 2 1 20 -39 41 -90 48 -116 256 -559 268 -572 5 -5 2 6 -6 25 -25 61 -92 317 -139 535 -138 632 -146 673 -222 1105 -68 388 -147 1002 -131 1018 3 2 72 -3 153 -12 200 -22 397 -36 405 -28 7 8 24 219 38 497 20 378 38 496 149 965 74 315 103 461 121 605 18 159 23 385 11 589 -20 334 -48 508 -137 856 -31 118 -73 285 -95 370 -86 333 -153 707 -186 1030 -26 252 -26 1171 0 1470 18 208 76 682 121 1000 77 536 147 1174 187 1715 16 217 23 1812 10 2250 -11 350 -26 591 -56 900 -44 447 -59 731 -80 1475 -15 535 -40 1207 -50 1365 -29 435 -59 709 -130 1191 -126 848 -180 1420 -210 2219 -17 456 -24 558 -65 885 -76 606 -102 921 -135 1630 -48 1022 -71 1321 -210 2755 -118 1225 -152 1880 -200 3825 -14 558 -32 1218 -41 1465 -17 488 -15 675 9 743 19 55 11 54 -13 -3z"/>
<path d="M35421 41658 c-13 -7 -33 -25 -44 -40 -52 -69 46 -155 146 -127 36 10 150 99 126 99 -6 0 -34 16 -61 37 -56 41 -125 54 -167 31z"/>
<path d="M34800 40119 c-181 -64 -640 -159 -955 -199 -88 -11 -274 -27 -414 -35 -259 -15 -335 -24 -430 -49 -86 -24 -85 -24 74 -51 194 -34 608 -38 785 -9 345 57 519 113 838 270 105 52 192 97 192 99 0 3 -1 5 -2 4 -2 0 -41 -14 -88 -30z"/>
<path d="M75107 35971 c-14 -68 -7 -108 29 -181 47 -94 151 -203 265 -280 176 -117 333 -175 529 -195 74 -8 157 -17 183 -20 41 -5 48 -3 45 10 -2 10 -48 31 -128 59 -420 147 -640 263 -783 416 -57 59 -90 113 -124 200 -10 24 -10 24 -16 -9z"/>
<path d="M70900 35163 c-202 -20 -445 -78 -705 -166 -228 -77 -320 -114 -341 -138 -18 -20 -18 -20 8 -10 61 23 717 182 825 200 165 27 187 29 378 41 238 14 295 21 295 34 0 26 -130 46 -280 44 -80 0 -161 -3 -180 -5z"/>
<path d="M75610 34755 c0 -24 98 -160 148 -206 64 -59 171 -114 251 -129 63 -12 326 -13 296 -1 -11 5 -54 16 -95 26 -231 53 -415 143 -547 268 -29 28 -53 46 -53 42z"/>
<path d="M13434 31091 c-37 -23 -64 -76 -98 -193 -130 -451 -208 -1348 -177 -2033 32 -713 153 -1177 406 -1555 92 -137 248 -320 444 -520 l172 -175 -66 98 c-118 176 -322 620 -404 877 -29 92 -87 330 -105 430 -23 125 -54 376 -66 530 -27 327 -23 1199 6 1714 l7 109 57 -164 c103 -296 209 -539 376 -859 110 -210 185 -334 362 -600 217 -328 445 -593 717 -837 94 -83 172 -150 173 -148 2 2 -20 43 -50 92 -30 48 -81 138 -113 198 -32 61 -88 162 -125 225 -37 63 -106 183 -152 265 -47 83 -125 215 -175 295 -288 464 -601 1039 -757 1393 -122 275 -225 555 -267 722 -25 100 -36 123 -71 141 -36 19 -57 18 -94 -5z"/>
<path d="M31365 30291 l-60 -8 70 -1 c39 -1 194 -11 345 -22 871 -63 1187 -120 1694 -304 309 -113 300 -111 591 -111 204 0 652 22 642 31 -7 7 -236 26 -478 39 -152 8 -312 22 -355 30 -43 8 -186 50 -319 94 -415 137 -734 200 -1215 241 -151 13 -831 21 -915 11z"/>
<path d="M29836 29701 c18 -17 351 -219 459 -278 373 -205 911 -437 1360 -585 239 -79 636 -187 889 -242 142 -31 260 -55 262 -53 2 2 -42 16 -99 31 -107 30 -573 185 -762 254 -571 209 -963 368 -1475 597 -157 70 -340 152 -406 181 -67 29 -145 64 -173 78 -51 27 -72 33 -55 17z"/>
<path d="M33216 29015 c27 -148 147 -299 372 -469 355 -268 742 -396 987 -328 95 27 87 39 -77 120 -79 38 -172 82 -208 97 -117 49 -446 221 -630 329 -30 18 -127 73 -214 122 -89 50 -177 106 -199 129 l-39 39 8 -39z"/>
<path d="M44955 28703 c-439 -348 -591 -481 -906 -794 -250 -248 -498 -543 -835 -994 -313 -419 -702 -1073 -957 -1611 -518 -1088 -871 -2229 -1006 -3256 -32 -244 -41 -378 -39 -613 1 -121 3 -179 5 -130 14 487 148 1134 385 1855 197 600 506 1330 793 1870 311 587 514 927 864 1450 367 549 530 779 791 1120 15 19 92 123 172 230 226 303 438 551 676 793 74 75 134 137 131 137 -2 -1 -35 -26 -74 -57z"/>
<path d="M24992 28537 c-12 -13 -22 -33 -22 -44 0 -44 41 -217 81 -340 87 -267 167 -447 519 -1163 337 -685 436 -912 587 -1340 196 -559 368 -1330 374 -1685 l2 -70 9 80 c15 135 3 628 -20 795 -26 187 -83 470 -128 635 -133 483 -302 867 -713 1620 -377 689 -549 1070 -595 1315 l-7 35 62 -65 c66 -70 225 -276 331 -430 242 -350 650 -1053 1000 -1725 69 -132 163 -310 208 -395 102 -190 320 -643 405 -840 59 -137 125 -316 194 -530 40 -123 40 -121 -90 395 -60 242 -126 487 -146 545 -77 226 -242 654 -318 825 -51 114 -337 679 -412 814 -330 592 -666 1084 -927 1358 -191 201 -332 276 -394 210z"/>
<path d="M78635 28275 c-63 -62 -2 -162 81 -135 39 13 54 35 54 80 0 41 -39 80 -80 80 -19 0 -40 -9 -55 -25z"/>
<path d="M78350 28114 c-47 -13 -122 -30 -167 -38 -133 -24 -539 -185 -838 -332 -126 -62 -202 -115 -190 -133 12 -20 109 -34 189 -27 253 21 738 198 915 334 42 32 111 82 154 111 83 56 97 72 77 96 -16 19 -37 18 -140 -11z"/>
<path d="M34750 27819 c-137 -69 -143 -70 -680 -104 -129 -8 -269 -21 -312 -29 -77 -15 -164 -52 -187 -80 -20 -24 -6 -59 38 -99 46 -41 120 -71 237 -94 75 -14 104 -15 218 -5 109 9 151 18 250 52 163 56 177 64 296 177 58 55 131 122 162 149 83 72 76 83 -22 33z"/>
<path d="M44170 27525 c-183 -199 -313 -404 -549 -867 -592 -1157 -923 -2165 -1141 -3467 -75 -450 -111 -724 -175 -1341 -14 -135 -33 -273 -41 -308 -15 -67 -18 -104 -4 -62 7 23 8 23 9 4 1 -12 -10 -192 -23 -400 -14 -210 -27 -537 -31 -734 -3 -195 -7 -420 -9 -500 -5 -160 -7 -164 45 130 17 96 55 297 84 446 64 322 158 902 220 1352 25 177 58 416 75 530 l31 207 94 176 c399 748 947 1580 1561 2369 248 320 354 441 583 672 108 108 189 191 181 185 -262 -200 -777 -695 -986 -947 -528 -637 -903 -1206 -1288 -1950 -53 -102 -96 -178 -96 -170 0 27 58 384 120 733 168 950 345 1647 599 2363 219 618 535 1257 784 1585 34 45 68 90 76 101 7 10 10 18 5 18 -5 0 -61 -57 -124 -125z"/>
<path d="M72500 26850 c-266 -11 -316 -35 -223 -106 168 -128 687 -212 1243 -201 321 6 490 24 634 67 59 18 179 47 267 65 88 18 163 35 166 39 3 3 3 12 0 20 -4 9 -27 17 -64 21 -140 15 -353 47 -408 62 -33 8 -125 20 -205 25 -190 12 -1173 18 -1410 8z"/>
<path d="M79360 26661 c-14 -10 -79 -47 -145 -83 -155 -84 -300 -174 -438 -272 -284 -202 -474 -312 -620 -360 -97 -32 -227 -49 -332 -42 -80 5 -104 3 -121 -9 -70 -49 -15 -160 111 -223 145 -71 399 -60 599 26 175 77 277 145 477 320 167 146 328 350 515 654 9 15 -21 8 -46 -11z"/>
<path d="M20831 26453 c-32 -26 -22 -51 33 -86 107 -67 381 -353 662 -692 236 -285 273 -330 405 -500 356 -458 670 -892 969 -1340 142 -212 496 -779 617 -985 405 -696 881 -1636 1060 -2094 75 -194 187 -521 209 -609 3 -15 8 -26 10 -24 6 5 -116 560 -171 777 -106 424 -185 671 -338 1060 -271 690 -598 1306 -1070 2015 -664 998 -1508 1977 -2011 2333 -33 23 -53 42 -45 42 23 0 199 -47 285 -75 774 -258 1962 -1231 2839 -2325 464 -580 764 -1061 1270 -2040 l157 -305 23 -135 c13 -74 56 -358 95 -630 114 -792 161 -1050 200 -1085 10 -9 30 -15 47 -13 96 11 116 344 58 1008 -148 1691 -521 2882 -1293 4120 -373 599 -840 1186 -1118 1406 -47 37 -201 124 -220 124 -4 0 8 -17 28 -37 21 -21 54 -62 75 -90 21 -29 97 -130 169 -225 139 -182 353 -499 496 -733 732 -1198 1130 -2153 1357 -3259 23 -109 40 -200 38 -202 -2 -2 -21 38 -42 89 -21 50 -88 195 -147 321 -435 922 -1015 1733 -1795 2512 -725 724 -1536 1322 -2093 1544 -229 91 -423 138 -615 147 -109 5 -122 4 -144 -14z"/>
<path d="M30251 25834 c-319 -195 -592 -424 -820 -689 -260 -301 -445 -584 -612 -930 -264 -551 -409 -1097 -479 -1805 -18 -178 -24 -629 -11 -820 26 -386 95 -720 183 -895 45 -87 197 -279 211 -265 3 3 -10 30 -29 60 -195 309 -272 1149 -178 1935 83 700 288 1355 596 1909 87 157 296 478 407 626 208 276 665 778 846 928 28 23 48 42 45 41 -3 0 -74 -43 -159 -95z"/>
<path d="M44515 25183 c-185 -239 -384 -561 -552 -897 -421 -842 -736 -1800 -812 -2476 -45 -397 -46 -597 -6 -1040 18 -196 22 -217 24 -128 1 95 29 353 51 478 43 247 74 420 120 660 27 140 60 318 75 395 44 231 162 723 241 1000 259 905 571 1615 901 2048 24 31 42 57 39 57 -3 0 -40 -44 -81 -97z"/>
<path d="M29948 24943 c-262 -324 -418 -592 -563 -963 -153 -394 -282 -891 -334 -1290 -61 -463 -70 -646 -50 -1021 11 -212 17 -253 98 -599 l38 -164 -5 175 c-5 181 -5 176 54 614 8 61 26 173 39 250 13 77 36 230 50 340 14 110 41 295 59 410 19 116 44 275 56 355 32 214 135 730 185 925 112 435 227 725 373 943 34 51 60 92 58 92 -2 0 -28 -30 -58 -67z"/>
<path d="M19895 24757 c-41 -23 -59 -57 -30 -57 9 0 77 -20 152 -46 343 -114 777 -390 1283 -813 545 -457 1964 -1757 2251 -2063 227 -242 407 -458 487 -582 73 -115 69 -101 -29 89 -240 470 -410 700 -883 1197 -380 400 -1207 1163 -1641 1513 -522 421 -959 675 -1310 761 -131 31 -225 32 -280 1z"/>
<path d="M20146 24488 c44 -46 170 -182 280 -303 442 -488 771 -831 1519 -1585 302 -305 604 -611 670 -680 903 -938 1195 -1304 1431 -1795 29 -60 53 -107 54 -103 0 4 -22 69 -49 145 -199 565 -408 928 -870 1508 -308 386 -951 1050 -1596 1649 -693 643 -1056 951 -1330 1130 -194 127 -202 130 -109 34z"/>
<path d="M31614 24458 c-276 -240 -547 -528 -718 -761 -128 -175 -362 -531 -445 -677 -87 -152 -257 -487 -341 -669 -252 -552 -436 -1164 -481 -1606 -13 -132 -6 -578 10 -630 8 -25 9 -17 10 45 5 342 128 847 338 1375 123 310 395 880 558 1170 37 66 133 237 213 380 80 143 192 337 250 430 58 94 134 220 170 280 141 238 368 551 512 708 34 37 60 67 57 67 -3 0 -63 -50 -133 -112z"/>
<path d="M69680 24068 c0 -3 33 -32 73 -65 74 -61 168 -147 627 -573 140 -130 347 -319 460 -421 113 -101 324 -294 470 -429 527 -488 727 -652 1165 -951 346 -236 485 -332 685 -468 221 -150 326 -245 373 -336 14 -27 63 -107 110 -176 153 -229 178 -283 252 -556 25 -93 48 -175 52 -183 3 -8 19 37 35 100 52 204 42 354 -40 548 -51 122 -224 407 -285 470 -72 74 -199 147 -417 240 -307 132 -453 211 -746 407 -375 252 -596 430 -1094 880 -140 127 -329 296 -419 375 -242 213 -541 480 -666 595 -291 267 -635 561 -635 543z"/>
<path d="M88478 23907 c-137 -126 -213 -207 -289 -310 -295 -397 -602 -1148 -765 -1867 -15 -69 -31 -127 -34 -130 -3 -3 -6 -23 -7 -45 -1 -22 -13 -112 -27 -200 -50 -314 -57 -671 -15 -796 29 -85 76 -119 134 -95 42 18 66 63 95 177 23 90 113 259 308 579 397 653 976 1341 1446 1720 219 177 506 335 751 414 180 59 259 75 430 89 112 10 140 15 140 27 0 22 -80 30 -325 33 -196 2 -222 0 -300 -21 -292 -79 -545 -211 -815 -428 -143 -115 -403 -375 -539 -539 -324 -390 -563 -759 -915 -1418 -73 -137 -135 -247 -137 -245 -4 5 73 510 125 812 138 798 317 1420 535 1856 108 216 191 343 290 448 70 73 31 46 -86 -61z"/>
<path d="M88015 23903 c-204 -135 -442 -303 -620 -436 -187 -141 -415 -323 -415 -333 0 -2 46 33 103 79 180 146 756 565 965 702 36 24 49 35 39 35 -1 0 -34 -21 -72 -47z"/>
<path d="M48735 23766 c-578 -198 -821 -321 -1430 -721 -270 -177 -580 -427 -928 -747 -376 -345 -800 -826 -1099 -1243 -473 -662 -758 -1274 -810 -1737 -9 -84 -9 -141 1 -265 7 -87 15 -168 18 -180 10 -42 23 -24 23 31 0 146 73 459 156 669 228 574 654 1190 1303 1881 102 109 211 221 242 250 31 28 135 125 231 216 300 285 492 453 758 665 69 54 190 153 270 220 180 150 399 319 699 540 342 252 482 338 771 474 47 22 81 40 75 40 -5 0 -131 -42 -280 -93z"/>
<path d="M46186 23589 c-180 -56 -284 -97 -443 -178 -308 -157 -544 -318 -838 -572 -122 -106 -440 -428 -556 -564 -348 -406 -645 -875 -788 -1243 -37 -95 -122 -368 -120 -388 0 -5 20 47 44 115 94 266 228 495 525 896 220 297 430 537 739 845 280 279 414 397 656 579 347 260 653 445 863 521 34 12 62 24 62 26 0 7 -11 4 -144 -37z"/>
<path d="M31408 23083 c-160 -205 -213 -278 -282 -394 -287 -478 -490 -1110 -547 -1699 -12 -129 -8 -312 11 -470 12 -95 111 -500 123 -500 4 0 7 57 7 128 0 158 16 418 35 577 8 66 19 176 25 245 32 371 122 819 228 1145 107 326 314 778 457 998 42 65 75 121 72 123 -3 3 -60 -66 -129 -153z"/>
<path d="M74435 22969 c-49 -5 -121 -15 -160 -23 -79 -17 -198 -59 -202 -72 -3 -10 128 -99 193 -132 106 -54 361 -102 538 -102 91 0 235 20 306 41 19 6 52 24 73 41 20 16 60 41 87 55 28 14 50 31 50 38 0 7 -19 20 -42 30 -24 9 -64 32 -89 51 -77 56 -188 76 -449 80 -118 1 -255 -2 -305 -7z"/>
<path d="M90926 22835 c-24 -62 -104 -170 -229 -312 -437 -496 -586 -782 -632 -1219 -34 -317 -6 -563 73 -636 39 -37 65 -48 112 -48 52 0 103 26 158 81 69 69 122 150 258 395 258 465 410 651 613 752 73 36 78 37 186 37 l112 0 94 -47 c159 -79 304 -209 389 -348 22 -36 40 -62 40 -58 0 24 -128 340 -151 374 -31 46 -114 124 -177 168 -142 98 -364 111 -525 30 -233 -118 -398 -314 -662 -789 -70 -126 -149 -262 -175 -300 -46 -68 -120 -145 -140 -145 -33 0 -50 142 -50 415 0 419 36 616 156 860 66 133 145 245 296 419 140 162 188 221 215 266 25 41 66 141 60 147 -2 2 -12 -17 -21 -42z"/>
<path d="M83981 22852 c-68 -34 -76 -57 -75 -205 2 -348 171 -1101 395 -1762 123 -361 235 -598 333 -703 85 -90 130 -114 227 -120 67 -4 79 -2 79 11 0 9 -13 26 -30 39 -47 37 -133 158 -189 266 -115 224 -212 525 -425 1322 -117 436 -234 942 -224 970 9 26 248 -214 573 -575 228 -254 349 -385 711 -770 521 -555 707 -771 839 -980 51 -80 146 -185 167 -185 23 0 28 21 30 122 2 82 0 89 -40 173 -78 162 -199 329 -414 570 -136 153 -191 211 -653 695 -171 179 -396 415 -501 525 -382 400 -583 573 -708 610 -61 18 -54 19 -95 -3z"/>
<path d="M18965 22675 c-5 -2 -120 -14 -255 -26 -135 -11 -249 -25 -255 -29 -5 -4 -44 1 -85 12 -88 23 -199 27 -253 9 l-39 -13 57 -29 c269 -135 1250 -881 1875 -1424 96 -84 188 -164 204 -177 l29 -25 -309 -6 c-206 -5 -364 -13 -474 -26 -253 -31 -500 -64 -496 -68 2 -2 86 3 187 11 119 10 357 16 676 18 l492 3 201 -194 c390 -377 707 -753 910 -1082 92 -149 155 -280 185 -387 l25 -87 -6 60 c-17 168 -64 407 -100 501 -48 130 -114 276 -177 394 -115 215 -326 514 -514 726 -35 40 -63 74 -63 78 0 3 39 3 88 1 l87 -4 -100 14 -100 14 -205 203 c-251 248 -583 529 -885 750 -402 293 -804 540 -1074 657 -122 53 -140 64 -95 56 16 -2 79 -12 139 -21 61 -9 162 -29 225 -46 63 -16 183 -47 265 -68 345 -88 684 -225 1048 -421 275 -149 381 -217 1322 -851 400 -269 653 -422 910 -548 296 -146 465 -204 633 -217 l85 -6 -24 43 c-36 64 -115 129 -314 257 -430 278 -821 544 -1255 857 -170 122 -608 416 -752 505 -468 288 -930 481 -1305 546 -187 32 -470 54 -508 40z"/>
<path d="M34629 22612 c-95 -96 -138 -213 -139 -371 0 -66 -2 -72 -17 -66 -96 37 -252 46 -361 20 -235 -56 -423 -257 -464 -497 -12 -66 -13 -69 -48 -79 -80 -24 -258 -33 -388 -20 -214 21 -601 108 -720 162 l-44 19 44 -50 c70 -83 141 -117 388 -186 446 -124 761 -272 959 -448 142 -127 249 -170 416 -170 187 1 341 80 460 234 46 60 118 186 130 230 4 14 25 48 46 75 83 110 119 232 119 411 0 136 -20 248 -67 374 -59 159 -130 288 -198 357 l-60 62 -56 -57z"/>
<path d="M45817 22413 c-269 -330 -435 -601 -574 -933 -69 -165 -202 -495 -210 -520 -2 -8 45 85 105 207 109 221 174 338 425 773 157 270 212 359 287 465 80 112 94 135 82 135 -6 0 -58 -57 -115 -127z"/>
<path d="M47560 22436 c-398 -187 -636 -344 -889 -591 -493 -480 -777 -1070 -836 -1737 -19 -218 -19 -358 0 -484 8 -54 24 -189 35 -299 11 -110 24 -203 29 -208 5 -5 17 -7 27 -5 21 4 22 6 55 251 11 87 32 204 45 260 14 56 34 163 45 237 23 154 89 487 125 635 36 144 139 451 194 580 161 376 356 680 589 919 195 199 358 316 631 453 80 40 141 72 135 72 -5 0 -89 -37 -185 -83z"/>
<path d="M94900 22431 c-216 -84 -330 -139 -534 -261 -324 -193 -609 -438 -780 -670 -80 -107 -178 -294 -215 -407 -92 -279 -48 -600 93 -667 20 -9 59 -20 86 -23 41 -5 50 -3 50 10 0 9 -12 18 -29 22 -131 29 -173 374 -76 632 124 330 355 596 815 942 107 80 263 189 345 242 148 95 327 199 343 199 5 0 17 7 28 15 32 24 5 17 -126 -34z"/>
<path d="M95360 22347 c0 -89 -64 -252 -254 -645 -154 -319 -212 -460 -267 -647 -87 -296 -91 -514 -11 -645 32 -52 98 -105 150 -120 20 -6 143 -17 272 -24 129 -7 244 -17 255 -21 27 -10 -112 84 -259 175 -144 89 -135 61 -111 344 21 248 52 446 126 796 89 418 100 488 106 663 3 86 3 157 -1 157 -3 0 -6 -15 -6 -33z"/>
<path d="M31955 22360 c-11 -18 103 -179 180 -255 200 -197 484 -336 923 -452 61 -16 112 -29 112 -27 0 1 -30 18 -67 37 -38 19 -142 79 -233 133 -91 53 -217 127 -280 163 -63 36 -151 86 -194 111 -131 76 -342 216 -390 260 -27 25 -47 37 -51 30z"/>
<path d="M86579 22312 c-201 -81 -434 -375 -533 -672 -45 -136 -56 -207 -55 -360 l2 -125 9 110 c11 141 37 249 87 365 150 349 415 624 601 625 134 0 302 -147 574 -503 59 -78 110 -142 112 -142 7 0 -120 205 -210 340 -109 163 -240 299 -331 345 -77 38 -184 45 -256 17z"/>
<path d="M75293 22075 c-11 -8 -24 -26 -27 -40 -7 -29 15 -79 39 -89 54 -20 115 18 115 73 0 56 -77 91 -127 56z"/>
<path d="M58521 21962 c-6 -10 -15 -212 -22 -448 -25 -915 13 -1556 147 -2454 84 -564 234 -1370 384 -2057 33 -149 66 -322 74 -383 8 -62 17 -115 20 -118 9 -9 7 211 -4 404 -20 340 -60 643 -206 1568 -228 1450 -317 2213 -338 2911 -6 190 -7 193 54 -125 45 -234 185 -874 250 -1145 23 -93 83 -343 135 -555 51 -212 115 -468 143 -570 28 -102 85 -313 127 -470 42 -157 137 -483 211 -725 75 -242 164 -532 199 -645 34 -113 80 -265 101 -337 21 -73 39 -131 42 -129 2 2 -12 84 -32 183 -46 232 -176 928 -216 1158 -119 683 -482 2155 -840 3405 -105 365 -152 514 -171 536 -16 20 -47 17 -58 -4z"/>
<path d="M16105 21439 c-171 -16 -377 -73 -509 -140 -164 -84 -192 -153 -110 -278 114 -175 755 -722 1432 -1221 101 -74 177 -136 169 -138 -23 -5 -427 101 -622 163 -475 151 -1003 300 -1275 361 -14 3 52 -24 145 -59 94 -35 220 -87 280 -114 148 -68 623 -279 710 -315 463 -195 1011 -337 1152 -299 59 16 103 69 103 124 0 87 11 78 -580 487 -957 662 -1297 917 -1422 1067 -21 25 -38 49 -38 54 0 5 22 20 48 33 178 90 538 114 932 60 788 -106 1618 -441 2475 -997 312 -203 633 -435 932 -674 84 -67 153 -120 153 -118 0 6 -335 295 -520 449 -668 556 -1338 980 -1994 1261 -540 231 -1053 334 -1461 294z"/>
<path d="M48385 21279 c-157 -20 -465 -115 -629 -194 -291 -140 -533 -313 -777 -555 -316 -313 -522 -645 -649 -1045 -23 -71 -54 -169 -71 -216 -32 -93 -33 -99 -21 -99 4 0 20 26 36 58 67 137 266 439 399 605 150 188 361 396 527 522 124 94 324 225 455 299 244 136 756 331 1066 406 46 11 106 27 133 35 56 17 145 20 195 5 19 -5 36 -8 39 -6 5 6 -164 118 -224 149 -85 43 -297 59 -479 36z"/>
<path d="M40490 20849 c-545 -211 -960 -555 -1320 -1093 -176 -263 -295 -543 -346 -811 -23 -126 -12 -405 17 -405 5 0 9 19 9 43 0 141 139 511 291 774 70 123 177 285 254 388 333 442 887 958 1213 1129 59 30 103 55 97 55 -5 0 -102 -36 -215 -80z"/>
<path d="M74883 20806 c-64 -16 -98 -38 -123 -79 -41 -66 -12 -154 61 -190 159 -77 487 -20 565 99 16 24 16 27 -3 52 -25 35 -106 83 -174 106 -72 23 -256 30 -326 12z"/>
<path d="M55585 20673 c-11 -2 -49 -14 -85 -25 l-65 -21 64 -13 c344 -70 696 -337 1187 -899 387 -444 956 -1212 1299 -1755 54 -85 138 -216 186 -291 144 -224 239 -382 366 -609 67 -118 160 -282 208 -365 114 -198 378 -733 448 -910 31 -77 72 -192 92 -255 43 -139 44 -140 -45 285 -72 349 -110 494 -207 790 -130 396 -184 527 -404 971 -317 642 -724 1254 -1253 1889 -150 180 -270 310 -475 515 -390 389 -747 623 -1044 684 -70 15 -224 20 -272 9z"/>
<path d="M13970 20311 c216 -62 338 -114 418 -178 51 -42 55 -72 12 -103 -76 -54 -334 -154 -595 -230 -169 -49 -551 -137 -735 -170 -96 -17 -263 -46 -370 -65 -107 -19 -276 -46 -375 -59 -99 -14 -261 -36 -360 -51 -99 -14 -243 -31 -320 -38 -137 -13 -128 -14 425 -21 738 -10 978 6 1412 90 394 76 819 240 973 375 113 99 133 209 52 286 -86 82 -368 173 -612 197 -51 5 -41 0 75 -33z"/>
<path d="M62073 20283 c-73 -162 -126 -315 -158 -446 -78 -327 -99 -518 -99 -907 -1 -558 67 -1072 198 -1503 39 -128 190 -516 208 -532 11 -11 12 -12 -21 101 -127 436 -201 1296 -187 2174 8 552 34 919 76 1096 10 44 17 80 16 82 -2 1 -17 -28 -33 -65z"/>
<path d="M59320 20307 c-13 -7 -29 -25 -34 -40 -13 -36 1 -64 109 -212 448 -617 663 -1094 925 -2058 273 -998 393 -1275 682 -1572 l117 -120 -63 130 c-96 197 -219 544 -300 845 -14 52 -66 248 -116 435 -162 600 -265 899 -452 1310 -87 191 -253 488 -370 662 -95 142 -109 159 509 -581 545 -652 821 -1017 1145 -1514 250 -385 298 -461 455 -736 176 -306 303 -556 388 -763 32 -79 61 -141 63 -139 2 3 -12 55 -32 118 -19 62 -51 169 -71 238 -52 179 -161 508 -207 625 -115 292 -304 678 -449 920 -314 526 -620 930 -1134 1500 -571 633 -860 895 -1044 949 -65 19 -88 20 -121 3z"/>
<path d="M55600 20297 c0 -2 42 -48 94 -100 219 -224 448 -580 621 -969 238 -534 427 -1164 610 -2038 141 -677 256 -1003 402 -1147 35 -35 68 -63 74 -63 8 0 9 13 6 38 -4 20 -27 192 -52 382 -136 1021 -200 1352 -375 1930 -40 129 -129 371 -205 549 -231 547 -549 1003 -868 1242 -73 55 -307 189 -307 176z"/>
<path d="M51377 19968 c-185 -101 -387 -446 -551 -945 -87 -264 -147 -510 -186 -758 -6 -38 -13 -83 -16 -100 l-5 -30 31 35 c79 87 122 183 260 570 54 151 121 338 150 415 173 471 365 790 448 746 11 -6 27 -29 36 -51 42 -105 48 -293 32 -990 -9 -383 -8 -397 12 -470 11 -41 28 -110 37 -152 9 -42 23 -82 30 -88 26 -22 44 1 60 78 9 43 26 111 37 152 19 70 20 94 15 380 -9 461 -51 856 -112 1049 -57 178 -147 230 -278 159z"/>
<path d="M82320 19455 c0 -4 26 -36 58 -73 200 -231 354 -315 761 -413 278 -67 299 -58 98 42 -67 33 -158 82 -202 109 -235 140 -415 229 -591 290 -45 15 -91 33 -103 39 -11 7 -21 9 -21 6z"/>
<path d="M97840 19450 c-91 -22 -92 -128 0 -175 50 -26 203 -35 780 -45 311 -6 634 -15 719 -20 242 -16 732 -68 891 -95 117 -21 396 -84 487 -110 37 -11 -96 48 -217 97 -425 170 -765 257 -1222 312 -200 25 -531 37 -945 35 -213 -1 -404 1 -423 4 -19 3 -51 2 -70 -3z"/>
<path d="M41170 19322 c-77 -81 -351 -275 -358 -253 -6 19 -38 12 -63 -15 -13 -15 -41 -37 -61 -50 -75 -48 -87 -128 -27 -178 30 -25 49 -30 99 -26 113 10 291 211 408 463 28 59 50 107 49 107 -1 0 -22 -21 -47 -48z"/>
<path d="M48241 19297 c-13 -23 -63 -105 -111 -182 -164 -263 -226 -412 -218 -529 5 -82 38 -134 103 -166 41 -20 57 -22 128 -17 95 7 136 21 327 117 295 148 429 186 614 177 286 -14 465 -150 631 -479 133 -266 138 -273 257 -387 l46 -44 -8 39 c-4 22 -11 68 -15 104 -31 285 -334 657 -630 771 -135 53 -173 60 -335 66 -180 6 -264 -6 -537 -81 -182 -50 -284 -70 -328 -65 -29 4 -30 6 -33 64 -9 150 41 414 105 563 39 91 41 114 4 49z"/>
<path d="M84856 18818 c-265 -215 -379 -329 -611 -613 -311 -380 -603 -922 -788 -1462 -318 -925 -433 -2049 -346 -3373 32 -499 85 -884 150 -1104 23 -77 122 -313 139 -330 14 -14 13 9 -4 66 -53 173 -115 798 -136 1363 -57 1561 123 2741 576 3780 184 423 506 952 828 1360 60 77 134 172 165 210 30 39 106 123 170 188 63 64 113 117 110 117 -2 -1 -116 -91 -253 -202z"/>
<path d="M65552 18869 c-68 -11 -92 -25 -92 -50 0 -24 32 -39 146 -68 281 -72 862 -137 1444 -161 511 -22 1276 -13 1267 14 -3 10 -109 41 -417 121 -179 47 -568 86 -1145 115 -787 41 -1089 48 -1203 29z"/>
<path d="M74010 18595 c-1 -5 -2 -73 -2 -151 1 -213 40 -356 159 -569 63 -113 120 -197 343 -505 86 -118 219 -305 295 -415 197 -284 247 -349 345 -446 104 -104 205 -160 301 -167 85 -6 136 16 194 84 26 29 44 54 42 54 -3 0 -20 -7 -40 -15 -28 -12 -42 -12 -69 -3 -57 20 -140 82 -223 169 -83 88 -104 116 -361 494 -86 127 -256 362 -378 523 -121 161 -267 357 -323 435 -100 139 -224 360 -263 470 -10 29 -19 48 -20 42z"/>
<path d="M64211 18260 c179 -197 430 -410 673 -572 434 -292 964 -533 1846 -843 909 -319 1107 -402 1405 -594 227 -146 356 -223 452 -267 152 -71 347 -139 523 -183 165 -41 462 -87 483 -74 6 3 85 9 176 12 157 6 166 7 166 26 0 15 -21 31 -80 63 -43 23 -114 65 -157 94 -107 69 -291 134 -613 214 -579 144 -602 152 -930 304 -362 169 -403 185 -1285 510 -375 138 -613 232 -925 365 -801 343 -1460 714 -1780 1005 -28 25 -7 -2 46 -60z"/>
<path d="M84402 17222 c-270 -630 -410 -1200 -506 -2072 -87 -778 -85 -1536 4 -1970 56 -275 82 -349 175 -505 45 -77 102 -177 126 -222 24 -46 50 -83 57 -83 15 0 15 1 -5 75 -21 82 -28 480 -28 1625 1 598 5 995 13 1145 54 982 150 1823 246 2155 14 46 24 86 22 87 -1 1 -48 -104 -104 -235z"/>
<path d="M50547 17313 c-4 -3 -7 -26 -7 -49 0 -24 -5 -74 -12 -111 -14 -86 -6 -131 35 -177 38 -44 54 -42 91 15 44 65 32 136 -41 255 -45 73 -53 81 -66 67z"/>
<path d="M86825 16686 c-336 -120 -352 -128 -595 -310 -152 -114 -325 -282 -481 -469 -496 -593 -876 -1414 -973 -2101 -35 -243 -39 -329 -31 -593 5 -167 10 -233 19 -230 6 2 14 28 19 58 47 334 205 900 359 1284 168 421 447 915 722 1280 183 244 453 540 635 698 52 45 132 116 179 157 99 89 215 173 332 242 100 59 96 56 84 67 -5 5 -116 -29 -269 -83z"/>
<path d="M87298 15834 c-51 -49 -167 -156 -257 -239 -587 -537 -1251 -1406 -1639 -2145 -129 -248 -244 -551 -283 -750 -23 -124 -26 -310 -4 -393 56 -217 232 -346 417 -308 218 45 408 233 778 771 394 572 610 839 913 1127 318 303 699 522 1019 587 101 21 288 21 381 0 127 -29 301 -122 403 -216 80 -74 198 -229 242 -319 46 -95 107 -295 122 -398 6 -47 8 3 5 179 -3 252 -15 343 -61 483 -52 159 -205 364 -341 459 -181 124 -446 185 -689 158 -491 -55 -1029 -372 -1520 -898 -224 -239 -403 -464 -754 -947 -68 -93 -158 -213 -199 -265 -83 -105 -243 -270 -280 -290 l-24 -12 7 78 c35 415 360 1173 862 2011 279 467 696 1058 928 1316 43 48 76 90 73 94 -4 3 -48 -34 -99 -83z"/>
<path d="M60610 15878 c0 -3 16 -48 36 -99 96 -250 326 -953 612 -1879 425 -1374 723 -2293 1054 -3250 106 -310 276 -766 375 -1015 58 -143 107 -267 109 -275 3 -8 -26 46 -64 121 -235 458 -552 966 -901 1447 -573 788 -1381 1663 -2191 2372 -748 654 -1374 1095 -1860 1310 -74 32 -191 76 -260 96 -112 33 -138 37 -241 38 -102 1 -120 -2 -138 -18 -29 -26 -27 -35 12 -48 17 -6 86 -39 152 -72 377 -192 854 -528 1444 -1021 972 -810 1881 -1723 2607 -2620 645 -795 1029 -1379 1648 -2502 134 -243 300 -528 322 -552 3 -3 9 0 14 5 20 20 -184 627 -307 913 -29 69 -53 127 -53 130 0 3 30 -48 66 -114 73 -133 313 -499 322 -490 2 2 -5 20 -16 42 -11 21 -56 128 -101 237 -238 579 -311 782 -801 2236 -509 1508 -627 1851 -923 2685 -219 616 -533 1423 -819 2105 -86 204 -98 231 -98 218z"/>
<path d="M64840 15822 c0 -28 190 -155 309 -208 123 -54 265 -103 402 -139 l106 -27 -95 -127 c-193 -255 -345 -500 -481 -771 -151 -303 -240 -511 -322 -749 -197 -574 -319 -1174 -368 -1818 -76 -979 84 -2075 384 -2628 43 -79 205 -351 205 -344 0 2 -16 45 -35 94 -98 248 -202 678 -254 1045 -121 856 -104 1697 50 2522 85 457 177 794 345 1260 115 321 177 468 367 879 137 297 298 609 314 609 2 0 82 -16 176 -35 198 -41 474 -87 872 -145 562 -83 929 -149 1430 -259 338 -75 340 -69 20 48 -511 185 -1029 318 -1636 421 -122 21 -559 98 -693 122 -38 7 -71 18 -73 24 -2 6 26 53 62 105 l66 94 -93 -99 -93 -99 -150 33 c-260 56 -682 159 -737 180 -57 22 -78 25 -78 12z"/>
<path d="M70594 15655 c-10 -39 14 -440 37 -620 21 -164 51 -297 138 -606 48 -172 104 -324 304 -824 55 -137 119 -304 144 -370 24 -66 41 -109 39 -95 -3 14 -26 131 -52 260 -135 690 -189 905 -438 1727 -30 100 -69 254 -86 343 -17 89 -35 172 -40 186 -12 31 -38 31 -46 -1z"/>
<path d="M56765 14899 c197 -200 356 -370 545 -579 52 -58 169 -186 260 -285 91 -99 244 -268 341 -375 96 -107 256 -285 354 -394 666 -739 1168 -1327 1639 -1914 299 -374 395 -499 375 -487 -8 5 -45 32 -84 60 -303 222 -747 484 -1089 642 -583 268 -1152 424 -1696 463 -113 9 -176 18 -231 36 -104 34 -258 62 -402 75 -290 25 -593 -56 -732 -196 -48 -47 -133 -190 -121 -202 3 -3 22 9 42 27 61 53 154 85 278 95 l71 6 -65 -36 c-36 -20 -56 -33 -45 -29 188 68 175 65 274 59 52 -3 136 -15 188 -26 101 -22 332 -98 453 -148 164 -69 513 -269 705 -404 204 -143 552 -419 734 -582 74 -66 183 -162 243 -213 140 -121 411 -384 505 -492 41 -47 106 -131 144 -188 38 -57 69 -100 69 -97 0 3 -15 36 -34 73 -18 37 -64 137 -101 222 -37 85 -85 189 -105 230 -40 80 -237 382 -335 515 -135 182 -502 560 -685 706 -195 155 -431 316 -587 399 -35 19 -61 35 -59 38 9 8 323 -51 511 -98 775 -191 1484 -546 2230 -1117 66 -50 135 -106 152 -123 18 -18 98 -124 179 -236 492 -690 848 -1297 1114 -1899 207 -469 267 -571 350 -596 33 -10 43 -9 65 5 45 30 50 54 37 190 -14 135 -66 400 -107 541 -31 107 -102 311 -145 414 -16 41 -30 78 -30 83 0 5 13 0 29 -11 65 -46 134 -71 196 -70 33 1 73 4 90 8 26 5 23 7 -32 19 -75 15 -161 70 -231 147 -129 141 -229 274 -295 394 -406 737 -1046 1586 -1892 2511 -317 347 -828 866 -1285 1307 -314 302 -902 827 -1304 1162 -175 146 -400 335 -500 420 l-181 154 200 -204z"/>
<path d="M65652 14858 c-231 -444 -354 -800 -451 -1313 -90 -469 -132 -1082 -112 -1613 23 -608 88 -1085 222 -1615 44 -174 214 -648 278 -776 45 -89 108 -231 148 -336 18 -49 31 -79 28 -65 -31 143 -56 283 -65 370 -6 58 -17 148 -25 200 -8 52 -26 181 -40 285 -14 105 -39 273 -55 375 -96 610 -163 1303 -179 1845 -9 336 3 980 24 1255 46 607 157 1147 305 1493 23 54 40 100 37 103 -2 2 -54 -92 -115 -208z"/>
<path d="M69792 13872 c-281 -225 -874 -895 -1318 -1487 -571 -762 -921 -1409 -1025 -1895 -17 -83 -23 -143 -25 -285 l-2 -180 8 135 c17 283 97 545 270 890 237 473 712 1157 1254 1805 263 315 804 933 867 990 l32 30 -23 -40 c-81 -138 -171 -251 -445 -560 -572 -645 -859 -1037 -1085 -1480 -230 -453 -348 -842 -417 -1380 -13 -104 -18 -205 -17 -390 0 -286 16 -451 49 -545 13 -36 59 -171 101 -300 42 -129 84 -243 92 -252 20 -24 49 -23 62 1 6 12 10 98 11 208 0 115 6 221 15 273 7 47 18 186 23 310 5 124 14 284 20 355 7 72 16 186 22 255 13 164 62 508 99 690 107 533 316 1087 572 1518 163 274 294 458 558 782 254 312 390 514 390 580 0 31 -24 24 -88 -28z"/>
<path d="M73855 13324 c-325 -244 -428 -329 -526 -437 -225 -247 -415 -497 -552 -725 -380 -633 -633 -1322 -762 -2077 -110 -646 -92 -1191 51 -1557 30 -74 44 -88 19 -17 -32 90 -47 215 -52 439 -11 468 63 943 248 1585 115 399 363 986 577 1367 165 294 452 738 606 938 205 267 265 337 381 446 65 63 117 114 115 113 -3 0 -50 -34 -105 -75z"/>
<path d="M67560 12968 c-336 -307 -542 -528 -755 -813 -378 -503 -689 -1310 -784 -2030 -36 -273 -44 -424 -38 -689 9 -356 27 -477 138 -898 20 -77 27 -34 22 135 -16 491 66 1230 198 1787 85 359 285 949 421 1243 259 559 444 841 829 1265 71 78 128 142 127 142 -2 0 -73 -64 -158 -142z"/>
<path d="M73499 12398 c-104 -130 -166 -226 -228 -353 -181 -369 -323 -907 -385 -1455 -26 -229 -39 -602 -26 -753 24 -290 47 -416 106 -590 31 -89 75 -220 99 -292 47 -143 54 -143 28 -3 -16 82 -18 163 -18 713 1 736 14 989 81 1485 71 531 213 1001 378 1255 31 48 55 89 52 92 -2 3 -42 -42 -87 -99z"/>
<path d="M74668 11963 c-360 -340 -559 -603 -758 -998 -119 -237 -205 -479 -249 -705 -26 -132 -51 -344 -51 -435 0 -114 23 -505 30 -505 3 0 11 71 18 158 20 271 78 563 168 843 101 317 267 672 494 1059 190 326 269 441 432 638 38 45 67 82 65 82 -2 0 -69 -62 -149 -137z"/>
<path d="M82051 11718 c-59 -297 -91 -527 -91 -648 0 -87 24 -193 54 -244 59 -101 188 -144 332 -110 l73 17 -91 24 c-175 45 -228 85 -265 200 -24 73 -30 515 -9 682 16 131 15 169 -3 79z"/>
</g>
</svg>