<?xml version="1.0" standalone="no"?>
<!DOCTYPE svg PUBLIC "-//W3C//DTD SVG 20010904//EN"
 "http://www.w3.org/TR/2001/REC-SVG-20010904/DTD/svg10.dtd">
<svg version="1.0" xmlns="http://www.w3.org/2000/svg"
 width="700.000000pt" height="700.000000pt" viewBox="0 0 700.000000 700.000000"
 preserveAspectRatio="xMidYMid meet">
<metadata>
Created by potrace 1.11, written by Peter Selinger 2001-2013
</metadata>
<g transform="translate(0.000000,700.000000) scale(0.100000,-0.100000)"
fill="#000000" stroke="none">
<path d="M1355 6473 c-187 -27 -306 -101 -400 -248 -218 -340 39 -800 445
-798 333 2 579 303 513 628 -33 160 -152 309 -300 375 -71 31 -195 52 -258 43z"/>
<path d="M2624 5235 c-353 -63 -644 -291 -784 -615 -42 -96 -65 -172 -77 -260
-10 -70 -10 -271 0 -330 10 -54 46 -187 57 -209 5 -9 23 -47 41 -86 90 -190
259 -362 459 -468 71 -37 192 -81 255 -92 22 -4 49 -10 60 -12 11 -3 74 -7
140 -9 263 -8 514 83 719 260 48 41 108 107 164 181 47 62 125 222 147 300 4
17 9 35 11 40 18 64 31 172 32 261 2 410 -235 784 -608 957 -185 85 -419 117
-616 82z"/>
<path d="M6190 4010 c-96 -22 -133 -38 -206 -94 -255 -192 -279 -559 -50 -788
231 -231 619 -191 803 84 162 242 90 574 -159 731 -122 77 -247 98 -388 67z"/>
<path d="M1445 2263 c-294 -42 -538 -227 -667 -503 -81 -176 -96 -370 -44
-606 2 -12 18 -53 35 -93 179 -421 646 -632 1083 -490 296 97 527 363 582 669
61 347 -85 694 -374 886 -187 125 -390 170 -615 137z"/>
</g>
</svg>
