<?xml version="1.0" encoding="UTF-8" standalone="no"?>
<!DOCTYPE svg PUBLIC "-//W3C//DTD SVG 20010904//EN" "http://www.w3.org/TR/2001/REC-SVG-20010904/DTD/svg10.dtd">
<svg version="1.0" xmlns="http://www.w3.org/2000/svg" width="10827.000000pt" height="8070.000000pt" viewBox="0 0 10827.000000 8070.000000" preserveAspectRatio="xMidYMid meet">
<metadata>
Created by potrace 1.16, written by Peter Selinger 2001-2019
</metadata>
<g transform="translate(0.000000,8070.000000) scale(0.100000,-0.100000)" fill="#000000" stroke="none">
<path d="M22941 65631 c-16 -10 -29 -108 -37 -299 -4 -90 -12 -155 -18 -160 -6 -5 -85 -35 -176 -67 -193 -68 -602 -251 -955 -427 -377 -188 -653 -339 -910 -500 l-109 -68 -100 0 c-55 0 -553 -7 -1106 -15 -2815 -42 -5824 -85 -5826 -82 -2 2 146 52 329 111 965 313 1267 433 1682 674 67 38 406 264 402 268 -1 1 -56 -15 -122 -36 -66 -21 -237 -71 -380 -110 -600 -164 -1477 -452 -1965 -645 -365 -144 -686 -295 -732 -346 -20 -21 -28 -40 -28 -67 0 -49 22 -79 68 -93 36 -10 70 -3 163 35 20 9 22 -65 44 -1664 21 -1483 82 -5696 100 -6910 8 -564 26 -1808 40 -2765 14 -957 32 -2199 40 -2760 8 -561 26 -1803 40 -2760 14 -957 29 -2044 35 -2415 6 -371 24 -1613 40 -2760 16 -1147 34 -2389 40 -2760 6 -371 24 -1613 40 -2760 16 -1147 34 -2391 40 -2765 6 -374 24 -1614 40 -2755 16 -1141 39 -2698 50 -3460 26 -1821 48 -3291 56 -3884 l7 -480 -159 163 -159 162 -83 182 c-285 625 -545 1416 -813 2472 -43 170 -77 310 -76 312 2 1 23 -44 47 -100 271 -632 530 -1188 872 -1872 141 -281 268 -538 283 -573 114 -256 -114 357 -294 790 -72 175 -153 366 -180 425 -27 60 -92 203 -144 318 -52 116 -186 408 -297 650 -306 664 -318 691 -371 824 -28 69 -61 165 -74 214 -26 96 -38 117 -66 117 -32 0 -49 -28 -49 -84 0 -269 188 -1133 411 -1891 165 -561 315 -980 489 -1370 37 -82 66 -151 65 -153 -2 -2 -59 43 -126 100 -417 348 -817 615 -1304 869 -292 152 -771 371 -1075 492 -183 73 -232 86 -255 67 -29 -24 -17 -56 38 -106 56 -51 96 -80 388 -283 492 -342 814 -645 1162 -1094 274 -353 475 -663 831 -1286 287 -501 347 -586 451 -636 44 -22 61 -25 99 -20 57 9 67 22 28 36 -38 13 -71 60 -167 239 -143 266 -317 574 -393 695 -476 763 -1012 1391 -1592 1866 -86 70 -235 183 -440 332 -37 27 639 -316 835 -423 541 -297 1012 -620 1485 -1019 187 -157 236 -206 276 -278 58 -104 192 -303 280 -415 l84 -107 0 -135 0 -136 140 0 140 0 48 -42 c26 -24 40 -34 32 -23 -8 10 -26 29 -40 42 l-25 22 66 1 65 0 81 -107 c92 -122 184 -260 233 -348 40 -72 38 -70 46 -62 9 9 -125 280 -199 401 -37 60 -65 112 -62 115 4 3 232 9 508 13 276 4 1322 19 2325 33 1003 15 1826 24 1829 21 3 -3 -10 -23 -29 -44 -115 -127 -209 -335 -257 -570 -75 -363 -66 -825 24 -1200 95 -397 255 -699 512 -965 115 -119 271 -229 428 -303 66 -31 324 -114 355 -114 8 0 -20 22 -61 49 -113 74 -286 258 -395 421 -121 179 -171 270 -242 437 -160 372 -233 766 -219 1178 13 396 93 663 239 806 154 150 441 169 766 50 270 -98 609 -354 986 -741 273 -282 481 -530 780 -930 244 -327 329 -433 410 -507 l66 -60 3 -139 c5 -160 20 -221 94 -369 60 -121 119 -201 233 -319 601 -624 1940 -1124 3570 -1331 1009 -128 2272 -160 3216 -80 699 59 999 100 1879 253 l60 11 -70 -5 c-38 -2 -133 -9 -210 -16 -171 -14 -1190 -13 -1660 2 -181 5 -485 15 -675 20 -367 11 -518 19 -995 50 -1118 74 -1900 184 -2702 381 -563 137 -1072 315 -1488 519 -577 283 -894 558 -984 853 -26 86 -44 270 -35 362 l7 70 19 -81 c22 -95 69 -179 117 -211 26 -18 47 -23 90 -22 l56 0 -41 19 c-64 28 -84 104 -84 315 0 806 365 1596 1060 2296 375 378 701 618 1173 863 294 154 586 264 922 349 428 109 637 137 1082 144 578 10 883 -30 1428 -184 477 -134 795 -282 1254 -580 305 -199 541 -403 801 -694 297 -332 449 -542 617 -854 138 -256 241 -523 304 -787 12 -54 24 -96 27 -94 12 12 -97 593 -154 819 -75 299 -259 717 -477 1082 -237 400 -684 889 -1062 1162 -388 280 -875 525 -1280 641 -734 211 -1408 251 -2150 126 -505 -84 -1042 -277 -1510 -542 -326 -184 -698 -475 -990 -774 -465 -474 -829 -1029 -1031 -1568 -24 -63 -43 -112 -44 -108 -1 18 84 364 134 552 289 1066 635 1881 1141 2686 388 618 952 1300 1485 1798 138 129 165 150 245 187 161 75 279 104 433 105 67 0 78 11 35 34 -44 22 -162 56 -197 56 -64 0 -59 14 26 76 172 124 298 186 338 164 27 -14 50 -50 50 -78 0 -13 4 -20 10 -17 19 11 12 127 -10 162 -44 74 -157 92 -297 48 -203 -63 -518 -262 -770 -486 -43 -38 -111 -88 -151 -111 -146 -85 -460 -297 -592 -400 -491 -382 -937 -826 -1296 -1291 -62 -82 -114 -145 -114 -141 0 4 15 59 34 123 78 262 333 1298 461 1871 186 835 202 892 301 1118 27 61 5 32 -64 -85 -144 -243 -238 -462 -371 -860 -189 -567 -462 -1608 -586 -2240 l-74 -372 -74 -124 c-42 -69 -110 -188 -153 -266 -43 -77 -80 -139 -82 -137 -2 3 6 98 18 213 86 828 264 1578 593 2508 153 430 291 751 512 1190 158 315 234 448 344 605 77 110 84 120 78 120 -7 0 -256 -311 -344 -430 -134 -179 -355 -563 -500 -868 -380 -800 -666 -1728 -777 -2517 -49 -348 -76 -701 -76 -985 l0 -149 -85 -193 c-47 -106 -89 -202 -95 -213 -14 -33 -13 24 49 2000 l60 1880 -9 725 c-17 1298 -32 2157 -60 3365 -10 408 -25 785 -50 1200 -6 94 -26 440 -45 770 -121 2072 -270 3821 -500 5871 -47 417 -85 766 -85 775 0 10 33 -18 83 -69 115 -118 317 -303 482 -442 483 -404 1205 -857 1960 -1229 1238 -611 2627 -1130 4385 -1640 2829 -819 6373 -1506 10295 -1995 2003 -251 4170 -460 6155 -596 162 -11 356 -25 430 -30 209 -15 1139 -72 1380 -85 52 -3 169 -10 260 -15 146 -8 257 -14 680 -35 58 -3 146 -8 195 -10 79 -5 805 -35 1190 -50 77 -3 190 -7 250 -10 61 -2 187 -7 280 -10 94 -3 226 -7 295 -10 69 -2 215 -7 325 -10 110 -3 247 -7 305 -10 58 -2 233 -7 390 -10 157 -3 332 -8 390 -10 58 -2 299 -7 535 -10 237 -3 507 -8 600 -10 94 -2 620 -7 1170 -11 550 -4 1002 -8 1004 -10 11 -9 223 -2050 311 -2979 55 -594 102 -1135 150 -1740 17 -209 42 -513 55 -675 61 -726 122 -1623 170 -2470 9 -151 20 -333 25 -405 38 -519 104 -1622 130 -2165 6 -129 20 -365 30 -525 45 -671 78 -1455 85 -1980 l4 -370 -18 300 c-60 951 -91 1579 -91 1834 0 79 -4 131 -9 125 -9 -9 -25 -999 -36 -2144 -12 -1209 -57 -3639 -75 -4065 -50 -1138 -154 -1820 -376 -2467 -120 -348 -250 -617 -427 -883 -106 -159 -117 -170 -215 -205 -453 -164 -1026 -260 -1552 -260 -329 0 -658 24 -970 71 -791 119 -1469 333 -2200 695 -592 293 -989 536 -2100 1286 -658 444 -1044 678 -1495 908 -397 202 -728 341 -1140 479 -652 217 -1267 343 -2030 413 -190 17 -947 18 -1115 0 -548 -57 -974 -165 -1382 -351 l-127 -58 -83 14 c-46 8 -218 38 -383 68 -165 30 -395 68 -511 84 -116 17 -303 46 -415 65 -112 19 -280 47 -374 61 -389 60 -1065 207 -1255 273 -91 32 -140 60 -134 77 9 22 -29 19 -51 -5 -9 -10 -17 -31 -17 -45 0 -14 -2 -25 -5 -25 -33 0 -1516 393 -1988 526 -807 229 -2150 655 -2845 903 -63 22 -121 41 -128 41 -33 0 8 -22 116 -64 2163 -839 2696 -1031 4067 -1461 455 -143 1262 -375 1302 -375 7 0 23 21 35 47 13 27 23 49 24 51 1 2 62 -15 135 -37 559 -167 1305 -283 1999 -311 157 -7 286 -13 288 -15 1 -1 -24 -19 -55 -40 -208 -137 -487 -396 -644 -597 -247 -316 -438 -725 -544 -1163 -48 -198 -95 -490 -95 -587 0 -21 -2 -38 -5 -38 -2 0 -38 13 -79 29 -65 26 -242 69 -484 117 -124 24 -400 44 -628 44 -389 0 -610 -39 -660 -116 -16 -24 -16 -27 3 -51 23 -32 46 -43 37 -18 -6 15 -2 16 22 12 144 -29 633 -58 1457 -88 l327 -12 -6 -131 c-17 -337 45 -866 148 -1256 56 -214 54 -202 21 -222 -54 -31 -78 -108 -26 -79 10 5 33 11 52 12 l34 4 42 -110 c53 -140 104 -255 165 -374 l49 -94 -57 -65 c-105 -121 -206 -224 -282 -285 -254 -205 -713 -443 -1060 -549 -274 -84 -464 -112 -750 -112 -264 0 -377 14 -636 79 -422 107 -801 293 -1189 583 -139 105 -375 344 -454 460 -198 292 -247 564 -155 857 138 439 589 824 1174 1001 288 88 528 124 875 131 295 6 442 -3 740 -48 383 -57 777 -153 1040 -254 77 -30 141 -53 142 -51 1 1 -127 66 -285 144 -220 108 -326 154 -452 196 -439 145 -717 191 -1145 191 -277 -1 -379 -11 -620 -61 -320 -67 -665 -222 -925 -415 -108 -80 -301 -272 -372 -369 -166 -228 -252 -451 -265 -685 -9 -178 32 -344 131 -530 270 -509 1027 -1010 1822 -1205 479 -118 939 -128 1369 -29 492 113 1127 468 1395 780 l58 67 68 -100 c155 -230 423 -524 627 -687 37 -30 67 -57 67 -61 0 -15 -305 -143 -535 -225 -666 -237 -1265 -370 -1900 -425 -155 -13 -685 -13 -851 0 -1228 97 -2110 512 -2564 1205 -135 206 -235 484 -270 748 -15 113 -12 375 5 495 57 401 217 695 561 1034 428 421 962 689 1578 793 267 45 357 50 832 50 490 0 490 0 292 49 -212 53 -543 82 -820 72 -721 -26 -1353 -247 -1888 -660 -259 -200 -505 -489 -619 -729 -212 -446 -239 -1032 -70 -1542 41 -123 158 -361 234 -475 390 -583 1063 -1022 1900 -1241 369 -96 661 -138 1070 -155 373 -15 846 43 1284 156 585 152 1289 447 1832 768 25 15 29 14 130 -50 272 -171 490 -261 777 -322 98 -21 117 -28 169 -68 597 -457 1394 -737 2376 -834 212 -21 769 -29 987 -15 666 45 1218 153 1855 366 910 303 1734 748 2321 1252 419 361 704 778 812 1189 9 35 19 64 22 64 9 0 184 -362 218 -450 39 -99 63 -178 105 -335 55 -205 70 -307 65 -431 l-5 -109 60 180 61 180 0 190 c1 167 -2 202 -23 285 -31 126 -89 275 -151 384 -27 49 -48 91 -46 93 2 2 90 -39 196 -92 333 -166 610 -282 938 -391 108 -35 204 -67 212 -70 9 -4 -18 -23 -72 -50 -96 -49 -119 -67 -35 -29 29 13 82 32 117 41 l65 17 160 -41 c398 -103 772 -159 1182 -175 91 -4 92 -4 160 -53 222 -159 422 -425 544 -725 127 -313 194 -609 304 -1344 127 -845 293 -1366 567 -1775 444 -661 1170 -1075 2289 -1304 199 -41 630 -102 984 -141 140 -15 1070 -78 1325 -90 74 -3 207 -12 295 -20 88 -8 185 -17 215 -20 30 -3 -30 12 -135 33 -594 120 -733 147 -1065 207 -201 37 -493 88 -650 115 -317 55 -382 67 -755 146 -363 77 -574 133 -831 219 -267 89 -403 144 -584 236 -498 252 -846 587 -1077 1034 -188 366 -298 752 -429 1510 -88 512 -153 803 -234 1046 -120 361 -255 597 -468 820 l-102 107 72 7 c513 47 910 158 1318 371 248 130 620 400 765 556 113 122 448 519 527 624 12 16 -1 44 -20 44 -8 0 -72 -55 -141 -123 -147 -143 -301 -277 -421 -364 -47 -34 -140 -103 -207 -152 -307 -224 -665 -415 -981 -525 -362 -125 -736 -186 -1152 -186 -200 0 -207 1 -300 31 -168 53 -300 72 -539 75 -203 3 -220 5 -369 40 -583 135 -1170 360 -1762 674 -74 40 -148 79 -165 88 -68 34 -372 213 -540 317 -255 158 -517 332 -830 552 -261 183 -362 256 -1085 784 -184 135 -356 260 -382 279 -27 18 -48 34 -48 36 0 1 42 -9 93 -22 50 -13 94 -24 97 -23 3 0 -71 38 -165 85 -248 125 -322 169 -531 312 -104 71 -211 142 -238 157 -43 25 -50 27 -60 13 -10 -14 -35 -3 -191 84 -235 131 -908 468 -1150 575 -1080 482 -1857 641 -2555 522 -751 -128 -1394 -615 -1736 -1314 -193 -397 -264 -807 -213 -1245 20 -171 60 -286 123 -355 37 -39 37 -39 12 -4 -73 101 -99 223 -99 464 -1 140 4 208 21 305 82 480 307 907 665 1262 190 188 370 319 592 428 674 332 1435 303 2450 -95 262 -102 407 -167 995 -445 682 -323 1054 -475 1388 -569 l181 -51 273 -207 c150 -113 300 -227 333 -253 397 -306 1189 -892 1530 -1131 293 -206 718 -481 927 -600 43 -24 78 -47 78 -52 0 -4 -27 -60 -59 -125 -217 -433 -674 -919 -1243 -1325 -326 -233 -639 -418 -1023 -607 -877 -431 -1680 -649 -2660 -721 -243 -18 -831 -16 -1060 4 -656 58 -1165 171 -1590 352 -114 49 -390 186 -460 229 l-39 24 54 6 c30 3 95 8 144 11 229 14 577 121 870 268 91 45 66 48 275 -32 319 -122 730 -223 1096 -270 772 -98 1485 1 2245 311 546 223 1276 598 1640 841 386 259 555 469 585 728 11 93 -39 242 -108 319 -12 14 -19 21 -16 15 28 -47 59 -151 59 -197 0 -211 -170 -457 -455 -660 l-60 -42 46 54 c137 164 202 336 203 535 0 383 -251 753 -719 1057 -812 528 -2152 799 -3350 678 -674 -69 -1243 -240 -1735 -523 -285 -163 -569 -386 -810 -633 -205 -211 -342 -392 -441 -582 l-43 -83 -19 23 c-280 353 -456 739 -497 1098 -16 136 -8 389 14 449 9 24 14 46 12 49 -7 6 -43 -118 -58 -196 -20 -106 -17 -456 5 -567 23 -113 87 -312 139 -430 69 -157 217 -404 321 -538 28 -37 29 -38 18 -101 -6 -34 -10 -96 -10 -137 l1 -74 13 80 c7 44 19 95 27 114 l14 34 74 -89 c175 -209 475 -492 700 -660 233 -174 426 -291 692 -422 109 -53 197 -100 198 -104 0 -3 -35 -20 -77 -36 -345 -132 -680 -178 -1013 -137 -134 17 -340 64 -390 90 -17 9 -77 56 -133 104 -146 127 -252 254 -308 368 l-31 61 45 56 c68 83 120 162 166 254 43 86 90 200 68 169 -6 -10 -49 -75 -95 -145 -45 -69 -108 -157 -139 -195 -49 -60 -58 -68 -64 -51 -6 16 -8 15 -8 -8 -1 -29 -90 -117 -186 -183 l-54 -37 -98 78 c-181 145 -403 379 -557 588 -53 72 -146 212 -146 220 0 2 26 14 58 26 31 13 87 38 123 57 93 48 161 122 85 93 -14 -5 -90 -19 -169 -30 -78 -11 -148 -22 -156 -23 -17 -2 -110 176 -175 338 l-44 110 51 8 c29 5 58 11 66 13 17 5 -70 66 -122 84 -35 13 -38 18 -63 99 -65 213 -126 533 -155 816 -7 66 -13 233 -14 370 l0 250 30 -2 30 -2 -27 10 c-34 13 -35 28 -13 209 47 401 144 743 305 1075 252 519 693 937 1249 1184 135 61 163 62 501 26 25 -2 -27 10 -115 28 -98 20 -155 36 -147 41 20 13 155 54 297 91 557 146 1200 180 1947 105 1285 -130 2425 -518 3558 -1213 162 -99 752 -491 955 -634 267 -188 680 -468 915 -620 1087 -705 1970 -1093 2917 -1283 512 -102 1142 -140 1573 -94 50 5 63 2 150 -39 153 -72 293 -115 411 -128 186 -19 414 12 569 78 375 160 668 446 941 918 35 61 79 125 99 143 31 29 32 31 6 16 l-28 -18 27 55 c199 391 382 1007 475 1589 77 492 113 959 131 1705 17 728 -16 2103 -77 3200 -9 160 -16 389 -16 510 1 447 32 1733 53 2240 16 391 22 1924 10 2710 -14 947 -50 1861 -121 3085 -43 740 -145 2030 -246 3110 -59 643 -202 2068 -218 2178 l-5 32 45 0 c41 0 44 2 39 23 -15 68 -25 156 -31 267 -5 100 -14 150 -44 255 -31 110 -40 130 -58 133 -25 4 -20 -25 -68 407 -57 520 -136 1211 -304 2640 -118 1005 -155 1317 -185 1560 -14 110 -45 371 -70 580 -25 209 -52 434 -60 500 -8 66 -37 309 -65 540 -27 231 -93 780 -145 1220 -53 440 -113 949 -135 1130 -349 2931 -524 4356 -725 5900 -315 2413 -415 3353 -475 4465 -5 102 -10 188 -10 191 0 3 66 4 148 2 139 -4 149 -3 192 19 50 25 86 73 96 123 7 41 -24 117 -59 139 -29 19 -35 20 -234 10 l-153 -7 0 214 0 213 43 -41 c50 -48 76 -63 112 -63 25 0 75 39 75 59 0 6 -34 43 -76 83 -148 142 -159 183 -150 558 20 927 137 1656 362 2264 100 268 318 726 337 707 10 -10 5 -73 -8 -106 -16 -40 48 51 72 103 21 46 24 63 19 111 -6 56 -6 57 55 156 34 55 71 115 82 133 18 31 23 33 56 27 20 -4 38 -10 41 -14 3 -5 14 -13 26 -19 15 -8 23 -25 28 -59 3 -26 9 -60 12 -74 5 -22 -10 -42 -108 -146 -143 -151 -187 -230 -222 -403 -13 -63 -33 -145 -44 -182 -58 -185 -69 -317 -48 -553 8 -99 20 -290 26 -426 6 -135 15 -285 21 -335 6 -49 12 -219 14 -379 2 -169 10 -348 19 -430 15 -145 55 -364 81 -448 12 -42 12 -65 0 -185 -8 -75 -19 -234 -25 -352 l-11 -215 -120 -115 c-100 -95 -120 -120 -117 -140 7 -51 81 -33 182 45 27 20 49 35 49 33 1 -2 1 -87 -1 -191 l-3 -187 -37 -19 c-57 -29 -84 -64 -86 -109 -1 -53 27 -91 84 -115 l47 -20 7 -216 c12 -372 52 -1171 76 -1516 5 -77 17 -239 25 -360 48 -683 131 -1655 246 -2860 287 -3020 608 -5793 1030 -8890 129 -950 508 -3627 514 -3633 1 -2 6 34 10 80 18 230 53 431 95 552 11 33 20 74 20 92 0 19 -54 404 -120 856 -66 453 -152 1039 -190 1303 -39 264 -78 530 -87 590 -15 90 -18 177 -17 475 0 355 10 578 40 885 8 83 23 278 34 435 25 359 76 1015 95 1225 20 226 83 1265 135 2240 29 546 64 1473 80 2125 6 239 13 485 16 545 l6 110 241 -2 c389 -4 1399 -22 1822 -33 889 -22 2360 -76 3010 -110 533 -28 776 -41 930 -50 94 -6 283 -17 420 -25 1345 -80 2760 -192 4125 -326 263 -26 1174 -123 1401 -149 96 -11 215 -25 264 -30 904 -103 2219 -284 3225 -446 816 -130 1368 -229 2135 -380 2144 -423 3917 -917 5275 -1469 414 -168 932 -415 1240 -592 602 -345 1026 -702 1278 -1075 99 -147 173 -330 208 -513 42 -225 -19 -541 -143 -750 -205 -343 -493 -623 -963 -937 -391 -261 -1013 -569 -1685 -834 -2003 -788 -5047 -1464 -8760 -1944 -38 -5 -71 -8 -72 -6 -1 1 7 31 18 66 84 269 179 652 275 1105 75 354 144 753 239 1385 60 406 81 640 56 640 -13 0 -72 -164 -151 -420 -101 -324 -102 -321 -11 35 109 423 187 785 241 1105 16 102 40 214 52 250 19 58 20 75 12 165 -5 56 -13 99 -19 99 -5 -1 -22 20 -37 47 -110 203 -297 336 -500 355 -42 5 -78 15 -108 34 -199 119 -751 238 -1325 284 -383 31 -660 38 -1245 33 -585 -5 -807 -16 -1230 -57 -599 -60 -1200 -185 -1785 -373 -64 -21 -160 -42 -230 -52 -440 -58 -766 -147 -893 -242 -18 -14 -36 -23 -38 -20 -8 8 -53 259 -67 376 l-13 106 -9 -110 c-11 -148 1 -486 23 -670 l19 -150 -61 -60 c-91 -90 -188 -217 -214 -279 -51 -125 -49 -406 4 -513 53 -110 129 -143 325 -143 113 0 128 -2 133 -17 3 -10 24 -101 46 -202 86 -389 379 -1532 625 -2436 47 -170 81 -313 77 -316 -4 -4 -36 -23 -72 -43 -60 -32 -76 -36 -220 -50 -85 -9 -200 -17 -255 -17 l-100 -2 95 -13 c52 -8 133 -18 180 -23 l85 -8 -165 -80 c-366 -179 -734 -318 -1085 -408 -114 -29 -274 -40 -1105 -74 -1557 -65 -2823 -96 -4427 -107 -626 -5 -943 -4 -943 3 0 5 -18 151 -40 323 -52 412 -78 646 -87 805 -7 129 -7 130 -16 65 -11 -84 -1 -516 18 -802 39 -567 84 -1077 220 -2443 355 -3582 520 -5979 605 -8800 29 -970 45 -2096 61 -4355 14 -2027 22 -2461 63 -3380 32 -711 36 -872 42 -1710 5 -678 4 -976 -5 -1115 -58 -914 -229 -1537 -657 -2395 -90 -179 -202 -395 -250 -480 -48 -85 -135 -245 -194 -355 -58 -110 -127 -236 -153 -281 -25 -44 -77 -146 -114 -225 -38 -79 -87 -175 -110 -214 -55 -95 -59 -109 -34 -134 12 -12 29 -21 40 -21 23 0 211 160 346 295 154 153 393 477 532 720 313 547 504 1002 628 1498 l53 212 873 6 c1588 12 2897 54 4469 144 912 53 1487 94 2515 180 980 82 1417 128 2510 260 1305 159 3292 456 4165 624 1266 243 2380 474 3540 732 902 201 1818 427 3375 834 779 203 1072 280 1425 371 201 52 458 120 572 150 203 54 207 54 275 43 114 -18 415 4 742 57 372 59 769 162 1152 299 154 55 561 237 686 307 59 34 178 99 263 146 85 46 146 81 135 77 -122 -45 -263 -89 -365 -115 -69 -17 -181 -49 -250 -70 -69 -22 -197 -59 -285 -84 -88 -24 -234 -66 -325 -94 -419 -127 -870 -239 -1485 -367 -277 -58 -347 -81 -355 -115 -7 -28 46 -14 -680 -184 -1141 -269 -2086 -474 -3010 -655 -1855 -364 -3238 -599 -4940 -841 -388 -55 -874 -124 -1080 -154 -1508 -220 -3125 -408 -4600 -536 -195 -17 -452 -39 -570 -50 -2098 -191 -4151 -306 -6600 -370 -480 -12 -2061 -32 -2067 -26 -3 2 0 81 6 174 21 329 10 919 -29 1527 -33 530 -34 585 -11 850 33 374 39 480 72 1225 29 661 34 938 52 2585 7 624 -18 2603 -43 3430 -112 3666 -358 6693 -890 10946 -66 526 -120 966 -120 978 l0 21 458 0 c1353 0 3759 65 5217 140 435 23 589 31 755 40 630 36 966 56 1070 64 l55 5 -50 -24 c-27 -14 -56 -25 -62 -25 -7 0 -13 -4 -13 -10 0 -29 196 3 306 51 38 16 90 24 229 35 99 7 201 14 227 14 44 0 47 -1 53 -32 9 -41 164 -456 194 -518 37 -78 145 -242 172 -263 21 -15 31 -17 47 -8 11 6 22 17 25 24 3 8 2 93 -3 188 -10 205 -61 500 -134 782 -25 99 -46 187 -46 196 0 11 34 40 88 77 424 287 793 617 1001 897 l43 57 142 1 c156 1 156 2 6 19 -58 7 -108 14 -112 17 -5 2 7 27 25 56 18 29 50 82 70 120 l38 67 49 0 c64 0 178 24 241 51 l50 22 132 -63 c420 -199 933 -366 1317 -429 239 -39 315 -46 545 -45 216 0 236 2 330 27 179 48 326 135 484 286 78 75 89 81 221 106 94 19 199 58 309 116 41 21 76 37 78 36 3 -3 -25 -98 -69 -237 -68 -216 -148 -479 -163 -539 -9 -36 -22 -70 -30 -75 -20 -17 -46 -108 -60 -214 -44 -324 -128 -651 -229 -890 -15 -35 -31 -93 -36 -130 -11 -80 -101 -482 -127 -567 l-19 -60 -83 -12 c-45 -6 -148 -16 -229 -23 -81 -6 -228 -17 -327 -25 -575 -47 -1614 -49 -2110 -4 -653 58 -1079 202 -1226 415 -32 47 -48 53 -73 28 -41 -41 -6 -140 83 -237 195 -211 635 -366 1266 -446 337 -43 567 -55 1035 -55 481 0 641 11 1018 70 140 21 457 99 545 133 47 18 52 15 52 -40 0 -44 4 -55 27 -72 60 -45 134 21 174 153 10 34 24 65 32 67 7 3 32 -2 55 -11 86 -33 154 -10 192 65 82 158 263 812 345 1248 22 118 45 218 51 222 6 3 37 9 68 13 90 10 754 103 1011 141 3945 589 7033 1392 8955 2329 1078 526 1740 1053 2060 1641 118 215 183 525 156 741 -28 232 -110 457 -236 649 -196 297 -435 540 -809 819 -527 394 -1254 773 -2205 1151 -1079 428 -2481 844 -4038 1199 -230 53 -506 114 -613 136 -798 167 -915 190 -1425 284 -638 117 -1046 187 -1820 311 -548 88 -1925 277 -2540 350 -71 8 -166 20 -210 25 -69 9 -231 28 -605 70 -238 27 -651 71 -1080 115 -306 31 -820 79 -1172 110 -98 8 -256 22 -350 30 -298 26 -948 76 -1473 115 -456 33 -1480 96 -1965 120 -113 5 -239 12 -280 15 -186 13 -1215 56 -1895 80 -1045 36 -1754 52 -2785 63 l-615 7 0 83 c0 45 2 386 3 758 l2 676 448 -6 c1809 -27 3711 -87 5412 -171 1223 -61 3137 -189 4320 -290 2315 -198 4165 -404 6205 -691 1717 -241 3622 -572 5040 -875 707 -151 1067 -233 1725 -390 972 -232 2182 -576 3060 -868 1643 -548 2840 -1077 3820 -1689 446 -279 851 -597 1162 -914 90 -92 271 -308 311 -370 19 -30 24 -209 48 -1548 9 -543 14 -667 25 -676 8 -6 14 -16 14 -22 0 -19 -174 -249 -287 -379 -144 -165 -325 -334 -582 -542 -821 -665 -2165 -1340 -3846 -1933 -511 -181 -1349 -446 -1865 -592 -1042 -293 -2034 -538 -3100 -765 -712 -151 -847 -179 -1540 -310 -1509 -286 -3215 -551 -5030 -780 -1025 -130 -2460 -286 -3495 -381 -1633 -148 -2708 -229 -4360 -325 -1156 -68 -1966 -105 -3100 -145 -159 -5 -353 -12 -430 -15 -497 -19 -1989 -53 -2657 -61 -400 -5 -568 -10 -568 -18 0 -6 6 -51 14 -101 8 -49 17 -133 21 -185 4 -52 15 -140 25 -195 10 -55 22 -119 25 -142 l7 -43 176 5 c98 2 371 7 607 10 237 3 477 8 535 10 58 2 233 7 390 10 157 3 332 8 390 10 58 3 195 7 305 10 110 3 256 8 325 10 69 3 202 7 295 10 94 3 220 8 280 10 61 3 173 7 250 10 385 15 1111 45 1190 50 50 2 137 7 195 10 423 21 534 27 680 35 91 5 208 12 260 15 241 13 1171 70 1380 85 74 5 268 19 430 30 1455 99 3217 258 4675 421 4605 513 8588 1248 11775 2170 1513 438 2803 903 3875 1396 707 325 1270 631 1783 969 113 75 172 108 172 98 0 -9 -7 -70 -15 -137 -39 -324 -101 -1178 -149 -2067 -22 -395 -75 -1339 -82 -1447 l-6 -93 -29 0 c-30 0 -61 -26 -84 -71 -26 -48 -54 -185 -90 -429 -72 -499 -128 -724 -250 -1015 -118 -281 -330 -608 -546 -840 -81 -87 -256 -237 -349 -299 -223 -150 -394 -212 -739 -271 -144 -24 -404 -81 -481 -105 -19 -6 -89 -15 -155 -20 -119 -9 -234 -33 -651 -136 -100 -24 -287 -62 -415 -84 -129 -22 -252 -45 -274 -51 -128 -35 -235 -133 -345 -313 -142 -234 -723 -1137 -810 -1261 -310 -439 -660 -796 -1050 -1071 -189 -133 -276 -175 -483 -230 -94 -24 -174 -54 -277 -104 -262 -125 -309 -132 -937 -137 l-483 -5 -55 61 c-69 74 -148 116 -200 107 -45 -9 -91 -48 -105 -91 -24 -72 18 -129 166 -225 163 -107 308 -145 714 -191 523 -58 681 -104 933 -273 62 -41 139 -84 173 -95 33 -11 134 -29 225 -41 90 -11 241 -34 334 -51 299 -53 337 -59 515 -70 199 -13 411 -7 485 14 78 22 128 47 295 147 234 141 461 243 749 335 67 22 87 25 105 16 11 -7 71 -57 131 -113 177 -163 353 -312 621 -524 138 -109 322 -256 410 -325 87 -70 213 -174 279 -232 132 -117 363 -264 490 -312 39 -15 172 -67 297 -116 274 -108 326 -122 559 -149 100 -11 225 -30 278 -41 87 -19 313 -34 642 -41 89 -2 153 65 153 159 0 40 3 51 11 40 34 -47 119 -58 265 -32 47 8 88 15 91 15 3 0 11 -11 16 -23 15 -33 76 -60 114 -52 44 10 87 51 95 91 13 71 -38 134 -110 134 -22 0 -86 9 -141 19 -141 27 -233 34 -275 18 -39 -14 -80 -68 -80 -106 l0 -26 -31 33 c-16 18 -49 42 -72 54 -39 21 -60 23 -292 29 -221 5 -262 9 -355 31 -118 29 -136 32 -341 53 -174 18 -259 38 -416 100 -64 26 -172 66 -240 90 -95 33 -140 55 -201 99 -87 63 -213 176 -308 276 -74 79 -254 299 -254 311 0 5 44 9 98 9 193 0 580 34 872 76 562 82 1145 238 1638 441 33 14 -2 -769 -44 -985 -23 -112 -1 -134 44 -47 l21 40 1 -40 0 -39 35 53 c33 53 53 126 42 156 -4 8 7 43 23 77 37 78 86 274 106 415 8 60 17 191 21 292 l6 183 81 36 c45 20 148 69 229 109 81 40 150 73 153 73 3 0 3 -69 -1 -152 -3 -84 -28 -961 -56 -1949 -34 -1260 -49 -1944 -49 -2296 0 -477 -1 -503 -20 -559 -104 -301 -117 -556 -25 -520 13 5 15 9 6 20 -12 15 -1 118 22 204 l12 47 5 -95 c3 -52 6 -257 8 -455 2 -198 4 -360 5 -361 1 -1 61 45 132 101 72 57 131 100 133 95 2 -4 -9 -43 -23 -87 -26 -79 -106 -361 -145 -510 l-22 -81 -56 25 c-176 78 -396 139 -623 174 -190 29 -477 31 -623 5 -412 -74 -730 -290 -927 -628 -144 -246 -157 -499 -39 -727 96 -185 301 -357 600 -503 168 -83 333 -149 344 -138 14 14 -7 40 -209 255 -342 366 -436 522 -423 706 5 58 14 88 51 162 114 230 335 403 602 474 93 25 115 27 325 27 303 1 501 -30 788 -126 l123 -41 -5 -41 -5 -41 10 37 11 37 71 -36 c198 -99 273 -190 311 -374 25 -125 80 -534 74 -550 -5 -12 -45 -20 -167 -34 -88 -10 -159 -20 -157 -23 5 -4 460 20 821 44 1322 86 2833 343 3999 680 401 116 1022 337 1073 382 48 43 37 111 -22 139 -35 17 -36 16 -113 -16 -98 -42 -381 -151 -390 -151 -4 0 -14 15 -22 33 -36 76 -148 103 -222 52 -42 -29 -70 -91 -66 -149 l3 -39 -115 -38 c-999 -326 -2599 -642 -4350 -859 -91 -11 -182 -23 -202 -26 -34 -5 -38 -4 -38 16 0 12 7 50 16 84 56 216 81 549 50 679 -29 124 -111 255 -214 344 -46 39 -204 149 -225 156 -8 2 34 111 234 604 l74 183 5 -73 5 -72 8 70 c19 164 72 308 259 697 227 472 398 763 645 1094 201 269 506 589 773 811 311 258 691 508 1030 678 558 280 1058 405 1405 352 253 -39 441 -133 619 -311 218 -217 378 -547 456 -936 43 -216 53 -351 47 -604 -10 -395 -83 -707 -249 -1059 -124 -266 -188 -371 -373 -612 -146 -192 -247 -305 -398 -445 -141 -132 -268 -221 -433 -306 -60 -30 -100 -53 -89 -49 585 196 656 225 837 343 182 119 299 211 408 321 192 192 339 393 445 606 296 597 377 1299 229 1975 -32 142 -118 405 -174 525 -239 519 -647 869 -1130 969 -147 31 -328 41 -475 28 -209 -19 -465 -79 -676 -157 -52 -19 -98 -35 -104 -35 -14 0 152 97 297 174 491 259 1042 437 1506 487 147 15 548 6 692 -16 254 -39 581 -145 830 -269 192 -95 403 -241 538 -371 105 -101 269 -301 307 -375 9 -16 18 -30 21 -30 6 0 -3 17 -99 185 -253 442 -337 547 -582 730 -299 223 -567 343 -935 420 -193 39 -305 48 -545 42 -401 -10 -690 -74 -1125 -247 -499 -198 -1066 -572 -1570 -1035 -52 -48 -140 -117 -195 -153 -261 -169 -558 -411 -839 -682 -136 -131 -139 -139 67 170 272 407 674 950 1033 1395 245 303 680 807 999 1155 375 410 1021 1061 1340 1349 438 395 984 836 1290 1041 456 306 735 437 1060 500 58 11 120 21 138 21 20 1 25 3 13 6 -23 6 -245 -13 -379 -33 -200 -29 -428 -87 -576 -146 -357 -141 -951 -486 -1333 -774 -476 -358 -910 -736 -1298 -1130 -448 -455 -793 -840 -1121 -1249 -558 -697 -977 -1304 -1391 -2015 -208 -356 -508 -944 -667 -1305 -47 -104 -132 -287 -191 -405 -113 -229 -231 -499 -325 -747 -32 -84 -60 -152 -61 -150 -1 1 7 126 17 277 11 151 35 482 52 735 l33 461 116 205 c137 242 207 362 217 369 3 3 12 18 19 34 18 41 225 371 356 566 435 652 889 1236 1470 1890 670 753 1649 1701 2376 2301 1112 918 1928 1414 2710 1649 133 41 356 87 366 78 5 -6 16 -340 34 -1108 5 -245 14 -611 20 -815 20 -756 31 -1180 50 -1965 11 -443 24 -983 30 -1200 5 -217 14 -582 20 -810 5 -228 12 -479 15 -556 l6 -142 -47 -53 c-91 -105 -160 -292 -196 -529 -16 -106 -15 -491 1 -655 7 -66 23 -188 36 -270 74 -461 180 -819 367 -1230 30 -66 61 -136 68 -155 29 -76 46 -66 31 16 -6 33 -22 176 -36 319 -13 143 -29 303 -35 355 -17 160 -39 461 -55 750 -15 278 -20 731 -9 743 9 9 41 -33 81 -107 l34 -61 -3 330 -3 330 22 3 c31 5 99 -66 154 -159 114 -195 267 -670 343 -1064 39 -203 56 -352 66 -588 6 -120 15 -227 20 -237 17 -31 69 -69 105 -76 45 -8 102 20 133 66 24 35 24 37 18 220 -3 102 -14 253 -26 335 -11 83 -25 254 -30 380 -25 556 44 880 181 850 46 -10 127 -95 171 -180 119 -229 182 -680 121 -865 -23 -69 -48 -96 -117 -129 -64 -30 -82 -52 -70 -84 3 -9 15 -19 27 -23 17 -5 27 0 47 26 14 18 51 58 82 89 108 107 156 278 144 506 -23 449 -213 797 -435 799 -139 0 -244 -125 -305 -364 -13 -52 -26 -88 -29 -80 -3 8 -29 80 -57 160 -159 443 -335 681 -523 706 -27 4 -50 12 -52 18 -2 6 -8 304 -14 661 -16 933 -48 2668 -61 3235 -5 267 -15 742 -20 1055 -6 314 -15 800 -20 1080 -6 281 -17 863 -25 1295 -8 432 -19 1019 -25 1305 -5 286 -14 774 -20 1085 -5 311 -14 774 -20 1030 -6 256 -17 845 -25 1310 -8 465 -19 1059 -25 1320 -6 261 -15 725 -20 1030 -6 305 -15 787 -20 1070 -5 283 -14 767 -20 1075 -5 308 -14 769 -20 1025 -6 256 -17 843 -25 1305 -8 462 -19 1061 -25 1330 -11 552 -35 1785 -50 2640 -5 314 -15 777 -20 1030 -6 253 -15 714 -20 1025 -18 980 -38 2034 -60 3165 -5 281 -15 760 -20 1065 -10 530 -18 960 -40 2095 -5 281 -19 992 -30 1580 -11 589 -24 1297 -30 1575 -10 496 -15 767 -45 2375 -9 440 -20 1012 -25 1270 -5 259 -12 650 -16 871 l-7 401 84 6 c46 4 190 23 319 42 129 19 321 46 425 60 857 115 821 109 863 151 40 40 42 80 7 122 -35 41 -63 45 -153 23 -42 -11 -156 -34 -252 -51 -439 -78 -669 -130 -1035 -234 -126 -36 -235 -66 -241 -66 -17 0 -24 35 -24 118 l0 73 -197 -6 c-109 -3 -583 -12 -1053 -20 -470 -8 -1066 -19 -1325 -25 -258 -5 -607 -12 -775 -15 -168 -3 -530 -10 -805 -15 -275 -6 -867 -17 -1315 -25 -448 -8 -934 -17 -1080 -20 l-265 -5 190 49 c199 51 253 68 530 158 399 130 747 275 995 416 171 96 210 120 185 111 -391 -137 -1186 -396 -1515 -494 -341 -102 -680 -171 -901 -186 -98 -6 -103 -5 -84 11 13 10 4 8 -22 -6 -31 -16 -43 -29 -43 -44 0 -19 -7 -23 -52 -29 -29 -3 -74 -6 -99 -6 l-45 0 3 -112 c1 -62 7 -392 13 -733 6 -341 15 -834 20 -1095 15 -718 30 -1458 30 -1521 l0 -55 -87 3 c-49 2 -362 7 -698 13 -335 6 -995 17 -1465 25 -470 8 -1372 24 -2005 35 -632 10 -1287 22 -1455 25 -168 3 -816 15 -1440 25 -1868 32 -2298 40 -2880 50 -305 6 -953 17 -1440 25 -487 8 -1267 22 -1735 30 -467 8 -1113 19 -1435 25 -322 6 -967 17 -1435 25 -467 8 -1502 26 -2300 40 -797 14 -1837 32 -2310 40 -473 8 -1254 22 -1735 30 -481 8 -1262 22 -1735 30 -473 8 -1114 19 -1425 25 -311 5 -698 12 -860 15 -162 3 -680 12 -1150 20 -940 16 -1874 33 -4035 70 -786 14 -1956 34 -2600 45 -643 11 -1552 27 -2020 35 -467 8 -1111 19 -1430 25 -319 5 -965 17 -1435 25 -970 17 -1960 34 -4040 70 -795 14 -2480 43 -3745 65 -1265 22 -3083 53 -4040 69 -957 17 -1861 33 -2010 36 -148 3 -533 10 -855 15 -596 10 -2205 38 -3760 65 -476 8 -1643 29 -2595 45 -2845 49 -3388 59 -3391 63 -2 1 -21 390 -44 862 -50 1071 -78 1625 -86 1736 l-6 86 34 21 c40 25 92 80 141 148 20 27 68 80 106 116 78 71 88 101 50 139 -19 19 -28 20 -137 14 -64 -3 -139 -2 -167 2 l-50 8 -7 105 c-3 58 -9 137 -13 175 -4 53 -3 66 6 55 9 -13 10 -12 5 4 -4 10 -11 38 -17 62 -13 49 -19 56 -38 45z m-58 -2003 c4 -557 10 -1141 14 -1297 l6 -284 -74 7 c-41 3 -227 7 -414 8 -304 2 -344 0 -380 -16 -70 -30 -121 -92 -149 -178 -4 -14 -16 -18 -48 -18 -63 0 -108 -15 -174 -59 -89 -58 -169 -143 -205 -217 -26 -53 -32 -76 -32 -132 0 -37 8 -88 17 -113 16 -46 15 -48 -9 -104 -60 -135 -85 -277 -86 -487 0 -176 18 -256 74 -330 72 -93 231 -178 337 -178 46 0 63 -10 40 -25 -5 -3 -17 -31 -26 -61 -30 -105 19 -219 116 -274 41 -22 59 -25 225 -31 99 -4 325 -8 501 -8 l322 -1 6 -152 c6 -154 14 -586 41 -2183 8 -478 19 -1122 25 -1430 5 -308 14 -915 20 -1350 5 -434 15 -1125 20 -1535 6 -410 17 -1296 25 -1970 22 -1850 53 -3341 85 -3980 44 -895 61 -1202 75 -1360 9 -91 31 -331 50 -535 18 -203 40 -449 47 -545 l13 -175 6 395 c6 354 20 706 34 830 3 25 16 329 30 675 14 347 32 781 40 965 21 476 37 1658 37 2835 2 1754 -36 3771 -117 6340 -16 516 -30 894 -76 2080 -16 435 -31 857 -32 938 l-2 149 315 -1 c303 -1 2292 -19 4535 -41 589 -6 2278 -21 3755 -35 1477 -14 3171 -29 3765 -35 594 -6 1802 -17 2685 -25 2383 -22 4669 -44 5870 -55 586 -5 1562 -15 2170 -20 608 -6 1796 -17 2640 -25 844 -8 2152 -20 2905 -26 754 -7 1373 -15 1376 -18 3 -3 2 -100 -2 -216 -11 -337 16 -1080 51 -1375 9 -74 31 -165 55 -222 11 -27 -10 -22 -60 12 -73 50 -240 108 -410 143 -28 5 45 25 168 46 l98 17 -120 23 c-138 27 -215 25 -300 -9 -234 -92 -566 -509 -744 -935 -124 -297 -226 -764 -282 -1300 -25 -233 -31 -711 -11 -862 46 -349 172 -645 502 -1175 57 -91 108 -178 114 -193 5 -14 10 -99 10 -188 0 -286 24 -806 61 -1307 46 -639 115 -1319 234 -2325 19 -159 36 -303 38 -320 l2 -30 -90 -1 c-49 -1 -346 -5 -660 -9 -313 -4 -572 -8 -575 -10 -3 -1 -167 -6 -365 -9 -198 -4 -396 -8 -440 -11 -44 -3 -168 -7 -275 -10 -406 -11 -1094 -35 -1430 -50 -58 -3 -271 -12 -475 -20 -203 -8 -408 -17 -455 -20 -47 -2 -139 -7 -205 -10 -283 -13 -1341 -70 -1470 -80 -38 -3 -216 -14 -395 -25 -4359 -269 -8671 -781 -12225 -1451 -2399 -453 -4308 -919 -6160 -1505 -364 -115 -398 -126 -730 -242 -1111 -387 -1936 -730 -2755 -1143 -669 -337 -1320 -741 -1745 -1082 -455 -366 -774 -697 -1008 -1049 -51 -75 -93 -136 -94 -135 -1 2 -11 641 -23 1422 -11 781 -27 1877 -35 2435 -8 558 -31 2109 -50 3445 -19 1337 -42 2889 -50 3450 -8 561 -26 1803 -40 2760 -14 957 -32 2199 -40 2760 -8 561 -26 1805 -40 2765 -13 960 -27 1871 -30 2026 l-6 280 184 61 c591 197 1614 615 1813 741 27 17 52 31 55 31 3 1 9 -455 12 -1011z m70981 370 c6 -157 14 -479 36 -1373 6 -231 15 -580 20 -775 5 -195 12 -461 15 -590 7 -312 41 -1647 60 -2390 8 -327 20 -786 25 -1020 5 -234 14 -585 20 -780 5 -195 15 -555 20 -800 6 -245 15 -602 20 -795 5 -192 14 -552 20 -800 5 -247 14 -607 20 -800 5 -192 14 -539 20 -770 12 -495 26 -1053 40 -1597 6 -216 17 -663 25 -993 28 -1110 35 -1418 45 -1780 6 -198 14 -560 20 -805 5 -245 12 -517 15 -605 3 -88 12 -437 20 -775 8 -338 22 -883 30 -1210 8 -327 20 -768 25 -980 5 -212 14 -574 20 -805 5 -231 14 -591 20 -800 20 -770 56 -2198 75 -2965 8 -333 19 -778 25 -990 5 -212 14 -569 20 -795 5 -225 14 -585 20 -800 5 -214 14 -577 20 -805 6 -228 15 -584 20 -790 14 -539 38 -1468 55 -2185 8 -341 19 -784 25 -985 5 -201 12 -474 16 -606 l6 -242 -38 -6 c-22 -3 -79 -8 -129 -12 -247 -17 -441 -59 -756 -164 -810 -271 -1745 -834 -2709 -1634 -799 -661 -1550 -1412 -2212 -2208 -230 -278 -206 -247 -421 -533 -349 -462 -609 -854 -887 -1335 -62 -107 -116 -199 -121 -204 -4 -4 -5 18 -3 50 35 480 54 637 110 941 72 394 242 983 403 1399 282 731 655 1444 1136 2174 116 176 375 544 397 565 6 6 -10 -28 -36 -75 -87 -157 -361 -713 -468 -950 -454 -1005 -844 -2075 -1164 -3199 -97 -341 -122 -453 -44 -198 288 942 858 2326 1362 3307 415 809 779 1400 1223 1990 218 289 572 702 829 968 425 440 1086 1032 1339 1200 37 25 67 47 67 49 0 3 -52 -23 -116 -56 -64 -34 -118 -61 -122 -61 -15 0 343 267 483 360 100 67 166 115 105 78 -14 -8 -218 -129 -455 -268 -601 -354 -667 -395 -865 -543 -282 -210 -693 -546 -939 -766 -329 -296 -869 -872 -1190 -1271 -1016 -1264 -1730 -2703 -1985 -4005 -109 -558 -142 -951 -124 -1490 l9 -290 -103 -195 c-57 -107 -121 -230 -143 -273 -22 -42 -41 -71 -43 -64 -1 7 33 840 78 1852 44 1012 84 1968 90 2125 11 268 13 288 37 348 26 66 25 92 -4 92 -15 0 -18 8 -16 52 3 62 20 557 68 2048 45 1388 115 4384 135 5770 6 404 15 962 20 1240 5 278 14 786 20 1130 10 631 22 1070 40 1500 26 620 68 844 156 827 32 -6 30 -1 -6 18 -42 22 -74 19 -109 -11 -58 -48 -87 -111 -146 -314 l-33 -114 -6 114 c-3 63 -8 279 -11 480 -3 201 -12 698 -20 1105 -8 407 -24 1213 -35 1790 -11 578 -24 1273 -30 1545 -6 272 -19 972 -30 1555 -11 583 -24 1276 -30 1540 -5 264 -14 732 -20 1040 -6 308 -15 783 -20 1055 -12 609 -24 1212 -50 2585 -11 583 -24 1274 -30 1535 -6 261 -17 846 -25 1300 -8 454 -19 1043 -25 1310 -12 547 -23 1142 -45 2330 -8 448 -19 1033 -25 1300 -23 1064 -40 2072 -36 2079 3 4 427 11 943 14 516 4 1451 12 2078 18 1810 17 2883 26 3396 27 l477 2 6 -162z m-73510 -400 c3 -40 8 -213 11 -385 11 -623 34 -1783 40 -1978 3 -110 10 -443 15 -740 5 -297 14 -740 20 -985 10 -457 20 -914 45 -2180 17 -846 31 -1534 45 -2170 6 -250 15 -693 20 -985 5 -291 14 -721 20 -955 6 -234 15 -661 20 -950 9 -499 17 -884 40 -1955 6 -258 15 -704 20 -990 5 -286 14 -716 20 -955 6 -239 15 -671 20 -960 5 -289 14 -734 20 -990 19 -867 30 -1443 45 -2165 19 -960 33 -1608 46 -2198 6 -269 7 -548 4 -621 -5 -79 -3 -180 4 -252 11 -115 20 -451 41 -1544 5 -283 14 -715 20 -960 6 -245 15 -686 20 -980 5 -294 14 -735 20 -980 6 -245 15 -670 20 -945 12 -604 25 -1231 45 -2190 16 -773 39 -1879 55 -2670 25 -1208 54 -2613 70 -3373 6 -260 15 -715 20 -1010 6 -295 15 -710 20 -922 6 -212 10 -414 9 -450 l-1 -65 -18 70 c-21 82 -60 245 -170 715 -309 1314 -456 2000 -555 2590 -25 151 -47 280 -49 285 -9 29 -28 -147 -28 -251 2 -404 194 -1585 482 -2964 120 -575 219 -1016 312 -1389 l51 -206 6 -248 c3 -136 5 -247 3 -247 -2 0 -27 51 -56 113 -326 688 -422 893 -503 1077 -389 877 -567 1517 -624 2243 -15 190 -6 665 15 847 24 207 62 420 117 658 27 119 56 276 64 349 8 72 17 143 21 157 9 37 -11 32 -27 -6 -7 -18 -34 -77 -61 -131 -91 -185 -195 -568 -248 -912 -43 -286 -61 -719 -41 -1000 60 -815 274 -1524 767 -2534 68 -140 123 -256 121 -257 -2 -2 -32 31 -68 74 -91 110 -480 499 -612 614 -643 557 -1245 865 -1800 920 -203 20 -422 -14 -569 -87 -72 -36 -173 -122 -184 -157 -3 -10 -25 -26 -48 -37 -24 -10 -47 -24 -51 -31 -9 -15 12 -30 43 -30 12 0 22 -3 22 -7 0 -5 26 -9 58 -9 298 -8 722 -186 1207 -509 627 -416 1200 -921 1673 -1472 118 -138 342 -423 342 -435 0 -4 -16 -8 -35 -8 -19 0 -35 4 -35 10 0 16 -158 245 -251 365 -148 190 -413 429 -610 552 -224 140 -515 247 -804 297 -335 58 -787 42 -1104 -38 -373 -95 -598 -288 -690 -591 -24 -78 -44 -297 -31 -329 8 -19 9 -19 9 5 1 21 32 51 171 165 255 208 354 262 560 304 246 51 642 -5 975 -137 126 -50 380 -180 505 -258 153 -97 499 -350 500 -366 0 -8 -130 -14 -735 -34 -247 -8 -580 -19 -740 -25 -159 -6 -420 -15 -580 -20 -159 -6 -488 -17 -730 -25 -963 -32 -1097 -37 -1290 -45 -166 -6 -202 -5 -211 6 -38 47 -52 417 -59 1514 -8 1221 -19 1688 -40 1757 -29 96 -91 146 -182 146 -63 0 -117 -32 -164 -95 -146 -202 -345 -755 -454 -1264 -150 -695 -137 -1320 30 -1540 21 -27 186 -124 211 -124 5 0 -11 19 -33 43 -62 62 -73 97 -73 230 0 304 89 877 210 1356 31 124 128 453 136 460 2 2 4 -171 4 -385 1 -584 18 -1551 30 -1704 12 -140 37 -283 64 -359 9 -24 16 -47 16 -50 0 -4 -170 -13 -377 -20 -208 -6 -488 -17 -621 -22 -134 -6 -246 -8 -249 -5 -6 6 -8 115 -48 2881 -30 2076 -61 4197 -75 5140 -6 374 -17 1139 -25 1700 -8 561 -29 1938 -45 3060 -16 1122 -39 2645 -50 3385 -10 740 -22 1498 -25 1685 -8 505 -22 1403 -60 4005 -51 3421 -64 4289 -75 5025 -5 363 -14 973 -20 1355 -6 382 -15 997 -20 1365 -18 1203 -52 3512 -90 6105 -11 745 -24 1686 -30 2090 -6 404 -19 1286 -29 1960 -10 674 -17 1227 -15 1229 1 2 1028 7 2281 12 1253 5 2481 10 2728 12 248 1 772 3 1167 5 l716 2 6 -72z m2756 -1964 c29 -9 69 -27 90 -40 26 -17 56 -26 101 -30 35 -2 719 -16 1519 -29 1664 -29 3380 -58 4620 -80 470 -8 1244 -22 1720 -30 476 -8 1126 -19 1445 -25 319 -6 969 -17 1445 -25 476 -8 1124 -20 1440 -25 1987 -35 3794 -66 6335 -110 1590 -28 3534 -61 4320 -75 787 -14 2344 -41 3460 -60 2721 -47 3688 -65 3691 -68 2 -2 -10 -31 -26 -65 -72 -149 -110 -363 -110 -610 0 -81 7 -187 15 -237 8 -49 13 -90 11 -92 -1 -1 -450 2 -997 7 -547 5 -1484 14 -2084 20 -1237 11 -2519 23 -4830 45 -880 8 -2808 26 -4285 40 -1477 13 -3164 29 -3750 35 -586 6 -2273 22 -3750 35 -5782 53 -7687 71 -9050 85 l-945 10 -50 -34 c-80 -54 -152 -86 -229 -103 -152 -32 -318 9 -452 111 l-47 36 -373 0 c-231 0 -383 -4 -400 -10 -15 -6 -28 -9 -30 -7 -2 1 2 22 8 45 9 35 7 51 -6 87 -22 57 -60 88 -140 115 -109 36 -107 33 -118 204 -10 153 -1 274 24 351 13 39 14 40 71 47 75 10 169 59 213 113 39 48 81 137 115 244 l24 74 355 -7 c346 -7 356 -7 381 13 71 55 175 73 269 45z m31038 -609 c2 -2 -12 -25 -31 -52 -169 -237 -245 -627 -181 -926 l7 -28 -54 3 c-54 3 -54 3 -57 38 -5 53 -22 62 -22 12 l0 -42 -185 0 -184 0 -15 53 c-25 86 -36 200 -36 360 0 221 24 382 81 538 l20 56 327 -5 c180 -2 328 -6 330 -7z m952 -15 c565 -11 760 -14 4010 -70 1268 -22 2562 -44 2875 -50 314 -6 1349 -24 2300 -40 1492 -26 5523 -96 8365 -145 476 -8 1122 -19 1435 -25 314 -6 1349 -24 2300 -40 1952 -34 5059 -88 7220 -125 798 -14 1815 -32 2260 -40 446 -8 820 -12 831 -9 20 5 21 2 27 -228 4 -128 7 -297 7 -375 l0 -143 -147 0 c-82 0 -839 7 -1683 15 -844 8 -2032 19 -2640 25 -608 5 -1575 15 -2150 20 -1502 14 -2975 28 -4815 45 -885 8 -2096 19 -2690 25 -594 6 -1802 17 -2685 25 -883 8 -2323 22 -3200 30 -877 8 -2085 19 -2685 25 -599 6 -1569 15 -2155 20 -981 9 -2597 24 -5380 50 -602 5 -1306 13 -1565 16 l-470 7 -57 64 c-70 78 -73 93 -65 327 5 141 43 496 62 584 6 27 -29 26 695 12z m-1320 -2177 l0 -708 -58 -46 c-56 -46 -58 -46 -119 -41 l-62 4 -5 52 c-47 450 -89 946 -101 1181 -3 66 -8 153 -11 193 l-6 72 181 0 181 0 0 -707z m2205 687 c600 -6 1810 -17 2690 -25 880 -8 2325 -22 3210 -30 886 -8 2092 -19 2680 -25 589 -6 2038 -19 3220 -30 1183 -11 2629 -24 3215 -30 586 -6 2271 -22 3745 -35 4779 -44 5913 -55 6965 -65 1061 -10 2657 -25 4168 -39 468 -4 855 -11 858 -14 7 -6 11 -206 39 -1667 8 -454 20 -1054 25 -1335 6 -280 17 -865 25 -1300 8 -434 19 -1022 25 -1305 5 -283 14 -767 20 -1075 5 -308 14 -771 20 -1030 6 -258 17 -852 25 -1320 8 -467 19 -1064 25 -1325 6 -261 17 -837 25 -1280 23 -1276 35 -1890 45 -2390 22 -1056 33 -1800 27 -1806 -3 -4 -52 34 -109 83 -585 507 -1412 1013 -2433 1488 -761 355 -1563 670 -2585 1016 -292 99 -1002 317 -1505 463 -1122 324 -2596 681 -3930 952 -1467 297 -2697 511 -4305 749 -2768 409 -5940 732 -9060 925 -179 11 -356 22 -395 25 -99 8 -1207 68 -1465 80 -63 3 -158 8 -210 10 -52 3 -257 12 -455 20 -514 21 -597 25 -715 30 -58 3 -186 7 -285 10 -99 3 -214 8 -255 10 -41 3 -185 7 -320 10 -135 3 -276 8 -315 10 -38 2 -180 7 -315 10 -135 3 -301 8 -370 10 -69 2 -276 7 -460 10 -184 3 -398 7 -475 10 -77 3 -453 8 -835 11 -382 3 -699 10 -703 13 -4 4 -12 199 -17 432 -25 1086 -63 1954 -131 2944 l-20 300 33 25 c18 13 76 65 128 116 78 74 112 99 192 138 236 115 355 254 459 532 103 280 128 407 141 724 12 316 5 611 -22 930 -54 642 -98 848 -271 1266 -33 82 -97 237 -140 344 -115 283 -166 379 -329 625 -169 254 -250 357 -328 421 -72 59 -109 77 -262 130 -98 35 -139 44 -191 44 -136 0 -246 -56 -374 -190 -52 -53 -80 -72 -200 -130 -77 -38 -140 -68 -141 -67 -1 1 -3 74 -5 161 l-4 160 25 7 25 7 -27 1 c-20 1 -28 6 -28 19 0 166 -105 1058 -146 1241 l-5 23 498 -6 c274 -4 989 -11 1588 -16z m-1055 -1920 c113 -169 264 -417 298 -489 18 -40 56 -131 82 -202 27 -71 85 -217 130 -324 44 -107 87 -225 96 -262 42 -183 93 -519 121 -808 22 -232 25 -885 4 -1045 -28 -221 -74 -418 -141 -602 -43 -118 -63 -145 -139 -184 -60 -30 -66 -31 -88 -17 -31 21 -69 9 -87 -26 -18 -33 -37 -37 -246 -47 -176 -9 -187 -3 -335 172 -135 160 -193 260 -279 481 -69 178 -88 214 -138 269 -48 53 -93 65 -145 40 -43 -20 -82 -100 -90 -183 l-6 -57 -15 39 c-57 161 -113 397 -141 605 -20 145 -45 678 -45 970 0 291 10 464 40 649 16 104 131 465 167 523 12 20 103 115 202 210 146 141 189 177 230 192 28 10 117 53 199 95 180 92 235 113 255 97 7 -6 39 -49 71 -96z m-1703 -32 l43 -13 -71 -110 c-512 -790 -740 -1545 -819 -2705 -10 -155 -29 -548 -31 -670 -1 -36 -4 -56 -6 -45 -3 10 -28 89 -55 175 -145 453 -238 1071 -208 1384 52 558 134 925 294 1316 124 302 291 555 412 626 94 55 328 78 441 42z m468 -3553 c30 -60 78 -146 107 -190 61 -91 205 -242 293 -306 33 -24 60 -48 60 -54 0 -11 -90 -77 -240 -178 -98 -66 -315 -181 -324 -172 -3 4 -8 97 -12 208 l-6 202 34 48 c19 26 50 82 67 125 54 127 52 131 -20 60 -36 -35 -69 -64 -74 -66 -11 -4 -14 412 -3 522 l6 69 29 -79 c16 -43 53 -128 83 -189z m782 -1102 c-34 -842 -57 -2099 -57 -3065 l0 -508 -270 0 c-148 0 -270 2 -270 4 0 2 -7 70 -15 152 -85 859 -195 2193 -239 2924 -9 135 -18 280 -21 322 l-6 77 38 6 c159 26 293 74 434 158 182 107 313 242 347 357 l17 60 29 -30 30 -29 -17 -428z m228 306 c49 -17 94 -23 247 -28 104 -4 190 -10 192 -12 3 -2 -22 -44 -55 -93 -32 -49 -59 -92 -59 -95 1 -21 24 -33 73 -38 l57 -6 0 -71 c0 -39 7 -552 15 -1141 17 -1226 19 -3681 5 -4360 -21 -1002 -52 -1899 -100 -2985 -58 -1294 -91 -2008 -102 -2230 -6 -128 -11 -624 -12 -1155 -1 -907 -1 -926 -17 -810 -292 2119 -491 3718 -714 5735 -90 815 -110 1003 -99 953 5 -23 8 -23 160 -23 l154 0 0 -57 c0 -60 22 -576 40 -953 11 -218 67 -1104 74 -1150 1 -14 4 184 4 440 2 472 17 1318 28 1578 l6 142 25 0 26 0 -5 192 c-4 162 -8 193 -22 203 -14 11 -16 44 -16 287 0 151 3 491 7 756 l6 482 24 0 c23 0 23 2 23 98 0 53 7 169 15 257 20 222 23 205 -25 205 l-40 0 0 458 c0 917 -32 2595 -60 3182 -5 107 -10 223 -10 257 l0 62 48 -29 c26 -17 74 -39 107 -51z m-281 -5086 c3 -357 8 -699 11 -760 l5 -113 -174 0 -174 0 -6 43 c-10 73 -146 1419 -146 1449 l0 28 239 0 239 0 6 -647z m-1664 631 c0 -5 42 -346 94 -759 52 -412 93 -752 91 -756 -2 -3 -215 -9 -472 -13 -899 -13 -2441 -62 -3358 -106 -346 -17 -779 -39 -965 -50 -96 -5 -254 -14 -350 -20 -674 -38 -1756 -112 -2200 -150 -63 -6 -281 -24 -485 -40 -574 -47 -1489 -132 -1825 -170 -47 -5 -130 -14 -185 -20 -2468 -259 -4667 -592 -6700 -1014 -121 -26 -238 -50 -260 -56 -22 -5 -94 -21 -160 -35 -66 -14 -138 -30 -160 -35 -22 -5 -170 -39 -330 -76 -1303 -296 -2703 -711 -3660 -1086 -925 -363 -1672 -746 -2172 -1115 -466 -343 -762 -664 -942 -1021 -118 -234 -164 -567 -113 -809 42 -194 119 -379 225 -541 491 -749 1588 -1434 3362 -2099 264 -99 1021 -351 1360 -453 1608 -484 3504 -903 5750 -1270 483 -79 1203 -187 1670 -250 990 -134 1468 -193 2349 -290 706 -77 1096 -116 1966 -195 613 -56 1659 -136 2330 -180 129 -8 303 -20 385 -25 83 -6 229 -15 325 -20 684 -38 911 -51 1180 -64 1456 -73 3095 -123 4585 -139 l200 -2 27 -220 c26 -213 109 -927 166 -1424 l28 -244 -880 7 c-1554 11 -2773 40 -4581 106 -1829 67 -4050 201 -5890 355 -3348 281 -6317 654 -9085 1141 -667 117 -1677 309 -2050 390 -113 25 -288 62 -390 84 -444 93 -729 158 -1500 341 -910 216 -2169 570 -3005 846 -1503 495 -2673 994 -3605 1538 -458 267 -751 469 -1098 759 -530 442 -898 938 -1027 1382 -35 122 -79 519 -71 654 12 218 104 523 223 735 179 319 436 629 752 906 473 417 915 707 1763 1157 361 192 1284 594 1821 793 1630 605 3439 1109 5687 1584 1004 212 2562 497 3555 649 2342 360 4576 628 6825 821 162 14 448 39 635 55 920 80 2877 212 4015 269 113 6 248 13 300 16 573 32 1971 85 2860 110 294 8 636 17 760 21 749 22 2230 40 2230 28z m240 -1926 c0 -7 22 -195 50 -418 52 -420 222 -1847 309 -2595 194 -1656 394 -3360 522 -4430 27 -231 72 -607 99 -835 27 -228 79 -660 115 -960 36 -300 81 -678 100 -840 19 -162 38 -313 41 -334 l6 -39 -428 7 c-1813 28 -3892 103 -5399 196 -88 5 -275 17 -415 25 -609 36 -1380 91 -1985 140 -99 8 -319 26 -490 40 -328 27 -1090 95 -1337 120 -382 38 -480 49 -873 91 -581 62 -944 104 -1555 179 -1805 224 -3629 517 -5045 809 -2533 524 -4433 1104 -5750 1756 -900 446 -1440 857 -1761 1338 -81 121 -138 255 -185 432 -32 118 -33 334 -2 465 48 206 122 356 271 555 287 380 765 739 1467 1101 1055 544 2537 1035 4500 1490 178 41 598 134 675 149 25 5 167 34 315 65 306 63 1070 208 1340 255 824 142 1678 276 2260 354 143 20 328 45 410 56 257 35 1133 144 1405 175 513 58 731 81 1210 129 1031 104 1857 175 3045 261 678 49 1939 120 2905 165 1149 52 2881 100 3883 108 232 2 297 -1 297 -10z m16255 -5068 c38 -6 98 -19 133 -30 84 -26 116 -25 181 5 47 22 59 24 87 15 128 -43 273 -240 248 -337 -9 -34 -14 -37 -119 -80 -60 -24 -216 -80 -345 -123 -713 -241 -1484 -362 -2620 -411 -308 -13 -1414 -7 -1700 10 -687 41 -1206 120 -1625 246 -66 20 -83 30 -98 54 -10 17 -37 42 -61 56 -44 26 -168 55 -232 55 -41 0 -146 51 -167 80 -7 11 -16 17 -20 14 -3 -3 -17 2 -30 11 -21 13 -30 34 -47 108 -11 51 -23 100 -26 109 -4 13 8 19 68 32 72 16 223 36 263 36 11 0 -43 -33 -119 -73 -77 -40 -141 -78 -144 -85 -6 -20 48 -25 147 -13 139 17 258 43 558 124 l268 71 280 3 c1169 10 2466 44 3215 83 96 5 270 12 385 15 116 3 278 11 360 17 355 25 1006 30 1160 8z m784 -687 l-41 -140 28 -44 c18 -28 29 -62 32 -94 4 -57 -24 -178 -68 -295 -42 -107 -75 -219 -105 -343 -14 -60 -41 -148 -60 -197 -19 -49 -35 -95 -35 -101 0 -6 -20 -73 -44 -148 -25 -75 -52 -165 -60 -201 -49 -200 -68 -292 -96 -450 -16 -96 -45 -222 -64 -280 -19 -58 -47 -161 -62 -230 l-29 -125 -74 -78 c-95 -100 -236 -214 -341 -277 -46 -28 -87 -50 -91 -50 -5 0 0 23 11 50 11 28 20 60 20 71 0 11 14 34 30 51 40 40 50 60 50 101 0 53 -18 93 -55 121 l-33 26 -31 -35 c-17 -20 -33 -48 -37 -63 -3 -15 -14 -53 -25 -85 -10 -31 -19 -79 -19 -105 0 -59 -25 -147 -48 -170 -12 -12 -57 -24 -132 -36 -63 -10 -131 -26 -152 -37 -30 -15 -59 -19 -150 -19 -651 1 -1537 213 -2168 519 l-85 42 0 107 c0 97 -3 112 -28 164 -32 65 -64 92 -129 108 -62 16 -180 -7 -286 -55 l-80 -37 -129 85 c-550 365 -1061 801 -1591 1357 -298 313 -382 411 -383 446 0 23 -2 25 -8 10 -6 -15 -20 -3 -87 75 -195 228 -202 239 -149 239 19 0 30 -12 56 -59 19 -36 54 -79 88 -109 55 -48 56 -48 56 -23 3 121 5 133 23 128 9 -3 82 -29 162 -57 459 -162 1037 -257 1865 -305 1249 -72 2377 -19 3200 151 509 104 1029 298 1310 487 44 30 81 53 82 52 2 -1 -16 -65 -38 -142z m-6949 -151 c0 -14 169 -262 277 -405 58 -78 112 -160 119 -182 7 -22 25 -80 40 -129 131 -427 684 -1111 1279 -1584 163 -129 150 -113 125 -154 -26 -44 -50 -154 -50 -230 l0 -58 -104 -118 c-169 -192 -379 -383 -604 -550 -68 -51 -131 -96 -141 -101 -16 -9 -22 7 -66 162 -45 164 -202 697 -353 1207 -66 222 -248 821 -417 1375 -89 292 -215 731 -215 750 0 7 6 16 13 18 20 9 97 8 97 -1z m-247 -277 c9 -49 19 -105 23 -122 l7 -33 -53 0 -52 0 4 103 c2 79 7 109 21 131 11 15 22 24 27 20 4 -5 15 -49 23 -99z m807 -485 c225 -269 616 -671 880 -905 177 -157 403 -338 578 -465 73 -52 132 -98 132 -101 0 -4 -15 -10 -32 -13 -18 -3 -59 -20 -92 -36 l-58 -30 -62 47 c-73 57 -189 150 -311 252 -131 110 -544 526 -664 671 -179 214 -326 424 -405 577 -22 44 -39 90 -29 78 5 -5 34 -39 63 -75z m23456 -1086 c-53 -611 -113 -1537 -176 -2679 -32 -589 -151 -3452 -170 -4095 -6 -201 -13 -374 -15 -386 -3 -14 -23 -29 -62 -47 -136 -61 -673 -267 -695 -267 -4 0 -5 26 -3 58 3 31 19 248 36 482 16 234 47 637 69 895 42 499 45 542 115 1520 89 1231 145 2313 190 3625 17 522 23 617 39 623 45 17 475 363 621 500 39 36 71 64 73 62 1 -1 -9 -132 -22 -291z m-21511 -605 c22 -12 53 -33 69 -48 32 -29 82 -130 69 -140 -4 -3 -22 -19 -40 -35 l-32 -29 -93 56 c-135 81 -130 75 -118 119 14 48 56 98 84 98 12 0 39 -9 61 -21z m-305 -234 c1 -22 5 -49 9 -60 7 -17 10 -14 20 18 7 21 15 36 18 34 8 -9 -49 -162 -77 -207 -16 -25 -63 -78 -104 -119 l-74 -74 -17 54 c-9 30 -19 99 -22 154 l-5 100 67 107 66 106 59 -36 c56 -35 59 -39 60 -77z m837 -44 c544 -248 1157 -410 1743 -461 152 -13 477 -13 596 1 53 6 98 8 100 6 8 -8 -108 -90 -190 -133 -208 -110 -476 -129 -913 -65 -422 63 -965 245 -1443 486 l-68 34 -4 88 c-4 71 -1 90 11 101 8 7 20 10 26 8 5 -3 69 -32 142 -65z m-697 -15 c-3 -77 -64 -212 -170 -370 -74 -110 -90 -121 -116 -81 -12 18 -5 29 72 120 87 103 153 218 174 307 9 33 16 45 26 41 8 -3 14 -10 14 -17z m-457 -403 c9 -18 17 -37 17 -42 0 -17 -199 -188 -295 -254 -130 -89 -289 -166 -457 -222 -131 -43 -190 -52 -174 -26 3 5 61 48 129 95 264 184 523 413 682 604 l28 34 27 -79 c14 -43 34 -92 43 -110z m116 -130 c17 -10 31 -21 31 -25 0 -34 -308 -344 -535 -538 -159 -136 -387 -321 -391 -317 -4 4 -96 340 -98 355 -1 8 50 32 129 61 157 57 345 148 480 232 100 62 319 221 330 239 9 14 19 13 54 -7z m-1290 -803 c29 -111 52 -202 50 -204 -4 -4 -516 -38 -839 -56 -102 -6 -206 -12 -233 -14 -26 -2 -46 -2 -44 0 2 2 79 35 173 73 273 111 722 326 808 387 11 8 23 14 26 14 3 0 29 -90 59 -200z m5206 -615 c26 -36 49 -65 52 -65 3 0 12 8 19 18 31 39 -204 -605 -246 -678 -14 -23 -12 -6 14 130 13 69 36 201 51 295 14 93 27 170 28 170 1 1 22 16 47 35 25 19 47 35 49 37 2 2 2 6 -1 9 -3 3 -25 -4 -48 -16 l-43 -22 7 59 c8 61 15 93 21 93 2 0 25 -29 50 -65z m17075 -1272 c0 -10 -47 -990 -60 -1253 -11 -216 -29 -697 -31 -840 -1 -47 -4 -71 -5 -55 -12 105 -27 196 -34 200 -9 5 -27 -108 -35 -215 -5 -76 5 -229 29 -445 l14 -120 1 100 c2 55 6 120 10 145 8 44 5 -241 -8 -669 l-6 -214 -269 -90 c-267 -89 -269 -89 -303 -73 -75 36 -163 10 -204 -59 -23 -38 -3 -31 -308 -115 -676 -187 -1466 -356 -2191 -469 -429 -67 -1287 -177 -1297 -168 -6 6 273 377 377 502 77 92 160 171 210 202 51 32 157 57 400 98 254 43 353 67 578 140 92 29 223 70 292 90 69 20 168 56 220 80 161 74 294 105 540 125 251 21 380 54 545 136 498 250 1009 860 1236 1476 99 269 145 525 174 961 23 349 49 504 88 529 15 10 37 10 37 1z m-64805 -1333 c8 -289 21 -847 30 -1240 8 -393 22 -881 30 -1085 46 -1133 56 -1378 70 -1770 8 -236 17 -500 20 -585 9 -259 24 -759 45 -1510 11 -393 23 -733 25 -755 3 -22 12 -152 20 -290 8 -137 24 -394 35 -570 61 -989 168 -3071 158 -3081 -3 -2 -33 125 -67 284 -35 158 -88 386 -118 507 -30 121 -70 285 -89 365 l-35 145 -24 1615 c-26 1771 -38 2539 -60 4100 -8 569 -26 1798 -40 2730 -23 1539 -27 1969 -18 1740 2 -41 10 -311 18 -600z m65459 -2087 c-8 -155 -44 -1266 -44 -1329 l0 -56 -35 31 c-58 50 -122 42 -197 -27 -47 -43 -209 -147 -297 -191 -64 -33 -434 -173 -626 -238 -683 -230 -1501 -394 -2822 -566 -121 -16 -113 -27 -85 123 15 82 17 156 15 555 -1 253 -5 525 -10 605 -5 80 -9 146 -8 147 0 1 93 14 205 28 574 74 1317 218 2000 387 157 38 289 71 293 72 4 0 10 -93 13 -209 8 -325 27 -512 64 -619 16 -50 39 -137 50 -194 11 -57 23 -108 26 -113 7 -12 61 -12 68 0 4 5 15 54 26 108 11 54 35 145 54 203 41 128 56 280 65 669 l6 263 65 20 c36 10 135 41 221 69 86 27 159 49 163 49 3 0 7 -42 8 -92 l1 -93 6 92 c4 51 11 96 16 101 6 5 71 31 145 57 175 61 379 141 505 198 55 25 103 46 107 46 3 1 4 -43 2 -96z m-5246 -960 c164 -22 676 -24 905 -4 86 8 159 12 162 10 2 -3 -1 -63 -7 -134 -5 -72 -11 -339 -12 -595 -1 -417 1 -477 18 -582 11 -65 17 -120 14 -124 -9 -8 -293 -43 -1060 -129 -985 -111 -1245 -153 -1553 -251 -83 -27 -308 -124 -302 -130 2 -2 44 5 93 15 181 40 649 97 1054 131 850 70 1482 140 2290 256 606 86 1338 213 1610 279 30 7 67 16 82 19 l28 6 -20 -38 c-11 -22 -27 -71 -35 -109 -30 -142 -46 -805 -25 -972 6 -41 8 -76 7 -78 -2 -1 -82 -21 -178 -42 -232 -53 -578 -116 -1061 -192 l-396 -62 -154 145 c-217 206 -584 536 -643 579 -146 106 -263 121 -390 50 -27 -15 -90 -43 -140 -61 -343 -124 -624 -262 -787 -387 -31 -23 -96 -77 -145 -119 -138 -119 -137 -119 -398 -118 -227 2 -233 2 -650 68 -88 14 -239 32 -336 40 -195 16 -181 11 -348 115 -182 113 -379 181 -641 220 l-125 19 157 0 c201 1 279 19 478 112 86 40 182 77 235 90 140 34 382 108 462 142 173 72 315 177 524 389 259 262 519 583 939 1163 118 163 217 296 218 296 2 0 61 -8 130 -17z m5173 -1160 c-11 -293 -22 -536 -25 -541 -7 -11 -456 -235 -462 -230 -2 3 -4 57 -5 121 0 64 -3 117 -6 117 -12 0 -92 -64 -110 -89 -33 -43 -70 -122 -88 -186 -10 -33 -23 -63 -29 -67 -18 -13 -311 -126 -436 -170 -126 -43 -419 -138 -429 -138 -3 0 -5 125 -3 277 3 288 -10 615 -29 718 -6 32 -20 78 -31 101 -11 24 -17 47 -14 53 3 5 30 14 58 21 104 24 479 141 625 194 454 166 548 206 723 311 58 35 123 67 145 71 52 9 114 40 123 62 14 34 12 -99 -7 -625z m-62469 -3920 c-298 -397 -543 -796 -786 -1280 -167 -335 -298 -644 -440 -1040 -285 -796 -531 -1919 -539 -2453 -2 -163 3 -189 42 -196 l29 -6 7 -152 7 -151 -59 -60 c-32 -33 -70 -84 -84 -114 l-26 -53 -103 188 c-148 273 -369 617 -521 814 -25 33 -27 44 -32 160 -14 312 -103 647 -274 1030 -35 80 -67 151 -70 158 -3 8 6 12 30 12 l34 0 62 -166 c34 -92 82 -237 107 -323 73 -254 162 -699 166 -826 l1 -60 6 65 6 65 14 -60 c16 -66 31 -93 31 -55 0 30 40 170 49 170 3 0 58 -31 121 -69 63 -38 118 -66 121 -62 4 3 12 123 18 266 7 143 18 395 26 560 8 165 17 392 21 505 l6 205 78 175 c42 96 91 202 108 235 l30 60 6 -35 c3 -19 10 -93 16 -165 6 -71 20 -188 31 -260 22 -144 41 -208 33 -110 -3 33 1 225 10 427 l15 367 77 143 c90 168 184 331 189 326 4 -4 -17 -138 -44 -292 -12 -65 -20 -120 -18 -122 1 -2 20 63 42 144 21 81 64 226 95 322 54 169 59 180 150 315 313 468 587 810 941 1171 137 140 347 344 355 344 2 0 -36 -53 -84 -117z m-6012 -72 c457 -97 968 -367 1480 -782 190 -153 262 -218 459 -413 288 -284 506 -540 721 -846 116 -166 300 -464 300 -487 0 -9 -16 -13 -54 -13 l-55 0 -84 123 c-513 742 -1243 1453 -1967 1914 -510 325 -928 486 -1262 488 -132 0 -140 7 -35 31 90 20 370 12 497 -15z m565 -1646 c295 -31 592 -112 805 -220 89 -45 318 -182 388 -231 110 -79 404 -317 482 -391 l73 -68 -74 -6 c-41 -4 -140 -7 -221 -8 l-148 -1 -117 98 c-644 538 -1240 813 -1788 824 l-100 2 75 6 c150 13 480 10 625 -5z m2364 -1469 c34 -55 185 -362 231 -471 60 -141 104 -265 161 -453 53 -175 55 -186 36 -160 -7 9 -56 67 -109 130 -53 62 -134 170 -180 239 -128 191 -265 354 -505 600 -73 74 -133 138 -133 142 0 4 108 7 239 7 l239 0 21 -34z m-424 -168 c196 -191 250 -257 113 -136 -116 102 -217 182 -324 254 -54 36 -101 68 -103 70 -2 2 23 4 57 4 l62 0 195 -192z m23905 -9498 c1196 -57 2267 -409 2756 -905 282 -286 359 -588 237 -932 -75 -208 -194 -330 -423 -430 -93 -41 -81 -42 45 -3 54 17 100 29 102 27 5 -6 -379 -189 -590 -281 -355 -155 -614 -253 -975 -370 -678 -220 -1312 -289 -1967 -215 -308 35 -708 122 -1000 218 -538 176 -1019 443 -1455 807 -106 88 -380 353 -442 427 l-40 48 37 57 c108 162 363 441 565 616 355 309 759 547 1172 691 549 192 1254 279 1978 245z m9498 -406 c-127 -107 -383 -244 -528 -283 -154 -42 -320 -51 -465 -26 -128 23 -132 30 -24 44 298 38 736 160 974 271 82 39 95 37 43 -6z m-13606 -2256 c24 -69 89 -181 155 -268 29 -38 50 -70 46 -70 -28 0 -398 223 -398 240 0 9 170 158 174 154 2 -2 12 -27 23 -56z"/>
<path d="M16154 23231 c-46 -28 -64 -59 -64 -111 0 -81 58 -140 138 -140 42 0 94 39 120 90 12 25 32 53 45 62 l22 18 -26 0 c-19 0 -33 10 -50 34 -45 66 -122 85 -185 47z"/>
<path d="M54708 56460 c-113 -34 -181 -142 -243 -385 -83 -328 -134 -785 -105 -953 23 -139 110 -266 218 -321 135 -69 326 -67 448 5 230 135 342 656 233 1085 -44 177 -154 406 -224 467 -48 42 -74 55 -183 86 -100 28 -103 28 -144 16z"/>
<path d="M19635 65535 c-291 -7 -728 -18 -970 -24 -242 -6 -699 -15 -1015 -21 -841 -15 -1442 -30 -1630 -40 -346 -20 -631 -62 -731 -109 l-44 -20 45 7 c52 8 134 8 1580 -3 1119 -8 1568 -3 2870 35 1395 41 2179 77 2540 119 l65 7 -75 7 c-228 21 -507 38 -754 47 -360 13 -1208 11 -1881 -5z"/>
<path d="M89605 65319 c-218 -14 -365 -45 -365 -79 0 -5 14 -4 33 1 37 12 254 7 937 -21 1155 -47 1930 -64 2695 -57 560 4 1656 37 1860 56 l90 8 -110 2 c-120 1 -1058 37 -1220 46 -55 3 -516 10 -1025 15 -509 6 -1253 17 -1654 25 -781 16 -1036 17 -1241 4z"/>
<path d="M96220 65085 c-14 -37 -30 -381 -30 -650 0 -549 70 -1917 135 -2625 16 -177 43 -604 47 -735 2 -44 5 136 8 400 8 730 -16 1634 -70 2610 -6 99 -17 338 -25 530 -18 413 -25 495 -46 495 -5 0 -14 -11 -19 -25z"/>
<path d="M96076 62838 c-3 -178 -10 -647 -16 -1043 -6 -396 -15 -981 -20 -1300 -15 -889 -29 -2490 -40 -4665 -21 -4348 -31 -6205 -40 -7700 -20 -3153 -11 -6876 20 -8870 29 -1899 102 -4146 185 -5705 98 -1830 147 -2632 245 -3955 44 -591 96 -1293 115 -1560 19 -267 46 -611 60 -765 86 -968 227 -2792 248 -3200 2 -33 4 408 5 980 2 1146 -10 2226 -33 2955 -36 1126 -87 2524 -110 3015 -48 1038 -83 1852 -130 3040 -8 215 -20 482 -25 595 -39 807 -99 2429 -130 3515 -6 204 -15 512 -20 685 -111 3536 -162 7657 -195 15940 -11 2667 -28 4600 -60 6650 -27 1752 -26 1710 -40 1710 -10 0 -14 -72 -19 -322z"/>
<path d="M85300 37808 c0 -40 -4 -179 -10 -308 -5 -129 -14 -482 -19 -785 -6 -302 -13 -647 -15 -765 l-4 -215 13 220 c25 407 57 1925 41 1925 -3 0 -6 -33 -6 -72z"/>
<path d="M64584 36287 c-3 -8 0 -26 6 -42 8 -22 7 -31 -6 -46 -76 -84 267 -251 768 -373 418 -102 922 -177 1393 -206 253 -16 777 -8 944 14 248 33 444 78 629 143 93 32 103 38 98 57 -3 11 -6 35 -6 53 l0 32 -87 -30 c-105 -36 -317 -92 -428 -113 -492 -95 -1203 -73 -1955 59 -444 78 -1087 245 -1097 285 -2 8 -37 32 -77 53 -80 41 -159 103 -150 118 3 5 -2 9 -11 9 -8 0 -18 -6 -21 -13z"/>
<path d="M100877 30439 c-187 -26 -576 -186 -833 -344 -698 -427 -1259 -1064 -1772 -2010 -196 -363 -456 -945 -634 -1420 -285 -761 -481 -1404 -587 -1926 -53 -261 -65 -353 -66 -489 0 -98 3 -120 21 -150 23 -40 50 -48 79 -25 20 16 20 16 0 13 -82 -12 88 635 397 1512 377 1071 809 2038 1183 2649 368 602 755 1054 1212 1418 342 273 818 534 1169 643 86 26 231 50 309 50 68 0 89 9 83 36 -2 15 -18 22 -73 31 -93 17 -402 24 -488 12z"/>
<path d="M101790 29864 c-72 -14 -213 -60 -299 -97 -207 -92 -522 -288 -746 -464 -900 -709 -1659 -1719 -2386 -3174 -372 -745 -563 -1219 -629 -1569 -23 -116 -23 -163 -1 -63 52 235 211 580 565 1226 505 922 895 1525 1351 2092 293 365 553 640 928 982 198 181 313 276 572 469 268 201 278 208 445 314 171 109 282 167 336 176 49 7 71 -13 90 -83 l13 -48 0 57 c2 118 -49 177 -157 183 -31 2 -68 1 -82 -1z"/>
<path d="M91815 28339 c-291 -35 -564 -118 -850 -259 -542 -268 -1028 -708 -1469 -1333 -56 -78 -196 -316 -196 -331 0 -6 20 25 45 68 170 298 621 778 998 1062 413 310 817 488 1272 559 141 22 445 30 585 16 380 -39 758 -173 1108 -392 529 -330 1004 -872 1207 -1374 62 -154 135 -444 135 -536 0 -49 17 -32 24 24 53 443 -192 1029 -648 1552 -436 500 -979 820 -1571 926 -137 25 -500 35 -640 18z"/>
<path d="M10013 23019 c-214 -25 -449 -92 -578 -164 -85 -47 -190 -146 -221 -207 -28 -56 -30 -71 -8 -92 26 -26 95 -19 220 24 261 89 478 128 759 137 258 8 508 -16 759 -73 60 -13 111 -22 113 -20 5 5 -264 71 -416 102 l-116 23 100 -5 c394 -20 1032 -140 1307 -245 99 -38 271 -119 388 -184 47 -26 81 -43 75 -37 -19 20 -561 379 -625 415 -166 92 -525 215 -779 266 -266 54 -435 71 -684 70 -122 -1 -255 -5 -294 -10z"/>
<path d="M31444 20633 c3 -29 33 -146 66 -260 141 -478 170 -675 170 -1172 0 -263 -18 -509 -50 -682 -11 -58 -20 -120 -20 -138 0 -43 -34 -211 -61 -296 -15 -51 -24 -65 -36 -61 -8 3 -27 8 -41 11 -20 4 -18 2 7 -8 19 -7 38 -23 42 -35 11 -30 36 -38 57 -19 15 14 31 9 167 -43 83 -32 174 -67 203 -79 40 -16 52 -18 52 -7 0 12 -356 146 -388 146 -7 0 -12 2 -12 4 0 3 26 47 58 98 162 261 187 319 234 552 20 99 23 140 22 381 0 202 -4 301 -17 395 -37 264 -93 487 -173 693 -41 106 -244 522 -269 552 -16 19 -16 18 -11 -32z"/>
<path d="M82110 20494 c-250 -31 -422 -68 -651 -144 -550 -181 -1086 -509 -1533 -940 -267 -257 -448 -527 -522 -775 -35 -119 -44 -316 -20 -451 43 -247 146 -450 289 -567 55 -45 59 -43 17 4 -93 104 -170 254 -217 425 -25 89 -28 115 -27 259 0 148 2 166 28 245 65 196 186 379 381 576 509 514 1317 933 2052 1065 169 31 479 38 629 14 203 -32 389 -106 524 -210 194 -149 296 -400 260 -641 -25 -171 -98 -339 -239 -551 -128 -194 -231 -314 -375 -441 -33 -29 -57 -52 -53 -52 15 0 264 128 323 165 230 147 358 276 483 484 l51 84 0 416 0 416 -46 79 c-90 153 -286 324 -468 406 -203 92 -390 130 -661 135 -104 2 -206 1 -225 -1z"/>
<path d="M84214 20196 c-54 -17 -124 -66 -169 -118 -48 -56 -113 -189 -125 -257 -19 -102 30 -191 104 -191 45 0 49 8 75 156 31 173 68 269 135 342 32 36 69 52 138 59 l63 7 -50 7 c-75 11 -125 9 -171 -5z"/>
<path d="M83522 19355 l-1 -410 21 45 c91 204 93 527 3 723 l-23 52 0 -410z"/>
<path d="M44035 13679 c-265 -18 -665 -78 -996 -149 -657 -142 -1226 -371 -1694 -683 -302 -202 -596 -485 -753 -725 -96 -148 -164 -319 -146 -374 6 -19 9 -14 21 31 23 92 110 210 277 376 305 304 677 527 1185 712 870 315 2255 460 3481 362 434 -34 1089 -163 1435 -283 178 -61 374 -137 467 -179 157 -72 434 -245 561 -350 26 -21 47 -37 47 -34 0 15 -535 471 -671 572 -208 155 -611 351 -979 477 -267 91 -706 185 -1100 234 -148 19 -926 28 -1135 13z"/>
<path d="M39546 12742 c-2 -4 -10 -71 -17 -149 -18 -205 5 -327 81 -423 l19 -25 -14 48 c-8 27 -17 103 -20 170 -3 67 -11 179 -17 250 -10 116 -18 151 -32 129z"/>
<path d="M53801 9579 c-1 -53 36 -346 65 -508 106 -601 320 -1133 652 -1621 422 -621 956 -1089 1560 -1365 347 -159 719 -250 1167 -286 176 -14 539 -6 720 15 66 8 174 18 240 22 l120 8 -120 8 c-66 4 -185 17 -265 27 -80 11 -194 25 -255 31 -305 30 -705 97 -955 160 -668 168 -1317 562 -1803 1095 -376 412 -665 895 -850 1420 -100 285 -187 598 -247 888 -16 78 -29 126 -29 106z"/>
</g>
</svg>