<?xml version="1.0" encoding="UTF-8" standalone="no"?>
<!DOCTYPE svg PUBLIC "-//W3C//DTD SVG 20010904//EN" "http://www.w3.org/TR/2001/REC-SVG-20010904/DTD/svg10.dtd">
<svg version="1.0" xmlns="http://www.w3.org/2000/svg" width="3705.000000pt" height="6205.000000pt" viewBox="0 0 3705.000000 6205.000000" preserveAspectRatio="xMidYMid meet">
<metadata>
Created by potrace 1.16, written by Peter Selinger 2001-2019
</metadata>
<g transform="translate(0.000000,6205.000000) scale(0.100000,-0.100000)" fill="#000000" stroke="none">
<path d="M15995 57940 c-498 -55 -950 -244 -1385 -580 -114 -88 -399 -371 -493 -490 -546 -687 -744 -1406 -621 -2260 45 -316 173 -709 251 -770 13 -10 23 -22 23 -26 0 -5 -20 -24 -45 -42 -76 -58 -209 -194 -271 -277 -119 -162 -175 -326 -177 -515 -1 -180 46 -341 121 -417 l32 -32 -111 -238 c-255 -549 -570 -1103 -1014 -1783 -48 -74 -144 -227 -213 -340 -68 -113 -146 -239 -172 -280 -42 -67 -106 -182 -312 -566 -44 -80 -70 -117 -96 -135 -388 -262 -766 -550 -1097 -833 -144 -122 -505 -456 -539 -498 -11 -13 -60 -66 -110 -118 -88 -92 -246 -274 -246 -283 0 -2 39 34 88 80 279 269 717 624 1103 895 598 420 1080 712 2139 1293 214 118 872 445 1160 577 369 169 737 327 1010 433 80 31 173 67 207 81 34 13 64 24 68 24 4 0 34 11 68 24 162 64 445 166 672 241 760 252 1025 332 1325 400 91 21 170 42 175 47 6 6 1 7 -15 4 -31 -7 -265 -36 -277 -35 -4 1 6 5 22 9 353 97 1377 431 1487 487 48 23 200 84 301 119 l98 34 112 -10 c173 -16 242 -28 377 -65 145 -40 219 -68 350 -136 484 -248 903 -723 1079 -1222 30 -87 74 -255 86 -333 l6 -41 -54 -1 c-63 0 -368 -59 -537 -104 -151 -39 -300 -90 -435 -148 -60 -26 -134 -55 -162 -64 -29 -10 -53 -23 -53 -30 0 -18 -117 -83 -195 -107 -41 -13 -82 -19 -102 -16 -26 5 -70 -9 -196 -60 -89 -36 -232 -89 -317 -118 -359 -123 -843 -296 -945 -338 -347 -143 -1019 -448 -1320 -599 -482 -242 -1108 -588 -1555 -860 -585 -357 -857 -534 -1445 -943 -476 -331 -1078 -796 -1515 -1170 -450 -385 -657 -577 -1370 -1275 -661 -647 -754 -735 -902 -858 -38 -31 -68 -62 -68 -69 0 -38 69 5 225 141 99 87 70 53 -108 -122 -76 -75 -182 -186 -235 -246 -78 -87 -118 -122 -202 -178 -124 -81 -285 -165 -390 -203 -246 -88 -584 -87 -780 2 -124 57 -239 160 -275 247 -31 74 -64 272 -80 486 -11 141 22 413 67 544 48 144 138 315 242 461 86 120 374 387 691 641 647 519 1785 1284 2825 1899 91 54 219 131 285 170 231 139 487 287 800 462 88 49 286 164 440 255 154 91 370 216 480 278 221 125 248 141 617 361 426 255 817 473 1188 662 129 66 239 123 244 128 6 5 -26 -6 -70 -24 -300 -126 -398 -166 -544 -224 -91 -36 -385 -153 -655 -260 -269 -107 -519 -206 -555 -220 -62 -24 -223 -97 -410 -185 -47 -23 -168 -80 -270 -128 -406 -192 -655 -323 -1110 -583 -918 -526 -1855 -1163 -2505 -1705 -491 -410 -879 -797 -1211 -1208 -49 -61 -151 -176 -226 -255 -296 -311 -421 -523 -490 -837 -30 -133 -32 -465 -4 -617 33 -182 90 -329 174 -454 46 -67 221 -196 255 -187 13 3 40 -6 72 -23 51 -29 163 -71 189 -71 30 0 26 -22 -14 -86 -189 -300 -310 -874 -281 -1339 40 -625 282 -1186 700 -1618 104 -108 257 -226 417 -323 17 -11 14 -16 -38 -72 -127 -133 -326 -476 -370 -637 -30 -109 -32 -325 -4 -435 54 -219 186 -392 366 -484 113 -58 191 -77 339 -83 426 -18 769 140 936 430 l28 49 24 -79 c168 -550 378 -1047 656 -1555 l96 -175 -12 -72 c-9 -59 -15 -74 -31 -81 -12 -4 -131 -19 -266 -34 -264 -28 -346 -42 -657 -111 -477 -107 -712 -178 -1203 -363 -556 -209 -1184 -517 -1710 -837 -515 -314 -954 -625 -1400 -994 -53 -44 -270 -230 -280 -241 -3 -3 -30 -27 -60 -54 -256 -231 -568 -547 -808 -820 -855 -974 -1482 -2097 -1912 -3421 -65 -202 -147 -471 -164 -542 -8 -32 -30 -119 -50 -193 -32 -121 -96 -387 -141 -590 -74 -335 -155 -789 -155 -871 0 -52 9 -89 21 -89 5 0 6 6 3 14 -16 41 83 493 172 783 20 65 44 145 54 178 132 440 391 1149 608 1665 387 919 834 1681 1385 2355 132 162 309 365 317 365 4 0 24 -25 44 -56 132 -198 407 -360 717 -423 533 -108 1240 43 2034 434 924 455 1609 1056 1915 1680 203 415 212 811 23 1001 -35 34 -152 104 -175 104 -3 0 7 -24 21 -52 24 -49 26 -62 25 -183 -5 -469 -222 -917 -664 -1369 -363 -371 -797 -675 -1395 -973 -363 -182 -684 -305 -996 -383 -543 -135 -1025 -85 -1376 143 -38 24 -85 58 -106 76 -33 30 -35 35 -23 52 24 34 217 229 227 229 5 0 33 -18 61 -41 118 -93 341 -181 543 -215 137 -24 412 -24 565 -1 227 35 453 98 690 194 559 227 1180 641 1610 1073 298 300 479 572 573 862 51 155 62 231 62 418 0 168 -15 272 -50 356 -8 20 -15 40 -15 44 0 10 138 71 450 200 129 54 320 134 424 179 103 45 190 80 193 78 2 -3 -3 -29 -11 -58 -30 -104 -77 -346 -106 -544 -38 -261 -44 -314 -77 -665 -26 -285 -27 -318 -28 -940 0 -681 0 -669 55 -1230 47 -473 131 -949 256 -1460 120 -488 236 -840 430 -1301 113 -266 383 -700 575 -919 96 -110 475 -500 486 -500 3 0 -1 8 -9 18 -71 80 -216 332 -276 482 -162 401 -234 593 -289 763 -19 62 -67 189 -105 282 -84 204 -147 374 -233 624 -35 102 -75 220 -90 261 -73 210 -197 633 -268 915 -241 953 -352 2063 -333 3305 8 478 30 898 52 971 2 9 51 33 117 58 61 24 198 77 302 119 172 68 408 152 426 152 14 0 -3 -294 -17 -303 -49 -29 -136 -567 -170 -1047 -22 -313 -29 -993 -15 -1320 33 -732 129 -1401 295 -2060 114 -450 307 -980 486 -1335 172 -341 343 -627 474 -794 46 -58 131 -171 190 -250 l106 -144 -152 -156 c-159 -162 -258 -279 -373 -441 -166 -236 -325 -542 -420 -813 l-28 -78 -36 37 c-56 57 -101 74 -207 74 -82 0 -93 2 -125 26 -154 118 -460 183 -722 155 -467 -51 -793 -305 -1040 -811 -38 -80 -72 -147 -74 -149 -2 -3 -20 3 -41 13 -47 23 -197 76 -374 132 -126 40 -228 59 -426 79 l-62 7 38 28 c25 18 46 46 61 81 30 68 25 137 -19 264 -103 296 -122 401 -163 895 -3 31 5 127 18 220 42 293 50 445 48 925 -1 466 -5 546 -48 1000 -24 262 -39 381 -110 895 -18 135 -39 292 -46 350 -6 58 -14 113 -18 122 -3 9 -6 -124 -6 -295 -1 -334 -23 -700 -71 -1142 -14 -126 -38 -363 -54 -525 -17 -162 -39 -362 -50 -445 -10 -82 -26 -217 -35 -300 -16 -165 -62 -481 -102 -705 -45 -259 -119 -517 -204 -717 -122 -287 -388 -736 -442 -748 -12 -2 -114 -27 -227 -55 -113 -27 -210 -50 -216 -50 -6 0 -21 19 -34 42 -123 224 -324 483 -537 695 -646 643 -1676 1127 -2521 1185 -263 18 -543 -16 -672 -82 -50 -25 -47 -36 7 -21 79 22 400 4 628 -35 811 -139 1665 -547 2285 -1091 146 -128 320 -307 438 -448 92 -110 222 -287 222 -302 0 -5 -25 -17 -56 -28 -56 -19 -56 -19 -71 0 -40 55 -202 230 -261 282 -286 252 -558 420 -933 578 -337 142 -750 249 -1144 297 -250 30 -694 33 -876 5 -203 -30 -460 -102 -547 -153 -15 -8 -18 -12 -7 -9 81 27 254 56 380 66 312 23 741 -26 1245 -143 790 -182 1472 -517 1915 -940 l70 -67 -50 -21 c-27 -12 -106 -49 -175 -82 l-124 -60 -151 51 c-265 90 -484 138 -795 173 -150 17 -801 17 -960 0 -285 -31 -712 -105 -890 -154 -276 -77 -396 -117 -580 -195 -219 -93 -435 -220 -573 -336 -50 -43 -67 -53 -67 -40 0 52 64 375 139 698 76 329 198 771 229 830 3 7 1 7 -6 0 -10 -9 -52 -101 -179 -395 -279 -644 -463 -1317 -563 -2064 -68 -508 -78 -1180 -24 -1746 27 -288 87 -677 146 -941 l21 -96 -51 -174 c-208 -706 -344 -1535 -404 -2459 -21 -322 -18 -1358 5 -1675 61 -862 136 -1463 268 -2135 301 -1536 794 -2929 1483 -4194 383 -703 928 -1501 1371 -2006 264 -301 649 -704 915 -956 223 -210 570 -494 1025 -834 337 -253 348 -260 898 -603 257 -161 577 -362 710 -447 921 -588 1607 -956 2387 -1282 1165 -486 2480 -817 3965 -997 891 -108 1849 -156 2681 -133 396 11 868 33 1014 47 30 3 174 17 320 30 1456 140 2813 449 4090 933 430 162 1294 561 1620 747 868 495 1270 765 2045 1371 230 179 477 390 745 633 277 252 931 877 939 896 3 8 -29 -15 -49 -35 -12 -13 -214 -184 -295 -251 -317 -262 -734 -557 -1125 -795 -80 -48 -203 -123 -273 -166 -176 -108 -509 -298 -707 -403 -91 -48 -266 -143 -390 -210 -432 -234 -782 -409 -1195 -595 -82 -37 -211 -96 -285 -130 -474 -218 -1155 -482 -1781 -690 -231 -78 -277 -92 -549 -171 -1242 -362 -2475 -585 -3835 -694 -561 -44 -732 -50 -1510 -50 -818 0 -999 8 -1700 71 -864 77 -1871 264 -2643 490 -86 25 -173 50 -192 56 -125 34 -732 239 -820 276 -14 6 -122 49 -240 96 -836 330 -1632 748 -2540 1334 -260 168 -529 349 -610 410 -128 96 -745 705 -975 962 -76 85 -177 198 -225 250 -256 280 -344 378 -456 508 -349 405 -909 1144 -1210 1597 -873 1311 -1499 2717 -1894 4260 -62 241 -153 643 -189 830 -12 61 -28 144 -36 185 -24 118 -81 474 -115 710 -134 942 -203 2001 -194 2985 7 726 21 1053 69 1655 24 295 36 378 48 340 165 -524 291 -832 484 -1180 209 -379 350 -572 626 -856 64 -67 117 -129 117 -139 0 -27 124 -143 225 -210 402 -266 1050 -463 1765 -537 165 -17 753 -17 925 0 535 53 1036 163 1519 334 630 222 1203 510 1791 899 342 225 445 305 840 645 193 166 524 517 690 732 26 34 51 62 56 62 4 0 74 -33 156 -73 201 -98 430 -170 678 -214 125 -21 536 -24 660 -5 226 37 430 105 590 197 94 55 105 59 189 66 157 15 243 45 371 132 87 59 136 108 194 192 69 99 106 181 137 301 24 91 25 111 21 249 -4 121 -10 169 -32 245 -48 175 -122 331 -209 440 -19 25 -32 47 -28 51 4 3 43 18 87 34 215 74 597 262 833 410 388 243 629 463 981 895 140 172 263 294 413 412 70 55 142 116 160 137 l33 38 520 17 c580 19 713 28 791 55 47 16 60 16 126 5 40 -7 130 -13 200 -14 70 0 149 -6 174 -12 l46 -13 -6 -135 c-11 -206 -9 -285 8 -409 9 -63 15 -115 13 -116 -147 -57 -248 -100 -352 -151 -505 -245 -891 -580 -1110 -963 -57 -99 -127 -294 -144 -401 -16 -96 -13 -286 5 -381 19 -102 65 -215 111 -276 l34 -45 -34 -86 c-54 -135 -72 -228 -71 -372 0 -146 15 -213 76 -339 57 -118 179 -242 293 -297 78 -37 83 -38 191 -39 l110 0 -38 -59 c-113 -175 -116 -398 -9 -621 136 -284 437 -463 684 -406 20 5 39 5 42 1 3 -4 1 -43 -3 -86 -4 -44 -4 -112 0 -153 8 -97 64 -210 147 -302 l59 -65 -10 -65 c-16 -103 -20 -1447 -8 -2454 13 -1065 23 -1450 44 -1690 9 -93 21 -290 28 -437 12 -261 11 -268 -8 -283 -116 -91 -294 -190 -448 -250 -408 -158 -925 -164 -1254 -14 -214 97 -428 314 -551 557 -132 263 -202 696 -160 997 6 42 8 79 5 82 -6 6 -52 -144 -71 -234 -28 -128 -55 -365 -55 -474 0 -186 33 -379 96 -560 90 -261 256 -499 451 -645 88 -67 252 -153 341 -179 34 -10 62 -23 62 -28 0 -5 -25 -6 -57 -3 -32 3 -114 8 -183 11 -369 18 -958 64 -1395 110 -1610 170 -2884 474 -4085 975 -301 126 -900 410 -900 427 0 4 49 26 108 47 337 122 627 248 1037 451 1115 552 2058 1195 3010 2049 370 333 670 647 1005 1054 123 149 228 272 232 272 4 0 8 -39 8 -87 1 -251 21 -1016 29 -1133 6 -74 22 -331 36 -570 14 -239 27 -449 30 -465 11 -63 67 -686 95 -1045 15 -206 32 -420 36 -475 l8 -100 7 150 c4 83 13 258 19 390 6 132 17 326 25 430 55 724 63 865 105 1730 59 1209 62 4346 5 5455 -16 316 -38 859 -39 952 -1 60 -4 108 -7 108 -9 0 -66 -263 -105 -485 -19 -104 -48 -302 -64 -440 -17 -137 -32 -261 -35 -275 -4 -22 -15 -153 -55 -665 -25 -315 -33 -470 -70 -1405 l-11 -264 -66 -100 c-406 -616 -1036 -1316 -1698 -1885 -602 -519 -1544 -1169 -2545 -1758 -383 -225 -504 -294 -655 -373 -66 -35 -185 -100 -265 -145 -176 -100 -298 -164 -625 -328 -267 -134 -408 -197 -563 -251 -53 -19 -121 -44 -151 -55 -30 -12 -59 -20 -65 -18 -19 7 -202 153 -346 276 -167 142 -410 380 -510 500 -41 49 -78 90 -82 90 -10 1 106 -170 211 -309 181 -241 375 -457 601 -668 270 -252 608 -524 758 -611 41 -24 109 -72 152 -107 89 -72 237 -170 456 -301 918 -551 1922 -956 3069 -1238 516 -127 921 -205 1510 -290 764 -112 1738 -196 2575 -224 1517 -52 2844 17 4040 209 397 64 1015 201 1440 319 437 121 1202 407 1544 577 60 30 156 69 215 86 110 32 250 86 551 214 171 72 498 242 703 365 282 170 704 469 935 664 56 47 108 85 117 85 8 0 15 5 15 10 0 6 80 91 178 188 200 199 317 340 483 585 62 93 138 196 169 230 112 124 -11 18 -255 -223 -218 -214 -442 -409 -511 -445 -15 -7 -30 -18 -33 -22 -9 -13 -130 -96 -285 -194 -118 -76 -145 -89 -181 -89 -87 0 -621 73 -835 115 -69 13 -219 40 -335 60 -985 170 -1923 480 -2818 932 -1041 525 -2109 1271 -2926 2043 -174 165 -421 418 -421 432 0 4 29 16 64 27 159 49 390 161 564 274 51 33 94 58 96 56 93 -125 322 -377 525 -580 236 -235 339 -331 576 -533 774 -663 1586 -1204 2465 -1642 1040 -519 1988 -799 2925 -863 228 -16 538 -31 543 -27 4 5 -12 7 -218 31 -214 26 -540 94 -790 165 -36 10 -135 37 -220 60 -360 98 -972 311 -1344 470 -734 311 -1450 702 -2261 1233 -684 447 -1186 817 -1638 1206 -192 165 -527 486 -527 505 0 7 21 28 48 47 123 88 352 303 422 397 l25 33 130 -54 c319 -134 589 -203 985 -252 300 -36 731 -38 953 -4 48 8 77 8 95 0 15 -5 56 -15 92 -21 129 -21 120 -17 120 -65 0 -152 135 -369 306 -491 230 -164 547 -193 849 -78 230 89 458 271 596 477 34 50 67 91 73 90 7 -2 90 -35 186 -74 96 -39 256 -104 355 -144 335 -136 920 -323 1230 -394 514 -117 859 -164 1325 -177 607 -17 1310 93 1884 295 639 225 1162 544 1615 986 379 370 650 745 904 1255 295 590 444 1128 519 1875 9 86 13 276 12 564 0 239 3 426 7 415 14 -36 10 11 -6 62 -8 27 -26 171 -40 319 -25 263 -80 693 -112 865 -16 88 -89 454 -148 737 -19 90 -41 229 -50 310 -16 151 -41 317 -99 660 -18 106 -31 194 -29 196 4 5 80 -17 162 -49 36 -13 66 -22 69 -20 2 2 -53 32 -121 67 l-125 63 -27 136 c-16 74 -52 227 -81 340 -28 113 -50 207 -48 209 7 8 238 -38 330 -65 49 -14 98 -28 109 -31 11 -3 -77 41 -195 96 -118 56 -230 109 -249 118 -39 20 -28 -8 -134 343 -145 477 -387 1091 -623 1578 -91 189 -93 193 -71 203 l22 10 -22 -5 c-28 -5 -27 -6 -108 149 -385 738 -853 1464 -1334 2070 -983 1238 -2090 2157 -3425 2845 -161 83 -360 179 -601 290 -75 34 -383 164 -464 196 -39 15 -71 31 -71 36 0 4 -9 8 -20 8 -10 0 -72 21 -137 46 -161 62 -269 102 -461 171 l-164 58 5 55 4 55 -14 -47 c-15 -52 -28 -57 -80 -37 -77 31 -561 182 -718 225 -469 128 -639 167 -1200 275 -93 18 -171 33 -173 34 -1 1 24 58 57 126 144 305 350 847 402 1062 6 26 15 47 19 47 5 0 23 -26 40 -57 50 -88 198 -229 295 -280 171 -89 359 -133 573 -133 143 0 247 18 347 62 192 83 321 230 397 448 32 93 33 99 33 265 0 160 -2 175 -29 255 -39 119 -72 188 -156 324 -97 159 -153 237 -212 298 -27 28 -48 51 -46 53 2 1 44 28 93 60 327 210 589 512 778 898 151 307 233 611 258 961 32 439 -59 947 -230 1284 -22 42 -51 92 -65 111 -14 19 -26 38 -26 43 0 4 26 15 58 24 31 9 91 32 132 51 41 20 85 35 98 34 34 -1 207 122 248 178 61 84 123 221 154 341 43 172 54 258 53 440 0 137 -4 185 -26 285 -44 208 -100 346 -210 513 -79 121 -139 193 -292 352 -67 69 -159 172 -205 230 -428 534 -1011 1083 -1690 1591 -662 495 -1330 932 -2063 1351 -306 175 -608 338 -749 406 -469 227 -457 220 -743 354 -93 44 -341 147 -550 230 -209 83 -384 154 -388 158 -9 8 451 248 704 368 l146 70 479 -242 c461 -233 781 -396 1304 -664 1187 -607 1890 -1042 2440 -1510 158 -134 479 -453 600 -597 324 -384 583 -803 796 -1293 86 -197 281 -723 328 -886 14 -49 28 -91 31 -94 15 -15 -10 197 -39 334 -82 381 -120 531 -191 754 -304 943 -870 1707 -1801 2431 -430 335 -1044 733 -1652 1071 -670 372 -873 477 -1532 794 -140 68 -256 127 -258 132 -3 11 85 35 233 63 87 16 117 19 140 10 30 -10 437 -223 500 -261 17 -9 55 -31 85 -48 1290 -705 2276 -1383 2954 -2031 88 -84 85 -74 -13 39 -218 251 -473 501 -796 779 -264 227 -474 392 -843 660 -84 61 -96 83 -116 210 -19 112 -73 230 -173 374 -90 129 -243 316 -356 434 l-78 81 10 59 c28 159 22 313 -20 543 -105 581 -500 1141 -1029 1460 -232 140 -477 220 -757 246 -71 6 -73 7 -73 34 0 70 -47 249 -131 496 -178 526 -277 874 -364 1283 -25 115 -26 134 -19 285 4 98 1 267 -7 431 -7 149 -13 292 -14 320 l0 50 46 6 c267 39 361 420 178 725 -114 190 -352 287 -532 217 -87 -33 -137 -92 -108 -127 7 -8 35 -20 64 -26 242 -57 373 -235 338 -462 -7 -44 -15 -86 -17 -93 -3 -7 -28 -19 -56 -25 -157 -38 -580 -235 -843 -393 -141 -84 -245 -156 -411 -285 -111 -86 -123 -90 -124 -32 -1 86 -66 301 -131 436 -27 55 -49 106 -49 112 0 6 30 13 68 17 144 14 385 81 587 162 392 159 602 298 639 423 21 72 8 95 -61 104 -105 14 -278 -62 -768 -337 -217 -122 -354 -216 -423 -293 l-57 -63 -59 80 c-172 232 -412 376 -714 428 -59 10 -118 23 -129 30 -12 6 -67 16 -122 22 -371 43 -879 -209 -1016 -502 -33 -72 -32 -91 3 -43 47 65 140 125 281 184 75 30 190 64 197 58 2 -2 -10 -21 -27 -41 -36 -43 -29 -47 18 -11 89 67 244 106 424 106 143 -1 208 -10 364 -54 213 -59 369 -148 510 -292 231 -233 347 -536 331 -861 -9 -172 -37 -282 -113 -430 -54 -107 -111 -181 -219 -285 -163 -158 -394 -297 -612 -370 -432 -144 -956 -24 -1267 290 -63 63 -68 72 -57 90 11 19 10 20 -12 14 -22 -5 -29 1 -58 48 -52 81 -96 186 -125 294 -26 93 -27 112 -28 319 0 196 3 231 24 325 70 311 234 604 498 890 87 95 81 92 -62 -29 -170 -144 -383 -365 -453 -471 -120 -179 -191 -358 -244 -613 -30 -142 -32 -165 -32 -362 0 -220 10 -294 65 -452 l18 -53 -132 -78 c-334 -198 -709 -554 -926 -881 -47 -70 -56 -80 -59 -60 -1 13 8 63 22 112 13 48 21 87 17 87 -4 0 -20 -27 -36 -60 -16 -33 -32 -60 -36 -60 -14 0 -31 146 -26 220 11 150 69 274 190 405 92 100 189 176 459 361 212 145 398 300 398 331 0 19 -124 27 -208 13 -106 -16 -208 -52 -331 -116 -58 -30 -106 -54 -109 -54 -2 0 -1 11 2 25 5 18 2 25 -7 25 -9 0 -27 41 -50 113 -168 525 -191 1074 -65 1562 48 185 95 311 187 495 206 410 496 742 867 990 419 280 952 421 1441 382 441 -35 825 -155 1117 -349 135 -89 310 -264 398 -398 37 -55 121 -210 188 -344 100 -200 132 -253 174 -296 63 -65 122 -88 164 -63 79 47 98 185 48 358 -76 267 -227 574 -382 776 -297 388 -763 639 -1359 734 -156 25 -496 35 -640 20z m2818 -2797 c-12 -104 -8 -426 7 -538 8 -64 12 -187 11 -345 -4 -374 27 -650 118 -1045 72 -317 176 -620 256 -746 19 -30 31 -57 27 -60 -4 -4 -43 -12 -87 -19 -44 -6 -134 -29 -200 -51 -184 -59 -301 -121 -398 -208 -41 -37 -27 -33 -456 -112 -63 -11 -243 -54 -400 -96 -157 -41 -313 -82 -346 -90 -115 -29 -682 -202 -955 -292 -653 -214 -977 -339 -1245 -481 -61 -32 -201 -92 -310 -133 -925 -345 -1955 -866 -2920 -1475 -87 -56 -161 -99 -163 -97 -3 3 57 73 238 275 42 47 232 300 366 487 288 402 672 1070 858 1493 119 270 243 610 286 783 25 98 39 137 52 137 5 0 17 19 27 43 12 26 54 76 112 133 158 152 337 288 708 532 113 75 235 157 271 183 36 25 77 54 91 63 l27 17 51 -69 c190 -257 514 -450 890 -529 110 -23 150 -27 311 -27 259 -1 401 30 615 134 507 246 831 814 861 1511 l7 157 59 16 c62 17 162 58 508 206 118 50 304 130 414 176 109 47 219 96 245 109 71 37 73 35 64 -42z m2332 -5093 c11 -17 13 -115 3 -154 -5 -21 -7 -40 -4 -43 3 -3 22 4 42 16 20 12 42 20 48 18 7 -3 61 -74 121 -158 121 -170 239 -320 324 -412 l56 -60 -130 83 c-247 158 -593 369 -804 491 -117 67 -209 125 -204 129 4 4 64 17 133 29 69 12 179 33 245 46 137 26 162 29 170 15z m-2598 -1126 c120 -70 297 -175 393 -234 96 -59 292 -174 435 -255 242 -137 383 -219 660 -383 61 -36 218 -125 349 -199 282 -159 459 -261 811 -471 520 -310 596 -356 1045 -640 1373 -869 2439 -1686 2683 -2057 82 -124 146 -245 186 -351 72 -189 105 -471 82 -706 -14 -148 -55 -350 -82 -405 -31 -65 -144 -165 -241 -213 -200 -98 -527 -108 -777 -24 -195 67 -490 238 -563 327 -23 29 -143 155 -267 281 -216 219 -221 224 -111 131 126 -107 166 -135 193 -135 31 0 18 16 -73 94 -152 129 -355 323 -825 785 -680 670 -943 916 -1420 1327 -1009 869 -2385 1814 -3729 2559 -143 80 -157 90 -140 102 67 49 1127 592 1156 593 10 0 115 -57 235 -126z m-1652 -846 c110 -61 259 -145 330 -186 72 -41 216 -124 320 -185 105 -60 210 -122 235 -137 25 -15 113 -67 195 -116 202 -119 846 -519 1077 -669 43 -27 119 -77 170 -109 113 -73 992 -657 1103 -734 75 -52 711 -497 772 -541 302 -213 341 -246 465 -387 192 -219 333 -385 336 -397 2 -7 -1 -5 -7 3 -16 23 -23 6 -10 -26 6 -17 8 -54 5 -89 -16 -161 69 -390 224 -606 67 -92 75 -111 98 -224 12 -55 30 -144 42 -198 14 -66 24 -166 30 -302 5 -116 19 -265 32 -347 19 -121 23 -178 22 -368 -2 -395 -77 -799 -214 -1156 -110 -286 -177 -473 -230 -639 -18 -55 -41 -117 -51 -137 -11 -21 -17 -38 -14 -38 14 0 173 86 225 121 67 45 78 48 56 14 -19 -29 -18 -29 52 -11 111 30 219 128 335 303 135 204 207 379 302 733 136 505 226 690 437 897 79 77 236 198 303 234 l42 23 124 -62 c139 -68 249 -109 389 -142 78 -19 124 -23 260 -24 91 -1 189 1 219 4 l55 5 18 -60 c27 -86 65 -282 80 -410 20 -173 17 -738 -5 -895 -49 -351 -131 -623 -267 -890 -184 -359 -427 -634 -919 -1038 -42 -34 -103 -85 -136 -113 -33 -28 -84 -65 -113 -81 -29 -17 -51 -32 -49 -35 2 -2 44 3 92 12 48 8 98 15 111 15 13 0 64 13 115 30 l91 29 37 -18 c74 -39 154 -148 250 -338 121 -242 124 -419 10 -609 -41 -68 -96 -118 -169 -153 -51 -24 -65 -26 -190 -26 -149 0 -251 21 -365 74 -162 75 -214 184 -215 453 0 148 14 249 51 365 61 191 167 296 374 374 73 27 104 55 111 100 5 28 1 41 -20 66 -39 46 -97 66 -191 66 -150 -1 -306 -74 -431 -204 -57 -58 -145 -177 -156 -210 -9 -26 -20 -1 -26 63 -7 62 -7 61 -13 -47 -5 -88 -12 -121 -32 -165 -62 -131 -127 -409 -127 -540 0 -117 -111 -404 -328 -845 -401 -816 -1013 -1660 -1692 -2334 -250 -248 -408 -394 -573 -529 -72 -59 -177 -147 -232 -195 -317 -279 -945 -596 -1490 -752 -212 -61 -647 -147 -662 -131 -3 2 12 14 34 25 54 29 35 26 -65 -10 -110 -39 -246 -56 -562 -71 -299 -14 -288 -14 -595 0 -324 15 -457 32 -564 72 -46 17 -86 28 -89 26 -2 -3 7 -11 22 -17 29 -14 36 -33 9 -25 -10 2 -43 7 -73 11 -226 26 -611 123 -870 220 -288 107 -532 226 -845 411 -162 96 -203 125 -363 262 -64 55 -172 146 -240 202 -260 216 -666 616 -938 925 -694 789 -1240 1672 -1564 2525 -40 106 -48 140 -54 225 -4 55 -18 154 -31 220 -23 111 -42 177 -109 360 -19 51 -26 92 -27 150 l-2 80 -7 -58 c-4 -32 -10 -60 -12 -62 -3 -3 -28 31 -57 75 -136 209 -340 340 -536 344 -70 1 -87 -3 -140 -29 -49 -24 -62 -37 -71 -64 -21 -66 9 -103 117 -146 109 -42 158 -73 227 -141 121 -121 184 -316 185 -574 2 -329 -67 -434 -340 -517 -77 -23 -106 -27 -233 -27 -138 -1 -148 0 -200 26 -106 52 -206 183 -234 308 -29 127 -19 227 39 367 76 188 204 378 284 422 l42 23 76 -27 c42 -15 122 -33 177 -40 56 -8 117 -17 136 -20 34 -6 33 -5 -16 23 -51 29 -178 129 -344 272 -48 41 -119 101 -157 133 -38 31 -135 124 -215 205 -502 512 -733 1085 -755 1872 -9 358 26 716 93 938 l25 82 57 -7 c31 -5 129 -8 217 -7 147 0 171 3 290 33 142 36 275 88 401 156 l81 44 84 -56 c324 -215 489 -431 607 -795 22 -68 57 -186 77 -263 110 -422 211 -653 382 -873 95 -122 200 -197 301 -216 30 -5 32 -4 21 15 -18 35 -4 32 63 -15 36 -25 96 -60 134 -78 38 -18 73 -34 77 -36 5 -2 2 9 -6 24 -8 16 -31 81 -52 144 -20 63 -45 140 -55 170 -18 54 -53 148 -150 400 -137 358 -215 705 -240 1065 -15 230 -12 322 14 478 16 91 29 222 36 362 9 179 17 253 45 395 50 249 56 270 114 350 165 226 242 427 241 629 -1 47 0 98 1 113 2 36 411 505 495 569 440 335 1830 1277 2579 1749 99 62 203 127 230 145 315 202 1058 642 1545 915 102 57 223 125 270 152 47 26 92 45 100 42 7 -3 104 -55 215 -116z m5405 -11374 c128 -38 348 -115 665 -233 116 -44 227 -85 248 -92 24 -9 37 -19 37 -31 0 -10 -15 -87 -34 -171 -35 -154 -70 -329 -125 -622 -114 -608 -191 -983 -261 -1280 -54 -227 -92 -386 -110 -450 -11 -38 -36 -131 -56 -205 -206 -763 -487 -1598 -806 -2393 -564 -1408 -1214 -2722 -2086 -4222 -58 -99 -149 -253 -203 -343 -55 -89 -154 -258 -221 -375 -288 -504 -707 -1184 -809 -1316 -24 -30 -23 -32 -44 170 l-18 166 26 44 c60 103 90 296 67 436 -54 335 -267 618 -627 829 -356 210 -866 334 -1373 334 -278 0 -481 -29 -649 -94 l-85 -33 109 -6 c116 -6 353 -41 570 -83 72 -13 166 -32 210 -40 135 -26 444 -104 560 -141 550 -177 874 -430 955 -748 25 -97 25 -142 1 -227 -25 -91 -68 -159 -165 -259 -109 -114 -146 -139 -222 -155 l-63 -13 -56 34 c-76 45 -172 66 -337 72 -253 10 -662 -37 -934 -108 -85 -22 -141 -30 -230 -32 -138 -4 -207 -26 -334 -104 -84 -52 -263 -226 -452 -438 -287 -322 -543 -539 -1043 -886 -323 -224 -547 -366 -703 -444 -89 -45 -93 -46 -130 -33 -58 20 -265 16 -327 -6 -88 -32 -138 -59 -143 -78 -7 -27 -37 -23 -157 22 -320 119 -659 369 -912 673 -167 200 -383 562 -512 854 l-40 92 -16 553 c-8 303 -13 633 -9 733 6 213 9 223 129 470 84 174 145 271 266 428 77 100 95 147 79 206 -5 21 -17 44 -25 51 -8 7 -15 19 -15 28 0 20 147 275 208 362 333 473 792 858 1447 1212 139 75 458 227 650 309 165 70 633 245 920 344 149 52 322 114 385 138 63 24 187 69 276 100 88 31 183 66 210 78 136 59 390 137 532 165 123 23 194 18 367 -26 184 -48 305 -91 473 -171 378 -179 593 -416 609 -675 5 -67 2 -88 -16 -130 l-21 -49 56 60 c30 33 69 88 86 123 28 57 31 71 31 160 -1 64 -6 114 -18 147 -32 95 -94 210 -150 280 l-57 70 5 60 c2 33 1 101 -2 150 -5 70 -2 104 11 155 42 152 5 307 -103 444 -22 27 -39 57 -39 67 0 10 -11 30 -24 46 -20 23 -27 26 -46 17 -19 -8 -37 -3 -99 27 -138 68 -335 105 -496 94 -426 -28 -786 -224 -1004 -546 -32 -48 -60 -91 -62 -96 -7 -16 -253 -133 -281 -133 -39 0 -410 -48 -508 -66 -164 -30 -627 -170 -840 -254 -209 -83 -583 -264 -759 -367 -239 -140 -532 -346 -694 -488 -70 -61 -91 -74 -102 -65 -18 15 -173 326 -209 420 -16 41 -58 144 -93 228 -79 189 -136 341 -223 592 -198 570 -228 662 -295 910 -20 74 -49 182 -65 240 -62 226 -130 519 -174 750 -63 335 -145 900 -166 1150 -6 69 -17 195 -25 280 -23 247 -34 447 -50 880 -20 567 -28 1109 -17 1090 6 -8 13 -40 17 -70 10 -72 67 -305 109 -444 232 -762 778 -1680 1484 -2493 229 -264 517 -548 720 -710 173 -138 511 -356 657 -423 81 -38 389 -155 480 -184 28 -8 136 -36 240 -61 105 -26 193 -49 197 -53 3 -4 -2 -38 -12 -77 -24 -88 -26 -232 -5 -303 32 -105 118 -182 207 -182 45 0 158 36 158 50 0 4 -14 10 -31 14 -42 8 -104 72 -118 121 -15 54 -14 77 5 154 66 268 313 547 619 700 298 149 681 180 1050 85 248 -63 464 -170 621 -306 81 -70 114 -110 157 -188 46 -86 61 -154 53 -244 -9 -110 -24 -238 -32 -268 -9 -40 16 -45 95 -18 95 33 117 48 161 111 78 111 117 263 107 419 -20 316 -217 600 -554 799 -71 42 -282 131 -311 131 -16 0 -15 9 19 115 20 63 23 90 22 265 0 205 -17 469 -35 554 -21 101 -64 156 -136 176 -44 12 -367 -3 -551 -25 -222 -28 -462 -85 -564 -137 -52 -26 -48 -55 13 -85 84 -40 219 -54 600 -62 l325 -6 -3 -52 c-5 -75 16 -350 34 -446 8 -45 26 -115 40 -155 15 -40 24 -76 20 -79 -3 -3 -48 -1 -100 5 -267 33 -563 -1 -812 -94 -51 -19 -94 -34 -96 -34 -3 0 -8 73 -12 163 -17 398 -62 805 -93 839 -39 43 -73 12 -95 -87 -14 -66 -17 -582 -4 -865 l7 -155 -73 -47 c-251 -162 -489 -422 -614 -670 -24 -49 -47 -88 -51 -88 -3 0 -52 24 -107 54 -161 85 -443 270 -609 400 -56 44 -149 113 -207 154 -129 92 -209 157 -460 376 -1134 988 -2109 2499 -2400 3721 -28 116 -79 408 -73 418 12 21 43 3 69 -40 49 -85 288 -435 384 -563 353 -473 713 -834 1155 -1157 123 -90 489 -280 670 -348 35 -14 109 -36 165 -50 70 -18 124 -39 173 -69 637 -380 1281 -604 1833 -636 204 -12 452 1 568 29 77 19 80 19 155 0 180 -44 601 -44 847 0 317 58 659 163 939 288 130 58 410 200 514 260 159 94 194 110 251 123 155 34 352 116 612 256 216 117 384 239 658 480 456 400 951 1048 1337 1749 l83 150 0 -65 c0 -133 -21 -510 -35 -640 -33 -302 -112 -613 -235 -930 -38 -98 -217 -452 -285 -564 -200 -331 -456 -678 -713 -966 -264 -297 -751 -755 -1077 -1013 -82 -65 -204 -162 -270 -216 -145 -118 -498 -384 -578 -435 -61 -39 -233 -126 -287 -145 -18 -6 -31 -13 -28 -16 6 -7 361 78 503 121 162 48 215 70 461 189 223 108 321 167 549 329 250 178 359 270 614 520 455 447 810 932 1081 1476 233 467 354 853 422 1350 31 229 33 773 4 1041 -11 97 -16 184 -13 193 9 22 35 18 197 -30z m1140 -411 c63 -24 138 -53 165 -64 28 -10 138 -53 245 -94 107 -41 240 -92 295 -113 l100 -40 7 -78 c39 -414 134 -739 328 -1119 213 -416 504 -782 879 -1105 357 -307 830 -558 1251 -665 477 -120 893 -107 1215 41 149 68 309 212 368 332 17 34 34 62 38 62 8 0 215 -213 344 -355 393 -431 810 -982 1181 -1560 261 -405 743 -1256 731 -1288 -2 -7 -44 -21 -93 -31 -194 -42 -676 -212 -940 -331 -1170 -528 -2190 -1339 -2632 -2092 -166 -284 -245 -525 -259 -796 l-6 -119 -61 9 c-121 16 -450 8 -616 -16 -327 -46 -486 -89 -810 -216 -279 -110 -611 -302 -863 -502 -277 -219 -586 -537 -812 -838 -92 -124 -100 -131 -118 -117 -23 19 -209 94 -295 119 -166 48 -270 64 -452 70 -133 4 -203 1 -292 -11 -307 -43 -577 -173 -771 -370 -195 -198 -307 -431 -324 -673 l-6 -83 -56 53 c-156 148 -398 242 -731 283 -264 33 -713 24 -1078 -22 -68 -9 -126 -13 -130 -10 -3 4 42 55 101 114 58 59 136 143 173 187 158 191 363 496 495 735 65 118 116 184 341 436 215 241 399 469 706 876 117 155 444 633 549 803 17 28 57 91 88 140 99 156 322 549 496 875 119 225 350 708 449 940 16 36 47 108 70 160 54 125 215 529 279 703 531 1435 857 2917 936 4265 21 349 29 765 20 1003 -7 202 -14 244 -34 224 -10 -10 -83 -528 -120 -860 -121 -1061 -165 -1372 -277 -1925 -280 -1382 -760 -2731 -1499 -4210 -243 -486 -637 -1204 -898 -1635 -60 -99 -177 -292 -260 -430 -83 -137 -202 -331 -265 -430 -64 -99 -161 -252 -217 -340 -115 -181 -210 -323 -232 -345 -13 -13 -14 -12 -8 10 4 14 16 40 26 59 11 18 18 35 17 37 -2 2 -31 -14 -63 -35 -90 -57 -184 -164 -349 -396 -245 -345 -337 -470 -506 -685 -88 -113 -180 -231 -203 -262 -23 -32 -51 -60 -62 -62 -11 -3 -87 -21 -170 -41 -82 -19 -181 -44 -220 -55 -38 -11 -70 -20 -71 -20 0 0 -4 113 -7 252 l-5 251 157 181 c332 382 459 541 813 1012 290 386 704 1021 1047 1607 943 1612 1545 3001 2034 4702 30 105 69 244 87 310 17 66 40 152 50 190 302 1132 516 2387 555 3260 3 72 8 145 11 163 6 39 -5 40 164 -25z m1148 -452 c130 -55 282 -119 337 -143 l100 -44 7 -90 c17 -203 97 -474 202 -683 124 -246 268 -443 481 -657 215 -217 387 -348 633 -484 337 -186 744 -293 1061 -277 173 9 260 28 360 79 85 43 149 103 120 112 -8 2 -44 13 -80 24 -36 11 -180 48 -320 82 -618 150 -949 282 -1309 522 -184 122 -285 203 -434 348 -276 268 -475 556 -596 863 -24 59 -40 110 -37 113 12 12 451 -200 832 -401 565 -299 1147 -682 1637 -1077 284 -230 714 -620 702 -639 -10 -16 -140 -78 -240 -114 -163 -59 -291 -79 -504 -79 -157 0 -208 4 -334 27 -292 53 -549 139 -844 282 -217 106 -302 155 -517 299 -604 405 -1079 957 -1348 1568 -94 213 -177 468 -152 468 3 0 112 -45 243 -99z m-15103 -723 c-28 -331 -114 -546 -338 -843 -72 -95 -401 -427 -542 -546 -460 -389 -932 -714 -1335 -919 -568 -288 -1020 -374 -1450 -276 -112 26 -232 68 -237 83 -6 18 410 399 706 646 787 656 1792 1284 2816 1760 77 36 192 90 255 121 63 30 119 55 124 55 5 1 5 -35 1 -81z m7712 -4624 c142 -19 329 -78 406 -127 42 -27 56 -42 61 -67 8 -41 8 -365 0 -373 -3 -3 -35 12 -70 33 -216 133 -479 221 -759 255 -162 20 -439 16 -565 -9 -41 -8 -91 -17 -110 -21 l-35 -6 51 48 c231 221 618 322 1021 267z m13553 -556 c121 -250 280 -596 280 -609 0 -6 -39 -7 -102 -2 -57 4 -200 8 -318 7 -186 0 -237 -4 -375 -27 -436 -74 -729 -169 -1120 -362 -752 -371 -1356 -919 -1882 -1710 -87 -130 -235 -376 -246 -408 -3 -10 -285 38 -299 51 -12 12 12 181 38 270 79 274 228 538 459 819 119 145 459 484 620 617 671 557 1474 1015 2565 1461 85 35 175 73 200 84 25 11 52 21 61 21 11 0 48 -67 119 -212z m400 -885 c120 -294 262 -674 256 -681 -3 -3 -56 7 -118 21 -286 67 -444 82 -833 82 -199 0 -344 -5 -405 -13 -52 -7 -144 -20 -205 -28 -264 -37 -616 -131 -876 -234 -475 -189 -927 -489 -1345 -893 -172 -165 -316 -325 -402 -444 -69 -95 -89 -107 -126 -80 -17 13 -13 22 64 138 474 708 1047 1265 1690 1639 455 265 972 457 1690 629 261 63 387 87 471 90 l47 1 92 -227z m-170 -872 c69 -5 203 -15 299 -21 96 -7 185 -16 197 -20 23 -9 58 -104 149 -405 19 -66 38 -128 41 -139 8 -23 13 -24 -268 48 -350 89 -606 119 -1038 119 -284 0 -438 -12 -737 -58 -796 -124 -1609 -463 -2197 -914 -54 -42 -107 -82 -116 -89 -16 -11 -26 -9 -72 14 -29 14 -55 28 -57 30 -14 13 220 258 389 408 622 553 1215 848 1960 975 212 36 328 50 514 61 176 10 768 5 936 -9z m160 -700 c241 -22 559 -59 571 -67 18 -11 138 -421 234 -799 35 -137 87 -340 115 -450 58 -225 86 -344 136 -590 40 -196 114 -614 115 -653 0 -15 3 -21 6 -14 4 11 -17 426 -31 612 -4 44 -3 49 5 25 21 -69 64 -724 48 -739 -5 -6 -9 -2 -9 12 0 12 -4 22 -8 22 -5 0 -39 46 -78 102 -106 156 -232 307 -409 487 -540 551 -1283 1010 -2070 1278 -804 273 -1510 303 -2115 88 -52 -18 -130 -49 -172 -69 -85 -39 -101 -36 -35 6 715 452 1568 709 2557 772 30 2 246 2 480 1 343 -2 471 -6 660 -24z m-19950 -181 c47 -6 91 -13 98 -15 8 -3 -3 -25 -32 -65 -49 -66 -80 -139 -90 -213 -4 -26 -16 -67 -27 -92 -50 -114 -110 -361 -139 -575 -18 -133 -40 -501 -40 -665 0 -732 121 -1323 376 -1834 164 -329 365 -580 619 -771 113 -84 173 -118 303 -170 195 -77 337 -99 527 -80 134 13 202 31 320 85 76 34 82 35 125 24 25 -6 99 -14 165 -16 118 -5 121 -6 154 -37 44 -41 106 -133 141 -209 41 -87 60 -169 60 -257 0 -187 -74 -329 -318 -612 -35 -40 -76 -87 -90 -104 -32 -37 -110 -58 -271 -74 -261 -25 -515 -5 -822 66 -716 166 -1206 529 -1625 1204 -375 604 -651 1424 -728 2161 -78 746 38 1422 318 1854 147 225 335 352 586 394 77 12 290 13 390 1z m17335 -585 c315 -37 791 -163 1140 -303 409 -163 673 -289 970 -460 72 -41 173 -100 225 -130 329 -189 819 -553 1094 -813 97 -92 276 -288 354 -387 l42 -54 0 -213 c0 -116 -3 -233 -6 -259 l-7 -47 -42 75 c-447 784 -1470 1633 -2560 2126 -704 318 -1499 478 -2069 416 -82 -9 -152 -14 -154 -11 -3 3 3 5 14 5 10 0 37 7 59 14 33 11 209 40 375 60 71 9 429 -3 565 -19z m-559 -176 c746 -103 1559 -426 2381 -945 251 -159 607 -412 817 -580 459 -369 845 -748 1078 -1058 l89 -119 -6 -61 c-84 -828 -272 -1442 -640 -2081 -354 -615 -891 -1192 -1450 -1558 -789 -515 -1781 -779 -2925 -779 -302 0 -602 13 -795 33 -369 38 -816 99 -1135 154 -140 25 -336 58 -435 74 -347 58 -375 64 -375 76 0 6 9 47 20 90 24 94 26 222 4 315 -31 134 -30 138 18 236 214 428 328 968 328 1554 0 891 -281 1866 -731 2537 -172 256 -398 493 -601 632 -27 17 -48 35 -48 40 0 25 314 275 495 395 163 108 260 163 480 273 331 166 774 320 1188 414 379 86 378 86 584 114 103 14 248 36 322 50 74 14 142 25 151 25 16 0 18 -11 16 -92 -1 -89 0 -93 21 -96 20 -3 21 0 16 31 -6 42 31 162 53 171 9 3 40 6 70 6 49 0 54 -2 54 -22 0 -23 1 -23 23 4 29 35 130 53 297 52 181 -2 344 -43 453 -115 45 -29 -102 110 -193 183 -41 33 -77 65 -79 71 -6 15 279 1 455 -24z m-18346 -18 c0 -5 -18 -63 -39 -130 -137 -421 -202 -967 -172 -1441 56 -883 318 -1752 744 -2460 211 -351 491 -675 770 -889 60 -46 105 -87 100 -91 -18 -16 -359 -241 -529 -350 -100 -63 -283 -182 -407 -265 -1664 -1103 -2817 -1577 -4157 -1710 -223 -22 -684 -30 -925 -16 -412 25 -685 72 -1033 178 l-153 46 -48 61 c-110 140 -346 495 -468 706 -50 85 -125 214 -168 285 -89 150 -250 473 -358 720 -186 424 -339 902 -451 1406 l-26 116 35 114 c19 62 33 114 32 116 -2 1 -18 -33 -37 -77 -19 -43 -38 -73 -41 -67 -10 18 -45 230 -74 437 -55 401 -81 869 -72 1291 4 157 9 292 12 300 12 27 220 192 363 288 185 124 480 278 677 354 536 205 1128 305 2115 357 113 5 231 12 262 14 31 2 59 1 62 -1 3 -3 -13 -24 -34 -47 -22 -23 -56 -63 -76 -88 -23 -31 -49 -51 -72 -59 -139 -45 -690 -297 -909 -416 -639 -347 -1079 -655 -1447 -1013 -401 -390 -602 -722 -691 -1143 -22 -104 -23 -129 -20 -372 2 -179 8 -284 18 -339 9 -43 17 -79 19 -81 2 -2 3 108 4 243 0 229 2 256 28 377 15 72 41 170 57 220 145 433 485 817 1139 1285 240 172 723 475 1035 650 72 40 189 107 260 150 222 132 386 222 392 216 6 -5 -22 -75 -42 -106 -6 -9 -75 -59 -155 -112 -500 -332 -1045 -870 -1439 -1423 -445 -624 -761 -1282 -885 -1841 -42 -190 -56 -313 -56 -471 1 -108 18 -244 33 -259 4 -4 4 44 0 107 -13 262 64 591 237 1009 96 233 323 649 513 938 262 400 692 912 1086 1291 200 194 289 274 476 430 61 51 134 112 162 137 166 143 532 417 646 484 86 50 89 64 6 26 -30 -13 -115 -52 -189 -86 -74 -34 -177 -87 -228 -117 -52 -30 -96 -53 -98 -51 -7 8 149 156 206 196 143 101 315 188 520 262 87 31 125 39 215 44 61 4 190 14 288 22 206 16 197 18 328 -80 40 -31 75 -53 78 -50 3 2 -25 35 -62 72 -37 37 -67 71 -67 75 0 4 29 7 65 7 36 0 65 4 65 9 0 5 -44 17 -98 26 -99 17 -157 44 -137 63 10 10 140 42 168 42 17 0 98 -127 155 -242 23 -49 47 -88 52 -88 6 0 10 3 10 8 0 16 -71 265 -85 299 -8 19 -15 39 -15 43 0 11 99 32 112 24 9 -6 101 -193 149 -303 11 -24 22 -41 25 -38 6 6 -19 150 -47 275 -10 45 -19 87 -19 91 0 15 712 136 1010 171 142 17 402 63 735 129 50 10 151 35 226 55 74 20 176 42 225 50 114 18 114 18 114 7z m-4375 -231 c235 -16 509 -52 719 -96 108 -23 109 -24 16 -88 l-82 -58 -436 -3 c-472 -4 -622 -12 -947 -51 -957 -115 -1624 -413 -2212 -988 -88 -86 -143 -132 -143 -122 0 96 74 760 95 851 11 48 266 170 540 258 483 156 1159 273 1735 300 160 8 578 6 715 -3z m17260 -1360 c207 -30 373 -79 558 -164 l57 -27 -16 -37 c-49 -111 -58 -177 -27 -189 18 -7 45 17 39 34 -6 14 69 143 83 143 12 0 116 -73 196 -138 378 -309 685 -844 910 -1583 222 -731 301 -1429 225 -1979 -26 -181 -117 -589 -213 -945 -35 -131 -36 -132 -142 -212 -52 -39 -64 -44 -95 -39 -110 17 -108 17 -58 -1 26 -10 49 -21 53 -24 12 -13 -255 -196 -355 -243 -109 -51 -172 -68 -275 -73 -115 -6 -193 9 -290 57 -54 26 -185 131 -185 149 0 3 43 26 95 50 168 77 284 167 426 332 105 121 190 261 272 444 157 353 238 842 208 1249 -38 517 -166 978 -406 1457 -317 635 -713 1028 -1170 1165 -80 24 -107 27 -245 28 -149 0 -159 -1 -250 -32 -206 -69 -380 -217 -380 -323 0 -39 26 -69 59 -69 11 0 11 3 -2 18 -26 29 -21 49 28 101 87 92 206 136 365 134 115 -1 199 -20 317 -71 408 -176 796 -646 1057 -1284 162 -397 235 -733 243 -1128 5 -258 15 -222 -107 -366 -91 -107 -127 -157 -255 -344 -127 -187 -168 -240 -261 -339 -242 -258 -640 -477 -944 -522 -142 -20 -481 -12 -693 17 -39 5 -41 4 -23 -10 10 -8 24 -17 30 -19 6 -2 9 -7 6 -10 -9 -10 -272 31 -530 83 -135 27 -269 52 -298 56 -30 4 -56 12 -58 19 -4 9 -17 10 -47 4 -23 -4 -83 -12 -134 -17 -172 -17 -300 -101 -296 -196 l1 -42 -190 -127 c-162 -109 -192 -126 -206 -115 -13 11 -15 10 -9 -5 6 -15 -18 -29 -146 -91 -258 -124 -357 -156 -490 -156 -174 0 -315 36 -363 93 -24 29 -26 36 -20 91 3 33 13 69 20 81 8 13 97 90 198 173 101 82 251 212 333 287 83 75 206 182 275 238 365 295 508 446 651 688 l28 48 -27 22 c-24 19 -36 21 -103 16 -103 -7 -228 -51 -434 -152 -331 -164 -496 -274 -765 -510 -63 -56 -180 -153 -260 -217 -80 -64 -164 -133 -187 -153 -64 -55 -180 -88 -313 -89 -93 -1 -111 2 -153 23 -77 40 -160 131 -208 229 -37 75 -43 96 -47 168 -4 77 -3 85 28 143 61 114 256 285 510 445 214 136 445 254 875 448 387 175 623 304 800 437 39 29 91 64 118 77 55 28 60 39 15 30 -18 -4 -105 -11 -193 -16 -210 -12 -355 -38 -549 -100 -503 -162 -994 -423 -1410 -748 l-109 -86 -81 -4 c-256 -13 -444 124 -487 354 -14 77 -5 158 32 269 43 130 90 207 152 254 29 22 66 51 82 65 l30 26 -40 -6 -39 -7 57 65 c142 162 428 376 722 540 668 374 921 536 1047 673 26 28 65 64 88 80 22 15 39 30 37 32 -2 2 -24 -4 -48 -12 -24 -9 -82 -22 -129 -30 -123 -19 -310 -68 -505 -132 -440 -143 -845 -358 -1165 -616 -120 -97 -324 -303 -390 -394 -25 -34 -49 -61 -55 -59 -16 4 -46 133 -52 222 -10 149 42 331 139 479 60 93 200 236 308 316 444 330 1226 582 2075 668 390 40 1015 47 1450 17 147 -10 283 -14 331 -11 l81 7 33 -51 c48 -75 136 -131 207 -131 l37 0 -52 26 c-64 32 -95 80 -117 182 -22 106 -20 280 5 376 70 276 320 485 626 525 127 16 330 12 479 -9z m-6983 -5126 l-4 -791 -106 -96 c-149 -133 -149 -134 -316 -270 -83 -67 -229 -189 -326 -272 -96 -82 -202 -172 -235 -200 -33 -27 -132 -113 -220 -190 -290 -254 -668 -572 -925 -776 -830 -661 -1690 -1201 -2735 -1719 -332 -165 -644 -310 -665 -310 -27 0 -406 221 -630 368 -187 122 -440 301 -440 311 0 9 87 33 315 86 486 115 595 146 895 251 268 95 402 147 555 217 1098 499 2350 1327 3215 2126 604 558 1131 1207 1498 1846 92 160 125 216 127 212 0 -1 -1 -358 -3 -793z m3290 -689 l206 0 28 -43 c113 -180 361 -477 611 -732 972 -994 2215 -1817 3543 -2345 239 -95 640 -229 900 -300 409 -111 912 -199 1290 -225 168 -12 743 -15 851 -5 50 5 71 4 64 -3 -29 -29 -698 -400 -1099 -609 -120 -63 -235 -124 -255 -137 -20 -13 -97 -55 -171 -94 -129 -67 -306 -131 -590 -212 -41 -12 -145 -44 -230 -70 -241 -76 -451 -135 -656 -185 -202 -50 -231 -57 -449 -104 -77 -16 -187 -41 -245 -55 -269 -63 -811 -162 -1125 -206 -82 -11 -175 -25 -205 -30 -186 -33 -898 -112 -1250 -140 -269 -21 -791 -50 -1075 -60 -351 -12 -1495 -13 -1495 -1 0 4 37 16 83 26 405 86 834 339 974 574 69 114 86 178 81 296 -3 55 -9 109 -15 119 -9 16 -12 15 -32 -18 -13 -20 -25 -36 -28 -36 -3 0 -3 20 -1 45 7 62 -8 47 -23 -23 -10 -44 -23 -68 -57 -104 -43 -46 -68 -55 -58 -20 3 10 15 80 26 157 21 138 42 262 100 580 29 160 61 424 101 845 33 338 33 1106 1 1625 -25 410 -79 1006 -117 1305 -14 107 -25 202 -25 211 0 16 6 15 68 -4 60 -20 90 -22 274 -22z"/>
<path d="M13425 45663 c-413 -21 -805 -168 -1150 -432 -86 -66 -237 -212 -320 -312 -272 -325 -402 -687 -355 -989 13 -83 64 -185 107 -212 l32 -19 16 38 c9 21 26 67 37 103 137 443 625 827 1211 956 109 24 144 27 327 28 155 1 227 -3 295 -16 117 -22 330 -88 468 -145 60 -24 148 -53 196 -63 47 -11 102 -24 121 -30 19 -6 78 -15 130 -21 113 -13 179 -42 257 -113 l53 -48 -20 47 c-32 74 -41 128 -50 285 -9 158 -26 222 -97 364 -65 129 -127 199 -271 305 -163 119 -313 186 -533 235 -92 20 -368 52 -389 44 -3 -1 -32 -3 -65 -5z"/>
<path d="M19020 45610 c-291 -36 -523 -123 -727 -274 -129 -95 -199 -173 -257 -285 -85 -165 -97 -208 -106 -376 -9 -164 -20 -225 -50 -288 -11 -22 -20 -43 -20 -45 0 -3 25 18 55 47 72 68 143 100 247 111 105 11 345 69 429 105 88 37 278 102 369 126 178 47 428 62 620 38 256 -31 535 -136 759 -282 318 -210 482 -411 591 -729 38 -111 48 -117 98 -65 45 47 70 112 84 221 49 388 -197 867 -634 1231 -276 232 -640 398 -983 450 -126 19 -377 27 -475 15z"/>
<path d="M16349 45157 c-20 -8 -49 -23 -65 -34 -16 -11 -45 -26 -66 -32 -54 -18 -122 -82 -147 -141 -31 -73 -40 -228 -17 -297 32 -97 131 -180 256 -217 87 -26 225 -32 292 -12 117 34 222 171 248 325 20 122 -16 228 -106 310 -86 79 -150 105 -264 108 -62 2 -108 -1 -131 -10z"/>
<path d="M13179 44465 c-259 -42 -484 -135 -693 -284 -358 -256 -634 -648 -702 -999 -15 -77 -17 -205 -4 -257 l7 -30 7 30 c24 105 39 150 76 229 121 263 352 547 575 705 112 79 302 173 420 206 160 46 269 58 480 51 195 -5 241 -12 451 -65 255 -63 620 -232 794 -366 100 -77 212 -204 252 -285 46 -92 48 -80 7 37 -160 456 -468 779 -904 945 -169 65 -296 88 -510 93 -117 3 -197 0 -256 -10z"/>
<path d="M19100 44419 c-97 -12 -205 -38 -300 -71 -390 -136 -685 -402 -865 -781 -52 -110 -110 -265 -102 -273 2 -3 18 24 35 58 103 208 369 402 773 561 688 272 1288 203 1745 -201 252 -222 471 -559 525 -807 12 -55 13 -58 20 -30 23 100 3 267 -51 420 -79 224 -218 436 -419 635 -280 279 -607 447 -951 490 -97 12 -315 11 -410 -1z"/>
<path d="M13290 43913 c-359 -58 -616 -180 -835 -397 -199 -197 -318 -405 -401 -703 -69 -249 -88 -309 -112 -358 -28 -59 -67 -103 -102 -117 -37 -15 -124 -11 -167 7 -42 18 -105 74 -134 120 -28 44 -23 13 6 -46 90 -177 301 -239 456 -133 44 31 50 33 56 17 48 -136 114 -243 220 -353 185 -195 446 -323 756 -371 109 -17 163 -20 312 -16 103 3 217 12 268 21 179 34 359 107 512 208 95 63 272 235 339 331 43 61 66 81 66 59 0 -5 24 -34 53 -65 48 -52 56 -57 95 -57 81 0 132 46 132 121 0 22 -7 53 -16 69 -17 27 -71 60 -100 60 -10 0 -13 7 -9 23 41 177 47 477 14 651 -89 471 -439 809 -942 911 -105 21 -149 25 -283 24 -88 -1 -170 -4 -184 -6z m-79 -524 c-41 -145 -40 -259 1 -331 87 -148 304 -247 450 -204 44 12 65 26 96 62 52 58 66 118 52 212 -12 74 -34 112 -73 126 -41 15 -63 -12 -70 -83 -10 -94 -32 -139 -74 -150 -70 -20 -182 20 -246 87 -36 37 -50 112 -37 201 15 106 10 101 109 101 131 0 383 -52 410 -84 18 -21 59 -161 66 -221 7 -69 -15 -231 -47 -340 -75 -257 -217 -356 -493 -341 -394 20 -588 218 -635 648 -14 128 -7 193 25 214 43 28 209 81 305 98 165 28 168 28 161 5z m-682 -350 c-28 -212 23 -447 130 -611 118 -181 294 -302 536 -369 124 -34 335 -38 461 -9 145 33 243 86 339 184 118 119 170 231 200 431 16 106 18 271 6 370 -5 33 -7 62 -5 64 14 16 172 -139 254 -249 98 -130 205 -373 212 -483 l3 -48 -55 -19 c-30 -11 -55 -19 -55 -20 0 0 1 20 3 44 5 55 -17 99 -58 116 -43 18 -83 -2 -130 -64 -136 -184 -473 -414 -730 -500 -160 -53 -281 -71 -465 -70 -148 0 -185 3 -283 27 -225 53 -442 174 -634 356 -68 64 -148 171 -148 198 0 8 20 47 43 86 24 40 78 142 119 227 41 85 94 187 117 225 46 74 143 207 148 202 1 -2 -2 -41 -8 -88z"/>
<path d="M19097 43868 c-163 -12 -332 -61 -487 -138 -318 -160 -525 -430 -596 -778 -21 -106 -25 -150 -24 -296 0 -115 7 -207 19 -279 16 -99 16 -109 2 -114 -80 -25 -111 -60 -111 -126 0 -74 50 -127 120 -127 48 0 86 25 132 87 37 51 43 55 52 39 66 -112 237 -291 361 -378 157 -109 350 -189 548 -225 114 -21 443 -24 562 -5 351 56 655 225 837 466 57 75 138 224 138 252 0 27 21 23 65 -10 25 -19 62 -39 83 -43 61 -13 147 -6 196 15 80 36 169 135 191 212 l7 25 -18 -25 c-63 -91 -144 -140 -232 -140 -131 0 -177 72 -271 430 -43 164 -67 232 -117 340 -188 398 -538 681 -969 784 -104 24 -319 49 -377 44 -15 -2 -65 -6 -111 -10z m291 -543 c19 -57 18 -195 -2 -233 -51 -100 -256 -161 -308 -92 -10 14 -23 54 -29 90 -6 36 -13 75 -15 87 -6 33 -49 41 -82 16 -36 -26 -54 -82 -54 -168 -2 -144 80 -225 226 -225 166 0 346 116 392 252 20 60 15 186 -9 256 -8 23 -11 44 -7 47 13 8 155 -14 257 -40 51 -13 123 -39 160 -57 63 -31 69 -36 76 -73 11 -58 -9 -246 -38 -350 -52 -191 -145 -315 -289 -385 -104 -52 -202 -72 -346 -73 -289 -2 -412 108 -481 433 -33 155 -31 271 7 380 26 76 33 87 64 101 87 40 305 79 420 75 43 -1 46 -3 58 -41z m894 -390 c33 -49 107 -183 164 -297 56 -114 115 -225 130 -247 33 -51 29 -67 -39 -156 -93 -122 -275 -264 -452 -354 -171 -86 -343 -125 -555 -125 -292 -1 -576 86 -821 251 -124 83 -260 195 -320 264 -110 125 -115 129 -149 129 -22 0 -41 -9 -61 -29 -25 -26 -29 -37 -29 -86 0 -55 0 -55 -22 -44 -13 7 -36 15 -53 19 -29 6 -30 8 -27 55 5 106 121 372 215 494 55 71 206 225 236 241 23 12 24 11 17 -11 -4 -13 -10 -87 -13 -164 -18 -447 136 -730 462 -848 261 -94 612 -44 857 121 234 158 360 405 362 707 1 66 -2 145 -7 175 l-7 55 26 -30 c14 -16 53 -70 86 -120z"/>
<path d="M9375 42255 c-86 -19 -139 -40 -207 -81 -161 -98 -279 -247 -334 -420 -51 -158 -14 -264 90 -264 36 0 46 7 137 99 157 159 284 207 434 166 94 -25 168 -77 305 -217 106 -108 120 -126 116 -150 -3 -14 -41 -111 -86 -213 -44 -103 -87 -212 -96 -243 -21 -71 -15 -171 14 -231 l22 -44 -73 -77 c-86 -91 -130 -172 -131 -240 -1 -50 22 -90 51 -90 29 0 64 55 89 139 30 96 83 221 94 221 4 0 28 -17 54 -37 25 -21 107 -69 183 -108 112 -57 150 -82 204 -135 82 -81 138 -187 146 -277 7 -75 -4 -96 -65 -127 -117 -59 -325 -54 -409 10 -31 23 -33 24 -33 6 0 -33 73 -89 142 -110 183 -56 411 -67 501 -23 61 29 110 86 136 155 46 123 20 357 -55 493 -83 149 -180 229 -418 343 -113 53 -148 74 -159 97 -30 57 -85 467 -62 460 19 -7 56 -86 62 -136 7 -57 17 -59 28 -4 3 20 24 74 46 119 85 177 100 324 49 476 -39 115 -68 165 -144 241 -170 173 -414 250 -631 202z"/>
<path d="M23721 42260 c-74 -16 -142 -41 -216 -79 -93 -48 -231 -182 -273 -267 -38 -75 -72 -201 -72 -265 0 -84 30 -201 80 -309 27 -58 52 -123 56 -145 l7 -40 13 68 c12 65 46 137 64 137 5 0 7 -24 4 -52 -19 -187 -37 -311 -51 -361 -19 -68 -46 -93 -144 -133 -236 -96 -377 -212 -458 -378 -88 -179 -95 -411 -16 -536 31 -50 99 -94 167 -111 103 -24 393 13 492 63 51 26 86 62 86 88 l0 21 -22 -20 c-48 -45 -183 -69 -293 -51 -81 12 -170 52 -186 82 -35 66 40 257 140 357 45 45 88 73 188 124 71 36 157 86 191 111 34 25 64 46 67 46 11 0 48 -87 81 -191 40 -123 76 -176 111 -165 25 8 43 46 43 90 0 54 -57 153 -135 235 l-72 76 23 50 c18 39 24 67 24 127 0 86 -17 141 -107 343 -27 61 -59 138 -72 173 l-24 63 79 82 c131 136 205 197 284 236 68 33 83 36 160 36 77 0 92 -3 163 -37 63 -30 95 -55 177 -138 93 -93 102 -100 140 -100 30 0 48 7 72 29 30 26 33 35 36 100 5 80 -10 136 -63 243 -119 240 -349 393 -605 403 -52 2 -115 0 -139 -5z"/>
<path d="M17568 40938 l-37 -10 59 -39 c95 -64 203 -171 238 -237 32 -60 62 -194 62 -279 0 -68 -28 -192 -60 -260 -29 -64 -170 -271 -228 -335 l-33 -36 55 -7 c152 -19 263 13 361 106 112 106 157 271 134 487 -22 208 -85 367 -184 468 -70 70 -147 117 -230 139 -66 17 -84 17 -137 3z"/>
<path d="M15290 40744 c-57 -32 -134 -107 -165 -159 -40 -67 -73 -168 -85 -257 -34 -252 88 -486 310 -598 105 -53 256 -64 332 -25 29 15 170 35 263 38 66 1 142 -10 172 -26 42 -22 71 -21 110 3 49 29 66 71 61 149 -8 129 -100 261 -226 323 -62 31 -74 33 -167 33 -87 0 -106 -3 -149 -25 -60 -31 -110 -87 -126 -143 -12 -43 -2 -187 16 -231 6 -16 -11 -10 -82 28 -227 123 -306 210 -340 375 -35 177 10 381 111 499 42 48 30 53 -35 16z"/>
<path d="M17350 40279 c-71 -14 -130 -57 -171 -124 -48 -81 -59 -116 -59 -193 0 -83 31 -142 92 -173 55 -28 174 -28 251 1 70 26 149 96 172 152 24 60 23 154 -3 204 -52 102 -166 156 -282 133z"/>
<path d="M13248 39986 c-212 -76 -404 -356 -469 -686 -21 -108 -16 -329 11 -438 74 -310 239 -550 491 -718 294 -196 610 -265 883 -194 163 43 304 137 673 447 68 57 125 103 129 103 3 0 13 -9 22 -21 12 -14 35 -23 75 -28 49 -7 62 -13 95 -49 21 -23 56 -49 78 -58 46 -19 154 -21 214 -3 49 15 122 77 139 118 9 20 22 31 44 36 31 7 31 8 8 14 -14 4 -27 13 -29 20 -3 10 2 12 19 8 13 -4 119 -20 234 -36 622 -89 960 -114 1242 -91 98 8 258 15 355 15 l178 0 29 -35 c56 -69 170 -105 277 -88 156 24 254 135 256 289 0 27 2 49 5 49 3 0 46 -39 96 -86 116 -110 436 -378 545 -456 155 -112 338 -194 522 -234 120 -26 419 -27 540 -1 423 90 776 352 909 672 55 131 72 216 78 375 12 328 -84 598 -280 789 l-45 43 -7 -42 c-4 -24 -51 -131 -105 -239 -210 -423 -270 -491 -550 -631 -135 -68 -220 -90 -348 -90 -272 0 -474 87 -1107 479 -273 170 -466 267 -630 320 -152 49 -243 65 -375 64 -221 -2 -399 -85 -534 -249 -68 -82 -98 -144 -102 -209 -3 -45 -3 -47 6 -19 15 46 72 92 180 142 135 63 267 89 374 74 167 -24 324 -129 522 -351 52 -58 94 -107 94 -110 0 -3 -30 -7 -68 -7 -119 -2 -192 -54 -252 -179 -44 -95 -32 -87 -205 -122 -174 -35 -1165 -19 -1730 28 l-130 11 -29 34 c-43 52 -88 70 -191 77 -107 7 -139 -2 -214 -61 -70 -56 -89 -53 -27 4 87 80 219 172 326 228 104 54 190 84 408 146 62 17 132 40 155 51 66 29 73 26 81 -33 4 -29 18 -72 31 -95 99 -168 421 -274 598 -195 101 45 269 242 269 315 0 44 -7 56 -39 68 -37 14 -92 -15 -208 -110 -61 -50 -115 -85 -140 -92 -48 -13 -159 -6 -230 16 -97 28 -205 124 -205 181 0 16 -14 30 -52 53 -29 17 -72 47 -96 66 -103 83 -364 118 -585 80 -174 -31 -457 -124 -703 -231 -148 -64 -259 -122 -461 -240 -170 -100 -204 -110 -303 -95 -237 37 -472 241 -545 474 -50 158 -80 430 -65 590 6 55 12 109 15 118 11 34 -79 49 -147 25z"/>
<path d="M15639 37948 c-7 -13 -12 -47 -12 -78 3 -256 358 -536 821 -649 440 -107 790 -26 1037 240 97 106 139 216 119 316 l-6 30 -51 -9 c-60 -11 -116 -38 -229 -111 -279 -180 -466 -233 -732 -208 -203 19 -369 66 -561 160 -179 87 -292 184 -339 289 -22 48 -30 51 -47 20z"/>
<path d="M14858 36340 c-40 -162 -2 -364 110 -588 96 -192 203 -334 397 -527 155 -155 271 -242 420 -315 205 -100 391 -153 624 -180 122 -15 520 -8 621 10 281 49 549 157 737 296 99 73 338 312 425 424 122 159 224 349 274 515 23 77 27 109 28 220 0 85 -4 137 -11 150 -12 19 -12 18 -13 -10 0 -68 -119 -264 -252 -415 -293 -334 -703 -578 -1138 -679 -439 -102 -869 -42 -1321 184 -352 177 -697 504 -849 805 -17 33 -34 77 -38 98 -8 34 -9 35 -14 12z"/>
<path d="M16280 29184 c-362 -42 -547 -88 -743 -186 -83 -41 -177 -122 -177 -152 0 -16 5 -17 33 -12 98 21 391 55 512 61 431 19 1041 -74 1455 -222 406 -145 618 -324 701 -593 31 -99 34 -270 6 -314 l-19 -28 34 7 c50 10 119 55 154 102 49 65 76 145 81 249 8 135 -14 233 -84 373 -47 94 -70 128 -140 201 -98 104 -160 153 -274 218 -237 136 -548 234 -879 278 -118 15 -574 28 -660 18z"/>
<path d="M16267 28170 c-333 -30 -632 -126 -767 -247 -28 -25 -50 -48 -50 -52 0 -4 27 -2 60 5 104 21 376 37 519 30 137 -6 423 -37 516 -55 231 -45 371 -81 575 -146 556 -177 994 -444 1107 -674 39 -77 38 -168 -1 -266 -50 -126 -59 -146 -79 -160 -17 -12 -12 -14 47 -20 119 -13 196 18 265 106 127 160 118 413 -22 632 -261 408 -960 752 -1697 836 -131 15 -364 20 -473 11z"/>
<path d="M24742 32134 c-85 -231 -132 -458 -192 -934 -27 -208 -62 -737 -72 -1075 -23 -806 35 -1577 173 -2275 51 -262 138 -560 199 -681 51 -99 151 -253 195 -299 24 -25 58 -70 74 -100 l31 -55 0 71 c0 39 7 93 15 122 19 61 34 215 35 335 0 107 -39 422 -80 642 -188 1015 -274 1694 -340 2675 -53 797 -61 1425 -19 1573 17 64 4 65 -19 1z"/>
<path d="M15957 55319 c-21 -5 -64 -22 -95 -39 -31 -16 -82 -36 -112 -45 -249 -66 -436 -416 -399 -746 26 -227 151 -404 354 -500 252 -120 545 -77 747 109 230 212 288 562 144 867 -89 188 -220 310 -374 350 -61 16 -205 18 -265 4z m196 -262 c64 -27 114 -74 162 -151 111 -179 94 -310 -59 -436 -94 -78 -174 -113 -272 -118 -73 -4 -88 -1 -140 22 -77 35 -116 74 -151 150 -27 58 -28 68 -28 206 1 135 2 149 27 200 14 30 42 74 62 97 34 39 41 42 94 46 116 9 266 1 305 -16z"/>
<path d="M16635 50999 c-186 -72 -403 -152 -610 -225 -99 -34 -225 -79 -280 -99 -55 -21 -174 -63 -265 -95 -91 -32 -280 -99 -420 -148 -284 -100 -1174 -464 -1435 -587 -386 -182 -1096 -531 -1227 -603 -29 -16 -143 -78 -253 -137 -196 -105 -245 -133 -490 -270 -306 -172 -718 -425 -1010 -620 -1304 -871 -2022 -1733 -2380 -2855 -128 -402 -262 -1047 -226 -1083 8 -8 11 -4 11 14 0 43 44 178 162 499 171 467 293 736 483 1065 290 502 729 1003 1235 1411 281 226 746 541 1108 748 31 18 117 67 190 109 237 137 723 396 1092 584 702 358 855 436 1232 627 224 113 483 247 575 297 93 50 308 165 478 257 171 91 373 202 450 247 517 303 1073 601 1487 797 128 61 235 112 237 114 12 11 -26 -2 -144 -47z"/>
<path d="M32681 24282 c-28 -52 -60 -367 -81 -802 -5 -113 -14 -630 -20 -1150 -19 -1818 -57 -2533 -191 -3620 -146 -1189 -446 -2525 -824 -3665 -361 -1094 -802 -2098 -1338 -3050 -322 -573 -760 -1270 -1072 -1710 -71 -99 -197 -280 -282 -403 -244 -356 -493 -692 -660 -892 -35 -41 -104 -127 -155 -190 -377 -468 -834 -933 -1313 -1335 -270 -226 -333 -282 -285 -249 8 6 134 105 280 220 146 115 339 268 430 339 558 439 949 785 1446 1281 656 654 891 923 1375 1569 336 448 469 644 739 1090 540 892 1020 1908 1325 2805 438 1289 673 2444 799 3925 70 813 84 2073 37 3225 -44 1088 -103 1971 -170 2569 -6 57 -23 75 -40 43z"/>
</g>
</svg>