<?xml version="1.0" encoding="UTF-8" standalone="no"?>
<!DOCTYPE svg PUBLIC "-//W3C//DTD SVG 20010904//EN" "http://www.w3.org/TR/2001/REC-SVG-20010904/DTD/svg10.dtd">
<svg version="1.0" xmlns="http://www.w3.org/2000/svg" width="3292.000000pt" height="5534.000000pt" viewBox="0 0 3292.000000 5534.000000" preserveAspectRatio="xMidYMid meet">
<metadata>
Created by potrace 1.16, written by Peter Selinger 2001-2019
</metadata>
<g transform="translate(0.000000,5534.000000) scale(0.100000,-0.100000)" fill="#000000" stroke="none">
<path d="M15975 51008 c-8 -13 -44 -63 -78 -112 -34 -49 -113 -142 -175 -207 -99 -103 -124 -124 -208 -169 -337 -179 -797 -497 -1249 -861 -770 -619 -1489 -1383 -2235 -2374 -702 -932 -1204 -1756 -1628 -2670 -488 -1053 -825 -2198 -961 -3265 -74 -574 -101 -1030 -101 -1675 1 -1160 106 -1884 339 -2330 52 -100 190 -309 198 -301 2 1 -8 36 -21 77 -14 41 -29 92 -35 114 -16 58 -77 428 -95 580 -9 72 -23 182 -31 245 -19 149 -32 288 -45 480 -5 85 -15 223 -20 305 -14 205 -23 1115 -13 1250 l9 110 27 -85 c35 -110 102 -228 192 -337 157 -190 362 -329 598 -408 121 -40 220 -55 363 -55 57 0 104 -2 104 -4 0 -2 -18 -42 -40 -88 -54 -113 -81 -222 -84 -338 l-2 -95 -44 3 c-284 16 -525 35 -592 47 -163 28 -331 102 -447 196 l-63 51 23 -44 c38 -68 184 -207 271 -256 88 -50 212 -94 316 -112 39 -7 72 -16 72 -19 0 -4 -28 -27 -61 -51 -153 -112 -307 -349 -365 -565 -29 -107 -27 -360 4 -475 49 -184 139 -313 265 -379 l58 -30 -53 -27 c-29 -15 -80 -55 -114 -89 -251 -255 -309 -959 -132 -1610 16 -60 27 -121 25 -135 -3 -14 -19 -58 -36 -98 -108 -255 -153 -592 -117 -879 9 -72 32 -203 52 -290 79 -355 92 -472 57 -523 -9 -14 -80 -90 -157 -170 -166 -170 -233 -256 -285 -365 -116 -240 -160 -509 -127 -783 9 -74 16 -142 16 -151 0 -12 -33 -34 -102 -71 -126 -65 -157 -85 -221 -147 -62 -59 -115 -139 -159 -241 -32 -74 -33 -82 -33 -205 0 -70 -1 -127 -1 -127 -1 0 -39 -7 -85 -16 -383 -73 -831 -385 -1032 -720 -159 -266 -196 -671 -95 -1046 l21 -76 -71 -82 c-200 -231 -326 -489 -352 -721 -18 -154 10 -301 90 -474 22 -48 40 -92 40 -98 0 -7 -44 -34 -98 -61 -170 -86 -260 -197 -357 -441 -62 -154 -85 -252 -92 -380 l-5 -110 -117 -120 c-470 -483 -912 -1034 -1339 -1670 -170 -252 -436 -675 -572 -910 -275 -472 -452 -797 -639 -1175 -173 -349 -356 -748 -347 -757 3 -3 6 -1 6 5 0 12 98 171 163 265 362 519 516 750 789 1177 100 157 166 259 266 415 668 1033 1251 1786 1866 2413 108 109 124 122 156 123 19 0 51 6 70 13 36 14 36 14 23 77 -3 19 2 33 20 50 226 221 566 507 857 723 236 176 723 496 736 484 2 -3 -2 -47 -10 -99 -74 -465 -49 -1023 69 -1554 142 -641 428 -1305 849 -1970 268 -423 545 -780 810 -1045 91 -91 166 -169 166 -175 0 -6 -15 -16 -32 -24 -54 -23 -188 -113 -261 -176 -178 -151 -354 -416 -452 -680 -21 -55 -42 -105 -46 -111 -10 -12 -160 -28 -419 -45 -96 -6 -432 -9 -800 -7 -1278 6 -1909 3 -2070 -11 l-155 -13 -140 59 c-185 79 -224 92 -462 152 -347 87 -627 117 -993 108 -233 -6 -361 -21 -547 -64 -40 -9 -76 -14 -79 -10 -11 11 108 159 216 270 128 131 106 125 486 134 238 5 295 3 470 -16 395 -44 762 -131 1052 -251 57 -23 105 -40 108 -38 7 7 -344 204 -471 264 -150 70 -309 123 -490 162 -196 43 -331 56 -520 49 -310 -11 -567 -81 -734 -197 -91 -64 -107 -91 -35 -56 16 7 43 17 59 20 25 6 12 -10 -82 -99 -62 -58 -155 -158 -208 -221 -57 -68 -111 -122 -133 -133 -52 -27 -122 -79 -122 -91 0 -6 16 -10 35 -10 19 0 35 -2 35 -5 0 -3 -20 -36 -44 -73 -253 -390 -480 -898 -611 -1366 -113 -408 -163 -747 -172 -1171 -12 -558 59 -1047 227 -1563 l51 -159 -60 -199 c-120 -399 -178 -649 -255 -1104 -72 -425 -103 -779 -112 -1275 -23 -1164 156 -2383 542 -3710 128 -439 346 -1063 504 -1445 50 -120 176 -413 206 -478 19 -41 34 -75 34 -77 0 -2 27 -61 61 -132 34 -70 82 -171 106 -223 191 -401 556 -1039 828 -1450 418 -629 731 -1020 1215 -1514 201 -205 371 -355 688 -609 365 -292 530 -409 1252 -886 504 -332 508 -335 305 -181 -400 304 -662 540 -1023 923 -241 255 -368 400 -564 647 -77 96 -170 211 -207 255 -198 234 -418 517 -579 745 -53 74 -128 180 -167 235 -434 607 -831 1270 -1192 1990 -75 149 -243 508 -300 640 -110 254 -219 519 -263 640 -10 28 -28 75 -40 105 -104 268 -297 853 -394 1195 -100 356 -237 934 -292 1235 -42 235 -57 321 -84 500 -91 610 -128 1074 -137 1725 -5 452 6 831 37 1240 16 204 69 717 78 750 8 30 8 30 42 -35 178 -349 498 -736 750 -906 184 -124 296 -185 421 -230 67 -24 123 -44 124 -46 1 -2 9 -17 18 -34 55 -108 224 -194 381 -194 101 0 217 53 261 120 l20 30 126 0 c405 0 943 107 1604 320 528 169 1100 405 1755 722 190 93 285 141 615 318 545 292 1079 649 1432 960 101 88 186 160 190 160 5 0 49 -18 98 -39 197 -85 442 -128 674 -118 233 10 437 62 657 167 466 222 740 566 770 968 5 67 1 116 -15 211 -12 68 -20 125 -19 126 2 2 37 20 78 40 84 42 172 99 243 158 26 21 53 37 60 34 14 -5 96 -158 127 -237 109 -281 154 -486 185 -835 37 -428 55 -560 102 -740 64 -246 165 -446 323 -640 64 -78 188 -198 256 -247 24 -17 44 -34 44 -38 0 -4 -12 -17 -26 -31 -51 -48 -163 -186 -228 -281 -116 -172 -215 -403 -257 -597 -29 -139 -37 -391 -15 -536 73 -485 389 -1017 796 -1340 41 -33 78 -64 82 -70 4 -5 8 -51 8 -102 0 -50 12 -212 26 -360 14 -147 31 -335 39 -418 l13 -150 -43 -105 c-157 -385 -359 -709 -599 -958 -91 -95 -226 -226 -296 -288 -660 -586 -2295 -1533 -3645 -2112 -763 -327 -1396 -543 -2190 -747 -124 -32 -596 -132 -735 -155 -495 -84 -988 -132 -1385 -134 -143 0 -249 -2 -235 -4 14 -2 126 -19 250 -38 461 -71 883 -99 1392 -91 396 6 594 23 988 82 259 39 762 163 1040 255 602 200 1109 412 1760 735 329 164 1035 550 1160 635 14 10 108 68 210 130 868 531 1516 1053 1890 1520 187 233 341 498 426 730 21 58 39 107 41 109 7 10 12 -11 28 -129 9 -69 30 -195 45 -280 16 -85 33 -180 38 -210 9 -53 9 -53 11 -15 0 22 12 103 26 180 58 322 74 560 56 820 -21 297 -53 527 -121 866 -10 53 -20 100 -21 105 -4 23 4 23 49 0 85 -43 235 -94 353 -120 101 -23 140 -26 290 -26 159 0 184 3 293 30 66 16 122 28 124 25 2 -2 -2 -66 -9 -142 -7 -76 -12 -246 -12 -378 1 -420 38 -683 139 -985 23 -69 212 -426 220 -417 2 2 0 57 -6 123 -5 65 -10 160 -10 209 0 98 -11 225 -41 465 -11 85 -31 254 -44 375 -14 121 -27 235 -29 253 -6 44 9 41 57 -10 52 -57 110 -143 252 -378 354 -585 626 -945 1025 -1354 641 -656 1525 -1275 2560 -1792 575 -287 1043 -475 1618 -650 540 -164 1144 -279 1702 -324 919 -74 1766 3 2685 244 216 57 628 207 848 310 198 93 228 105 222 96 -7 -12 -136 -92 -360 -222 -99 -58 -254 -150 -345 -205 -91 -55 -241 -141 -335 -193 -93 -51 -255 -141 -360 -200 -362 -204 -956 -509 -1290 -662 -150 -69 -173 -74 -400 -87 -93 -6 -244 -16 -335 -22 -202 -14 -737 -5 -1000 16 -758 62 -1587 253 -2378 549 -1310 490 -2395 1164 -3192 1982 -263 270 -632 705 -919 1082 -74 97 -97 105 -94 29 3 -98 178 -394 432 -732 581 -774 1303 -1447 2081 -1942 1367 -869 2937 -1363 4348 -1366 211 -1 249 -3 229 -13 -48 -26 -679 -232 -942 -309 -280 -82 -789 -216 -1005 -265 -47 -10 -146 -33 -220 -50 -533 -123 -1386 -283 -1911 -359 -74 -11 -197 -29 -274 -40 -389 -57 -896 -116 -1325 -156 -346 -32 -1001 -77 -1009 -70 -4 5 34 367 49 470 11 68 33 422 51 810 24 515 -20 1747 -91 2540 -37 408 -80 769 -95 783 -7 7 -25 -46 -40 -118 -34 -162 -38 -348 -39 -1760 -1 -1549 7 -1832 69 -2549 9 -95 14 -176 11 -178 -14 -15 -1132 -44 -1167 -31 -12 5 -13 43 -2 264 7 143 16 320 21 394 9 153 -10 1081 -28 1315 -46 625 -57 763 -70 880 -5 50 -17 160 -26 245 -17 166 -96 799 -120 965 -8 55 -21 150 -29 210 -7 61 -19 133 -24 160 -6 28 -12 68 -15 90 -2 22 -2 13 0 -20 9 -123 14 -1906 6 -2340 -8 -537 2 -1220 23 -1435 16 -165 32 -301 65 -550 11 -85 20 -161 20 -167 0 -16 -231 -17 -610 -3 -1596 60 -3088 226 -4835 539 -656 117 -1485 311 -1997 467 -44 13 -7 21 128 28 694 31 1718 238 2552 515 791 264 1550 635 2337 1144 780 504 1420 1032 1965 1622 273 296 561 671 804 1050 11 16 -68 -60 -176 -170 -107 -110 -285 -283 -394 -385 -109 -102 -241 -226 -294 -276 -135 -130 -314 -291 -470 -426 -74 -64 -171 -147 -215 -185 -151 -131 -460 -378 -680 -544 -1199 -902 -2272 -1453 -3515 -1804 -670 -190 -1279 -309 -1910 -374 -248 -26 -561 -45 -607 -38 -48 8 -381 134 -593 224 -486 208 -957 471 -1365 764 -50 35 -103 72 -120 82 -60 37 364 -372 495 -477 210 -168 510 -361 775 -500 61 -32 115 -63 120 -68 27 -27 -487 50 -660 98 l-20 6 20 -15 c66 -49 481 -151 793 -196 79 -12 157 -28 174 -37 49 -25 457 -194 633 -261 107 -42 592 -204 735 -247 1265 -378 2773 -662 4540 -855 813 -89 1578 -141 2397 -163 50 -2 95 -7 99 -11 5 -5 19 -56 31 -115 l22 -107 -6 111 -6 111 589 6 c879 9 1507 44 2334 128 1354 137 2855 411 3995 731 1021 285 1814 587 2658 1009 889 445 1663 989 2272 1596 132 132 285 287 339 346 55 59 101 105 104 103 9 -10 -201 -474 -373 -821 -244 -492 -363 -708 -719 -1298 -99 -163 -430 -648 -615 -902 -184 -252 -421 -550 -596 -750 -48 -55 -113 -129 -144 -165 -504 -579 -1039 -1110 -1491 -1481 -239 -196 -267 -214 -477 -308 -190 -85 -391 -168 -593 -246 -52 -20 -187 -72 -300 -117 -231 -90 -334 -128 -635 -233 -115 -40 -302 -105 -415 -145 -113 -39 -386 -127 -607 -195 -1300 -402 -2218 -599 -3378 -724 -710 -77 -1721 -92 -2475 -36 -1468 109 -2787 414 -4170 965 -85 34 -180 72 -210 85 -30 13 -102 44 -160 69 -529 223 -1218 572 -1690 856 -501 301 -851 560 -1285 949 -367 330 -365 328 -331 276 144 -221 260 -360 506 -606 863 -866 1932 -1568 3215 -2111 294 -125 620 -248 925 -351 894 -300 1757 -497 2675 -611 1353 -169 2777 -128 4156 119 362 64 752 150 1094 241 1037 274 2021 664 2920 1159 264 145 717 433 980 622 77 55 187 131 245 168 460 297 667 447 1020 739 668 553 1179 1074 1721 1756 303 382 727 1021 987 1490 165 298 360 680 467 915 209 461 303 687 447 1080 240 658 408 1239 553 1916 247 1161 338 2444 265 3759 -51 925 -183 1936 -350 2675 -11 50 -27 119 -34 155 -23 105 -82 315 -126 449 -39 120 -40 128 -40 260 0 531 -115 1186 -313 1791 -267 812 -777 1752 -1225 2257 -65 72 -103 102 -82 64 15 -30 147 -250 252 -421 114 -188 228 -388 228 -402 0 -5 -3 -8 -7 -6 -204 104 -402 156 -718 190 -143 15 -573 14 -760 -2 -252 -22 -555 -68 -755 -116 -657 -156 -1166 -405 -1595 -778 -96 -83 -277 -267 -345 -351 -34 -41 -78 -78 -137 -115 -48 -30 -185 -117 -303 -193 -225 -144 -407 -241 -475 -252 l-40 -7 56 35 c283 175 498 341 778 600 242 224 548 592 741 891 131 206 254 417 339 586 81 160 241 502 241 514 0 3 11 29 25 58 35 76 154 395 218 588 149 441 262 898 336 1350 57 346 71 475 70 630 l0 135 -18 -60 c-10 -33 -41 -134 -68 -225 -28 -91 -65 -214 -83 -275 -180 -619 -439 -1255 -767 -1880 -175 -334 -251 -468 -516 -910 -140 -234 -484 -754 -618 -935 -47 -63 -132 -178 -189 -255 -95 -129 -329 -418 -424 -525 -113 -127 -252 -273 -267 -280 -11 -7 -41 1 -100 26 -128 54 -269 92 -407 111 -108 14 -141 15 -236 4 -202 -22 -361 -94 -485 -219 l-73 -74 -92 89 c-327 322 -854 562 -1436 655 -74 12 -139 25 -144 29 -5 4 17 15 49 24 136 40 540 236 731 356 336 209 488 320 824 599 191 158 604 563 767 750 712 822 1254 1762 1561 2710 145 447 232 879 307 1529 14 124 27 227 29 229 5 5 146 -84 266 -166 674 -466 1316 -1100 1891 -1868 171 -230 387 -548 669 -986 57 -90 153 -239 214 -333 60 -93 141 -219 180 -280 39 -60 103 -173 144 -250 83 -159 83 -154 12 110 -72 265 -117 397 -214 624 -127 298 -218 471 -412 792 -168 277 -415 612 -664 904 -171 201 -557 597 -727 747 -29 25 -53 49 -53 52 0 3 24 6 53 6 56 0 139 33 169 66 10 11 27 42 39 69 41 93 13 240 -62 314 -53 54 -90 65 -201 64 l-98 -2 -19 63 c-21 67 -28 116 -62 391 -32 267 -71 432 -134 571 -121 266 -332 453 -562 499 -38 8 -41 21 -18 85 42 118 59 259 60 480 0 227 -10 308 -57 445 -88 258 -278 454 -479 495 -55 11 -57 12 -64 48 -24 135 -113 307 -209 408 -60 63 -63 69 -59 105 3 21 0 82 -7 136 -28 224 -130 434 -254 523 l-43 31 -12 147 c-26 332 -101 509 -341 807 -22 28 -45 65 -51 84 -21 63 -4 246 45 484 85 406 90 457 91 847 0 353 -5 431 -46 675 -68 409 -227 856 -366 1033 -25 31 -43 48 -40 37 4 -11 18 -58 32 -105 43 -138 141 -575 195 -860 51 -277 63 -414 57 -710 -5 -313 -20 -412 -117 -795 -74 -294 -90 -381 -90 -504 0 -164 22 -217 165 -396 97 -121 173 -266 200 -383 25 -105 18 -297 -13 -366 -34 -75 -37 -116 -14 -168 21 -49 56 -78 114 -97 21 -7 49 -26 63 -43 76 -91 115 -294 81 -419 -11 -39 -15 -75 -11 -98 9 -52 49 -108 94 -130 60 -31 98 -68 136 -132 46 -79 65 -149 74 -274 7 -91 11 -108 35 -139 51 -68 135 -87 217 -51 40 18 41 18 77 -1 58 -30 158 -130 211 -210 96 -142 127 -274 118 -499 -8 -212 -35 -328 -160 -690 -25 -71 -55 -166 -67 -210 -12 -44 -28 -92 -36 -107 -9 -16 -14 -28 -12 -28 2 0 25 8 52 19 111 42 230 159 303 298 16 29 34 53 41 53 19 0 109 -47 172 -90 69 -47 176 -158 222 -230 68 -106 108 -237 123 -400 4 -41 1 -178 -6 -303 -15 -262 -7 -342 41 -442 16 -33 27 -61 26 -63 -2 -1 -67 45 -144 102 -488 364 -984 640 -1522 847 l-125 48 4 75 c5 106 -6 102 -84 -29 -9 -15 -19 -14 -115 18 -315 105 -665 190 -900 216 -52 7 -114 14 -137 17 l-43 5 0 73 c0 279 -227 570 -500 641 -92 24 -254 16 -330 -15 -62 -26 -176 -98 -204 -129 -35 -38 -33 -41 -137 154 -242 452 -425 1209 -454 1882 -3 70 -8 140 -10 156 -3 15 -1 27 3 27 4 0 29 -30 56 -66 132 -179 369 -288 657 -301 294 -14 571 62 822 223 80 51 236 203 284 275 89 134 153 292 187 460 54 266 33 644 -49 872 -78 215 -215 375 -371 432 -27 10 -53 22 -58 26 -5 4 23 47 61 96 272 342 494 773 628 1223 91 305 130 590 122 895 -7 289 -42 470 -124 643 -42 88 -149 204 -220 237 -24 11 -43 23 -43 26 0 3 24 16 53 29 117 53 217 196 269 385 30 111 33 365 4 470 -41 151 -125 313 -228 436 -45 55 -146 145 -185 168 -26 14 -16 19 62 31 141 22 297 88 413 175 65 49 150 143 177 195 14 28 11 26 -47 -18 -71 -54 -199 -122 -273 -146 -143 -46 -233 -56 -700 -81 l-110 -6 3 83 c4 100 -27 235 -82 353 -20 43 -36 81 -36 84 0 4 30 5 66 3 101 -7 278 16 384 50 382 121 695 412 811 753 l24 70 8 -145 c7 -133 2 -794 -8 -977 -2 -43 -7 -127 -10 -188 -22 -420 -87 -1027 -150 -1393 -32 -191 -47 -258 -85 -369 l-29 -88 30 35 c88 103 208 310 257 445 140 382 207 762 254 1450 20 292 17 1333 -5 1635 -52 710 -117 1173 -253 1775 -233 1039 -663 2146 -1227 3160 -462 831 -1078 1716 -1766 2540 -670 802 -1305 1402 -2084 1973 -275 201 -641 438 -814 526 -55 28 -115 76 -354 286 -180 158 -220 190 -242 190 -24 0 -21 -38 7 -83 36 -59 147 -178 280 -300 188 -173 282 -230 404 -243 l57 -7 -24 27 c-48 52 -12 34 115 -57 356 -254 845 -653 917 -747 135 -177 291 -514 380 -820 119 -412 169 -781 170 -1265 0 -281 -10 -432 -49 -705 -59 -420 -163 -773 -323 -1105 -188 -389 -408 -639 -776 -885 -162 -108 -405 -278 -478 -335 l-69 -53 -412 -7 c-278 -5 -478 -4 -616 4 -228 13 -204 5 -325 107 -27 23 -99 75 -160 116 -465 315 -581 410 -750 613 -161 192 -318 493 -426 816 -282 844 -287 1953 -14 2784 100 302 241 591 365 747 57 72 425 377 710 589 187 140 410 292 417 285 4 -3 -8 -24 -26 -46 -17 -22 -25 -37 -18 -34 12 4 15 -12 19 -80 4 -72 10 -96 41 -158 77 -157 230 -260 436 -294 235 -38 449 18 588 154 96 95 140 229 110 337 l-14 50 -12 -30 c-28 -72 -51 -105 -126 -180 -49 -49 -103 -93 -140 -112 -174 -91 -427 -94 -601 -8 -123 60 -227 194 -240 311 l-6 50 55 36 55 37 4 -78 c3 -60 11 -88 33 -130 96 -175 360 -280 570 -226 112 29 210 120 243 225 17 54 24 132 14 165 l-10 30 -15 -35 c-23 -53 -99 -152 -144 -187 -154 -123 -436 -87 -582 73 -47 51 -81 123 -81 168 0 13 36 57 95 116 53 52 118 127 144 165 59 85 114 192 106 205 -10 17 -33 11 -50 -12z m-1873 -1680 c-87 -136 -189 -340 -245 -493 -63 -172 -81 -231 -122 -397 -132 -533 -173 -1121 -119 -1713 89 -990 405 -1713 913 -2092 169 -125 339 -207 541 -259 52 -13 101 -27 109 -29 11 -4 2 -19 -30 -53 -223 -234 -384 -613 -406 -954 -3 -49 -10 -88 -15 -88 -5 0 -46 10 -91 22 -104 28 -289 30 -386 4 -280 -75 -553 -355 -641 -656 -12 -41 -23 -81 -26 -88 -2 -8 -20 -1 -56 22 -75 47 -142 80 -222 107 -81 28 -82 29 -102 184 -36 274 45 532 226 716 122 123 195 153 421 173 129 12 143 12 177 -5 22 -11 48 -16 64 -12 30 6 28 23 -2 23 -60 0 -151 237 -166 433 -15 189 28 289 205 483 31 33 64 75 74 92 l18 32 -28 0 c-91 0 -275 -159 -339 -293 -61 -128 -58 -283 8 -485 17 -51 29 -94 27 -96 -2 -2 -26 0 -54 4 -27 5 -73 9 -102 9 -50 1 -52 3 -100 59 -115 133 -421 566 -543 766 -118 195 -249 482 -329 724 -219 661 -260 1567 -101 2247 43 184 45 188 150 313 53 65 106 126 116 137 11 12 48 54 84 95 69 81 96 110 297 325 246 263 820 822 831 810 3 -2 -13 -33 -36 -67z m4502 -383 c351 -350 877 -932 943 -1043 40 -68 96 -330 130 -612 25 -205 25 -792 0 -1000 -96 -801 -325 -1354 -851 -2055 -49 -66 -113 -151 -142 -190 -29 -38 -68 -85 -87 -104 -32 -30 -42 -34 -104 -36 -37 -2 -85 -6 -106 -10 l-37 -7 20 47 c61 143 87 361 56 469 -36 122 -131 245 -250 321 -49 31 -136 57 -136 41 0 -16 55 -91 116 -158 132 -145 174 -238 174 -383 0 -202 -95 -483 -167 -493 -29 -4 -30 -19 -3 -27 12 -4 37 1 59 12 36 18 47 18 174 7 143 -14 190 -23 260 -53 109 -47 235 -178 304 -316 83 -163 112 -373 79 -563 -20 -114 -27 -128 -66 -135 -52 -11 -176 -67 -241 -108 -34 -22 -64 -37 -67 -34 -3 3 -14 37 -23 75 -52 202 -194 405 -384 547 -76 57 -150 95 -245 125 -104 32 -287 32 -407 0 -45 -12 -83 -22 -86 -22 -2 0 -7 40 -10 89 -24 330 -181 714 -387 944 -29 32 -50 60 -48 62 3 3 61 20 129 39 210 58 279 90 479 221 238 157 458 422 614 739 195 396 321 909 366 1485 13 170 13 630 0 821 -44 648 -215 1248 -475 1665 -25 39 -45 75 -45 79 0 13 208 -183 464 -439z m-5979 -1214 c-80 -228 -136 -485 -171 -776 -28 -230 -26 -750 4 -975 53 -393 156 -764 293 -1058 21 -46 39 -86 39 -89 0 -11 129 -238 187 -327 133 -205 330 -409 505 -524 107 -70 116 -78 96 -86 -195 -77 -320 -185 -424 -370 -45 -80 -96 -218 -109 -293 -4 -24 -10 -43 -14 -43 -11 0 -294 300 -382 405 -318 380 -548 787 -713 1263 -80 227 -136 468 -171 727 -30 223 -36 668 -11 880 10 92 -53 -115 -75 -244 -56 -328 -62 -653 -18 -956 114 -782 545 -1614 1041 -2007 56 -45 257 -156 309 -171 11 -4 18 -31 27 -110 7 -57 23 -137 37 -178 23 -71 24 -96 3 -83 -20 13 -254 5 -330 -11 -143 -29 -241 -73 -362 -160 l-79 -56 -177 178 c-443 447 -594 634 -785 973 -185 326 -310 714 -344 1064 -14 145 -13 421 3 523 6 46 9 80 5 75 -27 -28 -75 -298 -88 -497 -18 -275 19 -615 94 -875 194 -671 669 -1267 1153 -1445 l103 -38 -29 -31 c-86 -92 -176 -247 -221 -381 -83 -247 -79 -482 11 -672 16 -35 28 -65 27 -66 -2 -1 -38 -19 -79 -39 -232 -116 -483 -397 -579 -647 -54 -143 -66 -205 -65 -351 0 -162 23 -265 90 -409 24 -51 44 -98 44 -102 0 -5 -10 -9 -22 -9 -36 0 -177 -62 -243 -105 -33 -22 -93 -73 -134 -112 -41 -40 -81 -73 -90 -73 -24 0 -261 58 -396 97 -203 60 -337 119 -494 220 -162 105 -379 312 -444 424 l-25 44 14 263 c7 145 18 312 24 370 5 59 10 110 10 115 0 21 20 1 44 -45 96 -185 291 -405 490 -553 148 -109 352 -210 502 -249 90 -23 245 -36 355 -29 97 6 116 14 62 28 -16 3 -48 19 -73 35 -25 15 -110 60 -190 100 -328 163 -410 206 -520 276 -253 160 -506 400 -617 586 l-33 54 20 159 c41 326 134 863 159 920 l9 20 7 -20 c139 -377 311 -653 569 -911 311 -310 566 -433 935 -449 l116 -5 -50 18 c-69 26 -148 67 -225 117 -36 23 -94 59 -130 80 -115 68 -342 230 -430 307 -231 202 -425 436 -579 696 -74 124 -161 304 -168 347 -10 61 123 545 267 978 50 148 94 275 98 283 5 9 15 -44 26 -133 33 -276 105 -527 217 -763 102 -212 182 -342 313 -505 108 -134 202 -226 332 -324 124 -93 202 -133 359 -184 92 -30 265 -70 265 -61 0 2 -21 18 -47 35 -149 102 -574 501 -716 673 -344 414 -564 879 -646 1363 l-21 123 39 97 c70 177 120 295 231 548 107 245 389 804 544 1080 81 144 87 154 227 390 240 406 606 950 898 1335 158 209 334 430 342 430 5 0 -7 -45 -26 -99z m7067 -3 c536 -676 1070 -1488 1457 -2218 46 -85 89 -166 97 -180 31 -53 174 -343 256 -520 118 -253 184 -405 289 -664 99 -245 94 -214 57 -406 -98 -511 -378 -1034 -774 -1449 -146 -153 -478 -448 -589 -523 -36 -24 -50 -37 -35 -33 14 3 63 12 109 20 101 17 99 17 231 67 284 109 584 391 801 754 106 175 157 285 233 494 53 150 102 383 113 543 4 52 10 86 16 84 27 -9 220 -628 323 -1035 l54 -212 -21 -53 c-22 -57 -115 -236 -172 -333 -140 -237 -397 -534 -612 -706 -194 -155 -609 -413 -745 -464 -33 -12 -31 -13 52 -13 265 -2 500 80 743 261 318 236 614 639 754 1025 14 39 31 72 36 71 24 0 145 -720 171 -1020 l7 -76 -46 -69 c-85 -125 -249 -294 -407 -419 -147 -116 -436 -286 -589 -347 -23 -10 -104 -49 -179 -89 -75 -39 -161 -83 -190 -98 l-54 -27 79 -9 c314 -35 657 88 964 345 158 131 289 286 387 454 29 50 48 74 52 65 8 -15 25 -233 41 -529 l11 -207 -27 -51 c-34 -62 -178 -217 -283 -304 -207 -172 -423 -277 -742 -361 -140 -36 -322 -78 -325 -74 -2 2 -42 40 -89 85 -98 94 -204 160 -309 193 -40 13 -74 25 -76 26 -2 2 14 41 36 86 138 285 137 580 -3 859 -120 242 -371 497 -571 584 -24 10 -43 22 -43 27 0 5 11 31 25 58 14 27 35 84 47 127 31 110 31 320 -1 442 -46 176 -118 324 -221 452 -28 34 -47 65 -43 69 5 3 33 14 63 24 363 120 737 487 993 976 173 330 260 643 289 1038 18 253 -15 612 -73 780 -13 38 -18 46 -14 22 56 -347 8 -800 -127 -1189 -97 -281 -310 -654 -526 -922 -156 -194 -628 -679 -661 -679 -6 0 -39 21 -73 46 -90 66 -207 122 -317 152 -81 21 -119 25 -243 26 -95 0 -148 4 -148 11 0 5 9 36 20 68 20 60 34 131 45 230 4 31 11 57 17 57 22 0 232 111 295 156 106 75 292 267 394 406 275 372 484 808 603 1259 127 484 137 1006 27 1454 -32 128 -76 240 -51 128 31 -135 30 -617 0 -863 -58 -470 -204 -921 -437 -1355 -183 -339 -397 -625 -704 -939 l-145 -149 -22 90 c-47 190 -117 317 -247 449 -73 74 -106 99 -174 133 -46 22 -90 41 -97 41 -30 0 -9 19 99 91 365 241 679 706 868 1284 109 334 165 634 189 1030 28 454 -42 1007 -179 1410 -23 65 -41 120 -41 122 0 11 18 -8 82 -89z m-4215 -3424 c125 -36 288 -55 508 -61 240 -6 417 11 575 57 96 27 118 30 252 30 l146 0 45 -50 c135 -150 224 -366 258 -627 17 -130 6 -390 -21 -517 -35 -165 -116 -348 -202 -460 -148 -191 -310 -317 -618 -481 -91 -48 -195 -106 -233 -128 l-67 -39 -83 50 c-46 28 -92 55 -103 59 -58 24 -255 137 -364 209 -374 247 -552 548 -590 995 -17 199 1 369 61 563 52 167 138 317 229 400 48 43 58 43 207 0z m-1065 -1274 c40 -6 133 -26 207 -44 l135 -32 17 -70 c119 -482 513 -875 1029 -1025 106 -31 469 -40 581 -14 226 51 415 142 610 297 239 188 411 447 479 719 l21 85 162 39 c191 46 313 52 407 21 194 -64 360 -234 450 -460 39 -97 42 -158 11 -241 -18 -47 -20 -64 -12 -78 13 -19 9 -30 -22 -64 l-20 -23 27 0 c46 0 85 28 116 84 l30 53 118 41 c355 124 550 155 734 117 90 -18 216 -79 284 -137 243 -206 376 -633 283 -908 -27 -81 -34 -90 -70 -90 -39 0 -189 -62 -189 -77 0 -7 8 -13 18 -13 36 0 358 -170 442 -234 108 -81 261 -239 325 -336 65 -99 119 -225 140 -330 31 -149 10 -365 -49 -517 -22 -57 -23 -58 -86 -80 -96 -33 -136 -90 -109 -154 15 -38 64 -74 150 -113 262 -118 325 -156 445 -268 115 -108 231 -285 249 -380 l7 -37 -39 -3 -38 -4 33 -13 c40 -16 42 -43 7 -95 l-26 -38 33 7 c31 7 30 5 -22 -34 -113 -86 -180 -188 -194 -298 -4 -29 -4 -53 0 -53 12 0 159 83 229 130 262 176 412 173 595 -10 119 -119 217 -284 257 -430 24 -86 23 -251 0 -340 -27 -101 -81 -205 -137 -264 -53 -56 -151 -116 -191 -116 -22 -1 -23 -2 -6 -14 9 -7 17 -15 17 -18 0 -3 -57 -8 -127 -11 -298 -12 -460 -124 -601 -414 -58 -119 -57 -120 -67 72 -42 863 -321 1925 -723 2745 -57 118 -127 256 -155 305 -27 50 -74 135 -105 190 -102 183 -396 605 -649 932 -65 83 -140 184 -168 224 -64 92 -235 271 -339 355 -142 114 -283 199 -420 254 -267 106 -536 77 -845 -92 -69 -38 -128 -76 -476 -313 -218 -148 -383 -217 -590 -244 -282 -38 -343 -44 -460 -44 -194 -1 -546 47 -688 94 -125 41 -235 101 -412 226 -260 183 -404 274 -529 334 -172 82 -242 100 -411 106 -124 5 -150 3 -225 -17 -300 -80 -674 -355 -885 -651 -32 -46 -104 -142 -160 -213 -174 -224 -214 -277 -324 -431 -258 -361 -397 -594 -600 -1005 -351 -710 -613 -1603 -705 -2410 -15 -131 -36 -391 -36 -457 0 -48 -12 -40 -38 25 -70 172 -201 330 -323 389 -96 47 -169 64 -301 70 -116 6 -135 12 -100 32 15 9 15 10 -6 11 -41 0 -146 61 -195 112 -100 106 -152 258 -151 443 0 104 4 130 28 200 71 207 231 416 380 497 55 30 69 33 141 32 95 0 159 -23 279 -100 142 -90 191 -119 235 -142 l44 -23 -7 57 c-15 131 -132 279 -279 353 -37 19 -67 38 -67 42 0 17 39 9 49 -10 10 -18 89 -61 113 -61 6 0 2 10 -9 23 -52 56 -55 94 -10 110 l32 12 -35 5 c-31 5 -35 8 -33 34 3 40 56 148 109 222 139 196 297 312 584 429 81 33 154 91 164 130 9 34 -16 89 -49 111 -15 10 -51 26 -79 35 -51 17 -51 17 -78 92 -41 115 -62 262 -55 381 10 164 56 297 154 445 69 105 248 286 353 357 106 72 348 195 408 209 18 4 31 12 30 17 -6 17 -149 77 -183 78 -42 0 -50 8 -68 61 -44 130 -47 306 -8 459 12 47 44 130 71 185 121 250 290 389 524 430 167 30 334 4 646 -101 188 -63 188 -63 194 -90 4 -13 26 -44 49 -69 34 -35 51 -45 76 -45 l32 0 -27 35 c-22 29 -24 38 -14 50 14 17 5 63 -27 137 -15 35 -15 43 2 104 61 228 239 444 426 520 98 40 173 49 281 34z m-366 -1380 c152 -39 290 -123 599 -370 347 -276 537 -386 765 -440 296 -70 515 -12 653 174 l51 69 36 -44 c145 -181 273 -239 504 -226 156 8 315 54 472 138 146 78 262 159 514 359 268 213 432 308 581 337 195 37 404 -24 645 -186 115 -78 158 -114 276 -232 153 -153 225 -285 200 -366 -8 -25 -7 -33 3 -33 21 0 38 56 33 114 -4 53 -4 54 13 32 50 -63 308 -560 404 -776 20 -47 62 -137 92 -200 100 -208 173 -371 240 -534 36 -89 94 -229 129 -313 270 -650 495 -1424 593 -2043 61 -383 79 -586 112 -1240 6 -124 13 -228 16 -232 18 -30 37 18 52 132 17 129 21 188 31 447 l9 253 58 87 c32 49 98 129 148 179 75 75 105 98 176 133 76 36 100 43 198 53 185 19 285 -13 354 -114 48 -69 82 -159 109 -283 30 -135 32 -472 5 -640 -91 -558 -385 -1140 -863 -1709 -60 -71 -140 -166 -177 -210 -37 -45 -108 -142 -158 -216 l-90 -135 56 -3 c70 -4 213 35 285 78 28 17 55 30 59 30 5 0 25 -18 46 -41 111 -123 149 -364 81 -516 -88 -195 -355 -291 -659 -238 -138 24 -287 89 -287 126 0 9 17 54 39 100 94 205 239 596 305 824 134 463 186 810 186 1247 0 124 -3 187 -10 183 -5 -3 -10 -30 -10 -59 0 -128 -46 -431 -105 -686 -113 -493 -338 -1053 -654 -1625 -80 -144 -91 -159 -91 -128 0 26 -10 53 -19 53 -14 0 -51 -95 -71 -181 -21 -95 -47 -141 -243 -433 -392 -583 -817 -1055 -1362 -1509 -136 -113 -562 -434 -735 -552 -63 -44 -164 -118 -225 -165 -159 -123 -182 -140 -194 -140 -7 0 -11 24 -11 60 0 66 -11 76 -30 30 -17 -40 -167 -182 -263 -248 -43 -30 -115 -71 -160 -92 -98 -46 -248 -92 -261 -80 -5 5 -17 5 -26 0 -35 -19 -363 -31 -538 -20 -298 18 -368 32 -528 111 -151 74 -374 260 -408 339 -17 42 -27 26 -29 -45 -1 -30 -4 -55 -7 -55 -3 0 -71 51 -150 113 -80 61 -197 148 -259 192 -182 127 -564 416 -706 534 -605 502 -1060 1023 -1504 1719 -98 154 -112 183 -126 250 -23 105 -31 131 -57 172 l-23 35 -5 -50 -5 -50 -37 65 c-175 309 -338 648 -461 961 -198 505 -301 935 -342 1434 -14 160 -14 160 -9 -190 2 -192 8 -379 13 -415 30 -212 43 -290 72 -420 70 -325 204 -732 358 -1091 39 -91 71 -169 71 -172 0 -11 -72 -52 -130 -75 -103 -40 -198 -57 -320 -56 -241 2 -408 81 -489 233 -86 161 -41 435 92 560 l25 23 43 -27 c23 -15 74 -38 113 -52 71 -24 223 -45 232 -32 2 4 -20 46 -49 94 -50 83 -150 213 -391 506 -449 545 -733 1121 -823 1670 -22 131 -24 468 -5 579 44 247 112 379 226 437 46 24 61 27 166 26 203 0 310 -44 451 -183 79 -78 161 -186 203 -267 13 -25 16 -63 17 -180 1 -247 29 -604 50 -645 13 -25 28 -22 34 5 2 12 9 117 15 232 41 810 106 1287 256 1878 100 391 270 906 422 1277 103 253 199 483 227 545 15 33 34 76 42 95 9 19 62 132 118 250 56 118 112 235 123 260 42 95 159 331 230 465 69 130 181 325 187 325 2 0 2 -29 1 -65 -1 -53 3 -68 20 -85 l21 -21 -5 53 c-6 75 24 146 103 245 167 209 450 415 669 488 151 50 255 57 382 25z m-4038 -6497 c151 -402 329 -730 546 -1007 43 -54 74 -102 69 -105 -4 -4 -37 -20 -73 -34 -181 -75 -329 -277 -391 -532 -82 -336 -58 -751 58 -1025 60 -141 114 -223 221 -334 365 -380 1069 -490 1472 -231 115 74 218 194 266 313 12 29 25 54 30 55 4 1 34 -42 66 -95 55 -91 61 -106 83 -225 14 -69 32 -217 41 -327 14 -173 15 -239 5 -485 -7 -173 -19 -336 -30 -412 -44 -284 -128 -592 -246 -894 -23 -60 -52 -144 -64 -185 -26 -93 -94 -273 -116 -306 l-16 -25 -92 84 c-109 98 -167 139 -243 173 -277 122 -565 -36 -688 -379 l-22 -62 -79 -2 c-308 -8 -629 -59 -943 -149 -68 -19 -129 -33 -135 -31 -6 2 -19 28 -29 58 l-18 54 4 -62 c5 -71 3 -73 -74 -98 -68 -22 -343 -133 -425 -170 -281 -130 -517 -254 -740 -388 -214 -129 -539 -349 -693 -469 -35 -27 -66 -48 -68 -45 -2 2 5 24 15 48 49 110 37 194 -58 397 -73 158 -86 209 -85 347 1 127 22 250 65 371 29 83 95 234 101 234 2 0 23 -27 47 -60 52 -71 145 -150 219 -187 43 -21 72 -27 151 -31 83 -4 110 -1 187 21 49 14 107 29 129 33 l40 7 -67 17 c-87 21 -151 66 -254 178 -116 125 -179 230 -213 355 -14 47 -13 48 23 102 20 30 33 55 30 55 -4 0 -22 -10 -41 -21 -19 -12 -36 -20 -38 -17 -11 11 -25 148 -25 253 0 272 73 447 262 631 183 179 407 316 593 364 61 16 106 21 190 19 205 -4 230 1 274 57 53 67 48 143 -17 252 -54 89 -62 112 -62 181 0 74 44 165 103 217 23 20 95 63 160 95 213 108 253 185 212 419 -41 238 -37 392 16 575 65 226 123 324 303 513 154 162 169 190 174 332 5 119 -22 273 -83 488 -53 188 -74 270 -95 382 -26 133 -37 387 -21 490 15 94 61 261 71 255 4 -3 12 -17 18 -32z m833 -1310 c32 -27 59 -50 59 -53 -1 -3 -25 -22 -56 -43 -137 -96 -214 -262 -214 -466 0 -167 60 -311 180 -432 82 -83 188 -144 305 -175 95 -25 287 -30 379 -10 147 33 284 126 332 226 10 22 22 39 25 37 12 -4 209 -401 209 -421 0 -47 -52 -186 -87 -233 -77 -104 -214 -162 -433 -183 -358 -35 -690 67 -887 273 -163 169 -226 362 -226 692 0 268 31 425 119 595 53 103 120 182 183 215 25 13 48 24 50 25 2 0 30 -21 62 -47z m10635 -8 c118 -69 224 -260 270 -490 22 -110 30 -379 14 -502 -28 -227 -98 -382 -230 -513 -171 -171 -385 -253 -690 -267 -155 -7 -277 6 -395 42 -123 37 -200 93 -250 182 -25 46 -65 166 -65 197 0 9 48 109 106 222 l107 206 28 -50 c58 -100 176 -183 312 -219 88 -23 270 -23 372 1 231 53 416 213 479 415 33 105 39 180 26 286 -24 175 -87 290 -212 381 l-50 37 53 48 c30 27 60 48 68 49 8 0 33 -11 57 -25z m-1595 -1837 c-28 -195 -36 -342 -36 -668 0 -352 6 -436 46 -689 58 -361 171 -688 312 -904 49 -75 128 -161 216 -233 32 -27 33 -30 28 -85 -6 -70 -59 -193 -152 -357 -129 -226 -274 -432 -337 -479 -159 -118 -839 -485 -1208 -650 -832 -374 -1623 -538 -2510 -520 -897 19 -1676 193 -2575 575 -603 256 -1070 544 -1406 869 -111 108 -239 252 -239 271 0 5 12 7 28 4 l27 -5 -40 49 c-22 27 -45 55 -52 62 -7 7 -13 17 -13 21 0 3 34 31 76 61 102 73 255 235 309 328 112 191 206 483 242 749 25 192 23 578 -6 782 -39 280 -100 534 -167 693 -14 33 -23 62 -20 65 2 3 37 -44 77 -104 92 -137 247 -345 368 -493 351 -427 813 -844 1231 -1110 278 -177 425 -255 670 -353 129 -52 254 -101 278 -108 30 -9 52 -24 74 -53 17 -23 61 -72 97 -109 204 -212 435 -311 711 -306 121 2 181 2 370 -2 301 -6 587 140 785 399 23 31 50 55 65 59 61 14 515 200 605 248 620 328 1196 813 1672 1405 132 164 251 328 375 517 56 84 103 151 105 149 3 -2 0 -37 -6 -78z m1088 -2358 c74 -14 119 -38 169 -89 61 -62 99 -144 137 -295 18 -72 38 -144 44 -159 15 -39 14 -83 -4 -117 -10 -20 -11 -30 -3 -32 25 -9 -156 -353 -295 -560 -385 -576 -905 -1084 -1492 -1456 -483 -306 -1176 -632 -1787 -842 -95 -32 -252 -86 -348 -119 -96 -34 -183 -61 -193 -61 -16 0 -17 6 -10 53 15 101 8 276 -16 367 -62 240 -268 525 -474 658 l-79 50 49 6 c26 3 93 8 148 11 445 24 958 124 1380 267 897 304 1535 766 1971 1428 110 168 317 549 344 635 7 22 16 44 20 48 4 5 34 1 66 -7 33 -8 111 -17 175 -18 l115 -3 -37 35 c-44 43 -115 168 -103 180 10 10 97 27 145 29 15 0 50 -3 78 -9z m-9259 -403 c52 -20 102 -41 110 -46 9 -4 30 -12 48 -16 23 -5 37 -15 44 -33 90 -223 206 -391 413 -597 649 -650 1855 -1211 3029 -1410 116 -20 212 -37 214 -40 2 -2 -9 -11 -25 -21 -122 -75 -180 -127 -256 -229 -199 -266 -282 -675 -206 -1017 104 -476 441 -771 969 -850 287 -43 521 -1 717 128 156 103 263 259 338 494 15 47 30 92 34 100 6 11 39 18 112 27 312 34 449 61 839 164 257 68 687 236 1005 394 505 250 915 532 1277 877 324 308 648 751 861 1174 94 187 206 477 242 623 11 46 25 80 38 90 83 66 118 107 138 163 13 33 27 57 33 54 107 -46 324 -130 581 -227 497 -187 527 -199 519 -218 -3 -9 -51 -146 -106 -306 -140 -406 -152 -440 -188 -530 -320 -800 -819 -1600 -1464 -2350 -354 -411 -841 -892 -1306 -1290 -63 -54 -128 -110 -145 -124 -164 -145 -603 -493 -895 -712 -569 -425 -1062 -741 -1290 -828 l-52 -20 7 22 c17 55 17 187 0 264 -35 159 -99 275 -226 407 l-90 94 36 12 c54 18 75 59 75 145 0 169 -88 317 -264 449 -28 20 -105 64 -172 97 l-123 59 -16 53 c-34 103 -104 198 -195 261 l-45 31 45 5 45 6 -38 17 c-21 9 -51 26 -67 37 -103 73 -430 170 -650 191 -164 16 -503 6 -656 -20 -467 -79 -805 -237 -1279 -596 -93 -71 -242 -184 -331 -251 -223 -169 -398 -284 -626 -413 l-57 -32 -130 158 c-72 87 -165 196 -207 243 -41 47 -112 130 -157 184 -45 55 -114 136 -152 180 -158 181 -500 612 -646 813 -606 837 -1053 1766 -1427 2968 -38 122 -80 258 -139 455 -14 47 -32 104 -39 128 -8 23 -14 46 -14 51 0 29 1040 425 1069 406 4 -2 1 -39 -6 -82 -17 -93 -5 -242 26 -323 22 -57 83 -142 141 -194 26 -24 51 -63 80 -129 232 -530 937 -1204 1805 -1727 204 -123 611 -326 825 -411 379 -151 765 -259 1163 -324 l27 -4 2 129 c1 72 2 138 2 147 1 14 -33 26 -184 64 -555 139 -1122 355 -1571 599 -541 294 -1078 683 -1467 1065 -196 191 -338 361 -489 582 l-35 52 16 108 c8 59 20 147 26 194 28 227 94 378 189 430 58 31 170 22 291 -24z m11316 -495 c188 -81 433 -199 578 -280 83 -46 154 -87 158 -90 4 -4 -2 -32 -13 -62 -32 -88 -94 -331 -134 -520 -52 -250 -139 -599 -186 -747 -50 -158 -111 -325 -116 -319 -3 2 -11 30 -20 63 -20 80 -68 166 -127 231 -83 91 -206 162 -280 162 -18 0 -53 7 -76 15 -108 38 -217 0 -319 -111 -65 -71 -130 -192 -156 -290 -23 -83 -30 -227 -16 -296 18 -86 67 -173 135 -243 105 -107 220 -150 375 -143 78 4 110 11 169 35 39 17 72 29 72 26 0 -11 -118 -233 -201 -379 -181 -314 -211 -364 -221 -364 -5 0 -8 17 -8 38 0 56 -36 185 -71 254 -41 80 -109 152 -177 185 -105 51 -259 28 -312 -47 -27 -38 -25 -66 6 -86 24 -16 30 -16 97 -1 161 38 240 8 303 -115 81 -159 30 -378 -128 -543 -123 -130 -232 -180 -373 -173 -151 8 -223 80 -247 248 -28 200 59 374 209 415 99 27 139 45 162 69 l23 24 -39 26 c-94 62 -280 49 -399 -27 -146 -93 -223 -299 -196 -523 26 -215 116 -359 274 -439 91 -45 162 -59 276 -52 50 3 92 3 92 0 0 -32 -565 -713 -591 -713 -3 0 -9 48 -12 108 -8 133 -21 207 -53 297 -57 160 -133 253 -252 312 -75 38 -77 38 -196 38 -106 0 -128 -3 -174 -24 -83 -37 -133 -107 -118 -164 11 -47 82 -58 228 -35 110 16 171 1 238 -58 126 -114 156 -331 71 -511 -51 -106 -111 -138 -250 -131 -154 7 -279 86 -344 217 -30 62 -32 72 -32 176 0 135 22 220 71 272 l33 35 -35 14 c-27 11 -44 12 -73 4 -133 -36 -225 -206 -224 -415 0 -122 13 -177 61 -275 26 -54 58 -96 112 -150 111 -112 207 -157 387 -183 l86 -13 -119 -111 c-138 -128 -303 -273 -388 -340 l-59 -47 6 35 c17 92 18 144 7 244 -25 233 -113 386 -264 460 -161 79 -349 66 -433 -29 -32 -36 -46 -44 -87 -49 -143 -20 -312 -203 -356 -387 -17 -68 -17 -195 0 -275 49 -240 248 -398 518 -412 56 -3 102 -9 101 -12 -1 -17 -436 -360 -514 -406 l-40 -23 -260 33 c-311 39 -457 66 -585 107 -171 55 -271 110 -353 194 l-48 49 33 -58 c45 -81 89 -130 161 -181 172 -121 381 -198 792 -291 472 -106 628 -148 865 -237 241 -89 538 -249 740 -397 155 -113 382 -322 367 -337 -10 -11 192 -234 361 -397 507 -492 803 -1081 829 -1652 16 -353 -84 -639 -328 -939 -35 -43 -77 -95 -92 -115 -45 -58 -238 -250 -290 -288 -49 -36 -197 -91 -259 -95 -30 -3 -33 0 -31 22 3 24 1 23 -30 -12 -29 -34 -41 -39 -142 -62 -60 -14 -173 -37 -250 -51 -77 -15 -178 -34 -224 -42 -91 -18 -93 -18 -431 27 -80 11 -260 33 -400 50 -643 77 -967 134 -1425 252 -827 212 -1367 475 -1654 803 -71 80 -142 225 -111 225 6 0 48 -22 94 -50 264 -159 594 -263 964 -305 200 -23 508 -17 692 14 74 13 160 26 190 31 30 4 47 8 36 9 -10 0 -105 30 -210 65 -182 62 -383 117 -544 151 -976 202 -1415 456 -1551 899 -20 65 -27 126 -15 126 3 0 24 -13 47 -29 115 -79 447 -223 677 -294 289 -90 508 -137 760 -163 169 -17 248 -16 530 6 210 17 244 19 255 20 6 0 -48 21 -120 46 -417 146 -364 130 -820 249 -1004 260 -1444 499 -1591 864 -32 80 -44 146 -44 250 0 119 23 165 103 205 l57 29 -27 18 c-88 58 -202 9 -264 -112 l-21 -43 -33 70 c-61 131 -169 222 -318 269 -153 49 -293 41 -409 -22 -141 -77 -229 -274 -199 -445 33 -192 168 -307 324 -277 26 4 66 17 90 28 l42 19 -58 1 c-109 0 -181 56 -227 177 -46 123 -32 238 36 314 52 57 105 74 212 67 155 -9 287 -70 359 -165 63 -83 57 -122 -29 -201 -33 -31 -69 -61 -80 -67 -18 -10 -14 -12 27 -17 79 -11 100 -8 161 23 32 16 60 30 62 30 1 0 2 -25 2 -55 0 -68 23 -187 55 -279 34 -97 108 -214 192 -305 l72 -78 -107 -7 c-59 -4 -154 -11 -212 -16 -58 -5 -211 -9 -340 -9 -472 -1 -794 59 -1165 216 -103 44 -294 141 -342 175 -51 34 -53 27 -14 -33 51 -75 100 -127 187 -195 315 -246 751 -374 1329 -391 155 -4 230 -2 335 11 151 19 268 42 319 63 18 8 35 12 38 10 2 -3 6 -38 8 -78 7 -134 49 -284 109 -392 14 -25 26 -48 26 -51 0 -12 -123 -38 -239 -52 -399 -47 -633 -62 -911 -59 -336 4 -514 28 -739 100 -44 14 -13 -13 67 -60 171 -101 485 -173 792 -182 232 -7 396 8 577 53 151 37 192 53 357 135 54 27 100 49 101 49 2 0 26 -30 53 -67 28 -38 89 -105 135 -151 84 -82 85 -83 71 -110 -37 -71 -1 -235 86 -386 58 -102 182 -250 290 -345 48 -43 85 -84 84 -93 0 -12 3 -15 11 -8 8 7 31 -5 73 -35 220 -160 524 -317 836 -429 341 -124 777 -223 1296 -295 470 -65 1049 -72 1318 -16 60 13 88 13 165 4 110 -14 317 -16 444 -5 l93 7 11 -28 c65 -173 206 -335 362 -414 101 -52 467 -173 587 -194 52 -9 159 -19 237 -22 500 -20 893 174 1172 577 40 58 78 105 84 105 7 0 65 -35 131 -78 437 -288 973 -491 1556 -588 570 -95 1200 -49 1685 121 279 98 455 185 699 342 90 58 327 231 322 235 -2 3 -33 -10 -67 -28 -164 -82 -382 -157 -684 -234 -360 -92 -574 -116 -1065 -122 -325 -4 -409 -2 -625 17 -733 62 -1248 189 -1767 433 -65 31 -118 60 -118 64 0 5 4 13 9 19 4 5 31 68 60 140 212 544 276 1277 166 1914 -129 753 -502 1378 -1072 1797 -57 42 -103 79 -103 82 0 3 56 24 123 45 123 40 361 155 632 305 185 103 528 270 675 329 310 124 603 196 895 222 139 13 675 6 905 -10 121 -9 212 -30 285 -67 39 -20 29 -10 -80 74 -127 98 -200 146 -280 183 -246 112 -361 135 -675 135 -247 0 -370 -16 -636 -80 -174 -42 -415 -128 -627 -224 -88 -39 -94 -39 -32 2 211 140 609 329 955 454 564 202 1124 312 1850 364 255 18 703 16 825 -4 104 -17 178 -38 203 -59 20 -17 173 -336 253 -528 22 -52 51 -120 64 -150 34 -79 165 -453 213 -605 187 -597 288 -1157 313 -1725 26 -615 -54 -1208 -287 -2120 -55 -214 -128 -472 -163 -576 -10 -30 -15 -54 -11 -54 12 0 124 123 158 172 235 342 467 1182 522 1888 6 80 14 161 17 180 6 34 7 33 14 -20 17 -111 89 -742 113 -980 80 -784 114 -1368 123 -2065 14 -1157 -61 -2036 -263 -3104 -169 -894 -449 -1859 -786 -2714 l-90 -228 -71 -53 c-149 -110 -257 -174 -373 -221 -367 -147 -637 -222 -1069 -299 -354 -62 -545 -86 -955 -117 -364 -28 -956 -21 -1370 16 -1464 132 -3013 626 -4390 1400 -660 371 -1285 824 -1734 1255 -313 301 -548 560 -821 905 -420 531 -496 618 -606 688 -65 41 -60 24 -79 292 -5 77 -12 165 -16 196 -5 51 -4 56 18 66 l23 12 -22 0 c-22 1 -23 5 -23 86 0 47 -1 88 -1 92 -3 13 24 21 133 41 88 16 131 31 233 80 114 56 133 69 226 159 154 149 253 314 329 542 53 160 71 275 77 485 9 314 -41 601 -164 930 -154 412 -375 712 -610 830 -29 15 -53 29 -53 31 0 3 7 21 14 40 8 19 13 35 11 35 -2 0 -21 -12 -42 -26 -59 -41 -239 -128 -333 -162 -227 -82 -364 -104 -655 -106 -239 -1 -343 12 -500 61 -302 95 -566 328 -720 633 -41 81 -100 229 -121 300 -7 25 -22 77 -33 116 -11 40 -39 154 -61 255 -91 411 -91 410 -152 618 -82 274 -182 486 -315 664 -24 31 -43 60 -43 63 0 4 31 39 69 79 37 39 112 128 167 196 188 237 209 262 284 337 176 177 458 347 738 446 135 47 283 84 582 145 224 45 318 68 422 102 21 7 41 9 45 6 3 -4 -2 -26 -13 -49 -26 -59 -27 -240 -1 -314 63 -182 253 -345 537 -461 213 -87 399 -142 785 -231 309 -72 654 -129 880 -147 161 -12 939 -27 880 -17 -11 2 -159 50 -330 107 -316 105 -533 162 -970 256 -880 188 -1429 389 -1569 571 -60 80 -88 195 -67 276 l12 43 172 -7 c369 -13 446 -21 697 -69 239 -45 448 -81 1430 -246 554 -93 926 -135 1245 -142 116 -3 251 -2 300 2 l90 6 -115 32 c-338 93 -689 161 -1222 237 l-297 43 -53 46 c-123 105 -287 275 -321 333 -79 132 -112 279 -88 395 13 62 61 129 92 129 14 0 19 7 19 25 0 98 -127 145 -227 84 -41 -26 -89 -99 -111 -169 -25 -84 -22 -281 7 -385 31 -113 100 -248 167 -329 l58 -69 -34 5 c-19 3 -214 28 -432 54 -219 27 -398 52 -398 56 0 3 21 16 48 29 71 34 166 135 204 215 55 117 51 285 -10 397 -45 84 -154 165 -243 182 -27 5 -41 16 -62 49 -90 143 -345 299 -612 375 -642 182 -1639 -5 -2167 -408 -133 -100 -148 -114 -123 -108 11 3 47 17 80 31 129 54 596 192 810 239 482 107 953 129 1318 62 251 -47 456 -126 593 -229 68 -51 74 -61 105 -191 33 -142 10 -258 -63 -320 -45 -38 -133 -79 -208 -99 -36 -9 -184 -25 -330 -36 -146 -11 -293 -24 -327 -29 -34 -5 -122 -7 -195 -4 -184 8 -492 -25 -773 -83 -470 -96 -939 -344 -1234 -652 -34 -37 -132 -153 -216 -258 -171 -214 -270 -324 -292 -324 -8 0 -12 -4 -9 -9 8 -13 -132 -140 -239 -216 -112 -80 -266 -157 -370 -186 -69 -18 -86 -20 -130 -10 -156 35 -493 188 -665 301 -356 234 -587 553 -709 975 -76 266 -97 647 -51 944 16 100 65 249 105 316 49 83 109 134 238 201 61 32 106 59 99 62 -22 7 -12 20 21 28 143 31 425 147 718 295 107 54 203 99 213 99 10 0 71 -26 137 -59 65 -32 119 -58 119 -56 0 1 -36 39 -80 83 -44 45 -80 85 -80 90 0 4 31 25 70 45 186 101 506 315 910 608 388 281 632 409 935 489 278 73 503 92 950 81 298 -7 300 -7 365 -35 101 -43 141 -65 189 -104 44 -35 104 -119 96 -132 -2 -4 -46 4 -97 16 -130 33 -280 60 -443 81 -203 26 -667 25 -815 -1 -340 -59 -585 -162 -790 -330 -62 -52 -210 -198 -210 -209 0 -5 24 11 53 36 116 98 233 160 407 217 320 106 808 117 1460 35 478 -60 808 -157 942 -274 77 -69 91 -99 99 -223 5 -72 13 -117 23 -133 24 -37 4 -37 -50 -1 -192 128 -435 212 -729 252 -254 34 -631 21 -925 -32 -474 -85 -937 -311 -1220 -596 -108 -109 -168 -218 -120 -218 6 0 8 4 5 10 -17 27 103 135 237 213 123 73 362 171 518 214 770 211 1522 213 1972 5 116 -53 199 -111 284 -197 93 -93 135 -178 172 -345 39 -172 70 -212 138 -177 16 8 88 24 159 37 330 56 657 171 1014 357 283 146 405 219 716 426 715 476 1577 1259 2175 1977 575 691 1004 1447 1290 2277 88 255 197 664 245 918 30 160 31 165 43 165 5 0 49 -17 98 -38z m-13283 -279 c51 -337 163 -846 243 -1105 99 -324 171 -532 277 -808 197 -513 517 -1147 792 -1570 95 -148 96 -148 39 -110 -64 45 -141 73 -180 67 -26 -4 -37 0 -60 25 -151 159 -425 49 -558 -224 -75 -153 -107 -374 -72 -506 7 -29 11 -52 9 -52 -2 0 -29 39 -60 88 -31 48 -81 125 -111 172 -469 721 -821 1434 -1035 2095 -61 189 -92 303 -156 575 -65 275 -128 796 -119 979 l3 64 62 38 c35 21 102 59 150 85 49 25 93 50 98 54 38 29 618 310 640 310 6 0 23 -78 38 -177z m15252 -578 c22 0 77 4 123 9 l82 8 0 -28 c0 -41 -76 -164 -101 -164 -4 0 -43 30 -86 68 -43 37 -94 79 -113 95 l-35 27 45 -7 c25 -5 63 -8 85 -8z m-17481 -213 c-5 -5 -52 -44 -104 -87 -52 -43 -117 -99 -143 -123 -27 -24 -51 -42 -53 -39 -9 9 64 142 94 170 16 16 69 43 118 61 83 31 110 37 88 18z m8521 -618 c142 -6 156 -9 152 -24 -6 -23 17 -33 145 -65 182 -47 314 -123 463 -270 192 -188 295 -377 310 -566 9 -109 -8 -238 -34 -259 -32 -26 -62 -97 -60 -143 3 -54 -32 -120 -112 -216 -139 -165 -295 -231 -549 -231 -209 0 -393 31 -557 94 -283 108 -444 295 -504 585 -46 226 -2 520 109 721 97 177 245 313 403 370 30 11 60 17 66 15 7 -2 83 -7 168 -11z m6741 -48 c11 -8 47 -22 79 -31 124 -36 207 -100 245 -188 70 -160 -36 -365 -204 -399 -141 -28 -274 51 -301 179 -19 92 47 321 122 421 27 36 31 37 59 18z m-11956 -2157 c0 -5 4 -7 10 -4 10 6 44 -24 72 -65 17 -25 17 -25 17 -3 l1 22 35 -20 c57 -34 125 -106 148 -157 15 -33 21 -66 21 -112 0 -56 -6 -78 -42 -152 -91 -189 -236 -249 -428 -177 -35 13 -77 40 -104 65 l-45 43 1 103 c2 162 55 297 155 397 53 52 159 93 159 60z m525 -294 c56 -78 258 -324 340 -415 22 -25 89 -95 149 -157 l108 -111 -61 5 c-45 4 -66 2 -84 -10 -28 -18 -44 -66 -26 -77 7 -5 -2 -11 -22 -15 -167 -36 -289 -218 -289 -432 0 -48 -3 -64 -12 -60 -187 79 -239 90 -408 90 -92 0 -159 -5 -210 -17 -69 -16 -76 -16 -85 -1 -5 9 -24 38 -40 63 -17 26 -79 130 -140 232 -60 102 -135 225 -167 274 -32 49 -56 91 -54 94 3 2 24 -12 48 -33 52 -44 182 -108 258 -126 141 -33 305 -7 417 68 189 125 277 426 207 703 -9 32 -1 24 71 -75z m766 -831 c31 -37 221 -185 318 -248 60 -39 100 -71 95 -76 -17 -16 -485 -262 -490 -257 -3 3 10 26 29 51 62 80 81 145 81 276 1 120 2 115 -61 258 -8 18 12 15 28 -4z m-97 -52 c8 -15 17 -48 21 -73 12 -82 -53 -230 -131 -299 -28 -24 -44 -30 -82 -30 -57 0 -109 29 -118 65 -10 40 4 130 27 181 28 58 78 99 155 124 34 12 70 30 79 40 24 26 32 25 49 -8z m7978 -113 c102 -5 158 -13 182 -24 111 -53 171 -280 114 -432 -30 -82 -130 -181 -213 -212 -52 -20 -74 -22 -162 -19 -89 4 -110 9 -166 36 -109 54 -160 147 -161 287 0 70 4 90 32 148 36 77 126 211 155 232 15 10 26 11 46 3 14 -6 92 -14 173 -19z m-8685 -544 c119 -15 247 -47 258 -65 3 -5 -11 -14 -32 -20 -65 -18 -220 -40 -237 -34 -11 4 -15 2 -11 -8 9 -22 69 -47 131 -54 l55 -7 -70 -71 c-39 -39 -83 -88 -97 -110 -178 -262 -279 -629 -291 -1049 -9 -304 24 -508 124 -777 150 -402 480 -779 823 -939 239 -112 441 -143 776 -121 354 23 441 45 496 127 25 37 71 63 86 49 9 -9 -47 -157 -109 -285 -106 -222 -246 -410 -392 -529 -192 -156 -442 -270 -707 -323 -124 -25 -435 -39 -466 -21 -16 10 -13 11 19 12 57 0 44 14 -31 32 -80 19 -182 64 -182 81 0 6 42 54 93 105 l92 94 -113 -81 c-63 -45 -122 -81 -131 -81 -38 0 -252 180 -382 320 -306 331 -562 782 -733 1293 -171 511 -223 971 -156 1374 60 367 213 683 424 880 104 97 260 184 359 200 33 5 43 2 69 -23 l32 -29 -17 27 c-9 15 -17 29 -17 32 0 19 185 20 337 1z m-6312 -765 c184 -12 280 -23 548 -61 259 -37 272 -41 192 -63 -496 -135 -826 -315 -1115 -606 -121 -122 -287 -342 -314 -415 -8 -23 -11 -26 49 50 217 275 726 569 1184 685 234 59 472 86 896 102 l320 11 75 -22 c41 -13 106 -36 144 -52 38 -16 70 -28 72 -27 1 2 -29 21 -67 43 -38 22 -69 44 -69 49 0 5 137 5 323 1 1052 -24 1725 -21 1982 10 167 20 346 56 464 94 47 16 88 27 90 25 2 -2 -4 -43 -13 -91 -54 -305 -48 -710 18 -1060 81 -425 251 -889 465 -1266 62 -108 108 -178 209 -317 65 -88 494 -521 566 -569 l49 -34 -22 -16 c-12 -10 -95 -59 -184 -111 -89 -52 -227 -135 -307 -185 -584 -367 -1136 -678 -1725 -972 -176 -89 -342 -171 -370 -183 -27 -13 -97 -45 -155 -72 -58 -27 -195 -89 -305 -138 -928 -409 -1630 -637 -2326 -755 -178 -30 -187 -30 -215 -4 -37 35 -92 30 -156 -12 -40 -28 -71 -39 -130 -49 -42 -7 -88 -10 -102 -6 -48 12 -340 319 -546 574 -47 59 -125 153 -172 210 -306 365 -580 872 -718 1330 l-22 73 22 117 c19 97 59 233 95 327 5 11 6 18 3 15 -15 -14 -108 -152 -134 -197 -16 -29 -32 -53 -35 -53 -18 0 -81 325 -113 585 -41 327 -46 856 -12 1168 69 620 228 1176 482 1682 47 94 90 176 96 183 13 15 753 17 983 2z m16784 -750 c151 -17 325 -71 475 -147 44 -22 48 -27 33 -38 -26 -19 -20 -25 14 -13 37 13 60 3 183 -74 669 -426 1071 -1070 1190 -1908 79 -549 20 -1086 -171 -1554 -24 -60 -51 -122 -59 -138 l-15 -30 -32 25 c-18 13 -44 48 -59 77 -22 42 -28 47 -28 27 0 -34 26 -105 55 -149 14 -21 25 -42 25 -48 0 -21 -130 -231 -202 -328 -85 -113 -222 -252 -312 -317 -94 -67 -230 -131 -342 -161 -82 -22 -128 -27 -264 -31 -190 -6 -203 -3 -290 72 -30 26 -80 69 -110 95 -30 26 -80 67 -110 91 -77 61 -261 241 -257 252 1 5 45 22 97 37 336 96 592 233 742 395 34 36 88 140 88 168 0 11 31 67 70 124 122 181 190 343 232 558 28 141 30 398 4 550 -114 682 -565 1349 -1198 1774 -79 53 -79 52 -94 146 -13 88 -74 225 -140 318 -38 53 -37 63 13 108 78 73 169 104 368 128 6 0 48 -3 94 -9z m-4987 -3867 c170 -212 293 -451 383 -748 148 -485 161 -888 39 -1225 -56 -156 -189 -384 -298 -510 -26 -30 -65 -80 -86 -111 -45 -65 -227 -269 -240 -269 -5 0 -10 28 -12 63 l-3 62 -26 -50 c-15 -27 -33 -69 -40 -93 -11 -37 -20 -47 -61 -68 -26 -13 -48 -26 -48 -27 0 -1 19 -1 41 1 40 4 41 3 36 -19 -3 -13 -11 -50 -17 -81 -6 -32 -15 -60 -19 -62 -11 -7 -125 18 -236 54 -268 84 -623 248 -748 343 -27 20 -52 37 -57 37 -16 0 -202 154 -280 231 -213 211 -391 476 -485 724 -147 389 -110 837 104 1264 63 125 139 241 158 241 7 0 36 -11 63 -25 136 -69 323 -119 505 -135 221 -20 488 17 699 96 204 77 460 237 528 328 18 25 36 45 39 46 4 0 31 -30 61 -67z"/>
<path d="M15747 43880 c-148 -57 -280 -226 -328 -420 -30 -118 -23 -298 15 -416 66 -205 265 -401 466 -458 43 -12 96 -15 245 -13 189 3 191 3 265 35 142 61 279 186 353 322 100 185 114 418 37 623 -48 128 -162 257 -277 314 -64 32 -78 35 -132 31 -47 -3 -71 -11 -103 -34 -55 -38 -59 -54 -16 -54 61 0 131 -27 172 -67 100 -96 146 -217 146 -379 0 -270 -76 -382 -382 -563 l-86 -51 -127 78 c-230 139 -314 250 -337 441 -19 165 13 306 97 420 55 74 112 109 193 117 34 4 62 10 62 14 0 13 -46 49 -82 65 -50 20 -122 18 -181 -5z"/>
<path d="M10526 38159 c-105 -37 -165 -87 -215 -181 -39 -76 -47 -144 -26 -233 33 -143 99 -234 205 -283 78 -37 211 -43 307 -14 137 42 255 143 288 248 52 167 -45 374 -212 452 -51 23 -73 27 -173 29 -96 3 -125 0 -174 -18z m237 -288 c15 -8 37 -35 48 -59 20 -40 20 -44 5 -67 -23 -34 -65 -54 -154 -71 -100 -19 -170 -16 -183 7 -15 28 -11 91 9 129 39 77 189 111 275 61z"/>
<path d="M21404 38141 c-33 -9 -76 -27 -96 -39 -55 -34 -127 -117 -156 -180 -23 -49 -27 -70 -27 -152 0 -87 3 -100 30 -149 53 -95 183 -186 306 -212 85 -18 205 -7 273 27 176 86 264 342 176 515 -83 162 -308 247 -506 190z m266 -301 c64 -32 88 -85 76 -164 l-7 -45 -82 3 c-161 6 -276 60 -261 123 10 43 51 92 87 102 46 15 140 5 187 -19z"/>
<path d="M18532 39359 c-500 -44 -912 -252 -1205 -607 -235 -285 -356 -614 -247 -672 36 -19 63 -4 110 62 140 197 434 419 650 491 162 55 411 84 610 72 162 -9 409 -41 510 -65 47 -12 136 -32 199 -46 62 -13 152 -38 200 -54 47 -17 133 -39 191 -50 58 -11 139 -31 180 -44 41 -13 107 -33 145 -44 103 -31 175 -82 253 -177 17 -22 32 -33 32 -25 0 36 -135 442 -163 490 -43 74 -187 257 -244 311 -63 61 -124 102 -243 166 -196 106 -369 158 -630 187 -145 17 -203 18 -348 5z"/>
<path d="M13685 39204 c-16 -3 -79 -11 -140 -20 -201 -28 -305 -60 -472 -145 -175 -88 -223 -121 -347 -233 -81 -74 -330 -355 -322 -364 2 -2 24 12 49 31 70 53 144 93 232 123 78 28 85 28 300 29 289 0 504 -17 756 -59 329 -56 601 -132 899 -253 171 -69 230 -102 307 -174 34 -31 78 -62 98 -69 71 -23 150 11 187 82 33 63 31 197 -4 290 -119 315 -484 580 -968 704 -147 37 -481 71 -575 58z"/>
<path d="M16133 38881 c-148 -51 -252 -193 -261 -357 -5 -94 15 -154 64 -193 71 -56 184 -112 255 -127 223 -48 378 49 410 257 23 150 0 245 -81 333 -87 94 -257 132 -387 87z"/>
<path d="M13575 38010 c-340 -69 -638 -250 -881 -533 -46 -54 -106 -130 -133 -170 -45 -67 -121 -207 -121 -224 0 -4 26 30 57 76 66 97 226 268 331 354 190 155 443 270 699 318 139 25 380 28 501 4 314 -61 547 -219 698 -475 24 -41 44 -81 44 -88 0 -7 -26 20 -59 60 -153 191 -343 321 -550 375 -133 35 -395 43 -556 19 -209 -33 -358 -79 -521 -161 -148 -75 -234 -135 -338 -234 -141 -136 -199 -237 -276 -479 -48 -152 -70 -190 -123 -216 -75 -36 -248 -18 -327 36 -45 31 -70 67 -86 125 l-13 48 0 -60 c-1 -79 23 -129 88 -187 114 -103 330 -137 455 -73 15 8 31 15 35 15 4 0 27 -28 51 -61 78 -108 213 -211 375 -289 374 -179 1023 -243 1425 -140 266 68 520 218 637 374 47 64 48 65 68 47 65 -59 141 -54 205 14 20 21 25 39 28 96 5 83 -15 146 -58 182 -86 72 -229 10 -218 -95 3 -30 13 -40 52 -53 18 -5 18 -7 -4 -30 -62 -66 -478 -287 -656 -348 -391 -135 -910 -128 -1359 20 -182 60 -401 180 -484 266 l-34 36 52 68 c28 37 85 136 126 218 83 165 148 253 240 328 59 47 184 127 199 127 5 0 -6 -16 -23 -35 -73 -83 -105 -188 -104 -340 1 -171 49 -295 161 -416 99 -107 295 -216 465 -259 106 -26 261 -28 352 -5 155 40 335 160 432 290 64 85 138 234 166 335 12 44 25 80 28 80 4 0 62 -86 130 -190 80 -122 129 -189 139 -188 22 5 50 92 57 177 4 58 1 96 -15 161 -11 47 -23 132 -26 190 -8 142 -42 267 -110 403 -140 283 -381 452 -730 512 -125 21 -374 19 -491 -5z m145 -558 c0 -5 -11 -14 -24 -20 -81 -37 -146 -139 -146 -231 0 -86 18 -130 80 -192 78 -79 142 -103 280 -103 94 -1 111 2 154 24 64 33 102 81 131 169 31 91 33 187 5 249 -10 23 -16 42 -12 42 14 0 28 -16 45 -54 10 -22 46 -77 79 -123 56 -78 61 -87 60 -136 -1 -105 -113 -333 -216 -440 -167 -173 -325 -215 -540 -143 -242 82 -377 201 -419 371 -48 189 -20 376 72 474 41 43 203 88 416 114 17 2 31 5 33 6 1 0 2 -3 2 -7z m188 1 c-2 -5 -12 -25 -23 -46 l-20 -39 40 -37 c22 -20 51 -44 64 -54 24 -16 24 -18 13 -68 -17 -71 -25 -79 -86 -79 -68 1 -133 30 -142 65 -11 45 15 137 58 198 11 16 10 21 -9 37 -13 10 -23 21 -23 24 0 3 30 6 66 6 36 0 64 -3 62 -7z"/>
<path d="M18345 38005 c-350 -65 -595 -239 -730 -520 -64 -132 -95 -247 -105 -395 -5 -69 -16 -150 -24 -180 -18 -63 -21 -211 -5 -261 22 -68 32 -89 43 -89 11 0 103 132 213 304 l57 88 31 -100 c35 -110 99 -242 150 -312 70 -94 192 -199 290 -248 133 -67 259 -90 400 -72 273 33 551 198 657 390 58 104 72 166 73 315 0 114 -3 138 -25 194 -13 36 -39 85 -58 109 -18 24 -32 46 -29 48 6 6 120 -66 183 -115 88 -68 165 -174 250 -343 79 -159 101 -195 142 -240 34 -37 24 -56 -64 -121 -283 -212 -691 -326 -1167 -327 -404 0 -688 87 -1112 340 -152 91 -207 140 -157 140 29 0 42 21 42 65 0 88 -118 145 -197 96 -57 -36 -94 -142 -79 -225 9 -49 59 -103 105 -116 44 -12 94 0 126 30 l22 21 36 -48 c127 -173 390 -330 654 -392 165 -38 281 -51 468 -51 476 1 919 120 1174 317 67 52 158 149 187 198 10 18 12 18 65 -5 69 -31 203 -34 293 -6 155 46 270 182 238 280 -10 30 -10 30 -11 6 -3 -65 -88 -146 -180 -170 -66 -17 -189 -16 -233 3 -44 18 -77 72 -108 172 -65 213 -102 298 -175 400 -133 188 -387 361 -664 455 -171 58 -374 90 -573 90 -209 0 -408 -52 -554 -145 -87 -56 -202 -156 -264 -231 -101 -122 -105 -125 -65 -49 117 221 306 387 532 468 147 52 214 62 428 62 183 -1 210 -3 319 -29 210 -49 377 -121 551 -239 113 -76 331 -292 409 -404 32 -46 60 -83 62 -83 17 0 -92 189 -165 285 -249 330 -575 548 -942 630 -105 24 -407 29 -514 10z m288 -561 c3 -4 -4 -14 -16 -24 l-21 -18 32 -63 c58 -115 56 -167 -8 -199 -26 -13 -59 -20 -100 -20 -67 0 -73 6 -86 91 -6 35 -4 42 17 57 13 9 41 32 62 51 39 36 42 56 10 93 -8 9 -12 22 -8 27 7 12 107 15 118 5z m282 -34 c50 -10 119 -29 155 -42 60 -21 68 -28 106 -86 53 -81 69 -156 61 -296 -13 -224 -90 -339 -299 -447 -278 -142 -486 -117 -674 83 -69 73 -109 134 -160 244 -50 106 -69 180 -60 228 4 19 34 71 67 117 34 46 70 103 80 127 10 23 25 42 34 42 13 0 12 -7 -7 -42 -30 -58 -30 -149 0 -246 28 -90 79 -150 154 -182 46 -20 65 -22 153 -18 113 5 170 25 242 84 89 73 121 177 89 286 -18 62 -69 123 -133 158 l-38 21 70 -6 c39 -3 111 -14 160 -25z"/>
<path d="M10420 36399 c-121 -48 -185 -223 -146 -394 32 -137 117 -245 265 -339 40 -26 75 -46 77 -44 1 2 -10 23 -26 46 -37 55 -92 189 -115 277 -23 88 -24 188 -2 238 14 32 20 37 50 37 98 0 226 -74 314 -179 68 -83 192 -268 242 -363 21 -40 47 -104 56 -141 25 -95 38 -65 33 72 -6 124 -30 205 -108 362 -120 242 -237 361 -412 420 -62 21 -185 25 -228 8z"/>
<path d="M21645 36383 c-112 -16 -236 -84 -322 -175 -120 -129 -246 -374 -279 -548 -15 -73 -11 -204 5 -215 4 -2 15 28 25 68 9 40 32 100 51 133 89 162 243 375 317 439 68 58 158 97 225 99 51 1 58 -2 70 -24 17 -34 16 -173 -2 -242 -22 -85 -79 -221 -115 -274 -17 -25 -30 -48 -28 -49 2 -2 40 19 85 46 222 135 318 360 247 580 -36 114 -152 181 -279 162z"/>
<path d="M10930 35651 c-16 -31 -12 -58 22 -134 27 -60 32 -85 33 -147 0 -41 -3 -87 -8 -103 -4 -15 -47 -67 -95 -115 -95 -94 -112 -127 -112 -216 0 -87 24 -122 141 -208 77 -57 119 -108 119 -147 0 -17 -6 -21 -29 -21 -36 0 -71 39 -97 105 -20 53 -33 53 -53 1 -45 -118 120 -263 258 -226 61 16 86 59 85 140 -3 115 -51 197 -176 296 -47 38 -68 62 -68 77 0 23 33 85 54 102 7 6 29 31 48 57 85 111 67 315 -42 473 -38 55 -32 70 18 50 l37 -15 -28 25 c-35 31 -91 34 -107 6z"/>
<path d="M21194 35636 c-32 -14 -62 -45 -33 -34 63 24 81 16 50 -23 -74 -95 -116 -228 -109 -344 5 -82 20 -114 93 -202 75 -91 78 -109 24 -153 -106 -86 -165 -154 -187 -216 -41 -109 -25 -209 39 -241 55 -28 153 -11 212 38 73 60 97 150 55 204 l-21 27 -20 -53 c-26 -72 -52 -99 -94 -99 -25 0 -33 4 -33 18 0 34 57 98 138 155 64 45 85 66 106 108 30 62 32 92 9 168 -14 47 -30 69 -99 138 -92 91 -104 117 -104 222 0 51 7 78 35 141 40 89 43 112 15 140 -23 23 -34 24 -76 6z"/>
<path d="M16811 35363 c-46 -32 -17 -96 106 -230 75 -83 138 -178 153 -232 5 -20 10 -69 10 -109 l0 -72 -52 -25 c-29 -13 -102 -45 -163 -71 -60 -26 -124 -57 -141 -68 -46 -31 -138 -107 -142 -117 -5 -13 238 -2 364 16 204 31 285 72 330 169 62 132 -2 384 -139 547 -81 97 -200 184 -278 202 -16 4 -34 0 -48 -10z"/>
<path d="M15164 35281 c-62 -28 -176 -141 -214 -212 -111 -209 -63 -397 125 -490 60 -29 71 -31 231 -39 153 -7 180 -11 286 -44 80 -24 137 -36 178 -36 33 0 60 2 60 4 0 23 -41 88 -79 125 -97 95 -241 141 -439 141 -59 0 -123 5 -142 10 -42 12 -95 64 -104 103 -10 42 12 156 43 222 29 63 117 206 133 216 5 3 2 9 -7 13 -23 8 -25 8 -71 -13z"/>
<path d="M16783 33720 c-117 -21 -244 -104 -354 -232 -56 -65 -67 -73 -94 -70 -21 2 -65 -14 -140 -50 l-110 -53 -100 0 c-132 1 -149 10 -199 109 -44 87 -135 180 -214 220 -152 77 -343 76 -496 -1 -114 -58 -191 -123 -321 -273 -73 -84 -91 -98 -150 -123 -121 -51 -234 -27 -275 58 -11 23 -20 53 -20 68 0 33 -14 42 -31 20 -10 -11 -14 -44 -14 -102 0 -83 1 -89 33 -128 49 -63 117 -92 232 -99 93 -6 96 -7 130 -43 87 -89 229 -191 302 -217 54 -19 63 -27 90 -81 42 -84 127 -133 231 -133 34 0 89 -9 122 -19 98 -31 259 -61 409 -77 194 -21 554 -20 721 1 274 34 545 118 702 218 49 31 63 33 63 12 0 -28 28 -70 55 -85 61 -33 133 -6 159 61 9 23 23 39 32 39 28 0 75 34 97 70 11 19 38 58 58 85 38 50 109 189 109 212 0 6 42 52 93 102 64 63 88 93 80 99 -10 6 -10 24 2 86 8 43 15 80 15 82 0 11 -165 -81 -232 -128 -41 -30 -104 -69 -140 -88 l-66 -34 -43 29 c-24 16 -118 104 -209 196 -91 91 -188 182 -216 201 -90 63 -201 87 -311 68z m156 -149 c47 -25 141 -98 141 -111 0 -6 -24 -10 -53 -10 -128 0 -304 -90 -417 -213 -163 -177 -250 -244 -364 -280 -58 -18 -92 -22 -191 -21 -66 1 -139 7 -163 13 -25 7 -87 45 -150 92 -222 165 -289 211 -367 250 l-80 41 -209 -5 -208 -5 52 54 c67 67 142 119 222 153 54 22 77 26 163 26 91 0 107 -3 175 -33 102 -44 230 -137 252 -183 55 -117 239 -178 398 -133 30 8 80 22 110 31 92 25 131 52 261 178 124 122 174 156 246 175 52 13 137 4 182 -19z m-1630 -458 c36 -20 80 -46 96 -59 54 -40 150 -83 221 -99 38 -9 94 -25 124 -36 102 -38 228 -59 356 -59 148 0 208 16 356 96 295 158 442 180 688 104 l100 -31 0 -37 c0 -31 -7 -45 -37 -74 -48 -45 -93 -68 -217 -107 -175 -56 -380 -97 -618 -122 -205 -22 -608 -2 -855 41 -190 34 -385 118 -367 158 4 9 9 72 12 140 l4 122 36 0 c22 0 60 -14 101 -37z"/>
<path d="M14865 32707 c15 -262 192 -543 469 -741 487 -348 1218 -368 1697 -46 98 66 218 193 260 275 48 92 80 242 59 275 -9 13 -10 13 -10 0 0 -31 -59 -138 -110 -199 -131 -158 -416 -310 -691 -369 -267 -58 -528 -50 -784 23 -103 30 -302 123 -402 188 -270 175 -428 379 -478 617 l-14 65 4 -88z"/>
<path d="M9342 28020 c-142 -29 -315 -172 -407 -335 -85 -153 -96 -336 -28 -475 34 -70 141 -175 220 -217 92 -49 177 -66 313 -60 91 3 129 9 184 30 131 49 219 130 267 247 32 79 33 242 1 319 -57 137 -196 298 -309 358 -55 30 -57 32 -30 38 31 8 34 17 10 41 -44 43 -147 68 -221 54z m10 -249 c18 -15 60 -45 93 -66 33 -21 90 -69 127 -107 153 -157 169 -302 40 -361 -40 -18 -66 -22 -167 -22 -145 0 -200 14 -259 66 -58 51 -70 83 -64 175 4 62 12 89 46 157 38 76 122 187 142 187 5 0 24 -13 42 -29z"/>
<path d="M9819 26376 c-137 -37 -302 -198 -372 -363 -102 -242 -33 -451 186 -557 96 -47 174 -66 272 -66 98 1 152 12 230 51 313 154 378 592 123 826 -68 62 -122 86 -198 89 -36 2 -83 10 -105 18 -48 18 -75 19 -136 2z m240 -221 c82 -60 116 -125 108 -206 -10 -109 -78 -218 -161 -258 -83 -41 -231 -18 -295 46 -33 33 -34 35 -29 102 4 52 13 83 42 137 40 76 110 157 170 198 57 38 92 34 165 -19z"/>
<path d="M16179 26886 c-26 -7 -61 -24 -78 -39 -18 -15 -49 -31 -69 -37 -89 -23 -203 -111 -268 -206 -132 -191 -109 -419 57 -586 109 -109 229 -158 384 -158 194 0 355 90 428 240 104 213 10 569 -193 729 -81 64 -166 83 -261 57z m114 -219 c41 -18 99 -82 134 -149 21 -43 27 -67 27 -123 0 -95 -28 -155 -92 -193 -42 -24 -57 -27 -137 -27 -109 0 -181 22 -238 74 -50 45 -67 85 -67 158 0 94 72 223 124 223 12 0 55 11 96 24 89 29 110 30 153 13z"/>
<path d="M15805 17073 c-97 -21 -176 -82 -203 -156 -20 -53 -35 -157 -22 -157 3 0 26 9 50 21 122 59 278 71 405 32 188 -59 349 -213 412 -394 49 -142 41 -407 -18 -564 -37 -99 -108 -157 -224 -184 -254 -57 -504 -18 -698 108 -177 116 -236 241 -237 497 0 205 38 351 129 489 50 76 168 199 231 241 58 38 42 40 -29 4 -252 -127 -392 -295 -475 -570 -77 -259 -74 -463 9 -638 145 -306 496 -492 885 -468 335 20 563 149 648 366 33 83 42 149 42 299 0 295 -53 509 -171 682 -56 83 -158 190 -236 245 -153 110 -373 175 -498 147z"/>
<path d="M15855 16596 c-60 -28 -105 -94 -105 -156 0 -21 -14 -43 -58 -87 -195 -196 -137 -454 118 -519 181 -46 362 33 451 198 32 60 34 68 34 163 0 91 -3 106 -31 166 -36 76 -124 171 -197 214 -58 34 -163 44 -212 21z"/>
<path d="M15623 49750 c-23 -5 -55 -16 -71 -24 -42 -22 -92 -82 -92 -112 0 -16 -16 -44 -41 -72 -22 -26 -59 -75 -81 -109 -22 -35 -44 -61 -48 -58 -4 2 -10 23 -14 46 -15 91 -90 198 -169 237 -160 80 -308 33 -506 -158 -55 -54 -81 -119 -81 -206 0 -88 23 -144 79 -197 59 -55 111 -82 193 -102 81 -19 228 -19 273 -1 18 8 35 12 38 10 2 -3 -9 -37 -25 -77 -216 -532 -289 -1149 -207 -1747 110 -796 424 -1381 852 -1593 124 -62 145 -68 299 -93 102 -16 114 -16 215 0 150 24 204 40 314 97 311 160 571 533 727 1044 102 335 152 678 152 1052 0 428 -64 788 -211 1176 -27 72 -48 132 -46 133 2 2 25 -3 52 -11 94 -29 249 -13 352 35 156 72 219 218 163 377 -22 63 -41 87 -118 147 -30 22 -72 56 -95 74 -23 17 -73 42 -111 53 -192 60 -361 -47 -418 -264 l-13 -48 -49 75 c-27 41 -65 90 -83 108 -28 27 -23 16 29 -62 72 -109 99 -167 123 -263 13 -48 31 -86 63 -130 49 -67 108 -223 156 -415 234 -932 19 -2000 -526 -2622 -78 -89 -475 -476 -530 -516 -17 -13 -37 -24 -44 -24 -12 0 -91 73 -358 330 -457 439 -699 945 -792 1655 -12 90 -17 204 -18 370 0 327 22 518 95 807 55 214 106 351 157 419 44 58 65 106 77 178 4 24 16 60 28 80 40 72 132 211 140 211 4 0 12 -11 16 -23 10 -26 38 -57 51 -57 5 0 12 10 16 23 14 46 33 57 104 57 50 0 78 -6 111 -23 51 -27 104 -99 122 -164 12 -47 21 -51 53 -25 67 56 80 159 29 250 -16 30 -43 65 -60 79 -71 61 -185 91 -272 73z m-622 -290 c64 -35 64 -168 0 -225 -48 -42 -252 -14 -287 41 -9 13 -18 41 -21 62 l-5 39 47 12 c27 7 77 28 113 47 66 35 117 43 153 24z m2438 -35 c51 -25 101 -45 110 -45 10 0 23 -6 29 -13 14 -17 0 -82 -24 -108 -25 -27 -106 -49 -186 -49 -60 0 -71 3 -99 28 -27 24 -33 37 -37 85 -5 68 10 112 47 132 40 22 61 18 160 -30z"/>
<path d="M16390 49720 c-150 -32 -294 -171 -326 -315 l-7 -30 29 37 c35 44 112 93 198 124 136 49 228 41 363 -32 46 -25 86 -45 90 -45 14 0 22 65 13 102 -14 52 -71 113 -130 138 -59 25 -163 35 -230 21z"/>
<path d="M14385 48613 c-48 -10 -77 -28 -90 -54 -19 -36 -19 -63 0 -79 17 -14 20 -40 5 -40 -5 0 -27 -16 -49 -35 -51 -46 -83 -122 -89 -211 -4 -62 -1 -80 21 -127 31 -69 86 -111 165 -128 122 -25 221 8 316 104 97 98 148 225 132 329 -14 95 -153 201 -303 233 -71 15 -75 16 -108 8z m141 -223 c23 -11 49 -29 59 -40 29 -32 5 -91 -64 -160 -60 -61 -106 -79 -154 -61 -36 14 -47 40 -47 108 0 75 23 121 75 150 50 28 77 29 131 3z"/>
<path d="M17766 48594 c-135 -33 -263 -129 -286 -214 -37 -137 86 -358 236 -427 72 -33 128 -39 206 -23 117 25 187 109 188 226 0 112 -48 223 -116 265 -32 19 -33 22 -19 42 35 50 3 118 -63 137 -47 13 -73 12 -146 -6z m110 -214 c55 -27 74 -67 74 -157 0 -37 -4 -74 -9 -81 -14 -22 -74 -31 -115 -17 -49 17 -71 38 -118 109 -56 87 -53 99 42 148 44 23 74 23 126 -2z"/>
<path d="M14375 47392 c-22 -11 -51 -32 -65 -47 -14 -15 -49 -43 -77 -62 -95 -63 -152 -158 -179 -297 -15 -74 -16 -97 -5 -154 31 -170 162 -266 366 -267 112 0 166 18 231 77 95 88 140 219 132 386 -3 76 -9 99 -40 164 -42 87 -104 160 -162 190 -58 30 -150 34 -201 10z m136 -214 c81 -89 92 -200 30 -297 -19 -28 -46 -58 -62 -66 -64 -34 -180 -8 -206 45 -28 56 -7 231 36 305 18 32 46 41 129 44 37 1 48 -4 73 -31z"/>
<path d="M17703 47380 c-120 -54 -223 -240 -223 -402 0 -76 34 -201 71 -262 84 -137 209 -187 385 -152 227 44 318 188 273 432 -16 91 -60 173 -122 230 -96 87 -161 141 -194 157 -44 23 -137 22 -190 -3z m157 -179 c19 -5 47 -12 61 -15 66 -15 116 -267 68 -344 -21 -33 -57 -47 -124 -47 -78 0 -105 17 -149 95 -39 70 -42 144 -8 210 28 53 59 89 87 100 26 11 25 11 65 1z"/>
<path d="M14769 45820 c-102 -30 -179 -171 -182 -330 -2 -112 22 -171 97 -245 80 -79 146 -106 276 -112 82 -4 103 -2 154 17 75 29 143 91 182 167 26 52 29 68 29 153 0 82 -4 103 -27 152 -31 68 -96 140 -155 175 -56 33 -152 42 -205 20 -31 -13 -41 -13 -75 -2 -43 16 -57 17 -94 5z m124 -114 c12 -8 51 -20 87 -26 77 -14 105 -29 142 -77 32 -41 43 -88 34 -138 -5 -27 -17 -42 -48 -63 -37 -24 -51 -27 -122 -27 -101 0 -152 22 -173 74 -29 68 -3 235 41 263 14 10 13 10 39 -6z"/>
<path d="M17193 45819 c-93 -18 -178 -90 -228 -194 -38 -77 -47 -201 -20 -273 28 -72 60 -118 116 -162 65 -51 113 -65 224 -63 183 2 314 86 375 241 9 22 11 63 7 130 -6 124 -33 197 -98 263 -54 55 -97 68 -168 50 -37 -9 -55 -8 -95 4 -54 16 -53 16 -113 4z m241 -154 c16 -31 21 -58 21 -125 0 -135 -35 -170 -173 -171 -88 -1 -116 7 -154 46 -49 48 -31 151 35 214 17 15 55 30 108 42 45 11 89 24 98 29 27 16 43 7 65 -35z"/>
<path d="M16116 45429 c-48 -12 -103 -45 -116 -70 -9 -15 -15 -17 -36 -9 -48 19 -107 12 -155 -18 -94 -60 -141 -173 -143 -347 -1 -106 0 -113 32 -177 54 -110 147 -174 288 -199 166 -29 303 18 418 143 38 40 80 99 99 137 30 62 32 72 32 176 0 100 -3 116 -28 171 -34 73 -104 145 -170 174 -55 24 -163 34 -221 19z m127 -163 c50 -21 79 -59 84 -110 7 -58 -26 -128 -97 -208 -64 -72 -114 -93 -204 -86 -120 10 -160 56 -160 183 0 59 6 92 21 126 24 55 80 94 121 86 15 -2 47 1 72 8 62 17 124 18 163 1z"/>
</g>
</svg>